<svg xmlns="http://www.w3.org/2000/svg" viewBox="-8445 -600 288 179.926">
  <defs>
    <style>
      .cls-1 {
        fill: #faa444;
      }

      .cls-2 {
        fill: #fff;
      }

      .cls-3 {
        fill: #72cec3;
      }

      .cls-4 {
        fill: #ea563d;
      }

      .cls-5 {
        fill: #1f9396;
      }
    </style>
  </defs>
  <g id="Group_507" data-name="Group 507" transform="translate(-8445 -600)">
    <g id="Group_506" data-name="Group 506" transform="translate(0 11.431)">
      <path id="Path_1732" data-name="Path 1732" class="cls-1" d="M158.872,165.236A15.736,15.736,0,1,1,143.136,149.5a15.744,15.744,0,0,1,15.736,15.736" transform="translate(-32.835 -49.962)"/>
      <path id="Path_1733" data-name="Path 1733" class="cls-2" d="M144.711,165.835c-1.113-2.153-2.449-6.235-6.458-6.235-7.052,0-7.274,12.544,6.458,19.6,13.732-7.052,13.509-19.6,6.458-19.6-4.008-.074-5.344,4.082-6.458,6.235" transform="translate(-34.41 -52.565)"/>
      <path id="Path_1734" data-name="Path 1734" class="cls-1" d="M116.372,165.236A15.736,15.736,0,1,1,100.636,149.5a15.744,15.744,0,0,1,15.736,15.736" transform="translate(-21.881 -49.962)"/>
      <path id="Path_1735" data-name="Path 1735" class="cls-2" d="M102.211,165.835c-1.113-2.153-2.449-6.235-6.458-6.235-7.052,0-7.274,12.544,6.458,19.6,13.732-7.052,13.509-19.6,6.458-19.6-3.934-.074-5.344,4.082-6.458,6.235" transform="translate(-23.456 -52.565)"/>
      <path id="Path_1736" data-name="Path 1736" class="cls-1" d="M137.672,128.536A15.736,15.736,0,1,1,121.936,112.8a15.744,15.744,0,0,1,15.736,15.736" transform="translate(-27.371 -40.503)"/>
      <path id="Path_1737" data-name="Path 1737" class="cls-2" d="M123.411,129.109c-1.113-2.153-2.449-6.309-6.458-6.309-7.052,0-7.274,12.544,6.458,19.6,13.732-7.052,13.509-19.6,6.458-19.6-3.934.074-5.27,4.231-6.458,6.309" transform="translate(-28.92 -43.08)"/>
      <path id="Path_1738" data-name="Path 1738" class="cls-1" d="M95.172,128.536A15.736,15.736,0,1,1,79.436,112.8a15.744,15.744,0,0,1,15.736,15.736" transform="translate(-16.418 -40.503)"/>
      <path id="Path_1739" data-name="Path 1739" class="cls-2" d="M81.011,129.109c-1.113-2.153-2.449-6.309-6.458-6.309-7.052,0-7.274,12.544,6.458,19.6,13.732-7.052,13.509-19.6,6.458-19.6-4.008.074-5.344,4.231-6.458,6.309" transform="translate(-17.992 -43.08)"/>
      <path id="Path_1740" data-name="Path 1740" class="cls-1" d="M61.672,67.636A15.736,15.736,0,1,1,45.936,51.9,15.744,15.744,0,0,1,61.672,67.636" transform="translate(-7.784 -24.807)"/>
      <path id="Path_1741" data-name="Path 1741" class="cls-2" d="M47.511,68.235C46.4,66.082,45.061,62,41.053,62,34,62,33.779,74.544,47.511,81.6,61.243,74.544,61.02,62,53.968,62c-4.008-.074-5.344,4.082-6.458,6.235" transform="translate(-9.358 -27.41)"/>
      <path id="Path_1742" data-name="Path 1742" class="cls-1" d="M52.772,128.536A15.736,15.736,0,1,1,37.036,112.8a15.744,15.744,0,0,1,15.736,15.736" transform="translate(-5.49 -40.503)"/>
      <path id="Path_1743" data-name="Path 1743" class="cls-2" d="M38.511,129.109c-1.113-2.153-2.449-6.309-6.458-6.309-7.052,0-7.274,12.544,6.458,19.6,13.732-7.052,13.509-19.6,6.458-19.6-3.934.074-5.27,4.231-6.458,6.309" transform="translate(-7.039 -43.08)"/>
      <path id="Path_1744" data-name="Path 1744" class="cls-1" d="M31.472,165.236A15.736,15.736,0,1,1,15.736,149.5a15.744,15.744,0,0,1,15.736,15.736" transform="translate(0 -49.962)"/>
      <path id="Path_1745" data-name="Path 1745" class="cls-2" d="M17.311,165.835c-1.113-2.153-2.449-6.235-6.458-6.235-7.052,0-7.274,12.544,6.458,19.6,13.732-7.052,13.509-19.6,6.458-19.6-3.934-.074-5.27,4.082-6.458,6.235" transform="translate(-1.575 -52.565)"/>
      <path id="Path_1746" data-name="Path 1746" class="cls-1" d="M73.972,165.236A15.736,15.736,0,1,1,58.236,149.5a15.744,15.744,0,0,1,15.736,15.736" transform="translate(-10.954 -49.962)"/>
      <path id="Path_1747" data-name="Path 1747" class="cls-2" d="M59.811,165.835c-1.113-2.153-2.449-6.235-6.458-6.235-7.052,0-7.274,12.544,6.458,19.6,13.732-7.052,13.509-19.6,6.458-19.6-4.008-.074-5.344,4.082-6.458,6.235" transform="translate(-12.528 -52.565)"/>
      <path id="Path_1748" data-name="Path 1748" class="cls-3" d="M249.772,165.236a15.736,15.736,0,1,0-15.736,15.736,15.744,15.744,0,0,0,15.736-15.736" transform="translate(-56.263 -49.962)"/>
      <path id="Path_1749" data-name="Path 1749" class="cls-2" d="M246.112,163.284h-6.383V156.9h-7.645v6.384H225.7v7.645h6.384v6.458h7.645v-6.458h6.383Z" transform="translate(-58.17 -51.869)"/>
      <path id="Path_1750" data-name="Path 1750" class="cls-3" d="M270.972,128.536a15.736,15.736,0,1,0-15.736,15.736,15.744,15.744,0,0,0,15.736-15.736" transform="translate(-61.727 -40.503)"/>
      <path id="Path_1751" data-name="Path 1751" class="cls-2" d="M267.387,126.684h-6.458V120.3h-7.645v6.383H246.9v7.645h6.383v6.384h7.645v-6.384h6.458Z" transform="translate(-63.634 -42.436)"/>
      <path id="Path_1752" data-name="Path 1752" class="cls-3" d="M292.172,91.936a15.736,15.736,0,1,0-15.736,15.736,15.744,15.744,0,0,0,15.736-15.736" transform="translate(-67.191 -31.07)"/>
      <path id="Path_1753" data-name="Path 1753" class="cls-2" d="M288.587,89.984h-6.458V83.6h-7.571v6.384H268.1v7.645h6.458v6.383h7.571V97.629h6.458Z" transform="translate(-69.098 -32.977)"/>
      <path id="Path_1754" data-name="Path 1754" class="cls-3" d="M334.672,91.936a15.736,15.736,0,1,0-15.736,15.736,15.744,15.744,0,0,0,15.736-15.736" transform="translate(-78.144 -31.07)"/>
      <path id="Path_1755" data-name="Path 1755" class="cls-2" d="M331.012,89.984h-6.384V83.6h-7.645v6.384H310.6v7.645h6.384v6.383h7.645V97.629h6.384Z" transform="translate(-80.052 -32.977)"/>
      <path id="Path_1756" data-name="Path 1756" class="cls-3" d="M313.472,128.536a15.736,15.736,0,1,0-15.736,15.736,15.744,15.744,0,0,0,15.736-15.736" transform="translate(-72.68 -40.503)"/>
      <path id="Path_1757" data-name="Path 1757" class="cls-2" d="M309.812,126.684h-6.384V120.3h-7.645v6.383H289.4v7.645h6.384v6.384h7.645v-6.384h6.384Z" transform="translate(-74.588 -42.436)"/>
      <path id="Path_1758" data-name="Path 1758" class="cls-3" d="M355.872,128.536a15.736,15.736,0,1,0-15.736,15.736,15.744,15.744,0,0,0,15.736-15.736" transform="translate(-83.608 -40.503)"/>
      <path id="Path_1759" data-name="Path 1759" class="cls-2" d="M352.287,126.684h-6.458V120.3h-7.645v6.383H331.8v7.645h6.383v6.384h7.645v-6.384h6.458Z" transform="translate(-85.515 -42.436)"/>
      <path id="Path_1760" data-name="Path 1760" class="cls-3" d="M292.172,165.236a15.736,15.736,0,1,0-15.736,15.736,15.744,15.744,0,0,0,15.736-15.736" transform="translate(-67.191 -49.962)"/>
      <path id="Path_1761" data-name="Path 1761" class="cls-2" d="M288.587,163.284h-6.458V156.9h-7.571v6.384H268.1v7.645h6.458v6.458h7.571v-6.458h6.458Z" transform="translate(-69.098 -51.869)"/>
      <path id="Path_1762" data-name="Path 1762" class="cls-3" d="M334.672,165.236a15.736,15.736,0,1,0-15.736,15.736,15.744,15.744,0,0,0,15.736-15.736" transform="translate(-78.144 -49.962)"/>
      <path id="Path_1763" data-name="Path 1763" class="cls-2" d="M331.012,163.284h-6.384V156.9h-7.645v6.384H310.6v7.645h6.384v6.458h7.645v-6.458h6.384Z" transform="translate(-80.052 -51.869)"/>
      <path id="Path_1764" data-name="Path 1764" class="cls-3" d="M377.072,165.236a15.736,15.736,0,1,0-15.736,15.736,15.744,15.744,0,0,0,15.736-15.736" transform="translate(-89.072 -49.962)"/>
      <path id="Path_1765" data-name="Path 1765" class="cls-2" d="M373.487,163.284h-6.458V156.9h-7.571v6.384H353v7.645h6.458v6.458h7.571v-6.458h6.458Z" transform="translate(-90.979 -51.869)"/>
      <path id="Path_1766" data-name="Path 1766" class="cls-4" d="M65.209,229.049c-37.559,0-51.365-20.561-56.709-38.449H121.919c-5.344,17.889-19.151,38.449-56.709,38.449" transform="translate(-2.191 -60.555)"/>
      <path id="Path_1767" data-name="Path 1767" class="cls-5" d="M283.409,229.049c-37.559,0-51.365-20.561-56.709-38.449H340.119c-5.344,17.889-19.076,38.449-56.709,38.449" transform="translate(-58.428 -60.555)"/>
      <path id="Path_1768" data-name="Path 1768" class="cls-4" d="M102.67,173.565l-29.394-81.8-29.394,81.8-4.082-1.41L73.276,79l33.476,93.155Z" transform="translate(-10.258 -31.792)"/>
      <path id="Path_1769" data-name="Path 1769" class="cls-5" d="M320.87,158.141,291.476,53.259l-29.32,104.882L258,156.954,291.476,37.3l33.551,119.654Z" transform="translate(-66.495 -21.044)"/>
      <path id="Path_1770" data-name="Path 1770" class="cls-5" d="M274.153,19.705H228.8l.816-4.305h44.536A11.943,11.943,0,0,1,286.1,27.351V39.6H281.8V27.351a7.635,7.635,0,0,0-7.645-7.645" transform="translate(-58.969 -15.4)"/>
      <path id="Path_1771" data-name="Path 1771" class="cls-4" d="M148.285,15.4v4.305H93.951a7.634,7.634,0,0,0-7.645,7.645V68.992H82V27.351A11.943,11.943,0,0,1,93.951,15.4Z" transform="translate(-21.134 -15.4)"/>
    </g>
    <path id="Path_1772" data-name="Path 1772" class="cls-4" d="M158.6,0V26.722l23.159-13.361Z" transform="translate(-40.876)"/>
    <path id="Path_1773" data-name="Path 1773" class="cls-4" d="M183.4,0V5.2l14.177,8.165L183.4,21.526v5.2l23.159-13.361Z" transform="translate(-47.268)"/>
    <path id="Path_1774" data-name="Path 1774" class="cls-4" d="M208.2,0V5.2l14.177,8.165L208.2,21.526v5.2l23.159-13.361Z" transform="translate(-53.66)"/>
  </g>
</svg>
