<?xml version="1.0" encoding="utf-8"?>
<!-- Generator: Adobe Illustrator 22.0.0, SVG Export Plug-In . SVG Version: 6.00 Build 0)  -->
<svg version="1.1" id="Layer_1" xmlns="http://www.w3.org/2000/svg" xmlns:xlink="http://www.w3.org/1999/xlink" x="0px" y="0px"
	 viewBox="0 0 77.6 91.2" style="enable-background:new 0 0 77.6 91.2;" xml:space="preserve">
<style type="text/css">
	.st0{clip-path:url(#SVGID_2_);}
	.st1{clip-path:url(#SVGID_4_);fill:#027F40;}
	.st2{clip-path:url(#SVGID_4_);fill:#78C696;}
	.st3{clip-path:url(#SVGID_4_);fill:#A1A0A0;}
	.st4{clip-path:url(#SVGID_4_);fill:#555555;}
	.st5{clip-path:url(#SVGID_4_);fill:#878787;}
	.st6{clip-path:url(#SVGID_4_);fill:#F2F2F2;}
	.st7{clip-path:url(#SVGID_4_);fill:#C7C7C6;}
</style>
<g id="Benjamin_1_">
	<g>
		<defs>
			<rect id="SVGID_1_" x="7.6" y="33.7" width="62" height="30.7"/>
		</defs>
		<clipPath id="SVGID_2_">
			<use xlink:href="#SVGID_1_"  style="overflow:visible;"/>
		</clipPath>
		<g class="st0">
			<defs>
				<rect id="SVGID_3_" x="7.6" y="33.7" width="62" height="30.7"/>
			</defs>
			<clipPath id="SVGID_4_">
				<use xlink:href="#SVGID_3_"  style="overflow:visible;"/>
			</clipPath>
			<path class="st1" d="M69.6,59.1v3.6c0,0.9-0.7,1.6-1.6,1.6H9.3c-0.9,0-1.6-0.7-1.6-1.6v-3.6H69.6z"/>
			<rect x="7.6" y="39.3" class="st2" width="62" height="19.8"/>
			<path class="st1" d="M69.6,35.3v4h-62v-4c0-0.9,0.7-1.6,1.6-1.6H68C68.9,33.7,69.6,34.4,69.6,35.3"/>
			<path class="st3" d="M38.3,34.5c-6.5,0-11.8,6.5-11.8,14.5c0,0.2,0,0.4,0,0.7c0.1,2.8,0.9,5.5,2.1,7.6c0.4,0.8,0.9,1.5,1.5,2.1
				c2.1,2.5,5,4.1,8.2,4.1c2.7,0,5.2-1.1,7.1-3C48.2,57.9,50,53.7,50,49C50,41,44.8,34.5,38.3,34.5"/>
			<path class="st4" d="M45.5,42.9l-0.1-0.3c-0.8-3.1-3.7-5.5-7.2-5.5c-2.6,0-5,1.3-6.3,3.4c0,0.1-0.1,0.1-0.1,0.2l-4.7,7.5
				c-0.3,0.4-0.5,0.9-0.7,1.4c0.1,2.8,0.9,5.5,2.1,7.6c0,0,15.4,0.9,16.2,0.9c1.5,0,2.8-2.3,2.8-5.1c0-0.7-0.1-1.5-0.2-2.1l-1.1-1.7
				L45.5,42.9z"/>
			<path class="st5" d="M39.1,61.2c0.3,0.3,0.7,0.5,1.1,0.5c0.8,0,1.5-0.6,1.7-1.4l0.6-2.7c0.1-0.2,0.1-0.3,0.2-0.5l2.8,3.6
				c-2,1.9-4.5,3-7.1,3c-3.2,0-6.1-1.6-8.2-4.1c-0.5-0.6-1-1.4-1.5-2.1l3.8-3.7l0.4,0.7l1.2,2c0,0.1,0.1,0.1,0.1,0.2L39.1,61.2z"/>
			<path class="st6" d="M41.4,58.6l-0.9,1l-1.4-1L35.7,56l-0.6-0.4h0l-0.2-0.2c0,0,0,0,0,0l-2-1.5l-0.4-0.3l0,0l0.4,0.7l1.2,2
				c0,0.1,0.1,0.1,0.1,0.2l4.9,4.6c0.3,0.3,0.7,0.5,1.1,0.5c0.8,0,1.5-0.6,1.7-1.4l0.6-2.7L41.4,58.6z"/>
			<path class="st5" d="M45.3,45.7c0-0.5-0.1-0.9-0.2-1.4v0c0-0.1,0-0.2-0.1-0.2c-1-3.6-3.3-6.2-6.7-6.2c-0.9,0-1.7,0.2-2.5,0.5
				c-1.3,0.5-2.1,1.8-2.1,3.2v5.4h-0.2c-0.7,0-1.3,0.6-1.3,1.2l0,1.4c0,0.7,0.6,1.3,1.3,1.3h0.2v1.5L33,53.1l0,0l-0.5,0.4l0.4,0.3
				l2,1.5c0,0,0,0,0,0c0.1,0,0.2,0.1,0.2,0.2h0l0.6,0.4l1.1,0.8l0.1,0.1l2.2,1.6l1.4,1l0.9-1l1-1.1c0.1-0.2,0.1-0.3,0.2-0.5
				c0.1-0.1,0.1-0.3,0.1-0.4l0,0c0,0,0,0,0,0c0.8-0.6,1.4-1.5,1.7-2.6c0,0,0.8-5.2,0.8-5.5c0.1-0.5,0.1-1.1,0.1-1.6
				C45.4,46.4,45.4,46.1,45.3,45.7"/>
			<path class="st7" d="M38.3,38c-0.9,0-1.7,0.2-2.5,0.5c-1.3,0.5-2.1,1.8-2.1,3.2v5.4h-0.2c-0.7,0-1.3,0.6-1.3,1.2l0,1.4
				c0,0.7,0.6,1.3,1.3,1.3h0.2v1.5L33,53.1l0,0l-0.5,0.4l0.4,0.3l2,1.5c0,0,0,0,0,0c0.1,0,0.2,0.1,0.2,0.2h0l0.6,0.4l1.1,0.8
				l0.1,0.1l2.1-1.5c1.5-1.1,2.3-2.9,2.1-4.7L41,49.4h1.6h0c0.5,0,0.9-0.5,0.8-1l0,0l-0.9-4.2H45C44.1,40.5,41.7,38,38.3,38"/>
			<path class="st1" d="M22.9,48c0-3-2.4-5.4-5.4-5.4s-5.4,2.4-5.4,5.4s2.4,5.4,5.4,5.4S22.9,51,22.9,48"/>
			<path class="st1" d="M54.9,51.2c-0.3,0-0.5-0.2-0.5-0.5v-5.3c0-0.3,0.2-0.5,0.5-0.5c0.3,0,0.5,0.2,0.5,0.5v5.3
				C55.4,51,55.1,51.2,54.9,51.2"/>
			<path class="st1" d="M58.5,51.1c-1.2,0-2.1-1.3-2.1-3c0-1.7,0.9-3,2.1-3c1.2,0,2.1,1.3,2.1,3C60.6,49.7,59.7,51.1,58.5,51.1
				 M58.5,46c-0.5,0-1.2,0.8-1.2,2c0,1.2,0.6,2,1.2,2c0.5,0,1.2-0.8,1.2-2C59.6,46.8,59,46,58.5,46"/>
			<path class="st1" d="M63.6,51.1c-1.2,0-2.1-1.3-2.1-3c0-1.7,0.9-3,2.1-3c1.2,0,2.1,1.3,2.1,3C65.7,49.7,64.8,51.1,63.6,51.1
				 M63.6,46c-0.5,0-1.2,0.8-1.2,2c0,1.2,0.6,2,1.2,2c0.5,0,1.2-0.8,1.2-2C64.7,46.8,64.1,46,63.6,46"/>
			<path class="st2" d="M11.2,38.3c-0.3,0-0.5-0.2-0.5-0.5v-2.2c0-0.3,0.2-0.5,0.5-0.5s0.5,0.2,0.5,0.5v2.2
				C11.7,38,11.5,38.3,11.2,38.3"/>
			<path class="st2" d="M15.1,36.7c0-0.9-0.6-1.6-1.3-1.6c-0.7,0-1.3,0.7-1.3,1.6c0,0.9,0.6,1.6,1.3,1.6
				C14.5,38.3,15.1,37.5,15.1,36.7"/>
			<path class="st2" d="M18.4,36.7c0-0.9-0.6-1.6-1.3-1.6c-0.7,0-1.3,0.7-1.3,1.6c0,0.9,0.6,1.6,1.3,1.6
				C17.9,38.3,18.4,37.5,18.4,36.7"/>
			<path class="st2" d="M11.2,63.6c-0.3,0-0.5-0.2-0.5-0.5v-2.2c0-0.3,0.2-0.5,0.5-0.5s0.5,0.2,0.5,0.5v2.2
				C11.7,63.3,11.5,63.6,11.2,63.6"/>
			<path class="st2" d="M15.1,62c0-0.9-0.6-1.6-1.3-1.6c-0.7,0-1.3,0.7-1.3,1.6c0,0.9,0.6,1.6,1.3,1.6C14.5,63.5,15.1,62.8,15.1,62"
				/>
			<path class="st2" d="M18.4,62c0-0.9-0.6-1.6-1.3-1.6c-0.7,0-1.3,0.7-1.3,1.6c0,0.9,0.6,1.6,1.3,1.6C17.9,63.5,18.4,62.8,18.4,62"
				/>
			<path class="st2" d="M60,38.3c-0.3,0-0.5-0.2-0.5-0.5v-2.2c0-0.3,0.2-0.5,0.5-0.5c0.3,0,0.5,0.2,0.5,0.5v2.2
				C60.4,38,60.2,38.3,60,38.3"/>
			<path class="st2" d="M63.9,36.7c0-0.9-0.6-1.6-1.3-1.6c-0.7,0-1.3,0.7-1.3,1.6c0,0.9,0.6,1.6,1.3,1.6S63.9,37.5,63.9,36.7"/>
			<path class="st2" d="M67.2,36.7c0-0.9-0.6-1.6-1.3-1.6c-0.7,0-1.3,0.7-1.3,1.6c0,0.9,0.6,1.6,1.3,1.6S67.2,37.5,67.2,36.7"/>
			<path class="st2" d="M60,63.6c-0.3,0-0.5-0.2-0.5-0.5v-2.2c0-0.3,0.2-0.5,0.5-0.5c0.3,0,0.5,0.2,0.5,0.5v2.2
				C60.4,63.3,60.2,63.6,60,63.6"/>
			<path class="st2" d="M63.9,62c0-0.9-0.6-1.6-1.3-1.6c-0.7,0-1.3,0.7-1.3,1.6c0,0.9,0.6,1.6,1.3,1.6S63.9,62.8,63.9,62"/>
			<path class="st2" d="M67.2,62c0-0.9-0.6-1.6-1.3-1.6c-0.7,0-1.3,0.7-1.3,1.6c0,0.9,0.6,1.6,1.3,1.6S67.2,62.8,67.2,62"/>
		</g>
	</g>
</g>
</svg>
