<?xml version="1.0" encoding="utf-8"?>
<!-- Generator: Adobe Illustrator 22.0.0, SVG Export Plug-In . SVG Version: 6.00 Build 0)  -->
<svg version="1.1" id="Layer_1" xmlns="http://www.w3.org/2000/svg" xmlns:xlink="http://www.w3.org/1999/xlink" x="0px" y="0px"
	 viewBox="0 0 77.6 91.2" style="enable-background:new 0 0 77.6 91.2;" xml:space="preserve">
<style type="text/css">
	.st0{fill:#83CFC7;}
	.st1{fill:#044F51;}
	.st2{fill:#4D6DB5;}
	.st3{fill:#F7F7F8;}
	.st4{fill:#94ACD9;}
	.st5{fill:#243568;}
	.st6{fill:#B7C9E8;}
	.st7{fill:#4C6CB4;}
	.st8{fill:#3BB774;}
	.st9{fill:#9BD7D3;}
	.st10{fill:#1C8282;}
	.st11{fill:#7399D0;}
	.st12{fill:#4BBA77;}
	.st13{fill:none;stroke:#FFFFFF;stroke-width:2;stroke-linecap:round;stroke-miterlimit:10;}
	.st14{fill:#C59A93;}
	.st15{fill:#735B53;}
</style>
<g>
	<circle class="st0" cx="30.1" cy="30.1" r="30.1"/>
</g>
<g id="Process_2b_-_Send_Bills_1_">
	<g>
		<g>
			<rect id="Page_2_1_" x="12.4" y="9.3" class="st1" width="32.5" height="43.5"/>
			<rect id="Page_1_1_" x="13.3" y="9.3" class="st2" width="32.3" height="42.3"/>
			<polygon id="Bottom_Box_1_" class="st3" points="45.6,51.5 13.3,51.5 13.3,37.5 45.6,37.5 			"/>
			<polygon id="Top_Box_1_" class="st4" points="45.6,16.3 13.3,16.3 13.3,9.3 45.6,9.3 			"/>
			<rect x="15.2" y="10.8" class="st5" width="5" height="4.6"/>
			<path class="st5" d="M43.1,13.7H24c-0.4,0-0.6-0.3-0.6-0.6c0-0.4,0.3-0.6,0.6-0.6h19.1c0.4,0,0.6,0.3,0.6,0.6
				C43.8,13.4,43.5,13.7,43.1,13.7z"/>
			<g>
				<rect id="_x31_st_Long_Box_1_" x="14.1" y="18.7" class="st6" width="17.9" height="5.3"/>
				<rect id="_x32_nd_Long_Box_1_" x="14.1" y="24.8" class="st6" width="17.9" height="5.3"/>
				<rect id="_x33_rd_Long_Box_1_" x="14.1" y="30.9" class="st6" width="17.9" height="5.3"/>
				<rect id="_x31_st_Little_Box_1_" x="33.1" y="18.7" class="st6" width="11.6" height="5.3"/>
				<rect id="_x32_nd_Little_Box_1_" x="33.1" y="24.8" class="st6" width="11.6" height="5.3"/>
				<rect id="_x33_rd_Little_Box_1_" x="33.1" y="30.9" class="st6" width="11.6" height="5.3"/>
				<g>
					<path class="st7" d="M28.6,22.1H17.5c-0.4,0-0.7-0.3-0.7-0.7s0.3-0.7,0.7-0.7h11.2c0.4,0,0.7,0.3,0.7,0.7S29,22.1,28.6,22.1z"
						/>
					<path class="st7" d="M28.6,28.2H17.5c-0.4,0-0.7-0.3-0.7-0.7c0-0.4,0.3-0.7,0.7-0.7h11.2c0.4,0,0.7,0.3,0.7,0.7
						S29,28.2,28.6,28.2z"/>
					<path class="st7" d="M28.6,34.3H17.5c-0.4,0-0.7-0.3-0.7-0.7c0-0.4,0.3-0.7,0.7-0.7h11.2c0.4,0,0.7,0.3,0.7,0.7
						S29,34.3,28.6,34.3z"/>
				</g>
				<path class="st7" d="M42.3,22.1h-6c-0.4,0-0.7-0.3-0.7-0.7s0.3-0.7,0.7-0.7h6c0.4,0,0.7,0.3,0.7,0.7S42.7,22.1,42.3,22.1z"/>
				<path class="st7" d="M42.5,28.2h-6c-0.4,0-0.7-0.3-0.7-0.7s0.3-0.7,0.7-0.7h6c0.4,0,0.7,0.3,0.7,0.7
					C43.3,27.8,43,28.2,42.5,28.2z"/>
				<path class="st7" d="M42.5,34.3h-6c-0.4,0-0.7-0.3-0.7-0.7c0-0.4,0.3-0.7,0.7-0.7h6c0.4,0,0.7,0.3,0.7,0.7S43,34.3,42.5,34.3z"
					/>
			</g>
			<rect x="16" y="39.5" class="st2" width="14.1" height="9.5"/>
			<path class="st8" d="M39,43.8c-0.8-0.4-1.5-0.7-1.5-1.5c0-0.7,0.4-1.1,1.2-1.1c0.5,0,0.8,0.1,1.2,0.4c0.2,0.2,0.6,0.2,0.9-0.1
				c0.1-0.1,0.2-0.3,0.2-0.5c0-0.2-0.1-0.3-0.2-0.4c-0.5-0.4-0.9-0.6-1.5-0.7v-0.8c0-0.3-0.3-0.6-0.6-0.6c-0.3,0-0.6,0.3-0.6,0.6
				v0.8c-1.2,0.3-2,1.2-2,2.4c0,1.5,1.1,2.1,2.1,2.6c0.9,0.5,1.7,0.8,1.7,1.8c0,0.8-0.5,1.2-1.3,1.2c-0.5,0-1.1-0.2-1.6-0.6
				c-0.3-0.2-0.7-0.1-0.9,0.2c-0.2,0.3-0.1,0.7,0.1,0.9c0.6,0.4,1.2,0.7,1.9,0.8v0.8c0,0.3,0.3,0.6,0.6,0.6c0.3,0,0.6-0.3,0.6-0.6
				v-0.8c1.3-0.2,2.1-1.2,2.1-2.5C41.3,44.9,40,44.3,39,43.8z"/>
		</g>
	</g>
</g>
<g>
	<path class="st9" d="M53.8,59.2V61H29.9c0,0,0,0.1,0.1,0.1c5.6,7.9,16.9,9.5,24.5,3.1c0.1-0.1,0.2-0.2,0.3-0.3
		c6.8-6,7.6-16.4,1.7-23.3c-0.5-0.6-1-1.1-1.5-1.6l0,20.1H53.8z"/>
	<path class="st10" d="M53.8,59.2h-25c0.3,0.6,0.7,1.2,1.1,1.8h23.9V59.2z"/>
	<path class="st2" d="M54.3,38.6c-0.2-0.2-0.4-0.3-0.6-0.5v0.5H54.3z"/>
	<path class="st11" d="M53.8,38.1c-0.7-0.6-1.5-1-2.3-1.5h-15v-0.4c-1.3,0.6-2.5,1.4-3.7,2.3h20.9V38.1z"/>
	<polygon class="st3" points="54.9,59.2 54.9,39 54.9,39 	"/>
	<path class="st3" d="M53.8,59.2h1.1V39c-0.2-0.2-0.4-0.3-0.5-0.5h-0.6V59.2z"/>
	<path class="st3" d="M53.8,38.6H32.8c0,0,0,0,0,0c-1,0.9-1.9,1.8-2.7,2.9h2v14h-4.7c0.2,0.9,0.5,1.7,0.9,2.6
		c0.2,0.4,0.4,0.7,0.6,1.1h25V38.6z M45.5,55.6v1.2c0,0.5-0.4,0.9-0.9,0.9s-0.9-0.4-0.9-0.9v-1.1c-0.9-0.1-1.9-0.5-2.8-1.1
		c-0.4-0.3-0.5-0.9-0.2-1.3c0.3-0.4,0.9-0.5,1.3-0.3c0.8,0.6,1.6,0.9,2.4,0.9c1.2,0,1.9-0.6,1.9-1.8c0-1.4-1.1-1.9-2.4-2.6
		c-1.5-0.7-3.1-1.6-3.1-3.8c0-1.8,1.1-3.2,2.9-3.5V41c0-0.5,0.4-0.9,0.9-0.9s0.9,0.4,0.9,0.9v1.1c0.8,0.1,1.5,0.5,2.2,1.1
		c0.2,0.2,0.3,0.4,0.3,0.7c0,0.2-0.1,0.5-0.2,0.7c-0.3,0.4-0.9,0.4-1.3,0.1c-0.6-0.5-1.1-0.7-1.8-0.7c-1.1,0-1.7,0.6-1.7,1.6
		c0,1.1,1,1.6,2.2,2.2c1.5,0.7,3.3,1.6,3.3,4.1C48.5,53.9,47.4,55.2,45.5,55.6z"/>
	<path class="st6" d="M51.5,36.7c-4.6-2.5-10.2-2.7-15-0.4v0.4H51.5z"/>
	<path class="st11" d="M34.4,41.5h-4.3c-3,4.1-4,9.2-2.8,14h7V41.5z"/>
	<path class="st12" d="M45.2,47.8C44,47.2,43,46.7,43,45.6c0-1,0.7-1.6,1.7-1.6c0.7,0,1.2,0.2,1.8,0.7c0.4,0.3,0.9,0.2,1.3-0.1
		c0.2-0.2,0.2-0.4,0.2-0.7c0-0.3-0.1-0.5-0.3-0.7c-0.7-0.6-1.4-0.9-2.2-1.1V41c0-0.5-0.4-0.9-0.9-0.9s-0.9,0.4-0.9,0.9v1.2
		c-1.8,0.4-2.9,1.7-2.9,3.5c0,2.2,1.6,3,3.1,3.8c1.3,0.7,2.4,1.2,2.4,2.6c0,1.1-0.7,1.8-1.9,1.8c-0.8,0-1.6-0.3-2.4-0.9
		c-0.4-0.3-1-0.2-1.3,0.3c-0.3,0.4-0.2,1,0.2,1.3c0.8,0.6,1.8,1,2.8,1.1v1.1c0,0.5,0.4,0.9,0.9,0.9s0.9-0.4,0.9-0.9v-1.2
		c1.9-0.3,3.1-1.7,3.1-3.7C48.5,49.4,46.7,48.5,45.2,47.8z"/>
</g>
<path class="st13" d="M38.9,64.5c2.2,0.9,4.6,1.1,7.3,0.5"/>
<g>
	<path class="st14" d="M67.4,74.3c-0.6-0.7-1.7-1.1-2.9-0.1l-1,0.9c0.9,1.1,7.7,9.1,8.6,10.2c0.9,1,2.4,1.2,3.4,0.3l0.8-0.7
		L67.4,74.3z"/>
</g>
<g>
	<path class="st15" d="M77,85.8L76.3,85l-0.8,0.7c-1,0.9-2.6,0.7-3.4-0.3L64,75.8l-0.6-0.7l1-0.9l-6.7-8.4
		c7.5-7.3,8.2-19.3,1.3-27.5c-7.2-8.5-19.9-9.6-28.5-2.4c-6.9,5.8-8.9,15.2-5.7,23.1c0.8,1.9,1.9,3.7,3.3,5.4c5.9,7,15.5,9,23.4,5.5
		c1.3-0.6,2.6-1.3,3.9-2.2l7,8.2l-0.2,0.2c-0.8,0.7-0.9,1.9-0.2,2.7l9.7,11.5c0.9,1,2.4,1.2,3.4,0.3l1.6-1.4
		C77.8,88.3,77.9,86.8,77,85.8z M54.7,64c-0.1,0.1-0.2,0.2-0.3,0.3c-7.6,6.4-18.9,4.8-24.5-3.1c-0.7-1-1.2-2-1.7-3
		c-2.9-6.6-1.2-14.6,4.6-19.5c7.1-6,17.6-5.1,23.6,2C62.3,47.6,61.5,58,54.7,64z"/>
</g>
</svg>
