<svg xmlns="http://www.w3.org/2000/svg" xmlns:xlink="http://www.w3.org/1999/xlink" viewBox="3319.805 -755.65 30.016 32.223"><defs><style>.a{fill:none;}.b{clip-path:url(#a);}.c{fill:#7ab2e0;}</style><clipPath id="a"><path class="a" d="M0,13.3H30.016V-18.922H0Z" transform="translate(0 18.922)"/></clipPath></defs><g transform="translate(3319.805 -755.651)"><g class="b" transform="translate(0 0)"><g transform="translate(0.001 0)"><path class="c" d="M12.2,4.857,7.834.932V-3.683H2.7L.236-5.9a3.7,3.7,0,0,0-5.08,0L-7.322-3.683h-5.155v4.6l-4.407,3.937A1.391,1.391,0,0,0-17.352,5.9v18.01a1.4,1.4,0,0,0,1.4,1.4H11.262a1.4,1.4,0,0,0,1.4-1.4V5.9a1.409,1.409,0,0,0-.465-1.04M7.834,3.025l2.878,2.588L7.834,7.038ZM-3.795-4.749A2.187,2.187,0,0,1-.8-4.743L.374-3.683H-4.99ZM-9.619-1.8H4.972V-.247H-9.619Zm0,3.884H4.972V3.634H-9.619Zm0,3.883H4.972V7.517H-9.619V5.96ZM-12.482,3V6.82L-15.21,5.439ZM-15.8,6.887l10.206,5.158L-15.8,20.658V6.885ZM11.1,23.758H-15.8V22.692l11.98-10.109a2.351,2.351,0,0,1,3.028-.032L11.1,22.69Zm0-3.108L1.087,12.116,11.1,7.156V20.646Z" transform="translate(17.352 6.909)"/></g></g></g></svg>