<?xml version="1.0" encoding="utf-8"?>
<!-- Generator: Adobe Illustrator 22.0.1, SVG Export Plug-In . SVG Version: 6.00 Build 0)  -->
<svg version="1.1" id="Layer_1" xmlns="http://www.w3.org/2000/svg" xmlns:xlink="http://www.w3.org/1999/xlink" x="0px" y="0px"
	 viewBox="0 0 54.2 54" style="enable-background:new 0 0 54.2 54;" xml:space="preserve">
<style type="text/css">
	.st0{fill:none;stroke:#F0577D;stroke-width:1.4;stroke-linecap:round;stroke-miterlimit:10;}
	.st1{fill:none;stroke:#F0577D;stroke-width:1.4;stroke-linecap:round;stroke-linejoin:round;}
	.st2{fill:#F0577D;stroke:#F0577D;stroke-width:1.4;stroke-linecap:round;stroke-miterlimit:10;}
</style>
<title>sharingThreshold</title>
<polyline class="st0" points="34.7,9 27.1,1.1 19.6,9 "/>
<line class="st1" x1="27.1" y1="2.2" x2="27.1" y2="26.5"/>
<polyline class="st0" points="9.1,9 1.1,16.5 9.6,24 "/>
<polyline class="st0" points="45.1,9 53.1,16.5 44.7,24 "/>
<path class="st0" d="M1.4,16.7l2.3-0.2c12.4-1.2,19.3-0.3,23.4,10c4.1-10.3,11-11.2,23.4-10l2.3,0.2"/>
<path class="st0" d="M20.1,31.5L20.1,31.5c-4,0-5.8,4.1-5.8,7.4c0,4,3,7.5,6.2,10V31.5L20.1,31.5z"/>
<path class="st2" d="M34.2,31.5c-4,0-5.9,3.6-7,5.3c-0.9-1.6-2.1-3-3.6-4.1v18.5c1.1,0.7,2.3,1.4,3.6,2c0,0,12.8-5.8,12.8-14.1
	C39.9,35.7,38.1,31.5,34.2,31.5z"/>
</svg>
