<svg xmlns="http://www.w3.org/2000/svg" xmlns:xlink="http://www.w3.org/1999/xlink" viewBox="-7344 1114 54 54">
  <defs>
    <style>
      .cls-1 {
        fill: #fff;
        stroke: #95989a;
      }

      .cls-2 {
        clip-path: url(#clip-path);
      }

      .cls-3, .cls-4 {
        fill: none;
      }

      .cls-3, .cls-4, .cls-5 {
        stroke: #f0577d;
        stroke-linecap: round;
        stroke-width: 0.9px;
      }

      .cls-3, .cls-5 {
        stroke-miterlimit: 10;
      }

      .cls-4 {
        stroke-linejoin: round;
      }

      .cls-5 {
        fill: #f0577d;
      }
    </style>
    <clipPath id="clip-path">
      <rect id="_version_:_1.5.0_viewSource_:_x_:_0_y_:_0_width_:_53.49_height_:_53.27_resources_:_clipPaths_:_filters_:_" data-name="{
	&quot;version&quot;: &quot;1.5.0&quot;,
	&quot;viewSource&quot;: {
		&quot;x&quot;: 0,
		&quot;y&quot;: 0,
		&quot;width&quot;: 53.49,
		&quot;height&quot;: 53.27
	},
	&quot;resources&quot;: {
		&quot;clipPaths&quot;: {},
		&quot;filters&quot;: {}" class="cls-1" width="54" height="54" transform="translate(595 1007)"/>
    </clipPath>
  </defs>
  <g id="icon" class="cls-2" transform="translate(-7939 107)">
    <g id="sharingThreshold" transform="translate(595.751 1007.822)">
      <path id="Path_1605" data-name="Path 1605" class="cls-3" d="M32.508,8.634,24.886.648,17.264,8.634" transform="translate(1.363 -0.648)"/>
      <line id="Line_11" data-name="Line 11" class="cls-4" y2="24.563" transform="translate(26.249 1.121)"/>
      <path id="Path_1606" data-name="Path 1606" class="cls-3" d="M8.752,7.791.666,15.342l8.541,7.521" transform="translate(-0.666 0.225)"/>
      <path id="Path_1607" data-name="Path 1607" class="cls-3" d="M40.319,7.791l8.056,7.552-8.531,7.521" transform="translate(4.123 0.225)"/>
      <path id="Path_1608" data-name="Path 1608" class="cls-3" d="M.9,14.8l2.342-.232c12.519-1.252,19.525-.323,23.644,10.1,4.119-10.389,11.105-11.348,23.644-10.1l2.342.232" transform="translate(-0.637 1.001)"/>
      <path id="Path_1609" data-name="Path 1609" class="cls-3" d="M18.356,28.023h0c-4.038,0-5.815,4.159-5.815,7.521,0,4.038,3.029,7.572,6.229,10.1v-17.6Z" transform="translate(0.786 2.699)"/>
      <path id="Path_1610" data-name="Path 1610" class="cls-5" d="M31.559,28.023c-4.038,0-5.936,3.594-7.067,5.321a14.639,14.639,0,0,0-3.594-4.18V47.811a35.518,35.518,0,0,0,3.594,2.019s12.923-5.9,12.923-14.265C37.374,32.2,35.588,28.023,31.559,28.023Z" transform="translate(1.807 2.699)"/>
    </g>
  </g>
</svg>
