<?xml version="1.0" encoding="utf-8"?>
<!-- Generator: Adobe Illustrator 22.0.1, SVG Export Plug-In . SVG Version: 6.00 Build 0)  -->
<svg version="1.1" id="Layer_1" xmlns="http://www.w3.org/2000/svg" xmlns:xlink="http://www.w3.org/1999/xlink" x="0px" y="0px"
	 viewBox="0 0 54 54" style="enable-background:new 0 0 54 54;" xml:space="preserve">
<style type="text/css">
	.st0{fill:none;stroke:#7CB2E1;stroke-width:1.4;stroke-linecap:round;stroke-miterlimit:10;}
	.st1{fill:none;stroke:#FFFFFF;stroke-linecap:round;stroke-linejoin:round;}
	.st2{fill:#7CB2E1;stroke:#7CB2E1;stroke-width:1.4;stroke-linecap:round;stroke-miterlimit:10;}
</style>
<title>maternityLimit</title>
<path class="st0" d="M49,48.7c0-0.1-3-15.7-3-15.7c-0.4-1.2-1.5-2.1-2.8-2.3c-0.8-0.1-1.5,0.1-2.2,0.5c-0.5,0.3-6.8,6.1-7.2,6.5
	c-1.4-1.3-5.4-0.2-7.6-12.5C40,17.2,36.5,21,40.7,8.7c0.9-1.7,0.2-3.8-1.5-4.6c-0.9-0.5-2-0.5-2.9-0.1c-1.1,0.4-1.9,1.4-2.1,2.6
	l-2.7,7.6l-10.5,5.6c1.9-5.9,2.1-5.8,2.4-7.3c0.9-5-2.4-9.9-7.4-10.8S6.1,4.1,5.2,9.1c-0.7,4,1.2,8,4.8,9.9l6.2,3.7
	c-3.3,4.2,1.1,21,9.3,26.6c6,4.1,9.9-1.8,15.1-7.7c0,0.3,1.3,7.2,1.4,7.5c0.1,1.9,1.7,3.4,3.6,3.3S49.1,50.7,49,48.7L49,48.7z"/>
<line class="st1" x1="18.7" y1="40.1" x2="29.2" y2="34.1"/>
<path class="st0" d="M33.9,37.6c0,0-5.6,7.7,1.5,9.3"/>
<path class="st2" d="M32.2,44.6c-1.6-2.5,1.6-7,1.6-7c-2.6-0.5-4.8-3.8-4.8-3.8l-10.1,6.4c1.1,2.6,2.6,5,4.4,7.2
	c1.9,2,4.4,3.1,7.1,3.3c2,0,5.1-3.7,5.1-3.7C34.2,46.3,33.1,45.5,32.2,44.6z"/>
</svg>
