<svg xmlns="http://www.w3.org/2000/svg" xmlns:xlink="http://www.w3.org/1999/xlink" viewBox="-7344 1494 53 53">
  <defs>
    <style>
      .cls-1 {
        fill: #fff;
        stroke: #95989a;
      }

      .cls-2 {
        clip-path: url(#clip-path);
      }

      .cls-3, .cls-5 {
        fill: none;
      }

      .cls-3, .cls-4, .cls-5 {
        stroke: #af93c5;
        stroke-miterlimit: 10;
        stroke-width: 0.926px;
      }

      .cls-4 {
        fill: #af93c5;
      }

      .cls-5 {
        stroke-linecap: round;
      }
    </style>
    <clipPath id="clip-path">
      <rect id="_version_:_1.5.0_viewSource_:_x_:_0_y_:_0_width_:_52_height_:_52_resources_:_clipPaths_:_filters_:_g" data-name="{
	&quot;version&quot;: &quot;1.5.0&quot;,
	&quot;viewSource&quot;: {
		&quot;x&quot;: 0,
		&quot;y&quot;: 0,
		&quot;width&quot;: 52,
		&quot;height&quot;: 52
	},
	&quot;resources&quot;: {
		&quot;clipPaths&quot;: {},
		&quot;filters&quot;: {},
		&quot;g" class="cls-1" width="53" height="53"/>
    </clipPath>
  </defs>
  <g id="icon" transform="translate(-7855 519)">
    <g id="Mask_Group_4" data-name="Mask Group 4" class="cls-2" transform="translate(511 975)">
      <g id="maxShareable" transform="translate(0.51 3.515)">
        <path id="Path_1619" data-name="Path 1619" class="cls-3" d="M26.2,46.078l-1.019-.449c-.907-.418-22.193-10.347-22.193-25.292a17.8,17.8,0,0,1,2.62-9.419,10.612,10.612,0,0,1,8.614-5.1h.469c5.76,0,9.266,3.711,11.458,6.769h0c2.192-3.058,5.7-6.769,11.458-6.769h.469a10.612,10.612,0,0,1,8.614,5.1,17.8,17.8,0,0,1,2.62,9.419c0,14.945-21.3,24.884-22.193,25.292l-1.019.449Z" transform="translate(-0.206 -2.929)"/>
        <path id="Path_1620" data-name="Path 1620" class="cls-3" d="M26.2,46.078l-1.019-.449c-.907-.418-22.193-10.347-22.193-25.292a17.8,17.8,0,0,1,2.62-9.419,10.612,10.612,0,0,1,8.614-5.1h.469c5.76,0,9.266,3.711,11.458,6.769h0c2.192-3.058,5.7-6.769,11.458-6.769h.469a10.612,10.612,0,0,1,8.614,5.1,17.8,17.8,0,0,1,2.62,9.419c0,14.945-21.3,24.884-22.193,25.292l-1.019.449Z" transform="translate(-0.206 -2.929)"/>
        <path id="Path_1621" data-name="Path 1621" class="cls-4" d="M24.786,31.51l-.336-.153c-.306-.143-7.513-3.507-7.513-8.553,0-2.406,1.346-4.822,3.8-4.924h0a4.914,4.914,0,0,1,4.078,2.283h0a4.914,4.914,0,0,1,4.078-2.283h0c2.457.1,3.8,2.518,3.8,4.924,0,5.1-7.207,8.42-7.513,8.553l-.336.153Z" transform="translate(1.209 -1.705)"/>
        <line id="Line_13" data-name="Line 13" class="cls-5" x2="8.614" transform="translate(6.647 20.457)"/>
        <line id="Line_14" data-name="Line 14" class="cls-5" x1="8.614" transform="translate(36.73 20.457)"/>
        <path id="Path_1622" data-name="Path 1622" class="cls-5" d="M11,17.566,6.1,22.2l5.179,4.6" transform="translate(0.109 -1.737)"/>
        <path id="Path_1623" data-name="Path 1623" class="cls-5" d="M37.6,17.566,42.5,22.2l-5.179,4.6" transform="translate(3.278 -1.737)"/>
        <path id="Path_1624" data-name="Path 1624" class="cls-3" d="M26.458,49.168a2.824,2.824,0,0,1-1.183-.255l-1.019-.449a61.908,61.908,0,0,1-12.039-7.574C4.54,34.631.463,27.618.463,20.6A20.684,20.684,0,0,1,3.521,9.656C8.7,1.633,19.414.96,26.458,8.32h0C33.594.9,44.267,1.715,49.384,9.656A20.694,20.694,0,0,1,52.443,20.6c0,7.014-4.078,14.027-11.8,20.286A61.9,61.9,0,0,1,28.6,48.465l-1.019.449a2.824,2.824,0,0,1-1.183.255Z" transform="translate(-0.462 -3.195)"/>
        <path id="Path_1625" data-name="Path 1625" class="cls-3" d="M26.2,46.078l-1.019-.449c-.907-.418-22.193-10.347-22.193-25.292a17.8,17.8,0,0,1,2.62-9.419,10.612,10.612,0,0,1,8.614-5.1h.469c5.76,0,9.266,3.711,11.458,6.769h0c2.192-3.058,5.7-6.769,11.458-6.769h.469a10.612,10.612,0,0,1,8.614,5.1,17.8,17.8,0,0,1,2.62,9.419c0,14.945-21.3,24.884-22.193,25.292l-1.019.449Z" transform="translate(-0.206 -2.929)"/>
      </g>
    </g>
  </g>
</svg>
