<?xml version="1.0" encoding="utf-8"?>
<!-- Generator: Adobe Illustrator 22.0.1, SVG Export Plug-In . SVG Version: 6.00 Build 0)  -->
<svg version="1.1" id="Layer_1" xmlns="http://www.w3.org/2000/svg" xmlns:xlink="http://www.w3.org/1999/xlink" x="0px" y="0px"
	 viewBox="0 0 54 54" style="enable-background:new 0 0 54 54;" xml:space="preserve">
<style type="text/css">
	.st0{fill:#AF93C5;}
	.st1{fill:none;stroke:#AF93C5;stroke-width:1.4;stroke-linecap:round;stroke-miterlimit:10;}
</style>
<title>maxShareable</title>
<g>
	<g>
		<path class="st0" d="M26.8,33.9C26.8,33.9,26.8,33.9,26.8,33.9c0,0-0.1,0-0.2-0.1c-5-2.6-7.8-5.8-7.8-8.8c0-2.4,1.3-4.8,3.7-4.9
			c1.6,0,3.1,0.9,4.1,2.3l0.4,0.6l0.4-0.6c0.9-1.4,2.5-2.3,4.1-2.3c2.4,0.1,3.7,2.6,3.7,4.9c0,5.4-7.9,8.9-7.9,8.9L27,33.9
			L26.8,33.9z"/>
		<path class="st0" d="M22.5,20.5c1.4,0,2.8,0.8,3.7,2.1l0.8,1.2l0.8-1.2c0.8-1.3,2.2-2,3.6-2.1c2.1,0.1,3.2,2.3,3.2,4.4
			c0,4.6-6.5,8-7.6,8.4l-0.1,0l0,0c0,0-0.1-0.1-0.2-0.1c-4.8-2.5-7.5-5.6-7.5-8.4C19.3,22.8,20.4,20.6,22.5,20.5 M31.5,19.5
			c-1.8,0-3.5,1-4.5,2.5c-1-1.5-2.7-2.5-4.5-2.5c-2.7,0.1-4.2,2.7-4.2,5.4c0,5.5,8,9.2,8.3,9.4l0.4,0.2l0.4-0.2
			c0.4-0.1,8.3-3.8,8.3-9.4C35.7,22.3,34.2,19.6,31.5,19.5L31.5,19.5z"/>
	</g>
	<line class="st1" x1="5.7" y1="24.2" x2="14.1" y2="24.2"/>
	<line class="st1" x1="48.3" y1="24.2" x2="40" y2="24.2"/>
	<polyline class="st1" points="10.6,19.1 5.2,24.2 10.9,29.3 	"/>
	<polyline class="st1" points="43.4,19.1 48.8,24.2 43.1,29.3 	"/>
	<g>
		<g>
			<path class="st0" d="M40.9,5c3.7,0.2,7,2.2,8.7,5.2l0,0l0,0c1.9,3,2.9,6.5,2.9,10.2c0,14.9-21.7,26.4-25.6,28.3
				C23,46.9,1.3,35.4,1.3,20.5c0-3.6,1-7.1,2.9-10.3C6,7.1,9.3,5.2,13,5h0.6c6.2,0,9.8,3.9,12.3,7.3l1.1,1.6l1.1-1.6
				c2.3-3.1,6-7.3,12.3-7.3H40.9 M40.9,3.6h-0.5c-6.7,0-10.8,4.3-13.4,7.9c-2.6-3.6-6.6-7.9-13.4-7.9H13C8.9,3.8,5.1,6,3,9.5
				c-2,3.3-3.1,7.1-3.1,11c0,17.4,27,29.9,27,29.9s27-12.5,27-29.9c0-3.9-1-7.7-3.1-11C48.8,6,45,3.8,40.9,3.6L40.9,3.6z"/>
		</g>
	</g>
</g>
</svg>
