<svg xmlns="http://www.w3.org/2000/svg" xmlns:xlink="http://www.w3.org/1999/xlink" viewBox="-22725 -6797 54 54"><defs><style>.a{fill:#fff;stroke:#95989a;}.b{clip-path:url(#a);}.c{fill:none;stroke:#ab2066;stroke-linejoin:round;stroke-width:1.416px;}.d{fill:#ab2066;}</style><clipPath id="a"><rect class="a" width="54" height="54" transform="translate(62 198)"/></clipPath></defs><g class="b" transform="translate(-22787 -6995)"><g transform="translate(64.77 197.697)"><path class="c" d="M47.453,32.562V50.424a3.148,3.148,0,0,1-.817,2.111L31.746,40.651l15.7-10.011Z"/><path class="c" d="M29.3,39.581a3.164,3.164,0,0,0-1.975.692l-.475.38L11.96,52.54A3.16,3.16,0,0,0,14.32,53.6H44.292a3.157,3.157,0,0,0,2.36-1.056L31.762,40.651l-.476-.38A3.158,3.158,0,0,0,29.3,39.581Z"/><path class="c" d="M11.154,32.562V50.424a3.152,3.152,0,0,0,.816,2.111L26.861,40.651,11.162,30.64Z"/><path class="c" d="M47.453,30.651,29.3,17.519l-3.98,2.88c-.589,1.444-1.532,3.547-3.307,7.362-2.1-.57-3.7-1.011-4.969-1.373l-5.893,4.264Z"/><path class="d" d="M25.323,20.4a31.26,31.26,0,0,0,1.185-3.46h.008c.208-.728.361-1.353.453-1.811.778-3.918,1.618-8.79-1.448-11.843C22.5.281,17.249.088,14.6,3.7c-1.252,1.707-1.178,3.944-1.021,5.948-1.431-1.416-3.09-2.9-5.19-3.04-4.478-.3-7.71,3.843-7.351,8.09v.038c.388,4.286,4.652,6.764,8.146,8.7.411.215.991.5,1.683.809h0a39.1,39.1,0,0,0,6.18,2.133"/><path class="d" d="M17.047,26.387c1.266.361,2.868.8,4.969,1.373,1.775-3.814,2.718-5.918,3.307-7.362"/></g></g></svg>