<svg xmlns="http://www.w3.org/2000/svg" viewBox="2629.84 1256.179 403.145 307.821">
  <defs>
    <style>
      .cls-1 {
        fill: #addbc7;
      }

      .cls-2 {
        fill: #d2ebe1;
      }

      .cls-14, .cls-15, .cls-22, .cls-3, .cls-30, .cls-69 {
        fill: none;
      }

      .cls-3 {
        stroke: #e2d1b3;
        stroke-width: 2px;
      }

      .cls-14, .cls-22, .cls-3, .cls-30, .cls-69 {
        stroke-miterlimit: 10;
      }

      .cls-4 {
        fill: #5d7a7e;
      }

      .cls-18, .cls-4, .cls-47 {
        opacity: 0.4;
      }

      .cls-5 {
        fill: #cfc893;
      }

      .cls-6 {
        fill: #898984;
      }

      .cls-7 {
        fill: #7ebabc;
      }

      .cls-8 {
        fill: #99d4c0;
      }

      .cls-9 {
        fill: #d7b0a4;
      }

      .cls-10 {
        fill: #d1afa3;
      }

      .cls-11 {
        fill: #8994a4;
      }

      .cls-12 {
        fill: #8d8888;
      }

      .cls-13 {
        fill: #e8cbc6;
      }

      .cls-14 {
        stroke: #a3a0a0;
      }

      .cls-15 {
        stroke: #010101;
        stroke-linecap: round;
        stroke-linejoin: round;
        stroke-width: 0.5px;
      }

      .cls-16 {
        fill: #969291;
      }

      .cls-17 {
        fill: #b6a19b;
      }

      .cls-18, .cls-48, .cls-61 {
        fill: #4a5f4f;
      }

      .cls-19 {
        fill: #8eab9a;
      }

      .cls-20 {
        fill: #b7c1bc;
      }

      .cls-21 {
        fill: #9a9796;
      }

      .cls-22, .cls-30 {
        stroke: #e5f4f4;
      }

      .cls-22 {
        stroke-width: 6px;
      }

      .cls-23 {
        fill: #b5d4ed;
      }

      .cls-24 {
        fill: #838c9b;
      }

      .cls-25, .cls-67 {
        fill: #b1cce2;
      }

      .cls-26 {
        fill: #cadfde;
      }

      .cls-27 {
        fill: #981b24;
      }

      .cls-28 {
        fill: #e3626a;
      }

      .cls-29 {
        fill: #e5474c;
      }

      .cls-30 {
        stroke-width: 3px;
      }

      .cls-31 {
        fill: #4c8651;
      }

      .cls-32 {
        fill: #68b06d;
      }

      .cls-33 {
        fill: #6c5f3e;
      }

      .cls-34 {
        fill: #569058;
      }

      .cls-35 {
        fill: #6c6656;
      }

      .cls-36 {
        fill: #b6dba8;
      }

      .cls-37 {
        fill: #96cf95;
      }

      .cls-38 {
        fill: #787160;
      }

      .cls-39 {
        fill: #c3b083;
      }

      .cls-40 {
        fill: #7ac798;
      }

      .cls-41 {
        fill: #63a27a;
      }

      .cls-42 {
        fill: #64a17b;
      }

      .cls-43 {
        fill: #beb193;
      }

      .cls-44 {
        fill: #6cb6c2;
      }

      .cls-45 {
        fill: #97cfa0;
      }

      .cls-46 {
        fill: #70b086;
      }

      .cls-49 {
        fill: #7b7665;
      }

      .cls-50 {
        fill: #a08c84;
      }

      .cls-51 {
        fill: #7b7766;
      }

      .cls-52 {
        fill: #437555;
      }

      .cls-53 {
        fill: #787e8b;
      }

      .cls-54 {
        fill: #8f8d7b;
      }

      .cls-55 {
        fill: #b0ab90;
      }

      .cls-56 {
        fill: #c6c1ab;
      }

      .cls-57 {
        fill: #b7ba8e;
      }

      .cls-58 {
        fill: #737c68;
      }

      .cls-59 {
        fill: #a7a28c;
      }

      .cls-60 {
        fill: #c5c699;
      }

      .cls-61 {
        opacity: 0.2;
      }

      .cls-62 {
        fill: #69b5af;
      }

      .cls-63 {
        fill: #5cadc2;
      }

      .cls-64 {
        fill: #a3c4df;
      }

      .cls-65 {
        fill: #5fad99;
      }

      .cls-66 {
        fill: #a3aca6;
      }

      .cls-67 {
        opacity: 0.1;
      }

      .cls-68 {
        fill: #7995aa;
      }

      .cls-69 {
        stroke: #7995aa;
      }

      .cls-70 {
        fill: #676477;
      }

      .cls-71 {
        fill: #a8b4c6;
      }

      .cls-72 {
        fill: #757d89;
      }

      .cls-73 {
        fill: #ef8c42;
      }

      .cls-74 {
        fill: #e1b9af;
      }
    </style>
  </defs>
  <g id="Group_1374" data-name="Group 1374" transform="translate(2629.848 1256.179)">
    <g id="XMLID_25_" transform="translate(34.873 47.149)">
      <g id="Group_1315" data-name="Group 1315">
        <g id="Group_1314" data-name="Group 1314">
          <path id="Path_2613" data-name="Path 2613" class="cls-1" d="M28.4,111.211l185.65,70.724L379.073,109,210.858,38.4C108.21,77.323,126.75,73.762,28.4,111.211Z" transform="translate(-28.4 -38.4)"/>
        </g>
      </g>
    </g>
    <path id="Path_2614" data-name="Path 2614" class="cls-2" d="M131.875,48C111,55.858,118.614,53.034,98.6,60.647" transform="translate(22.467 10.937)"/>
    <path id="Path_2615" data-name="Path 2615" class="cls-3" d="M211.207,94.4C139.992,121.413,166.145,111.467,98,137.375" transform="translate(22.331 21.509)"/>
    <path id="Path_2616" data-name="Path 2616" class="cls-3" d="M300.307,88.6c-71.215,27.013-45.062,17.067-113.207,42.975" transform="translate(42.632 20.187)"/>
    <path id="Path_2617" data-name="Path 2617" class="cls-3" d="M232.207,47.8C160.992,74.813,187.145,64.867,119,90.775" transform="translate(27.115 10.891)"/>
    <path id="Path_2618" data-name="Path 2618" class="cls-3" d="M164,104.2c11.665,4.42,21.365,8.1,57.34,21.733" transform="translate(37.368 23.742)"/>
    <path id="Path_2619" data-name="Path 2619" class="cls-3" d="M127.5,82.4c11.665,4.42,21.365,8.1,57.34,21.733" transform="translate(29.052 18.774)"/>
    <path id="Path_2620" data-name="Path 2620" class="cls-4" d="M200.566,101.428,172.448,90.5,128,91.114l.246,27.627,35.485-.491.859,12.4,21-3.315,14-5.771-14.12-5.525Z" transform="translate(29.166 20.62)"/>
    <g id="XMLID_24_" transform="translate(66.674 1.832)">
      <g id="Group_1316" data-name="Group 1316">
        <path id="Path_2621" data-name="Path 2621" class="cls-5" d="M187.153,62.28,142.091,79.1,85.856,78,54.3,50.125,105.256,12.8C116.92,5.185,135.461.642,152.773,1.625,152.773,1.625,185.925,5.922,187.153,62.28Z" transform="translate(-54.3 -1.492)"/>
        <path id="Path_2622" data-name="Path 2622" class="cls-6" d="M134.5,1.6a62.422,62.422,0,0,1,20.628,4.42A61.254,61.254,0,0,1,174.037,18.3,63.561,63.561,0,0,1,187.3,36.594l3.929,8.472-1.105,9.209L168.88,62.256C167.652,5.9,134.5,1.6,134.5,1.6Z" transform="translate(-36.027 -1.467)"/>
      </g>
    </g>
    <g id="XMLID_23_" transform="translate(3.417 31.678)">
      <g id="Group_1317" data-name="Group 1317">
        <path id="Path_2623" data-name="Path 2623" class="cls-7" d="M145.386,118.7,99.1,136.5l-1.351-3.438C96.272,75.235,87.677,47.608,78.1,34.839l.246-.123a33.339,33.339,0,0,1,13.015-1.6h.246a16.134,16.134,0,0,1,12.524,7.735l.123.123a16.785,16.785,0,0,1,2.333,8.349v.737a5.566,5.566,0,0,1,5.034,3.07l1.351,2.456,2.824-2.21a11.509,11.509,0,0,1,5.771-2.456,11.721,11.721,0,0,1,9.823,3.315l14.243,14.12V118.7Z" transform="translate(14.38 -24.156)"/>
        <path id="Path_2624" data-name="Path 2624" class="cls-8" d="M2.8,144.778a25.59,25.59,0,0,1,10.805-22.1c4.42-3.192,8.472-6.016,8.472-6.016l-8.718-17.8a12.134,12.134,0,0,1,.737-11.91l.123-.123a11.645,11.645,0,0,1,6.385-4.911c4.175-1.473,10.068-3.561,10.068-3.561V64.845a44.408,44.408,0,0,1,12.4-30.819l.368-.491A25.3,25.3,0,0,1,61.5,25.8h.246a25.184,25.184,0,0,1,15.225,5.034l11.051,8.227,7.244-2.456c9.577,12.77,18.172,40.4,19.646,98.228l1.351,3.438L26.011,173.141l-12.4-8.472A24.531,24.531,0,0,1,2.8,145.269Z" transform="translate(-2.781 -25.8)"/>
      </g>
    </g>
    <g id="XMLID_22_" transform="translate(193.879)">
      <g id="Group_1318" data-name="Group 1318">
        <path id="Path_2625" data-name="Path 2625" class="cls-8" d="M266.81,84.676l-36.344-3.561L166.74,58.646c13.015-13.384-13.506-20.751-8.1-30.328a7.9,7.9,0,0,1,13.506-.491l1.473,2.21c5.157-7.244,11.542-15.471,19.891-19.646,13.875-6.876,26.4,7.613,26.4,7.613,3.438-6.139,8.84-9.577,15.839-2.578,0,0,3.192-15.348,10.559-15.225,9.823,2.21,13.261,12.892,14.489,22.961C263,38.877,265.7,71.17,266.81,84.676Z" transform="translate(-157.9 0.045)"/>
        <path id="Path_2626" data-name="Path 2626" class="cls-7" d="M282.589,71.952l5.034,16.33L250.542,84.6c-1.105-13.506-3.806-45.8-5.771-61.638C242.192,3.684,235.439,2.824,229.3,0c15.962,3.07,28.24,3.929,32.292,58.937,6.262,1.6,15.962,5.4,19.523,10.805Z" transform="translate(-141.632)"/>
      </g>
    </g>
    <path id="Path_2627" data-name="Path 2627" class="cls-4" d="M322.966,85.546,311.547,75.6l-44.571.614-6.262,8.227-29.1.246L221.3,92.053l63.111-.982-8.349-4.911Z" transform="translate(50.424 17.225)"/>
    <path id="Path_2628" data-name="Path 2628" class="cls-4" d="M148.1,67.228,231.716,66l-29.468-9.7-44.448.614-8.84,12.647" transform="translate(33.746 12.828)"/>
    <path id="Path_2629" data-name="Path 2629" class="cls-4" d="M163.6,78.728,247.216,77.5l-29.591-9.7-44.448.614-8.84,12.647" transform="translate(37.277 15.448)"/>
    <path id="Path_2630" data-name="Path 2630" class="cls-9" d="M254,31.8s1.228,8.718,1.228,10.559S266.4,36.22,266.4,36.22Z" transform="translate(57.874 7.245)"/>
    <g id="XMLID_21_" transform="translate(173.496 27.381)">
      <g id="Group_1322" data-name="Group 1322">
        <path id="Path_2631" data-name="Path 2631" class="cls-2" d="M257.356,44.4l-2.456.982C255.637,45.014,256.5,44.768,257.356,44.4Z" transform="translate(-115.417 -17.265)"/>
        <path id="Path_2632" data-name="Path 2632" class="cls-2" d="M259.865,43.4l-1.965.737c.614-.246,1.228-.491,1.965-.737Z" transform="translate(-114.733 -17.492)"/>
        <path id="Path_2633" data-name="Path 2633" class="cls-9" d="M215.1,53.514a32.153,32.153,0,0,0,17.681,1.351,3.256,3.256,0,0,0-.614.737l-5.771,2.21c-2.578-.982-7.121-2.7-12.892-4.911A8.527,8.527,0,0,0,215.1,53.514Z" transform="translate(-124.85 -15.328)"/>
        <path id="Path_2634" data-name="Path 2634" class="cls-9" d="M234.225,53.4,228.7,55.487c.246-.246.368-.491.614-.737A22.378,22.378,0,0,0,234.225,53.4Z" transform="translate(-121.386 -15.214)"/>
        <g id="Group_1319" data-name="Group 1319" transform="translate(123.398 29.898)">
          <path id="Path_2635" data-name="Path 2635" class="cls-10" d="M271.085,47.2a9.5,9.5,0,0,0-6.385,0,12.093,12.093,0,0,1,1.6,5.894V77.9c.491.123,9.946,3.806,11.3,4.3V57.148A10.346,10.346,0,0,0,271.085,47.2Z" transform="translate(-236.582 -46.65)"/>
          <path id="Path_2636" data-name="Path 2636" class="cls-10" d="M250.763,57.7a12.033,12.033,0,0,0-2.7-1.6,9.146,9.146,0,0,0-6.262,0,11.532,11.532,0,0,1,1.473,5.771v24.68c.246.123,4.3,1.6,7.49,2.824,1.719.614,3.315,1.228,3.684,1.351h0V66.048A10.1,10.1,0,0,0,250.763,57.7Z" transform="translate(-241.8 -44.622)"/>
        </g>
        <path id="Path_2637" data-name="Path 2637" class="cls-9" d="M149.649,75.673h0L146.7,75.8c0-11.91-1.228-33.029-5.4-43.22V25.7s92.334,34.871,101.42,38.309V110.79l-24.925-9.454V71.99h-.246a10.883,10.883,0,0,0-.491-5.894c-1.351-4.42-4.3-7-7.49-7.858-.123,0-.246,0-.246-.123a.928.928,0,0,0-.491-.123,8.546,8.546,0,0,0-3.929.246c-.246.123-.491.123-.737.246h-.123c-.123,0-.246.123-.491.246-.123,0-.123.123-.246.123-.123.123-.368.123-.491.246h0a8.7,8.7,0,0,0-3.438,4.3c-.123.246-.123.368-.246.614a1.107,1.107,0,0,0-.123.614c-.123.246-.123.614-.246.982a2.7,2.7,0,0,0-.123.982v1.105h0v26.4L192.992,92V60.694h0a15.327,15.327,0,0,0-.614-3.929,11.825,11.825,0,0,0-6.139-7.244c-.246-.123-.368-.246-.614-.246a9.4,9.4,0,0,0-5.525-.246c-.246.123-.491.123-.737.246a9.04,9.04,0,0,0-5.157,7.122v.123a1.82,1.82,0,0,0-.123.859v.982h0V85l-5.648-2.087V51.73h0a15.329,15.329,0,0,0-.614-3.929,11.825,11.825,0,0,0-6.139-7.244,8.829,8.829,0,0,0-6.139-.491c-3.806,1.228-6.139,5.034-6.139,9.454h0V75.673Z" transform="translate(-141.3 -21.525)"/>
        <path id="Path_2638" data-name="Path 2638" class="cls-11" d="M203.882,63.5v3.192a8.458,8.458,0,0,1-.982-.368,17.389,17.389,0,0,0,.859-2.7Z" transform="translate(-127.265 -12.913)"/>
        <path id="Path_2639" data-name="Path 2639" class="cls-9" d="M196.891,52.323c-.246,0-.368-.123-.491-.123A.738.738,0,0,1,196.891,52.323Z" transform="translate(-128.746 -15.487)"/>
        <path id="Path_2640" data-name="Path 2640" class="cls-9" d="M193.337,52.369a8.546,8.546,0,0,1,3.929-.246,8.619,8.619,0,0,0-4.666.491A1.745,1.745,0,0,0,193.337,52.369Z" transform="translate(-129.612 -15.534)"/>
        <path id="Path_2641" data-name="Path 2641" class="cls-9" d="M188.546,57.6c-.123.246-.123.614-.246.982C188.423,58.214,188.423,57.968,188.546,57.6Z" transform="translate(-130.591 -14.257)"/>
        <path id="Path_2642" data-name="Path 2642" class="cls-9" d="M188.423,58.4a2.393,2.393,0,0,0-.123.982A2.7,2.7,0,0,1,188.423,58.4Z" transform="translate(-130.591 -14.075)"/>
        <path id="Path_2643" data-name="Path 2643" class="cls-9" d="M188.2,59.3v0Z" transform="translate(-130.614 -13.87)"/>
        <path id="Path_2644" data-name="Path 2644" class="cls-9" d="M168.2,52.5h0v0Z" transform="translate(-135.171 -15.419)"/>
        <g id="Group_1320" data-name="Group 1320" transform="translate(8.349 17.067)">
          <path id="Path_2645" data-name="Path 2645" class="cls-12" d="M289.544,36.691l-13.261,5.034-4.543,1.719c-1.228.491-2.456.859-3.684,1.351l-.491.246-1.965.737c-.368.123-.859.368-1.228.491l-2.456.982c-1.228.491-2.578.982-3.806,1.473h0c-7,2.7-13.629,5.157-17.927,6.753-.246.123-.614.246-.859.368h0c-2.21.859-3.684,1.351-3.929,1.473l-5.525,2.087-5.771,2.21V108.4l13.752-5.28V72.544a12.375,12.375,0,0,1,.737-4.666,11.97,11.97,0,0,1,7.244-7.367,9.929,9.929,0,0,1,6.262,0,7.506,7.506,0,0,1,2.7,1.6,10.96,10.96,0,0,1,3.806,8.349v24.8l7.49-2.824V61a13.026,13.026,0,0,1,.737-4.175,11.886,11.886,0,0,1,7.121-7.244,9.5,9.5,0,0,1,6.385,0,10.346,10.346,0,0,1,6.508,9.946V84.577l4.175-1.6V36.2Z" transform="translate(-130.784 -36.2)"/>
          <path id="Path_2646" data-name="Path 2646" class="cls-12" d="M199.151,52.368c-.123,0-.246,0-.246-.123-.246,0-.368-.123-.614-.123a8.619,8.619,0,0,0-4.666.491H193.5c-.123,0-.246.123-.491.246-.123,0-.123,0-.246.123a.931.931,0,0,1-.491.246h0a9.135,9.135,0,0,0-3.438,4.3c-.123.246-.123.368-.246.614a1.107,1.107,0,0,0-.123.614c-.123.246-.123.614-.246.982,0,.246-.123.614-.123.982v1.105h0v26.4h0c1.228-.491,10.805-4.052,11.3-4.3V57.647h0a11.312,11.312,0,0,1,.982-4.666,2.074,2.074,0,0,0-.614-.246C199.642,52.49,199.4,52.49,199.151,52.368Z" transform="translate(-138.986 -32.599)"/>
          <path id="Path_2647" data-name="Path 2647" class="cls-12" d="M174.316,44.871c-.246.123-.491.123-.737.246a9.04,9.04,0,0,0-5.157,7.122v.123c0,.246-.123.614-.123.859v27.5c1.228-.491,10.805-4.052,11.3-4.3V50.151h0a11.312,11.312,0,0,1,.982-4.666,2.074,2.074,0,0,0-.614-.246A7.6,7.6,0,0,0,174.316,44.871Z" transform="translate(-143.498 -34.312)"/>
          <path id="Path_2648" data-name="Path 2648" class="cls-12" d="M154.239,37.379c-3.806,1.228-6.139,5.034-6.139,9.454h0V73.11c1.228-.491,10.805-4.052,11.3-4.3V42.536h0a11.312,11.312,0,0,1,.982-4.666A7.66,7.66,0,0,0,154.239,37.379Z" transform="translate(-148.1 -36.029)"/>
        </g>
        <g id="Group_1321" data-name="Group 1321" transform="translate(0.246)">
          <path id="Path_2649" data-name="Path 2649" class="cls-13" d="M308.487,35.684,278.159,25c.491,2.7.982,5.771,1.473,9.086,2.21.859,4.42,1.6,6.63,2.456a1.578,1.578,0,0,1,0,2.947c-1.719.614-3.561,1.351-5.648,2.087-9.209,3.438-21.242,7.613-29.223,10.682a27.762,27.762,0,0,1-19.4,0l-70.6-26.644L152.8,22.3s-10.437,3.929-11.3,4.3c0,0,67.531,25.539,90.247,34.011a32.153,32.153,0,0,0,17.681,1.351,30.646,30.646,0,0,0,4.789-1.351c.491-.123,53.289-20.259,54.271-20.628h.123a2.1,2.1,0,0,0,1.351-1.965v-.368A2.439,2.439,0,0,0,308.487,35.684Z" transform="translate(-141.5 -22.3)"/>
          <path id="Path_2650" data-name="Path 2650" class="cls-14" d="M278.058,27.178l22.592,7.981a2.3,2.3,0,0,1,0,4.3c-14.243,5.4-47.763,18.172-48.132,18.295a29.688,29.688,0,0,1-4.42,1.228,32.243,32.243,0,0,1-6.016.614,29.462,29.462,0,0,1-10.314-1.842c-18.418-7-67.04-25.294-84.107-31.8L144.1,24.6" transform="translate(-140.908 -21.776)"/>
          <path id="Path_2651" data-name="Path 2651" class="cls-14" d="M147.7,23.3l11.173,4.3,70.6,26.644a31.524,31.524,0,0,0,14.734,1.719,43.324,43.324,0,0,0,6.876-1.719c5.157-1.965,12.033-4.42,18.54-6.753,3.561-1.228,7.122-2.578,10.314-3.684,2.087-.737,3.929-1.473,5.648-2.087,2.333-.859,4.543-1.719,6.753-2.578a1.323,1.323,0,0,0,0-2.456l-14.611-5.525" transform="translate(-140.087 -22.072)"/>
        </g>
      </g>
      <g id="Group_1323" data-name="Group 1323" transform="translate(153.235 61.147)">
        <path id="Path_2652" data-name="Path 2652" class="cls-15" d="M266.1,72.1c.491.123,9.946,3.806,11.3,4.3" transform="translate(-266.1 -72.1)"/>
      </g>
    </g>
    <path id="Path_2653" data-name="Path 2653" class="cls-4" d="M248.2,84.03c.368-.368,4.911-6.63,4.911-6.63v8.595Z" transform="translate(56.553 17.635)"/>
    <g id="Group_1326" data-name="Group 1326" transform="translate(280.564 106.577)">
      <path id="Path_2654" data-name="Path 2654" class="cls-4" d="M240.937,118.08l21-3.315,14.12-5.771-15.1-5.894L240.2,105.187l.737,12.892" transform="translate(-225.834 -83.086)"/>
      <path id="Path_2655" data-name="Path 2655" class="cls-16" d="M248.39,91.5c-1.228,1.719.123-.123-7.49,10.191v19.032l15.1-5.771V95.92Z" transform="translate(-225.675 -85.729)"/>
      <path id="Path_2656" data-name="Path 2656" class="cls-17" d="M236.09,86.8,228.6,96.991l15.1,5.771c7.613-10.314,6.262-8.472,7.49-10.191Z" transform="translate(-228.477 -86.8)"/>
      <g id="XMLID_20_" transform="translate(0 10.191)">
        <g id="Group_1325" data-name="Group 1325">
          <g id="Group_1324" data-name="Group 1324">
            <path id="Path_2657" data-name="Path 2657" class="cls-10" d="M228.5,114.132l15.1,5.771V100.871L228.5,95.1Z" transform="translate(-228.5 -95.1)"/>
          </g>
        </g>
      </g>
    </g>
    <g id="Group_1328" data-name="Group 1328" transform="translate(194.861 79.687)">
      <path id="Path_2658" data-name="Path 2658" class="cls-18" d="M171.481,93.757l18.54-3.561,13.752-6.016.859-2.824L188.057,78.9,163.5,81.847l7.981,11.91" transform="translate(-157.606 -61.71)"/>
      <path id="Path_2659" data-name="Path 2659" class="cls-19" d="M178.052,64.9,164.3,70.18c1.105,1.473-.123-.123,6.876,9.332l13.752-5.28Z" transform="translate(-157.424 -64.9)"/>
      <g id="Group_1327" data-name="Group 1327" transform="translate(0 5.28)">
        <path id="Path_2660" data-name="Path 2660" class="cls-20" d="M172.452,78.409V95.844L158.7,90.565V73.252l6.876-4.052C166.558,70.673,165.453,69.077,172.452,78.409Z" transform="translate(-158.7 -69.2)"/>
      </g>
      <path id="Path_2661" data-name="Path 2661" class="cls-21" d="M169.9,95.092l13.752-5.28V72.5L169.9,77.657Z" transform="translate(-156.148 -63.168)"/>
    </g>
    <path id="Path_2695" data-name="Path 2695" class="cls-22" d="M259.1,65.224v86.318h69.373V66.329L292.375,52.7C271.5,60.558,279.114,57.611,259.1,65.224Z" transform="translate(59.036 12.007)"/>
    <g id="Group_1329" data-name="Group 1329" transform="translate(121.19 71.583)">
      <path id="Path_2662" data-name="Path 2662" class="cls-11" d="M128,71.724v53.288l33.275-12.647V59.2Z" transform="translate(-92.024 -58.095)"/>
      <path id="Path_2663" data-name="Path 2663" class="cls-23" d="M98.7,58.3v53.288l36.1,13.752V72.052Z" transform="translate(-98.7 -58.3)"/>
    </g>
    <g id="XMLID_19_" transform="translate(121.19 58.937)">
      <g id="Group_1331" data-name="Group 1331">
        <g id="Group_1330" data-name="Group 1330">
          <path id="Path_2664" data-name="Path 2664" class="cls-2" d="M98.7,60.647l35.976,13.629,33.275-12.647L131.852,48C110.978,55.981,118.714,53.034,98.7,60.647Z" transform="translate(-98.7 -48)"/>
        </g>
      </g>
    </g>
    <path id="Path_2665" data-name="Path 2665" class="cls-24" d="M321.775,63.8v85.212H288.5V76.447Z" transform="translate(65.735 14.537)"/>
    <path id="Path_2666" data-name="Path 2666" class="cls-25" d="M295.2,76.652v72.566H259.1V62.9Z" transform="translate(59.036 14.331)"/>
    <path id="Path_2667" data-name="Path 2667" class="cls-26" d="M292.375,52.6C271.5,60.581,279.114,57.634,259.1,65.247l36.1,13.629,33.275-12.647Z" transform="translate(59.036 11.985)"/>
    <g id="Group_1335" data-name="Group 1335" transform="translate(320.469 88.896)">
      <g id="Group_1332" data-name="Group 1332" transform="translate(15.962 3.315)">
        <path id="Path_2668" data-name="Path 2668" class="cls-27" d="M280,87.7V100.22l4.175-1.6V86.1Z" transform="translate(-272.633 -72.594)"/>
        <path id="Path_2669" data-name="Path 2669" class="cls-27" d="M274,102.69v3.192l4.175-1.6V96.8c-1.351-.491-2.824-1.105-4.175-1.6Z" transform="translate(-274 -70.52)"/>
        <path id="Path_2670" data-name="Path 2670" class="cls-27" d="M274,84.186v3.192l4.052-1.6h.123V75.1L274,76.7Z" transform="translate(-274 -75.1)"/>
      </g>
      <g id="XMLID_18_" transform="translate(0 1.596)">
        <g id="Group_1333" data-name="Group 1333">
          <path id="Path_2671" data-name="Path 2671" class="cls-28" d="M275.595,77.015v1.351c-1.719-.614-3.07-1.105-4.42-1.719-1.228-.491-2.578-.982-4.175-1.6V73.7c1.719.614,2.947,1.105,4.175,1.6C272.525,75.91,273.876,76.4,275.595,77.015Z" transform="translate(-259.633 -73.7)"/>
          <path id="Path_2672" data-name="Path 2672" class="cls-28" d="M276.962,87.447V78.115c-1.719-.614-3.07-1.105-4.42-1.719-1.228-.491-2.578-.982-4.175-1.6v9.332c-2.824-1.105-5.4-2.087-7.367-2.824V93.832c2.456.982,4.911,1.842,7.367,2.824v10.682c3.438,1.351,5.157,1.965,8.595,3.315V99.971c1.351.491,2.824,1.105,4.175,1.6,1.105.368,2.087.859,3.192,1.228V90.271C284.083,90.148,277.822,87.692,276.962,87.447Z" transform="translate(-261 -73.449)"/>
        </g>
      </g>
      <g id="Group_1334" data-name="Group 1334" transform="translate(0.123)">
        <path id="Path_2673" data-name="Path 2673" class="cls-29" d="M278.3,83.8h0L274,85.273V85.4c1.351.491,2.824,1.105,4.175,1.6a34.056,34.056,0,0,1,3.192,1.228l4.175-1.6C283.086,85.642,280.63,84.659,278.3,83.8Z" transform="translate(-258.161 -69.803)"/>
        <path id="Path_2674" data-name="Path 2674" class="cls-29" d="M279.87,75.715c-3.438-1.351-5.157-1.965-8.595-3.315L267.1,74c1.719.614,2.947,1.105,4.175,1.6,1.351.491,2.578.982,4.42,1.719Z" transform="translate(-259.733 -72.4)"/>
        <path id="Path_2675" data-name="Path 2675" class="cls-29" d="M261.1,80.4c1.351.491,2.824,1.105,4.175,1.6a34.054,34.054,0,0,1,3.192,1.228V80.028a34.037,34.037,0,0,1-3.192-1.228Z" transform="translate(-261.1 -70.942)"/>
      </g>
    </g>
    <g id="Group_1338" data-name="Group 1338" transform="translate(160.972 83.739)">
      <g id="Group_1337" data-name="Group 1337">
        <g id="XMLID_17_">
          <g id="Group_1336" data-name="Group 1336">
            <path id="Path_2676" data-name="Path 2676" class="cls-27" d="M157.929,78.458V89.632c-2.456.982-4.911,1.842-7.367,2.824v10.682c-3.438,1.351-5.157,1.965-8.595,3.315V95.771c-1.351.491-2.824,1.105-4.175,1.6-1.105.368-2.087.859-3.192,1.228V86.071a34.05,34.05,0,0,0,3.192-1.228c.368-.123.614-.246.982-.368.246-.123.368-.123.614-.246.491-.123.982-.368,1.473-.491a5.984,5.984,0,0,1,.859-.368.429.429,0,0,0,.246-.123h.123V73.792c1.719-.614,3.07-1.105,4.42-1.6,1.228-.491,2.578-.982,4.175-1.6v9.332l1.105-.368c.737-.246,1.351-.491,2.087-.737a22.135,22.135,0,0,1,2.578-.982c.491-.246,1.105-.368,1.6-.614h0A3.785,3.785,0,0,0,157.929,78.458Z" transform="translate(-130.303 -67.653)"/>
            <path id="Path_2677" data-name="Path 2677" class="cls-27" d="M153.6,75.9Z" transform="translate(-125.973 -66.446)"/>
            <path id="Path_2678" data-name="Path 2678" class="cls-29" d="M154.967,76.2c-.491.246-1.105.368-1.6.614-1.351.491-2.947,1.105-4.666,1.842l-1.105.368V75.828a34.052,34.052,0,0,0,3.192-1.228Z" transform="translate(-127.341 -66.742)"/>
            <path id="Path_2679" data-name="Path 2679" class="cls-29" d="M153.166,76.4c-.859.368-1.719.614-2.578.982-.737.246-1.351.491-2.087.737C150.219,77.505,151.815,76.891,153.166,76.4Z" transform="translate(-127.135 -66.332)"/>
            <path id="Path_2680" data-name="Path 2680" class="cls-27" d="M149.195,69.5v1.351c-1.719.614-2.947,1.105-4.175,1.6-1.351.491-2.578.982-4.42,1.6V72.692a12.739,12.739,0,0,0,1.228-.491l1.105-.368a8.457,8.457,0,0,0,.982-.368c.368-.123.614-.246.982-.368s.614-.246.982-.368.614-.246.982-.368C147.6,70.114,148.335,69.868,149.195,69.5Z" transform="translate(-128.935 -67.904)"/>
            <path id="Path_2681" data-name="Path 2681" class="cls-29" d="M145.772,68.2l4.175,1.6c-.86.368-1.6.614-2.21.859-.368.123-.614.246-.982.368s-.614.246-.982.368-.614.246-.982.368a8.461,8.461,0,0,0-.982.368L142.7,72.5a5.131,5.131,0,0,0-1.228.491h0l-4.175-1.6C140.615,70.165,142.334,69.428,145.772,68.2Z" transform="translate(-129.687 -68.2)"/>
            <path id="Path_2682" data-name="Path 2682" class="cls-29" d="M145.982,70.2c-.368.123-.614.246-.982.368A8.462,8.462,0,0,1,145.982,70.2Z" transform="translate(-127.933 -67.744)"/>
            <path id="Path_2683" data-name="Path 2683" class="cls-29" d="M144.2,70.868c.368-.123.614-.246.982-.368C144.814,70.623,144.568,70.746,144.2,70.868Z" transform="translate(-128.115 -67.676)"/>
            <path id="Path_2684" data-name="Path 2684" class="cls-29" d="M142.5,71.468a8.461,8.461,0,0,0,.982-.368A8.462,8.462,0,0,1,142.5,71.468Z" transform="translate(-128.503 -67.539)"/>
            <path id="Path_2685" data-name="Path 2685" class="cls-29" d="M141.6,71.868l1.105-.368A2.827,2.827,0,0,0,141.6,71.868Z" transform="translate(-128.708 -67.448)"/>
            <path id="Path_2686" data-name="Path 2686" class="cls-29" d="M140.6,72.191a12.742,12.742,0,0,0,1.228-.491,3.677,3.677,0,0,1-1.228.491Z" transform="translate(-128.935 -67.403)"/>
            <path id="Path_2687" data-name="Path 2687" class="cls-28" d="M141.375,99.74v1.842l-4.175-1.6V92.5c1.351-.491,2.824-1.105,4.175-1.6v8.84Z" transform="translate(-129.71 -63.028)"/>
            <path id="Path_2688" data-name="Path 2688" class="cls-29" d="M142.765,81.073h0c-.123.123-.246.123-.368.246a5.987,5.987,0,0,1-.859.368c-.491.123-.982.368-1.473.491-.246.123-.368.123-.614.246-.368.123-.614.246-.982.368a34.049,34.049,0,0,0-3.192,1.228l-4.175-1.6c2.456-.982,4.911-1.842,7.367-2.824h.123Z" transform="translate(-131.1 -65.603)"/>
            <path id="Path_2689" data-name="Path 2689" class="cls-28" d="M141.375,81.237v1.842l-4.052-1.6H137.2V70.8l4.175,1.6v1.351C141.375,76.2,141.375,78.781,141.375,81.237Z" transform="translate(-129.71 -67.608)"/>
            <path id="Path_2690" data-name="Path 2690" class="cls-29" d="M140.546,80.9c-.123,0-.123.123-.246.123A.38.38,0,0,1,140.546,80.9Z" transform="translate(-129.004 -65.306)"/>
            <path id="Path_2691" data-name="Path 2691" class="cls-29" d="M140.46,80.9a5.985,5.985,0,0,1-.859.368A5.987,5.987,0,0,0,140.46,80.9Z" transform="translate(-129.163 -65.306)"/>
            <path id="Path_2692" data-name="Path 2692" class="cls-29" d="M138.614,81.6c-.246.123-.368.123-.614.246C138.246,81.846,138.368,81.723,138.614,81.6Z" transform="translate(-129.528 -65.147)"/>
            <path id="Path_2693" data-name="Path 2693" class="cls-28" d="M135.475,93.978V95.82l-4.175-1.6V81.7l4.175,1.6V93.978Z" transform="translate(-131.054 -65.124)"/>
          </g>
        </g>
      </g>
    </g>
    <path id="Path_2694" data-name="Path 2694" class="cls-30" d="M167.973,115.04V61.752L131.875,48C111,55.858,118.614,53.034,98.6,60.647v53.288" transform="translate(22.467 10.937)"/>
    <g id="Group_1367" data-name="Group 1367" transform="translate(-0.008 75.021)">
      <g id="XMLID_16_" transform="translate(360.215 18.786)">
        <g id="Group_1339" data-name="Group 1339">
          <path id="Path_2696" data-name="Path 2696" class="cls-31" d="M301.5,119.261c2.087-7,6.508-22.592,6.876-34.871A12.228,12.228,0,0,0,305.8,76.9a9.448,9.448,0,0,1,6.016,8.718,31.777,31.777,0,0,1-.491,7.613c-3.07,18.172-9.577,26.153-9.577,26.153S301.5,119.506,301.5,119.261Z" transform="translate(-291.51 -76.286)"/>
          <path id="Path_2697" data-name="Path 2697" class="cls-32" d="M307.528,77.137a11.957,11.957,0,0,0-4.175-.737c-4.911,0-9.7,3.192-9.946,9.454a31.778,31.778,0,0,0,.491,7.613c2.333,13.384,6.385,21.242,8.472,24.434.491.737.859,1.228.982,1.473,2.087-7,6.508-22.592,6.876-34.871A11.939,11.939,0,0,0,307.528,77.137Z" transform="translate(-293.364 -76.4)"/>
        </g>
      </g>
      <g id="XMLID_15_" transform="translate(373.029 113.085)">
        <g id="Group_1341" data-name="Group 1341">
          <g id="Group_1340" data-name="Group 1340">
            <path id="Path_2698" data-name="Path 2698" class="cls-33" d="M310.43,153.2a91.906,91.906,0,0,1-6.63,10.314,78.083,78.083,0,0,0,7.244-10.068Z" transform="translate(-303.8 -153.2)"/>
          </g>
        </g>
      </g>
      <g id="XMLID_14_" transform="translate(373.029 113.085)">
        <g id="Group_1343" data-name="Group 1343">
          <g id="Group_1342" data-name="Group 1342">
            <path id="Path_2699" data-name="Path 2699" class="cls-33" d="M310.43,153.2a91.906,91.906,0,0,1-6.63,10.314,78.083,78.083,0,0,0,7.244-10.068Z" transform="translate(-303.8 -153.2)"/>
          </g>
        </g>
      </g>
      <line id="Line_55" data-name="Line 55" class="cls-25" x1="18.786" y1="7.122" transform="translate(74.662 83.493)"/>
      <g id="XMLID_13_" transform="translate(26.732 28.363)">
        <g id="Group_1344" data-name="Group 1344">
          <path id="Path_2700" data-name="Path 2700" class="cls-34" d="M29.9,127.161c2.087-7,6.508-22.592,6.876-34.871A12.228,12.228,0,0,0,34.2,84.8a9.448,9.448,0,0,1,6.016,8.718,31.777,31.777,0,0,1-.491,7.613c-3.07,18.172-9.577,26.153-9.577,26.153A.38.38,0,0,1,29.9,127.161Z" transform="translate(-19.91 -84.063)"/>
          <path id="Path_2701" data-name="Path 2701" class="cls-32" d="M35.928,84.937a11.956,11.956,0,0,0-4.175-.737c-4.911,0-9.7,3.192-9.946,9.454a31.777,31.777,0,0,0,.491,7.613c2.333,13.384,6.385,21.242,8.472,24.434.491.737.859,1.228.982,1.473,2.087-7,6.508-22.592,6.876-34.871A12.227,12.227,0,0,0,35.928,84.937Z" transform="translate(-21.764 -84.2)"/>
        </g>
      </g>
      <g id="XMLID_12_" transform="translate(0 42.685)">
        <g id="Group_1346" data-name="Group 1346">
          <path id="Path_2702" data-name="Path 2702" class="cls-35" d="M258.4,233.74c121.434-74.285,98.6-114.19,89.387-124.626-.123-.246-.368-.368-.614-.614,15.716,12.77,18.172,35.239,18.541,63.725.123,12.524-.123,21.242-.123,21.242v10.068a4.267,4.267,0,0,1-2.7,3.929L164.1,282.854V269.962l92.457-35.116h0Z" transform="translate(37.399 -92.985)"/>
          <path id="Path_2703" data-name="Path 2703" class="cls-36" d="M294.9,100.5c10.191,1.965,17.558,4.666,22.592,9.823C311.721,105.78,304.477,102.465,294.9,100.5Z" transform="translate(67.201 -94.808)"/>
          <path id="Path_2704" data-name="Path 2704" class="cls-37" d="M256.509,195.5h0c-2.7,3.192-5.771,6.63-9.209,10.191.737-.737,1.473-1.6,2.21-2.333.614-.737,1.228-1.351,1.842-1.965.123-.246.368-.368.491-.614C253.439,198.938,255.035,197.219,256.509,195.5Z" transform="translate(56.355 -73.163)"/>
          <path id="Path_2705" data-name="Path 2705" class="cls-37" d="M267.458,157.709c-3.929-4.42-10.437-7.121-17.558-9.209,7.244,2.21,13.875,4.789,17.681,9.209,7.49,8.349,7.613,21-4.175,38.554l-.123.123C275.071,178.7,274.948,166.058,267.458,157.709Z" transform="translate(56.948 -83.871)"/>
          <path id="Path_2706" data-name="Path 2706" class="cls-38" d="M248.854,125.6c0,1.842-.123,13.752-.123,25.294v14.857l-38.432-9.7C231.3,156.173,248.732,148.438,248.854,125.6Z" transform="translate(47.925 -89.089)"/>
          <path id="Path_2707" data-name="Path 2707" class="cls-36" d="M241.659,209.4c-.123.123-.246.123-.246.246a2.678,2.678,0,0,1-.614.491A1.651,1.651,0,0,0,241.659,209.4Z" transform="translate(54.874 -69.995)"/>
          <path id="Path_2708" data-name="Path 2708" class="cls-36" d="M241.505,209.7a7.947,7.947,0,0,1-1.105.982,2.679,2.679,0,0,1,.614-.491C241.137,210.068,241.259,209.823,241.505,209.7Z" transform="translate(54.783 -69.927)"/>
          <path id="Path_2709" data-name="Path 2709" class="cls-36" d="M240.4,210.5Z" transform="translate(54.783 -69.745)"/>
          <path id="Path_2710" data-name="Path 2710" class="cls-36" d="M330.629,111.116c9.209,10.314,32.047,50.342-89.387,124.626l-1.842,1.105h0l1.105-1.105h0a7.945,7.945,0,0,1,1.105-.982l.246-.246c2.456-2.333,4.789-4.666,7-6.876,3.438-3.561,6.508-7,9.332-10.191a67.451,67.451,0,0,0,14.489-10.314c19.032-17.8,30.942-38.554,35.362-61.883v-.368c.123-1.6.246-6.508-54.762-24.925,16.453-15.1,34.257-22.715,52.306-19.523.614.123,1.228.246,1.719.368,9.577,1.965,16.944,5.28,22.592,9.823A1.889,1.889,0,0,1,330.629,111.116Z" transform="translate(54.555 -94.987)"/>
          <path id="Path_2711" data-name="Path 2711" class="cls-38" d="M164.223,138.617H164.1C164.1,138.494,164.223,138.494,164.223,138.617Z" transform="translate(37.399 -86.144)"/>
          <path id="Path_2712" data-name="Path 2712" class="cls-39" d="M164.237,138.546h0c-.246-.123-.491-.123-.737-.246C163.746,138.423,163.991,138.423,164.237,138.546Z" transform="translate(37.262 -86.195)"/>
          <g id="Group_1345" data-name="Group 1345" transform="translate(110.978 46.579)">
            <path id="Path_2713" data-name="Path 2713" class="cls-40" d="M303.8,161.058c-3.929-4.42-10.437-7.121-17.558-9.209-3.315-.982-6.753-1.842-10.191-2.7V164l-38.432-9.7L186.177,141.29a36.92,36.92,0,0,1-5.157-1.6H180.9c-.246-.123-.491-.123-.737-.246h-.123a41.64,41.64,0,0,1-9.454-5.648c.982.859,1.842,1.6,2.824,2.456l.246.246.368.368a4.149,4.149,0,0,1,.737,1.473,3.283,3.283,0,0,1-3.192,4.052c-19.646.614-87.791,20.505-80.669,60.533,1.6,9.209,2.824,18.172,19.154,34.38h0l40.4,15.348L180.775,264.2l92.457-35.116h0l1.105-1.105h0a2.678,2.678,0,0,1,.614-.491c.246-.246.614-.491.859-.737,2.456-2.333,4.789-4.666,7-6.876.737-.737,1.473-1.6,2.21-2.333.614-.737,1.228-1.351,1.842-1.965.123-.246.368-.368.491-.614,1.719-1.842,3.192-3.561,4.666-5.28h-.123c-2.456,1.228-5.034,2.456-7.613,3.438l-51.569,19.523-33.643-12.77,1.473-3.929,32.17,12.156,50.1-19.032a59.9,59.9,0,0,0,16.208-9.086c.123-.123.246-.123.246-.246C311.417,182.054,311.295,169.408,303.8,161.058Z" transform="translate(-90.377 -133.8)"/>
          </g>
          <path id="Path_2714" data-name="Path 2714" class="cls-39" d="M55.255,96.154C64.1,92.593,28,121.816,60.78,186.278c18.418,36.344,51.447,51.078,69.987,59.8h0l40.4,15.348,30.328,11.542v13.015L2.7,210.466A4.139,4.139,0,0,1,0,206.291a100.836,100.836,0,0,1,4.052-25.662c7.367-25.662,21.733-56.6,40.887-75.021l.737-.737C50.712,99.592,53.781,96.768,55.255,96.154Z" transform="translate(0.008 -95.864)"/>
        </g>
      </g>
      <g id="Group_1347" data-name="Group 1347" transform="translate(46.866 26.808)">
        <path id="Path_2715" data-name="Path 2715" class="cls-41" d="M186.778,149.81c-.368-2.456-.246,0-16.576-16.453-.859-.859-1.6-.982-1.842-.614-9.332,14.611-45.921,26.521-68.023,16.33a3.078,3.078,0,0,1-.859-.491,27.821,27.821,0,0,1-11.91-10.928c-6.262-10.928-7.49-20.505-3.315-28.486,6.63-12.892,25.171-17.558,33.889-19.032.614-.123,1.105-.123,1.6-.246-13.752-6.876-29.591-9.454-48.868-4.052a24.75,24.75,0,0,0-2.824.859c-7.367,2.21-14.611,6.508-21.365,12.4,8.84-3.561-27.258,25.662,5.525,90.124,18.418,36.344,51.447,51.078,69.987,59.8h0c-16.208-16.33-17.558-25.294-19.154-34.38-7.122-40.151,61.147-60.042,80.669-60.533A3.582,3.582,0,0,0,186.778,149.81Z" transform="translate(-38.162 -82.934)"/>
        <path id="Path_2716" data-name="Path 2716" class="cls-42" d="M156.058,126.042c-11.3-11.665-22.592-23.575-35.362-32.292a10.765,10.765,0,0,0-7.981-1.719c-12.156,2.087-27.995,6.753-33.643,17.19-3.561,6.508-2.333,14.734,3.315,24.311,14,24.311,65.076,10.068,73.916-5.525A1.642,1.642,0,0,0,156.058,126.042Z" transform="translate(-29.298 -80.898)"/>
      </g>
      <g id="Group_1348" data-name="Group 1348" transform="translate(66.735 34.134)">
        <path id="Path_2717" data-name="Path 2717" class="cls-43" d="M295.562,122.42h0a3.482,3.482,0,0,1,.491,1.6,2.571,2.571,0,0,1-2.456,2.578c38.677,13.138,50.833,19.768,52.429,21.242-4.42,21.978-15.839,41.747-33.889,58.691a62.2,62.2,0,0,1-20.873,12.892l-50.1,19.032-25.908-9.823,37.818-14.366a6.821,6.821,0,0,0,0-12.77l-8.84-3.315,65.813-24.925L248.29,149.8l-1.473,3.929,51.2,19.4L238.1,195.845l-50.464-18.663L215.629,166.5l-1.473-3.929-38.677,14.611,76,28.118a2.525,2.525,0,0,1,1.719,2.456,2.619,2.619,0,0,1-1.719,2.456L209.244,226.3l-.246-.123-.123.246-26.521,10.068-.123.123a30.64,30.64,0,0,1-24.8.982c-50.464-19.154-77.845-23.329-93.685-60.778-11.419-27.013-3.192-40.028,16.576-47.64a40.454,40.454,0,0,0,3.561,7.367,27.821,27.821,0,0,0,11.91,10.928,3.078,3.078,0,0,1,.859.491c22.347,10.437,59.428-1.228,68.023-16.33h0c-1.473,1.6-4.42.859-3.07-3.07-10.191,16.944-60.287,29.714-74.039,5.894-14.12-24.434,2.21-36.344,30.2-41.378-3.684-.246-2.21-3.684-1.719-4.175-21.978,3.438-42.483,14.489-36.958,36.221-21.978,9.454-31.8,23.575-19.154,53.411,17.067,40.273,47.395,44.694,96.14,63.111,14.98,5.648,26.4-.491,33.152-3.07,6.63,2.578,47.64,18.049,47.64,18.049a3.287,3.287,0,0,0,3.192,2.578,3.251,3.251,0,0,0,3.192-3.192,2.468,2.468,0,0,0-.491-1.6S208.63,241.4,195.247,236.364l14.12-5.4,31.924,12.156c59.551-22.592,62.129-22.347,73.794-33.4,19.032-17.8,30.942-38.554,35.362-61.883v-.368C350.446,145.626,350.692,140.838,295.562,122.42Z" transform="translate(-54.344 -88.9)"/>
        <path id="Path_2718" data-name="Path 2718" class="cls-36" d="M246.389,121.784c-1.6,1.6-3.07,3.315-4.666,5.157,0,1.842-.123,13.752-.123,25.294,3.438.859,6.876,1.719,10.191,2.7,7.244,2.21,13.875,4.789,17.681,9.209,7.49,8.349,7.613,21-4.175,38.554,1.473-1.105,2.824-2.333,4.175-3.561,18.172-16.944,29.591-36.713,33.889-58.691-4.543-4.175-38.309-16.576-50.1-20.505A7.071,7.071,0,0,0,246.389,121.784Z" transform="translate(-11.678 -81.879)"/>
        <path id="Path_2719" data-name="Path 2719" class="cls-43" d="M107.105,91.9c-.368,0-.737.123-1.105.123A1.239,1.239,0,0,0,107.105,91.9Z" transform="translate(-42.574 -88.216)"/>
      </g>
      <path id="Path_2720" data-name="Path 2720" class="cls-43" d="M199.8,224.328a14.318,14.318,0,0,1,4.789,3.07l2.21-1.228-3.192-3.07Z" transform="translate(45.533 -24.189)"/>
      <g id="XMLID_11_" transform="translate(129.915 122.171)">
        <g id="Group_1349" data-name="Group 1349">
          <path id="Path_2721" data-name="Path 2721" class="cls-44" d="M188.925,180.368c-.491,2.087-2.087,4.543-5.525,7.367C167.683,201,109.606,178.772,105.8,170.3c1.719-7.121,14.734-9.7,27.381-9.7,13.629,0,21.733,5.28,21.733,5.28,1.842,2.456,9.577,6.016,15.348,6.016C174.559,171.9,187.574,174.106,188.925,180.368Z" transform="translate(-105.8 -160.6)"/>
        </g>
      </g>
      <g id="Group_1351" data-name="Group 1351" transform="translate(129.793 119.838)">
        <g id="Group_1350" data-name="Group 1350">
          <path id="Path_2722" data-name="Path 2722" class="cls-45" d="M161.075,168.789c4.666,0,20.259,2.824,18.54,10.682-1.473-6.139-14.366-8.472-18.54-8.472a27.045,27.045,0,0,1-12.4-3.684L147.2,164A24.731,24.731,0,0,0,161.075,168.789Z" transform="translate(-96.244 -157.492)"/>
          <path id="Path_2723" data-name="Path 2723" class="cls-46" d="M156.533,165.33l1.473,3.315a8.771,8.771,0,0,1-2.947-2.333s-8.1-5.28-21.733-5.28c-12.647,0-25.662,2.7-27.381,9.7A1.745,1.745,0,0,1,105.7,170c0-7.613,14-11.3,27.627-11.3s21.733,5.28,21.733,5.28A5.234,5.234,0,0,0,156.533,165.33Z" transform="translate(-105.7 -158.7)"/>
        </g>
      </g>
      <path id="Path_2724" data-name="Path 2724" class="cls-18" d="M293.5,130.847s16.7-6.016,25.294-15.962c0,0-2.824-3.929-10.682-6.385L293.5,130.847" transform="translate(66.882 -50.3)"/>
      <path id="Path_2725" data-name="Path 2725" class="cls-18" d="M76.1,156.629a55.3,55.3,0,0,1,24.066,4.789l13.138.982,11.3-3.192-5.525-.246s-4.3-5.4-21.242-11.3L79.415,143Z" transform="translate(17.348 -42.439)"/>
      <path id="Path_2726" data-name="Path 2726" class="cls-18" d="M101.4,132.836s7.858-1.473,17.435,3.438h10.559s-.859,4.052.859,4.543a30.961,30.961,0,0,0,5.648-2.21s-1.965-.859-.246-5.034c0,0-.246-6.63-11.173-12.156,0,0-11.542-3.561-15.471-3.315Z" transform="translate(23.113 -48.115)"/>
      <path id="Path_2727" data-name="Path 2727" class="cls-18" d="M130.9,134.6l3.192-1.6,5.771.859A24.447,24.447,0,0,1,130.9,134.6Z" transform="translate(29.834 -44.718)"/>
      <path id="Path_2728" data-name="Path 2728" class="cls-18" d="M130.205,197.037l25.416-4.911,18.663-8.1,1.105-3.806L152.8,176.9l-33.4,3.929,10.805,16.208" transform="translate(27.214 -34.716)"/>
      <path id="Path_2729" data-name="Path 2729" class="cls-18" d="M177.082,198.763l26.153-4.052,17.435-7.244L202.008,180.1,176.1,182.678l.982,16.085" transform="translate(40.133 -33.986)"/>
      <path id="Path_2730" data-name="Path 2730" class="cls-18" d="M176.705,231.237,202,226.325l18.786-8.1,1.105-3.806L199.3,211.1l-33.4,3.929,10.805,16.208" transform="translate(37.809 -26.923)"/>
      <path id="Path_2731" data-name="Path 2731" class="cls-18" d="M71.1,101.211s10.068,0,18.418,3.07c0,0,14.12-8.227,18.786-9.209,0,0-3.561.859-5.525,1.473,0,0-2.21-1.6-.614-4.666l-.491-3.192s-5.771-5.648-17.19-4.666L71.1,101.211" transform="translate(16.209 -55.904)"/>
      <path id="Path_2732" data-name="Path 2732" class="cls-18" d="M267.773,152.762,266.3,127.1h31.556l.86,3.561c-.614.859-1.351,1.719-2.087,2.578.614,1.105,1.228,3.315-.737,4.666l-2.333-1.351a69.02,69.02,0,0,1-25.785,16.208" transform="translate(60.685 -46.062)"/>
      <path id="Path_2733" data-name="Path 2733" class="cls-18" d="M114,217.4s9.577-9.209,31.556-10.559,18.295,4.543,18.295,4.543c-2.087,2.087-5.894,4.789-49.85,6.016" transform="translate(25.984 -27.94)"/>
      <g id="XMLID_10_" class="cls-47" transform="translate(285.852 164.408)">
        <g id="Group_1352" data-name="Group 1352">
          <path id="Path_2734" data-name="Path 2734" class="cls-48" d="M232.8,216.61s7.49-4.789,16.453-10.805c6.63-4.42,8.595-10.191,22.592-10.805-8.595,6.139-18.295,12.4-29.223,19.032l-1.842,1.105h0l-3.315,1.228C236.115,216.487,234.519,216.487,232.8,216.61Z" transform="translate(-232.8 -195)"/>
        </g>
      </g>
      <path id="Path_2735" data-name="Path 2735" class="cls-19" d="M65.232,62.6,55.9,75.247l18.786,7.122c9.454-12.77,7.858-10.559,9.332-12.647Z" transform="translate(12.746 -60.758)"/>
      <path id="Path_2736" data-name="Path 2736" class="cls-20" d="M74.586,80.021,55.8,72.9V96.475l18.786,7.244Z" transform="translate(12.723 -58.411)"/>
      <path id="Path_2737" data-name="Path 2737" class="cls-49" d="M89.886,73.925,80.432,68.4c-1.473,2.087.123-.123-9.332,12.647v23.7L89.886,97.5C89.886,92.834,89.886,79.205,89.886,73.925Z" transform="translate(16.209 -59.437)"/>
      <path id="Path_2738" data-name="Path 2738" class="cls-50" d="M287.632,91.3,278.3,103.947l18.786,7.121c9.454-12.77,7.858-10.559,9.332-12.647Z" transform="translate(63.419 -54.219)"/>
      <path id="Path_2739" data-name="Path 2739" class="cls-51" d="M312.286,116.723v-14L302.832,97.2c-1.473,2.087.123-.123-9.332,12.647v23.7C293.5,133.421,304.919,126.054,312.286,116.723Z" transform="translate(66.882 -52.875)"/>
      <g id="XMLID_9_" transform="translate(92.667 22.592)">
        <g id="Group_1353" data-name="Group 1353">
          <path id="Path_2740" data-name="Path 2740" class="cls-52" d="M83.6,122.461c2.087-7,6.508-22.592,6.876-34.871A12.228,12.228,0,0,0,87.9,80.1a9.448,9.448,0,0,1,6.016,8.718,31.776,31.776,0,0,1-.491,7.613c-3.07,18.172-9.577,26.153-9.577,26.153S83.6,122.583,83.6,122.461Z" transform="translate(-73.61 -79.363)"/>
          <path id="Path_2741" data-name="Path 2741" class="cls-34" d="M89.628,80.237a11.956,11.956,0,0,0-4.175-.737c-4.911,0-9.7,3.192-9.946,9.454A31.777,31.777,0,0,0,76,96.567c2.333,13.384,6.385,21.242,8.472,24.434.491.737.859,1.228.982,1.473,2.087-7,6.508-22.592,6.876-34.871A12.227,12.227,0,0,0,89.628,80.237Z" transform="translate(-75.464 -79.5)"/>
        </g>
      </g>
      <path id="Path_2742" data-name="Path 2742" class="cls-9" d="M278.2,101.6v23.575l18.786,7.244v-23.7Z" transform="translate(63.396 -51.872)"/>
      <path id="Path_2743" data-name="Path 2743" class="cls-18" d="M313.749,149.118c2.333-2.21,4.911-4.543,7.367-7.122l3.07-14.489-6.016-1.228-5.28-7.981-18.786-7v8.349L282.071,118.3s-17.313,31.556-73.671,33.766l3.192,31.064,69.373-10.314s10.682-4.911,26.767-18.663c0,0,.368,2.578,2.578,1.965,1.842-.491,2.456-4.052,2.456-4.052" transform="translate(47.492 -49.662)"/>
      <path id="Path_2744" data-name="Path 2744" class="cls-22" d="M256.159,180.2c0-11.3.368-94.176.368-103.507L215.518,61.1c-23.7,8.963-14.98,5.648-37.818,14.366V178.6" transform="translate(40.497 -61.1)"/>
      <path id="Path_2745" data-name="Path 2745" class="cls-26" d="M256.428,76.994,218.61,91.359,177.6,75.766c22.715-8.595,14-5.28,37.818-14.366Z" transform="translate(40.475 -61.032)"/>
      <path id="Path_2746" data-name="Path 2746" class="cls-53" d="M211.1,88.366V191.75l37.449-14.243c0-11.3.368-94.176.368-103.507Z" transform="translate(48.107 -58.161)"/>
      <path id="Path_2747" data-name="Path 2747" class="cls-26" d="M270.986,117.1,252.2,124.222l18.786,7.121,18.786-7.121L270.986,117.1" transform="translate(57.472 -48.341)"/>
      <path id="Path_2748" data-name="Path 2748" class="cls-54" d="M139.386,157.9,120.6,165.022c1.473,1.965-.123-.123,9.332,12.647l18.786-7.121Z" transform="translate(27.487 -39.045)"/>
      <line id="Line_56" data-name="Line 56" class="cls-55" y1="7.367" x2="18.172" transform="translate(115.181 41.01)"/>
      <line id="Line_57" data-name="Line 57" class="cls-55" x2="18.786" y2="7.122" transform="translate(105.727 53.902)"/>
      <path id="Path_2749" data-name="Path 2749" class="cls-54" d="M112.586,94.7,93.8,101.821c1.473,1.965-.123-.123,9.332,12.647l18.786-7.122Z" transform="translate(21.381 -53.444)"/>
      <g id="XMLID_8_" transform="translate(138.633 63.234)">
        <g id="Group_1356" data-name="Group 1356">
          <g id="Group_1355" data-name="Group 1355" transform="translate(0 7.121)">
            <path id="Path_2750" data-name="Path 2750" class="cls-9" d="M161.6,193.775l18.786,7.244v-23.7L161.6,170.2Z" transform="translate(-101.804 -106.598)"/>
            <g id="Group_1354" data-name="Group 1354" transform="translate(0 55.621)">
              <path id="Path_2751" data-name="Path 2751" class="cls-56" d="M131.686,176.347v23.7L112.9,192.8V169.225l9.454-5.525C123.828,165.665,122.232,163.577,131.686,176.347Z" transform="translate(-112.9 -163.7)"/>
            </g>
            <path id="Path_2752" data-name="Path 2752" class="cls-57" d="M252.2,123.925V147.5l18.786,7.244v-23.7c-9.454-12.77-7.858-10.682-9.332-12.647Z" transform="translate(-81.161 -118.4)"/>
          </g>
          <path id="Path_2753" data-name="Path 2753" class="cls-54" d="M278.586,112.6,259.8,119.722c1.473,1.965-.123-.123,9.332,12.647l18.786-7.122Z" transform="translate(-79.43 -112.6)"/>
        </g>
      </g>
      <g id="XMLID_7_" transform="translate(124.513 53.902)">
        <g id="Group_1359" data-name="Group 1359">
          <g id="Group_1358" data-name="Group 1358">
            <path id="Path_2754" data-name="Path 2754" class="cls-49" d="M101.4,135.819l18.786-7.244V105L101.4,112.122Z" transform="translate(-101.4 -105)"/>
            <path id="Path_2755" data-name="Path 2755" class="cls-51" d="M128.2,199.019l18.786-7.122V168.2L128.2,175.322Z" transform="translate(-95.294 -90.6)"/>
            <path id="Path_2756" data-name="Path 2756" class="cls-51" d="M186.232,165.7c-1.473,2.087.123-.123-9.332,12.647v23.7l18.786-7.244V171.225Z" transform="translate(-84.198 -91.17)"/>
            <path id="Path_2757" data-name="Path 2757" class="cls-19" d="M185.686,192,166.9,199.121c1.473,1.965-.123-.123,9.332,12.647l18.786-7.122Z" transform="translate(-86.476 -85.177)"/>
            <g id="Group_1357" data-name="Group 1357" transform="translate(70.969 113.944)">
              <path id="Path_2758" data-name="Path 2758" class="cls-20" d="M177.986,210.447v23.7L159.2,226.9V203.325l9.454-5.525C170.128,199.765,168.532,197.554,177.986,210.447Z" transform="translate(-159.2 -197.8)"/>
            </g>
            <path id="Path_2759" data-name="Path 2759" class="cls-51" d="M174.6,233.119l18.663-7.244V202.3L174.6,209.421Z" transform="translate(-84.722 -82.831)"/>
          </g>
          <path id="Path_2760" data-name="Path 2760" class="cls-50" d="M170.932,159.9,161.6,172.547l18.786,7.121c9.454-12.77,7.858-10.559,9.332-12.647Z" transform="translate(-87.684 -92.491)"/>
        </g>
      </g>
      <path id="Path_2761" data-name="Path 2761" class="cls-9" d="M99.484,134.757l5.4,2.087v-23.7c-9.454-12.77-7.858-10.682-9.332-12.647L86.1,106.025v18.786A39.207,39.207,0,0,0,99.484,134.757Z" transform="translate(19.627 -52.123)"/>
      <path id="Path_2762" data-name="Path 2762" class="cls-58" d="M94.886,130.125h0L85.432,124.6c-1.473,2.087.123-.123-9.332,12.647v23.7L94.886,153.7C94.886,148.911,94.886,135.282,94.886,130.125Z" transform="translate(17.348 -46.632)"/>
      <path id="Path_2763" data-name="Path 2763" class="cls-59" d="M70.232,118.7,60.9,131.347l18.786,7.121c9.454-12.77,7.858-10.559,9.332-12.647Z" transform="translate(13.885 -47.976)"/>
      <path id="Path_2764" data-name="Path 2764" class="cls-60" d="M77.721,159.082l1.965.737v-23.7L60.9,129v16.33C62.373,148.154,66.794,154.171,77.721,159.082Z" transform="translate(13.885 -45.629)"/>
      <path id="Path_2765" data-name="Path 2765" class="cls-58" d="M286.286,137.289V122.8L267.5,129.921v23.82S276.586,148.462,286.286,137.289Z" transform="translate(60.958 -47.042)"/>
      <path id="Path_2766" data-name="Path 2766" class="cls-61" d="M252.2,123.925V147.5l18.786,7.244v-23.7c-9.454-12.77-7.858-10.682-9.332-12.647Z" transform="translate(57.472 -48.044)"/>
      <g id="XMLID_6_" transform="translate(129.871 146.236)">
        <g id="Group_1360" data-name="Group 1360">
          <path id="Path_2767" data-name="Path 2767" class="cls-31" d="M113.9,223.061c2.087-7,6.508-22.592,6.876-34.871a12.228,12.228,0,0,0-2.578-7.49,9.448,9.448,0,0,1,6.016,8.718,31.777,31.777,0,0,1-.491,7.613c-3.07,18.172-9.577,26.153-9.577,26.153S113.9,223.183,113.9,223.061Z" transform="translate(-103.91 -180.086)"/>
          <path id="Path_2768" data-name="Path 2768" class="cls-32" d="M119.928,180.937a11.956,11.956,0,0,0-4.175-.737c-4.911,0-9.7,3.192-9.946,9.454a31.776,31.776,0,0,0,.491,7.613c2.333,13.384,6.385,21.242,8.472,24.434.491.737.859,1.228.982,1.473,2.087-7,6.508-22.592,6.876-34.871A11.939,11.939,0,0,0,119.928,180.937Z" transform="translate(-105.764 -180.2)"/>
        </g>
      </g>
      <g id="XMLID_5_" transform="translate(275.493 143.167)">
        <g id="Group_1361" data-name="Group 1361">
          <path id="Path_2769" data-name="Path 2769" class="cls-52" d="M232.5,220.561c2.087-7,6.508-22.592,6.876-34.871a12.229,12.229,0,0,0-2.578-7.49,9.448,9.448,0,0,1,6.016,8.718,31.777,31.777,0,0,1-.491,7.613c-3.07,18.172-9.577,26.153-9.577,26.153A.38.38,0,0,1,232.5,220.561Z" transform="translate(-222.51 -177.586)"/>
          <path id="Path_2770" data-name="Path 2770" class="cls-34" d="M238.528,178.437a11.957,11.957,0,0,0-4.175-.737c-4.911,0-9.7,3.192-9.946,9.454a31.777,31.777,0,0,0,.491,7.613c2.333,13.384,6.385,21.242,8.472,24.434.491.737.859,1.228.982,1.473,2.087-7,6.508-22.592,6.876-34.871A11.938,11.938,0,0,0,238.528,178.437Z" transform="translate(-224.364 -177.7)"/>
        </g>
      </g>
      <g id="Group_1363" data-name="Group 1363" transform="translate(218.075 14.611)">
        <g id="Group_1362" data-name="Group 1362">
          <path id="Path_2771" data-name="Path 2771" class="cls-62" d="M218.71,154.82v21.733L177.7,160.837V145.243c.246,0,.491-.123.859-.123,3.929-.737,8.963-4.42,14.12-4.42s12.524,13.506,20.014,14.366A36.754,36.754,0,0,0,218.71,154.82Z" transform="translate(-177.577 -57.575)"/>
          <path id="Path_2772" data-name="Path 2772" class="cls-63" d="M218.733,131.279v25.908a37.341,37.341,0,0,1-6.139.246c-7.49-.859-14.857-14.366-20.014-14.366s-10.068,3.684-14.12,4.42c-.246,0-.614.123-.859.123V133.857c5.894-2.456,17.19-5.4,34.871-3.438C214.8,130.787,216.891,131.033,218.733,131.279Z" transform="translate(-177.6 -60.064)"/>
          <path id="Path_2773" data-name="Path 2773" class="cls-62" d="M218.71,110.342v25.785c-1.842-.246-3.929-.491-6.139-.737-17.681-1.965-28.977.982-34.871,3.438v-7.981c7.858-5.894,22.592-15.594,34.871-15.962,11.3-.368-2.579-6.262-2.579-6.262V108.5A65.42,65.42,0,0,0,218.71,110.342Z" transform="translate(-177.577 -64.911)"/>
          <path id="Path_2774" data-name="Path 2774" class="cls-64" d="M218.687,88.594V118.43a63.877,63.877,0,0,1-8.595-1.842c-7.121-1.965-14.366-5.4-17.435-11.173A56.672,56.672,0,0,0,177.8,88.225V73Z" transform="translate(-177.554 -73)"/>
          <path id="Path_2775" data-name="Path 2775" class="cls-65" d="M209.992,113.786s13.875,6.016,2.579,6.262c-12.278.368-27.013,10.068-34.871,15.962V85.3c4.052,3.192,10.56,8.963,14.857,17.19,3.192,5.894,10.437,9.209,17.435,11.3Z" transform="translate(-177.577 -70.198)"/>
        </g>
      </g>
      <path id="Path_2776" data-name="Path 2776" class="cls-66" d="M177.7,150.084l41.01,15.1v-3.561L177.7,146.4Z" transform="translate(40.497 -41.665)"/>
      <path id="Path_2777" data-name="Path 2777" class="cls-67" d="M177.7,73.1V176.239l41.01,15.716V88.571Z" transform="translate(40.497 -58.366)"/>
      <path id="Path_2778" data-name="Path 2778" class="cls-68" d="M218.71,153.916v2.578L177.7,140.778V138.2Z" transform="translate(40.497 -43.533)"/>
      <path id="Path_2779" data-name="Path 2779" class="cls-68" d="M218.71,137.216v2.578L177.7,124.078V121.5Z" transform="translate(40.497 -47.338)"/>
      <path id="Path_2780" data-name="Path 2780" class="cls-68" d="M218.71,120.416v2.578L177.7,107.278V104.7Z" transform="translate(40.497 -51.166)"/>
      <path id="Path_2781" data-name="Path 2781" class="cls-68" d="M218.71,103.616v2.578L177.7,90.478V87.9Z" transform="translate(40.497 -54.994)"/>
      <line id="Line_58" data-name="Line 58" class="cls-69" y2="103.139" transform="translate(228.266 18.54)"/>
      <line id="Line_59" data-name="Line 59" class="cls-69" y2="103.262" transform="translate(238.211 22.47)"/>
      <line id="Line_60" data-name="Line 60" class="cls-69" y2="103.262" transform="translate(248.28 26.521)"/>
      <g id="Group_1364" data-name="Group 1364" transform="translate(240.79 41.747)">
        <path id="Path_2782" data-name="Path 2782" class="cls-27" d="M203.5,110.765v15.594l5.28-1.965V108.8Z" transform="translate(-194.414 -91.979)"/>
        <path id="Path_2783" data-name="Path 2783" class="cls-27" d="M196.1,129.509v4.052l5.28-1.965v-9.332c-1.719-.614-3.438-1.351-5.28-1.965Z" transform="translate(-196.1 -89.358)"/>
        <path id="Path_2784" data-name="Path 2784" class="cls-27" d="M196.1,106.4v3.929l5.157-1.965h.123V95.1l-5.28,1.965Z" transform="translate(-196.1 -95.1)"/>
      </g>
      <g id="XMLID_4_" transform="translate(220.776 39.659)">
        <g id="Group_1365" data-name="Group 1365">
          <path id="Path_2785" data-name="Path 2785" class="cls-28" d="M198.105,97.452v1.6c-2.21-.859-3.806-1.473-5.525-2.087-1.6-.614-3.192-1.228-5.28-1.965V93.4c2.087.737,3.684,1.351,5.28,1.965C194.3,95.978,195.895,96.592,198.105,97.452Z" transform="translate(-178.091 -93.4)"/>
          <path id="Path_2786" data-name="Path 2786" class="cls-28" d="M199.814,110.416V98.752c-2.21-.859-3.806-1.473-5.525-2.087-1.6-.614-3.192-1.228-5.28-1.965v11.665c-3.561-1.351-6.753-2.578-9.209-3.438V118.4c3.07,1.228,6.139,2.333,9.209,3.438V135.1c4.3,1.6,6.385,2.456,10.682,4.052V125.887c1.719.614,3.438,1.351,5.28,1.965,1.351.491,2.578.982,3.929,1.473V113.854C208.654,113.854,200.8,110.785,199.814,110.416Z" transform="translate(-179.8 -93.104)"/>
        </g>
      </g>
      <g id="Group_1366" data-name="Group 1366" transform="translate(220.899 37.695)">
        <path id="Path_2787" data-name="Path 2787" class="cls-29" d="M201.38,105.9h0l-5.28,1.965v.123c1.719.614,3.438,1.351,5.28,1.965,1.351.491,2.578.982,3.929,1.473l5.28-1.965C207.4,108.233,204.327,107.128,201.38,105.9Z" transform="translate(-176.209 -88.587)"/>
        <path id="Path_2788" data-name="Path 2788" class="cls-29" d="M203.362,95.852c-4.3-1.6-6.385-2.456-10.682-4.052l-5.28,1.965c2.087.737,3.684,1.351,5.28,1.965s3.315,1.228,5.525,2.087Z" transform="translate(-178.191 -91.8)"/>
        <path id="Path_2789" data-name="Path 2789" class="cls-29" d="M179.9,101.787c1.719.614,3.438,1.351,5.28,1.965,1.351.491,2.578.982,3.929,1.473v-4.052c-1.351-.491-2.579-.982-3.929-1.473Z" transform="translate(-179.9 -90)"/>
      </g>
    </g>
    <path id="Path_2790" data-name="Path 2790" class="cls-13" d="M142.038,16.679a5.479,5.479,0,0,1,3.561-5.157h.123c.491-.246,4.3.491,4.911.491-1.6-1.6-6.508-2.087-8.349-1.351h-.123a5.546,5.546,0,0,0-3.561,5.157V27.975l3.438,1.351Z" transform="translate(31.581 2.353)"/>
    <path id="Path_2791" data-name="Path 2791" class="cls-12" d="M152.573,16.428A5.511,5.511,0,0,0,146.68,10.9h0a3.781,3.781,0,0,0-1.6.368h-.123a5.427,5.427,0,0,0-3.561,5.157V29.075c.246-.123.737-.246,1.473-.614l.368-.123c1.351-.491,3.315-1.228,5.034-1.965l.982-.368c1.842-.737,3.315-1.228,3.438-1.351V16.428Zm-1.473,8.84-7.981,3.07V16.92a4.021,4.021,0,0,1,2.456-3.684h.123a3.93,3.93,0,0,1,5.4,3.561Z" transform="translate(32.219 2.48)"/>
    <path id="Path_2792" data-name="Path 2792" class="cls-70" d="M148.325,12.851a4.053,4.053,0,0,0-2.947,0h-.123a4.021,4.021,0,0,0-2.456,3.684V27.954l7.981-3.07V16.289A3.742,3.742,0,0,0,148.325,12.851Z" transform="translate(32.538 2.865)"/>
    <g id="Group_1370" data-name="Group 1370" transform="translate(177.057 19.768)">
      <g id="XMLID_3_">
        <g id="Group_1368" data-name="Group 1368">
          <path id="Path_2793" data-name="Path 2793" class="cls-71" d="M149.848,16.1c-3.561,1.351-2.21.859-5.648,2.087l26.521,10.068,5.648-2.087Z" transform="translate(-144.2 -16.1)"/>
          <path id="Path_2794" data-name="Path 2794" class="cls-72" d="M165.9,26.387V33.14l5.648-1.965V24.3Z" transform="translate(-139.256 -14.232)"/>
          <path id="Path_2795" data-name="Path 2795" class="cls-11" d="M144.2,17.8v6.753l26.521,10.068V27.868Z" transform="translate(-144.2 -15.713)"/>
        </g>
      </g>
      <g id="XMLID_2_" transform="translate(28.118 10.805)">
        <g id="Group_1369" data-name="Group 1369">
          <path id="Path_2796" data-name="Path 2796" class="cls-71" d="M172.748,24.9c-3.561,1.351-2.21.859-5.648,2.087l26.521,10.068,5.648-2.087Z" transform="translate(-167.1 -24.9)"/>
          <path id="Path_2797" data-name="Path 2797" class="cls-72" d="M188.8,35.187V41.94l5.525-2.087V33.1Z" transform="translate(-162.156 -23.032)"/>
          <path id="Path_2798" data-name="Path 2798" class="cls-11" d="M167.1,26.6v6.753l26.521,10.068V36.668Z" transform="translate(-167.1 -24.513)"/>
        </g>
      </g>
    </g>
    <path id="Path_2799" data-name="Path 2799" class="cls-71" d="M178.09,24.6c-4.666,1.719-2.947,1.105-7.49,2.824" transform="translate(38.872 5.605)"/>
    <path id="Path_2800" data-name="Path 2800" class="cls-73" d="M124.378,38.565,112.1,17.2h24.557Z" transform="translate(25.543 3.919)"/>
    <path id="Path_2801" data-name="Path 2801" class="cls-73" d="M212.6,47.342,200.2,26.1h24.68Z" transform="translate(45.616 5.947)"/>
    <path id="Path_2802" data-name="Path 2802" class="cls-73" d="M288.178,38.642,275.9,17.4h24.557Z" transform="translate(62.864 3.965)"/>
    <g id="Group_1373" data-name="Group 1373" transform="translate(178.653 116.277)">
      <path id="Path_2803" data-name="Path 2803" class="cls-16" d="M165.29,99.4c-1.228,1.719.123-.123-7.49,10.191v19.032l15.1-5.771V103.82Z" transform="translate(-142.697 -93.629)"/>
      <path id="Path_2804" data-name="Path 2804" class="cls-17" d="M152.99,94.7l-7.49,10.191,15.1,5.771c7.613-10.314,6.262-8.472,7.49-10.191Z" transform="translate(-145.5 -94.7)"/>
      <g id="XMLID_1_" transform="translate(0 10.191)">
        <g id="Group_1372" data-name="Group 1372">
          <g id="Group_1371" data-name="Group 1371">
            <path id="Path_2805" data-name="Path 2805" class="cls-74" d="M145.5,122.032l15.1,5.771V108.771L145.5,103Z" transform="translate(-145.5 -103)"/>
          </g>
        </g>
      </g>
    </g>
  </g>
</svg>
