<svg xmlns="http://www.w3.org/2000/svg" viewBox="4296 1544 12.3 14">
  <defs>
    <style>
      .cls-1 {
        fill: #fff;
      }
    </style>
  </defs>
  <g id="Pause" transform="translate(4296 1544)">
    <path id="Path_547" data-name="Path 547" class="cls-1" d="M4.2,14H1a.945.945,0,0,1-1-1V1A.945.945,0,0,1,1,0H4.2a.945.945,0,0,1,1,1V13A.945.945,0,0,1,4.2,14Z"/>
    <path id="Path_548" data-name="Path 548" class="cls-1" d="M11.3,14H8.1a.945.945,0,0,1-1-1V1a.945.945,0,0,1,1-1h3.2a.945.945,0,0,1,1,1V13A1,1,0,0,1,11.3,14Z"/>
  </g>
</svg>
