<svg xmlns="http://www.w3.org/2000/svg" xmlns:xlink="http://www.w3.org/1999/xlink" viewBox="3419.725 -946.939 65.254 65.251"><defs><style>.a{fill:#7ab2e0;}.b{clip-path:url(#a);}</style><clipPath id="a"><path class="a" d="M0,47.582H65.254V-17.669H0Z" transform="translate(0 17.669)"/></clipPath></defs><g transform="translate(3419.725 -946.939)"><g class="b" transform="translate(0 0)"><g transform="translate(0.001 0.001)"><path class="a" d="M5.373,5.118a7.533,7.533,0,0,1,1.16-.772C9.048,3.3,11.917,3.212,14.587,2.581c3.423-.783,10.078,14.931,5.831,16.3-1.592.495-6.57,1.245-7.881,2.231-1.182.89-.62,3.054.539,4.413,3.047,3.586,7.526,7.593,11.068,11.09.1.089.2.2.3.3s.21.192.3.288c3.5,3.545,7.493,8.036,11.079,11.083,1.366,1.156,3.53,1.721,4.413.539.993-1.315,1.743-6.3,2.242-7.881,1.37-4.247,17.084,2.408,16.3,5.827-.631,2.67-.731,5.532-1.776,8.054a7.315,7.315,0,0,1-.764,1.16c-5.7,8.974-19.5,10.13-29.795,1.37q-5.894-5.019-11.456-10.407l-.022.022a3.672,3.672,0,0,0-.288-.3,3.009,3.009,0,0,0-.3-.284l.022-.026C10.813,42.642,7.338,38.834,4,34.89-4.756,24.62-3.6,10.812,5.373,5.118M60.727,25.7,63.245.6a2.2,2.2,0,0,0-2.493-2.493L35.644.627c-1.521.144-1.876,1.16-.794,2.242l6.81,6.81L27.468,23.856a2.784,2.784,0,0,0,0,3.929L33.7,34.022a2.8,2.8,0,0,0,3.94,0L51.823,19.838l6.666,6.669c1.082,1.082,2.083.716,2.238-.805" transform="translate(1.995 1.9)"/></g></g></g></svg>