<svg xmlns="http://www.w3.org/2000/svg" xmlns:xlink="http://www.w3.org/1999/xlink" viewBox="816 -752 199.977 100.331">
  <defs>
    <style>
      .cls-1 {
        clip-path: url(#clip-path);
      }

      .cls-2 {
        fill: #d3d4d3;
      }

      .cls-3 {
        fill: #a8a8a9;
      }

      .cls-4 {
        fill: #ee8d44;
      }

      .cls-5 {
        fill: #896a56;
      }

      .cls-6 {
        fill: #a0d8cd;
      }

      .cls-7 {
        fill: #327578;
      }

      .cls-8 {
        fill: #279d84;
      }

      .cls-9 {
        fill: #86bc84;
      }
    </style>
    <clipPath id="clip-path">
      <rect id="Rectangle_1121" data-name="Rectangle 1121" width="199.977" height="100.331"/>
    </clipPath>
  </defs>
  <g id="Process_3b_-_Check_and_Envelope_1_" transform="translate(816 -752)">
    <g id="Group_1791" data-name="Group 1791">
      <g id="Group_1772" data-name="Group 1772" class="cls-1">
        <path id="Path_3098" data-name="Path 3098" class="cls-2" d="M56.938,0,17.4,7.313v58.05L56.938,58.05Z" transform="translate(22.367)"/>
      </g>
      <g id="Group_1773" data-name="Group 1773" class="cls-1">
        <path id="Path_3099" data-name="Path 3099" class="cls-3" d="M0,0V58.05l39.767,7.313V7.313Z"/>
      </g>
      <g id="Group_1790" data-name="Group 1790" class="cls-1">
        <g id="Group_1774" data-name="Group 1774" class="cls-1">
          <path id="Path_3100" data-name="Path 3100" class="cls-4" d="M108.706,22.9l-7.085,45.48a3.064,3.064,0,0,1-3.428,2.514L21.63,58.782a3.064,3.064,0,0,1-2.514-3.428l.229-1.143L64.14,38.441Z" transform="translate(24.536 29.437)"/>
        </g>
        <g id="Group_1775" data-name="Group 1775" class="cls-1">
          <path id="Path_3101" data-name="Path 3101" class="cls-5" d="M84.395,23.286,39.6,39.055,38,37.913,80.966,22.6Z" transform="translate(48.847 29.051)"/>
        </g>
        <g id="Group_1776" data-name="Group 1776" class="cls-1">
          <path id="Path_3102" data-name="Path 3102" class="cls-5" d="M101.277,29.541,58.31,44.854,22.2,17.2Z" transform="translate(28.537 22.11)"/>
        </g>
        <g id="Group_1777" data-name="Group 1777" class="cls-1">
          <path id="Path_3103" data-name="Path 3103" class="cls-5" d="M63.895,30.443,19.1,45.984l.229-1.6L62.3,29.3Z" transform="translate(24.552 37.664)"/>
        </g>
        <g id="Group_1778" data-name="Group 1778" class="cls-1">
          <path id="Path_3104" data-name="Path 3104" class="cls-4" d="M26.056,17.2l36.11,27.654L19.2,59.938Z" transform="translate(24.681 22.11)"/>
        </g>
        <g id="Group_1779" data-name="Group 1779" class="cls-1">
          <path id="Path_3105" data-name="Path 3105" class="cls-5" d="M22.2,27.885,62.881,9.6a8.488,8.488,0,0,1,8.913,1.371L104.7,40.912Z" transform="translate(28.537 11.425)"/>
        </g>
        <g id="Group_1780" data-name="Group 1780" class="cls-1">
          <path id="Path_3106" data-name="Path 3106" class="cls-6" d="M45.385,51.594A2.29,2.29,0,0,1,43.1,49.309V5.885A2.29,2.29,0,0,1,45.385,3.6h83.19a2.29,2.29,0,0,1,2.285,2.285V49.309a2.29,2.29,0,0,1-2.285,2.285Z" transform="translate(55.403 4.628)"/>
        </g>
        <g id="Group_1781" data-name="Group 1781" class="cls-1">
          <path id="Path_3107" data-name="Path 3107" class="cls-7" d="M126.69,49.909h-80.9A2.29,2.29,0,0,1,43.5,47.624V6.485A2.29,2.29,0,0,1,45.785,4.2h80.9a2.29,2.29,0,0,1,2.285,2.285V47.624a2.29,2.29,0,0,1-2.285,2.285M46.014,47.624h80.9V6.485h-80.9Z" transform="translate(55.917 5.399)"/>
        </g>
        <g id="Group_1782" data-name="Group 1782" class="cls-1">
          <path id="Path_3108" data-name="Path 3108" class="cls-7" d="M89.269,17.971H69.385a2.285,2.285,0,1,1,0-4.571H89.269a2.29,2.29,0,0,1,2.285,2.285,2.458,2.458,0,0,1-2.285,2.285" transform="translate(86.254 17.225)"/>
        </g>
        <g id="Group_1783" data-name="Group 1783" class="cls-1">
          <path id="Path_3109" data-name="Path 3109" class="cls-7" d="M69.169,12.971H49.285a2.285,2.285,0,1,1,0-4.571H69.169a2.29,2.29,0,0,1,2.285,2.285,2.159,2.159,0,0,1-2.285,2.285" transform="translate(60.416 10.798)"/>
        </g>
        <g id="Group_1784" data-name="Group 1784" class="cls-1">
          <path id="Path_3110" data-name="Path 3110" class="cls-7" d="M85.981,17.971h-36.8a2.285,2.285,0,1,1,0-4.571h36.8a2.29,2.29,0,0,1,2.285,2.285,2.458,2.458,0,0,1-2.285,2.285" transform="translate(60.288 17.225)"/>
        </g>
        <g id="Group_1785" data-name="Group 1785" class="cls-1">
          <path id="Path_3111" data-name="Path 3111" class="cls-7" d="M74.085,8.4h1.143a2.285,2.285,0,0,1,0,4.571H74.085A2.29,2.29,0,0,1,71.8,10.685,2.159,2.159,0,0,1,74.085,8.4" transform="translate(92.295 10.798)"/>
        </g>
        <g id="Group_1786" data-name="Group 1786" class="cls-1">
          <path id="Path_3112" data-name="Path 3112" class="cls-7" d="M77.385,8.4h1.143a2.285,2.285,0,1,1,0,4.571H77.385a2.285,2.285,0,1,1,0-4.571" transform="translate(96.537 10.798)"/>
        </g>
        <g id="Group_1787" data-name="Group 1787" class="cls-1">
          <path id="Path_3113" data-name="Path 3113" class="cls-8" d="M65.5,19.9h0" transform="translate(84.197 25.58)"/>
        </g>
        <g id="Group_1788" data-name="Group 1788" class="cls-1">
          <path id="Path_3114" data-name="Path 3114" class="cls-8" d="M101.679,19.428c-13.941-2.743-20.112,4.8-27.654-1.143-2.285-1.828-6.4,3.885-8.456,0-.229-.229-.686-.686-.914-.686-2.971,0-5.257,2.057-7.085,4.114a.97.97,0,0,0,1.371,1.371c4.571-5.257,4.571-2.743,5.714-.686a1.1,1.1,0,0,0,1.6.229c7.085-5.714,9.6,0,12.341,0,7.085-.229,17.369-4.114,22.626,0,1.828,1.828,2.743-2.743.457-3.2" transform="translate(73.615 22.624)"/>
        </g>
        <g id="Group_1789" data-name="Group 1789" class="cls-1">
          <path id="Path_3115" data-name="Path 3115" class="cls-9" d="M76.2,40.6a2.075,2.075,0,0,0,.686,1.6l8.685,8.685A2.424,2.424,0,1,0,89,47.455l-4.571-4.571H99.74a2.29,2.29,0,0,0,2.285-2.285,2.5,2.5,0,0,0-2.285-2.514H84.428L89,33.514a2.424,2.424,0,1,0-3.428-3.428L76.886,38.77A3.039,3.039,0,0,0,76.2,40.6" transform="translate(97.951 37.792)"/>
        </g>
      </g>
    </g>
  </g>
</svg>
