<svg xmlns="http://www.w3.org/2000/svg" xmlns:xlink="http://www.w3.org/1999/xlink" viewBox="2460 -633 166 100.331">
  <defs>
    <style>
      .cls-1 {
        fill: none;
      }

      .cls-2 {
        clip-path: url(#clip-path);
      }

      .cls-3 {
        fill: #044f51;
      }

      .cls-4 {
        fill: #4d6db5;
      }

      .cls-5 {
        fill: #f7f7f8;
      }

      .cls-6 {
        fill: #94acd9;
      }

      .cls-7 {
        fill: #243568;
      }

      .cls-8 {
        fill: #b7c9e8;
      }

      .cls-9 {
        fill: #4c6db4;
      }

      .cls-10 {
        fill: #3cb774;
      }
    </style>
    <clipPath id="clip-path">
      <rect id="Rectangle_862" data-name="Rectangle 862" width="121.32" height="100.331"/>
    </clipPath>
  </defs>
  <g id="Group_1916" data-name="Group 1916" transform="translate(1582 -1705)">
    <rect id="Rectangle_1206" data-name="Rectangle 1206" class="cls-1" width="45" height="15" transform="translate(999 1118)"/>
    <g id="Process_2b_-_Send_Bills_1_" transform="translate(878 1072)">
      <g id="Group_1582" data-name="Group 1582">
        <g id="Group_1560" data-name="Group 1560" class="cls-2">
          <rect id="Rectangle_861" data-name="Rectangle 861" class="cls-3" width="74.96" height="100.331" transform="translate(44.745)"/>
        </g>
        <g id="Group_1561" data-name="Group 1561" class="cls-2">
          <rect id="Rectangle_863" data-name="Rectangle 863" class="cls-4" width="74.499" height="97.563" transform="translate(46.821)"/>
        </g>
        <g id="Group_1562" data-name="Group 1562" class="cls-2">
          <path id="Path_2957" data-name="Path 2957" class="cls-5" d="M20.3,28.3V60.591H94.8V28.3Z" transform="translate(26.521 36.973)"/>
        </g>
        <g id="Group_1563" data-name="Group 1563" class="cls-2">
          <path id="Path_2958" data-name="Path 2958" class="cls-6" d="M20.3,0V16.145H94.8V0Z" transform="translate(26.521)"/>
        </g>
        <g id="Group_1564" data-name="Group 1564" class="cls-2">
          <rect id="Rectangle_867" data-name="Rectangle 867" class="cls-7" width="11.532" height="10.61" transform="translate(51.204 3.46)"/>
        </g>
        <g id="Group_1581" data-name="Group 1581" class="cls-2">
          <g id="Group_1565" data-name="Group 1565" class="cls-2">
            <path id="Path_2959" data-name="Path 2959" class="cls-7" d="M75.837,6.068H31.784A1.329,1.329,0,0,1,30.4,4.684,1.329,1.329,0,0,1,31.784,3.3H75.837a1.329,1.329,0,0,1,1.384,1.384c.231.692-.461,1.384-1.384,1.384" transform="translate(39.717 4.311)"/>
          </g>
          <g id="Group_1566" data-name="Group 1566" class="cls-2">
            <rect id="Rectangle_870" data-name="Rectangle 870" class="cls-8" width="41.286" height="12.224" transform="translate(48.666 21.681)"/>
          </g>
          <g id="Group_1567" data-name="Group 1567" class="cls-2">
            <rect id="Rectangle_872" data-name="Rectangle 872" class="cls-8" width="41.286" height="12.224" transform="translate(48.666 35.75)"/>
          </g>
          <g id="Group_1568" data-name="Group 1568" class="cls-2">
            <rect id="Rectangle_874" data-name="Rectangle 874" class="cls-8" width="41.286" height="12.224" transform="translate(48.666 49.82)"/>
          </g>
          <g id="Group_1569" data-name="Group 1569" class="cls-2">
            <rect id="Rectangle_876" data-name="Rectangle 876" class="cls-8" width="26.755" height="12.224" transform="translate(92.489 21.681)"/>
          </g>
          <g id="Group_1570" data-name="Group 1570" class="cls-2">
            <rect id="Rectangle_878" data-name="Rectangle 878" class="cls-8" width="26.755" height="12.224" transform="translate(92.489 35.75)"/>
          </g>
          <g id="Group_1571" data-name="Group 1571" class="cls-2">
            <rect id="Rectangle_880" data-name="Rectangle 880" class="cls-8" width="26.755" height="12.224" transform="translate(92.489 49.82)"/>
          </g>
          <g id="Group_1572" data-name="Group 1572" class="cls-2">
            <path id="Path_2960" data-name="Path 2960" class="cls-9" d="M51.016,14.629h-25.6a1.615,1.615,0,1,1,0-3.229H51.247a1.577,1.577,0,0,1,1.615,1.615,1.783,1.783,0,0,1-1.845,1.615" transform="translate(31.094 14.894)"/>
          </g>
          <g id="Group_1573" data-name="Group 1573" class="cls-2">
            <path id="Path_2961" data-name="Path 2961" class="cls-9" d="M51.016,20.729h-25.6a1.615,1.615,0,1,1,0-3.229H51.247a1.577,1.577,0,0,1,1.615,1.615,1.783,1.783,0,0,1-1.845,1.615" transform="translate(31.094 22.863)"/>
          </g>
          <g id="Group_1574" data-name="Group 1574" class="cls-2">
            <path id="Path_2962" data-name="Path 2962" class="cls-9" d="M51.016,26.829h-25.6a1.615,1.615,0,1,1,0-3.229H51.247a1.577,1.577,0,0,1,1.615,1.615,1.783,1.783,0,0,1-1.845,1.615" transform="translate(31.094 30.833)"/>
          </g>
          <g id="Group_1575" data-name="Group 1575" class="cls-2">
            <path id="Path_2963" data-name="Path 2963" class="cls-9" d="M58.053,14.629H44.215a1.615,1.615,0,1,1,0-3.229H58.053a1.615,1.615,0,1,1,0,3.229" transform="translate(55.655 14.894)"/>
          </g>
          <g id="Group_1576" data-name="Group 1576" class="cls-2">
            <path id="Path_2964" data-name="Path 2964" class="cls-9" d="M58.253,20.729H44.415a1.615,1.615,0,0,1,0-3.229H58.253a1.577,1.577,0,0,1,1.615,1.615c.231.923-.692,1.615-1.615,1.615" transform="translate(55.917 22.863)"/>
          </g>
          <g id="Group_1577" data-name="Group 1577" class="cls-2">
            <path id="Path_2965" data-name="Path 2965" class="cls-9" d="M58.253,26.829H44.415a1.615,1.615,0,0,1,0-3.229H58.253a1.577,1.577,0,0,1,1.615,1.615c.231.923-.692,1.615-1.615,1.615" transform="translate(55.917 30.833)"/>
          </g>
          <g id="Group_1578" data-name="Group 1578" class="cls-2">
            <rect id="Rectangle_888" data-name="Rectangle 888" class="cls-4" width="32.521" height="21.911" transform="translate(53.049 69.655)"/>
          </g>
          <g id="Group_1579" data-name="Group 1579" class="cls-2">
            <path id="Path_2966" data-name="Path 2966" class="cls-10" d="M50.062,41.424c-1.845-.923-3.46-1.615-3.46-3.46,0-1.615.923-2.537,2.768-2.537a4.027,4.027,0,0,1,2.768.923,1.492,1.492,0,0,0,2.076-.231,1.762,1.762,0,0,0,.461-1.153,1.2,1.2,0,0,0-.461-.923,6.84,6.84,0,0,0-3.46-1.615V30.584A1.488,1.488,0,0,0,49.37,29.2a1.959,1.959,0,0,0-1.615,1.615V32.66A5.656,5.656,0,0,0,43.142,38.2c0,3.46,2.537,4.844,4.844,6,2.076,1.153,3.921,1.845,3.921,4.152,0,1.845-1.153,2.768-3,2.768a6.134,6.134,0,0,1-3.69-1.384,1.5,1.5,0,0,0-2.076.461,1.717,1.717,0,0,0,.231,2.076,10.5,10.5,0,0,0,4.382,1.845v1.845a1.384,1.384,0,0,0,2.768,0V54.11a5.549,5.549,0,0,0,4.844-5.766c0-4.382-3-5.766-5.3-6.919" transform="translate(56.036 38.149)"/>
          </g>
          <g id="Group_1580" data-name="Group 1580" class="cls-2">
            <path id="Path_2967" data-name="Path 2967" class="cls-10" d="M26.063,30.271a2.094,2.094,0,0,1-.692,1.615l-8.534,9a2.446,2.446,0,1,1-3.46-3.46l4.613-4.844-15.453.231a2.425,2.425,0,1,1-.231-4.844H17.76l-4.844-4.613a2.446,2.446,0,1,1,3.46-3.46l9,8.534a3.067,3.067,0,0,1,.692,1.845" transform="translate(0 25.084)"/>
          </g>
        </g>
      </g>
    </g>
  </g>
</svg>
