<svg xmlns="http://www.w3.org/2000/svg" xmlns:xlink="http://www.w3.org/1999/xlink" viewBox="67 -550 173.928 111.795">
  <defs>
    <style>
      .cls-1 {
        clip-path: url(#clip-path);
      }

      .cls-2 {
        fill: #945224;
      }

      .cls-3 {
        clip-path: url(#clip-path-4);
      }

      .cls-4 {
        fill: #cd7767;
      }

      .cls-5 {
        fill: #ec9c7f;
      }

      .cls-6 {
        fill: #088792;
      }

      .cls-7 {
        fill: #044f51;
      }

      .cls-8 {
        fill: #4d6db5;
      }

      .cls-9 {
        fill: #f7f7f8;
      }

      .cls-10 {
        fill: #94acd9;
      }

      .cls-11 {
        fill: #243568;
      }

      .cls-12 {
        fill: #b7c9e8;
      }

      .cls-13 {
        fill: #4c6db4;
      }

      .cls-14 {
        fill: #3cb774;
      }

      .cls-15 {
        fill: #646d77;
      }

      .cls-16 {
        clip-path: url(#clip-path-30);
      }

      .cls-17 {
        fill: #84869f;
      }

      .cls-18 {
        fill: #f0efef;
      }

      .cls-19 {
        clip-path: url(#clip-path-38);
      }

      .cls-20 {
        fill: #c58868;
      }
    </style>
    <clipPath id="clip-path">
      <rect id="Rectangle_733" data-name="Rectangle 733" width="173.928" height="111.795"/>
    </clipPath>
    <clipPath id="clip-path-4">
      <rect id="Rectangle_683" data-name="Rectangle 683" width="52.069" height="23.409"/>
    </clipPath>
    <clipPath id="clip-path-30">
      <rect id="Rectangle_720" data-name="Rectangle 720" width="33.473" height="35.661"/>
    </clipPath>
    <clipPath id="clip-path-38">
      <rect id="Rectangle_729" data-name="Rectangle 729" width="43.318" height="18.815"/>
    </clipPath>
  </defs>
  <g id="Process_1c_-_Bill_Handoff_1_" transform="translate(67 -550)">
    <g id="Group_1433" data-name="Group 1433">
      <g id="Group_1432" data-name="Group 1432" class="cls-1">
        <g id="Group_1391" data-name="Group 1391" class="cls-1">
          <path id="Path_2816" data-name="Path 2816" class="cls-2" d="M79.091,37.427v9.407S74.715,52.522,52.4,52.522V24.3Z" transform="translate(62.239 28.863)"/>
        </g>
        <g id="Group_1395" data-name="Group 1395" class="cls-1">
          <g id="Group_1394" data-name="Group 1394" class="cls-3" transform="translate(11.814 62.133)">
            <g id="Group_1392" data-name="Group 1392" class="cls-3">
              <path id="Path_2817" data-name="Path 2817" class="cls-4" d="M44.88,30.9,57.35,47.308c-7.22,1.313-14.658.219-21.878-.438A114.67,114.67,0,0,0,5.5,48.84L8.782,30.9Z" transform="translate(-5.281 -25.431)"/>
            </g>
            <g id="Group_1393" data-name="Group 1393" class="cls-3">
              <path id="Path_2818" data-name="Path 2818" class="cls-5" d="M39.16,28.4,43.1,33.869H7l.875-4.813c10.5-.438,20.784-.656,31.285-.656" transform="translate(-3.5 -28.4)"/>
            </g>
          </g>
        </g>
        <g id="Group_1396" data-name="Group 1396" class="cls-1">
          <rect id="Rectangle_685" data-name="Rectangle 685" class="cls-6" width="71.978" height="93.855" transform="translate(47.912 17.721)"/>
        </g>
        <g id="Group_1397" data-name="Group 1397" class="cls-1">
          <rect id="Rectangle_687" data-name="Rectangle 687" class="cls-7" width="63.664" height="85.323" transform="translate(51.194 22.753)"/>
        </g>
        <g id="Group_1398" data-name="Group 1398" class="cls-1">
          <rect id="Rectangle_689" data-name="Rectangle 689" class="cls-8" width="63.445" height="82.917" transform="translate(52.944 22.753)"/>
        </g>
        <g id="Group_1399" data-name="Group 1399" class="cls-1">
          <path id="Path_2819" data-name="Path 2819" class="cls-9" d="M87.645,63.266H24.419L24.2,35.7H87.645Z" transform="translate(28.744 42.403)"/>
        </g>
        <g id="Group_1400" data-name="Group 1400" class="cls-1">
          <path id="Path_2820" data-name="Path 2820" class="cls-10" d="M87.645,24.183H24.419L24.2,10.4H87.645Z" transform="translate(28.744 12.353)"/>
        </g>
        <g id="Group_1401" data-name="Group 1401" class="cls-1">
          <rect id="Rectangle_693" data-name="Rectangle 693" class="cls-11" width="9.845" height="8.97" transform="translate(56.663 25.816)"/>
        </g>
        <g id="Group_1402" data-name="Group 1402" class="cls-1">
          <path id="Path_2821" data-name="Path 2821" class="cls-11" d="M72.024,15.025H34.613A1.412,1.412,0,0,1,33.3,13.713,1.412,1.412,0,0,1,34.613,12.4H72.024a1.412,1.412,0,0,1,1.313,1.313,1.412,1.412,0,0,1-1.313,1.313" transform="translate(39.553 14.728)"/>
        </g>
        <g id="Group_1403" data-name="Group 1403" class="cls-1">
          <rect id="Rectangle_696" data-name="Rectangle 696" class="cls-12" width="35.004" height="10.501" transform="translate(54.694 41.13)"/>
        </g>
        <g id="Group_1404" data-name="Group 1404" class="cls-1">
          <rect id="Rectangle_698" data-name="Rectangle 698" class="cls-12" width="35.004" height="10.501" transform="translate(54.694 53.163)"/>
        </g>
        <g id="Group_1405" data-name="Group 1405" class="cls-1">
          <rect id="Rectangle_700" data-name="Rectangle 700" class="cls-12" width="35.004" height="10.501" transform="translate(54.694 65.196)"/>
        </g>
        <g id="Group_1406" data-name="Group 1406" class="cls-1">
          <rect id="Rectangle_702" data-name="Rectangle 702" class="cls-12" width="22.753" height="10.501" transform="translate(91.886 41.13)"/>
        </g>
        <g id="Group_1407" data-name="Group 1407" class="cls-1">
          <rect id="Rectangle_704" data-name="Rectangle 704" class="cls-12" width="22.753" height="10.501" transform="translate(91.886 53.163)"/>
        </g>
        <g id="Group_1408" data-name="Group 1408" class="cls-1">
          <rect id="Rectangle_706" data-name="Rectangle 706" class="cls-12" width="22.753" height="10.501" transform="translate(91.886 65.196)"/>
        </g>
        <g id="Group_1409" data-name="Group 1409" class="cls-1">
          <path id="Path_2822" data-name="Path 2822" class="cls-13" d="M50.709,23.563H28.831a1.531,1.531,0,1,1,0-3.063H50.709a1.5,1.5,0,0,1,1.531,1.531,1.843,1.843,0,0,1-1.531,1.531" transform="translate(32.426 24.349)"/>
        </g>
        <g id="Group_1410" data-name="Group 1410" class="cls-1">
          <path id="Path_2823" data-name="Path 2823" class="cls-13" d="M50.709,29.063H28.831a1.531,1.531,0,1,1,0-3.063H50.709a1.5,1.5,0,0,1,1.531,1.531,1.843,1.843,0,0,1-1.531,1.531" transform="translate(32.426 30.882)"/>
        </g>
        <g id="Group_1411" data-name="Group 1411" class="cls-1">
          <path id="Path_2824" data-name="Path 2824" class="cls-13" d="M50.709,34.563H28.831a1.531,1.531,0,1,1,0-3.063H50.709a1.5,1.5,0,0,1,1.531,1.531,1.843,1.843,0,0,1-1.531,1.531" transform="translate(32.426 37.415)"/>
        </g>
        <g id="Group_1412" data-name="Group 1412" class="cls-1">
          <path id="Path_2825" data-name="Path 2825" class="cls-13" d="M57.445,23.563H45.631a1.531,1.531,0,0,1,0-3.063H57.445a1.531,1.531,0,1,1,0,3.063" transform="translate(52.381 24.349)"/>
        </g>
        <g id="Group_1413" data-name="Group 1413" class="cls-1">
          <path id="Path_2826" data-name="Path 2826" class="cls-13" d="M57.645,29.063H45.831a1.531,1.531,0,1,1,0-3.063H57.645a1.531,1.531,0,0,1,0,3.063" transform="translate(52.618 30.882)"/>
        </g>
        <g id="Group_1414" data-name="Group 1414" class="cls-1">
          <path id="Path_2827" data-name="Path 2827" class="cls-13" d="M57.645,34.563H45.831a1.531,1.531,0,1,1,0-3.063H57.645a1.531,1.531,0,0,1,0,3.063" transform="translate(52.618 37.415)"/>
        </g>
        <g id="Group_1415" data-name="Group 1415" class="cls-1">
          <rect id="Rectangle_714" data-name="Rectangle 714" class="cls-8" width="27.785" height="18.596" transform="translate(58.195 82.041)"/>
        </g>
        <g id="Group_1416" data-name="Group 1416" class="cls-1">
          <path id="Path_2828" data-name="Path 2828" class="cls-14" d="M50.636,46.864c-1.531-.875-2.844-1.531-2.844-2.844a2.067,2.067,0,0,1,2.188-2.188,3.645,3.645,0,0,1,2.407.875,1.157,1.157,0,0,0,1.75-.219c.219-.219.438-.656.219-.875a1.137,1.137,0,0,0-.438-.875,3.972,3.972,0,0,0-3.063-1.313V37.894a1.094,1.094,0,0,0-2.188,0v1.531a4.668,4.668,0,0,0-3.938,4.594c0,2.844,2.188,3.938,4.157,5.032,1.75.875,3.282,1.75,3.282,3.5,0,1.531-.875,2.407-2.625,2.407a5.227,5.227,0,0,1-3.063-1.094,1.182,1.182,0,0,0-1.75.438,1.324,1.324,0,0,0,.219,1.75,7.942,7.942,0,0,0,3.719,1.531v1.531a1.094,1.094,0,0,0,2.188,0V57.584a4.73,4.73,0,0,0,4.157-4.813c0-3.719-2.407-5.032-4.376-5.907" transform="translate(52.845 43.71)"/>
        </g>
        <g id="Group_1417" data-name="Group 1417" class="cls-1">
          <path id="Path_2829" data-name="Path 2829" class="cls-15" d="M74.125,5.5H33.651A8.777,8.777,0,0,0,24.9,14.251h0v3.282H82.876V14.47h0A8.826,8.826,0,0,0,74.125,5.5" transform="translate(29.576 6.533)"/>
        </g>
        <g id="Group_1421" data-name="Group 1421" class="cls-1">
          <g id="Group_1420" data-name="Group 1420" class="cls-16" transform="translate(36.755 36.317)">
            <g id="Group_1418" data-name="Group 1418" class="cls-16">
              <path id="Path_2830" data-name="Path 2830" class="cls-4" d="M50.054,20.619a12.213,12.213,0,0,1-.875,6.782c-1.313,2.625-3.938,4.157-6.782,5.032a10.981,10.981,0,0,1-2.625.438c1.094,6.345-2.188,13.783-8.532,16.408C25.114,51.9,23.363,52.779,16.8,51.9l1.313-4.157c4.813,0,13.783-1.969,17.283-15.971,0,0,11.376-3.719,12.47-14.877a3.216,3.216,0,0,1,1.313,1.094,3.2,3.2,0,0,1,.875,2.625" transform="translate(-16.8 -16.244)"/>
            </g>
            <g id="Group_1419" data-name="Group 1419" class="cls-16">
              <path id="Path_2831" data-name="Path 2831" class="cls-5" d="M45.841,16.7h1.313c-1.094,11.158-12.47,14.877-12.47,14.877C31.183,45.8,22.213,47.766,17.4,47.548l.656-1.969c1.531-5.251,4.594-10.064,7.438-14.658,1.094-1.531,1.969-3.282,3.719-4.157A14.284,14.284,0,0,1,33.59,25.67c3.938-.656,7.876-2.407,9.626-5.907.875-1.313,1.313-2.844,2.625-3.063" transform="translate(-16.087 -16.481)"/>
            </g>
          </g>
        </g>
        <g id="Group_1422" data-name="Group 1422" class="cls-1">
          <path id="Path_2832" data-name="Path 2832" class="cls-15" d="M45.345,0A13.259,13.259,0,0,0,32,13.345H58.691A13.259,13.259,0,0,0,45.345,0m0,11.6a3.834,3.834,0,0,1-3.719-3.719,3.719,3.719,0,0,1,7.438,0A3.561,3.561,0,0,1,45.345,11.6" transform="translate(38.009 0)"/>
        </g>
        <g id="Group_1423" data-name="Group 1423" class="cls-1">
          <path id="Path_2833" data-name="Path 2833" class="cls-6" d="M22.315,27.4V56.279H6.345A6.349,6.349,0,0,1,0,49.934V33.745A6.349,6.349,0,0,1,6.345,27.4Z" transform="translate(0 32.545)"/>
        </g>
        <g id="Group_1424" data-name="Group 1424" class="cls-1">
          <path id="Path_2834" data-name="Path 2834" class="cls-17" d="M64.6,24.8V50.178a4.621,4.621,0,0,0,4.594,4.594H75.1V24.8Z" transform="translate(76.73 29.457)"/>
        </g>
        <g id="Group_1425" data-name="Group 1425" class="cls-1">
          <path id="Path_2835" data-name="Path 2835" class="cls-18" d="M69.4,23.5V60.911H85.152A6.349,6.349,0,0,0,91.5,54.566v-24.5a6.349,6.349,0,0,0-6.345-6.345Z" transform="translate(82.431 27.913)"/>
        </g>
        <g id="Group_1430" data-name="Group 1430" class="cls-1">
          <g id="Group_1429" data-name="Group 1429" class="cls-19" transform="translate(98.231 47.912)">
            <g id="Group_1426" data-name="Group 1426" class="cls-19">
              <path id="Path_2836" data-name="Path 2836" class="cls-2" d="M87.524,34.22v4.157s-10.72.875-18.6,0c-7.657-.656-8.97-8.751-8.97-8.751C53.832,37.939,47.925,37.5,45.3,35.1c5.688,0,13.564-8.095,14.439-11.6,0,0,4.157,10.72,14.439,10.72Z" transform="translate(-44.425 -20)"/>
            </g>
            <g id="Group_1427" data-name="Group 1427" class="cls-19">
              <path id="Path_2837" data-name="Path 2837" class="cls-20" d="M79.685,30.87v5.251H66.339C56.276,36.121,51.9,25.4,51.9,25.4V21.9h5.032A26.9,26.9,0,0,1,70.5,25.619Z" transform="translate(-36.586 -21.9)"/>
            </g>
            <g id="Group_1428" data-name="Group 1428" class="cls-19">
              <path id="Path_2838" data-name="Path 2838" class="cls-20" d="M60.472,21.9v3.5C59.6,28.682,51.94,37,46.033,37c-1.75-1.75-1.75-4.594,1.531-5.907,3.938-1.531,8.97-9.189,8.97-9.189h3.938Z" transform="translate(-44.939 -21.9)"/>
            </g>
          </g>
        </g>
        <g id="Group_1431" data-name="Group 1431" class="cls-1">
          <rect id="Rectangle_731" data-name="Rectangle 731" class="cls-2" width="6.782" height="9.845" transform="translate(134.548 69.352)"/>
        </g>
      </g>
    </g>
  </g>
</svg>
