<svg xmlns="http://www.w3.org/2000/svg" xmlns:xlink="http://www.w3.org/1999/xlink" viewBox="397 -550 273.193 111.795">
  <defs>
    <style>
      .cls-1 {
        clip-path: url(#clip-path);
      }

      .cls-2 {
        fill: #85a2b5;
      }

      .cls-3 {
        fill: #c1c64d;
      }

      .cls-4 {
        fill: #8c993b;
      }

      .cls-5 {
        fill: #58a06c;
      }

      .cls-6 {
        fill: #c27037;
      }

      .cls-7 {
        fill: #a55359;
      }

      .cls-8 {
        fill: #ddd9c5;
      }

      .cls-9 {
        fill: #918c7f;
      }

      .cls-10 {
        fill: #e17036;
      }

      .cls-11 {
        fill: #666766;
      }

      .cls-12 {
        fill: #c6b394;
      }

      .cls-13 {
        fill: #8c8c8c;
      }

      .cls-14 {
        fill: #5c5c5c;
      }

      .cls-15 {
        fill: #787a77;
      }

      .cls-16 {
        fill: #bec1bc;
      }

      .cls-17 {
        fill: #adaf9f;
      }

      .cls-18 {
        fill: #b12126;
      }

      .cls-19 {
        fill: #ab542d;
      }

      .cls-20 {
        fill: #eacfb6;
      }

      .cls-21 {
        fill: #787a87;
      }

      .cls-22 {
        fill: #b85030;
      }

      .cls-23 {
        fill: #86bc84;
      }

      .cls-24 {
        fill: #f9f4e1;
      }

      .cls-25 {
        fill: #3cb774;
      }

      .cls-26 {
        fill: #fff;
      }
    </style>
    <clipPath id="clip-path">
      <rect id="Rectangle_999" data-name="Rectangle 999" width="273.193" height="111.795"/>
    </clipPath>
  </defs>
  <g id="Process_2c-_Shares_Assigned_1_" transform="translate(397 -550)">
    <g id="Group_1653" data-name="Group 1653">
      <g id="Group_1652" data-name="Group 1652" class="cls-1">
        <g id="Group_1583" data-name="Group 1583" class="cls-1">
          <path id="Path_2968" data-name="Path 2968" class="cls-2" d="M61.019,47.2S52.71,28.82,45.408,21.518l-5.791,6.043C39.365,26.554,31.056,19,29.293,19,29.293,19,2.1,35.366,2.1,68.855H64.292Z" transform="translate(3.188 28.84)"/>
        </g>
        <g id="Group_1584" data-name="Group 1584" class="cls-1">
          <path id="Path_2969" data-name="Path 2969" class="cls-3" d="M37.7,35.5l69.494,1.511c5.539,0,16.87,2.77,20.4,7.05H37.7Z" transform="translate(57.225 53.886)"/>
        </g>
        <g id="Group_1585" data-name="Group 1585" class="cls-1">
          <rect id="Rectangle_895" data-name="Rectangle 895" class="cls-4" width="88.379" height="15.863" transform="translate(94.925 96.184)"/>
        </g>
        <g id="Group_1586" data-name="Group 1586" class="cls-1">
          <path id="Path_2970" data-name="Path 2970" class="cls-5" d="M72.8,38.2V54.063h86.113a3.442,3.442,0,0,0,3.525-3.525V38.452H72.8Z" transform="translate(110.504 57.984)"/>
        </g>
        <g id="Group_1587" data-name="Group 1587" class="cls-1">
          <rect id="Rectangle_898" data-name="Rectangle 898" class="cls-6" width="3.777" height="19.64" transform="translate(244.993 53.632)"/>
        </g>
        <g id="Group_1588" data-name="Group 1588" class="cls-1">
          <rect id="Rectangle_900" data-name="Rectangle 900" class="cls-7" width="4.532" height="28.452" transform="translate(141.255 32.481)"/>
        </g>
        <g id="Group_1589" data-name="Group 1589" class="cls-1">
          <path id="Path_2971" data-name="Path 2971" class="cls-7" d="M71.906,31.8,66.87,33.814,64.1,38.85v9.064H79.711V38.85l-2.77-5.036Z" transform="translate(97.298 48.27)"/>
        </g>
        <g id="Group_1590" data-name="Group 1590" class="cls-1">
          <rect id="Rectangle_903" data-name="Rectangle 903" class="cls-8" width="7.806" height="7.806" transform="translate(165.175 88.379)"/>
        </g>
        <g id="Group_1591" data-name="Group 1591" class="cls-1">
          <path id="Path_2972" data-name="Path 2972" class="cls-9" d="M50.568,26.1,41,37.179v27.7h9.568Z" transform="translate(62.234 39.617)"/>
        </g>
        <g id="Group_1592" data-name="Group 1592" class="cls-1">
          <path id="Path_2973" data-name="Path 2973" class="cls-10" d="M76.1,51.729h63.7V33.6H76.1Z" transform="translate(115.513 51.002)"/>
        </g>
        <g id="Group_1593" data-name="Group 1593" class="cls-1">
          <path id="Path_2974" data-name="Path 2974" class="cls-11" d="M76.1,47.565h63.7L130.487,24.4H85.416Z" transform="translate(115.513 37.037)"/>
        </g>
        <g id="Group_1594" data-name="Group 1594" class="cls-1">
          <path id="Path_2975" data-name="Path 2975" class="cls-11" d="M87.541,24.4,74.7,47.565h70.753L132.612,24.4" transform="translate(113.388 37.037)"/>
        </g>
        <g id="Group_1595" data-name="Group 1595" class="cls-1">
          <rect id="Rectangle_909" data-name="Rectangle 909" class="cls-12" width="13.345" height="14.352" transform="translate(216.792 88.379)"/>
        </g>
        <g id="Group_1596" data-name="Group 1596" class="cls-1">
          <path id="Path_2976" data-name="Path 2976" class="cls-13" d="M92.5,36.156h8.561V26.084L96.78,21.3,92.5,26.084Z" transform="translate(140.407 32.331)"/>
        </g>
        <g id="Group_1597" data-name="Group 1597" class="cls-1">
          <rect id="Rectangle_912" data-name="Rectangle 912" class="cls-14" width="6.547" height="6.547" transform="translate(233.914 59.926)"/>
        </g>
        <g id="Group_1598" data-name="Group 1598" class="cls-1">
          <path id="Path_2977" data-name="Path 2977" class="cls-13" d="M90.161,36.156H81.6V26.084L85.88,21.3l4.28,4.784Z" transform="translate(123.862 32.331)"/>
        </g>
        <g id="Group_1599" data-name="Group 1599" class="cls-1">
          <rect id="Rectangle_915" data-name="Rectangle 915" class="cls-14" width="6.547" height="6.547" transform="translate(206.721 59.926)"/>
        </g>
        <g id="Group_1600" data-name="Group 1600" class="cls-1">
          <rect id="Rectangle_917" data-name="Rectangle 917" class="cls-15" width="10.575" height="12.59" transform="translate(218.303 90.141)"/>
        </g>
        <g id="Group_1601" data-name="Group 1601" class="cls-1">
          <path id="Path_2978" data-name="Path 2978" class="cls-11" d="M44.8,84.305v-49.1L63.684,13.3,82.82,35.206v49.1Z" transform="translate(68.002 20.188)"/>
        </g>
        <g id="Group_1602" data-name="Group 1602" class="cls-1">
          <path id="Path_2979" data-name="Path 2979" class="cls-16" d="M65.961,15.88,47.077,37.786H43.3L65.961,11.6,88.874,37.786H85.1Z" transform="translate(65.726 17.608)"/>
        </g>
        <g id="Group_1603" data-name="Group 1603" class="cls-1">
          <path id="Path_2980" data-name="Path 2980" class="cls-16" d="M41.7,39.172H95.08L87.526,29.1H49.506Z" transform="translate(63.297 44.171)"/>
        </g>
        <g id="Group_1604" data-name="Group 1604" class="cls-1">
          <path id="Path_2981" data-name="Path 2981" class="cls-17" d="M90.489,44.839H42.9V39.3H90.489Z" transform="translate(65.118 59.654)"/>
        </g>
        <g id="Group_1605" data-name="Group 1605" class="cls-1">
          <rect id="Rectangle_923" data-name="Rectangle 923" class="cls-17" width="1.259" height="15.611" transform="translate(110.285 83.343)"/>
        </g>
        <g id="Group_1606" data-name="Group 1606" class="cls-1">
          <rect id="Rectangle_925" data-name="Rectangle 925" class="cls-17" width="1.259" height="15.611" transform="translate(120.356 83.343)"/>
        </g>
        <g id="Group_1607" data-name="Group 1607" class="cls-1">
          <rect id="Rectangle_927" data-name="Rectangle 927" class="cls-17" width="1.259" height="15.611" transform="translate(142.01 83.343)"/>
        </g>
        <g id="Group_1608" data-name="Group 1608" class="cls-1">
          <rect id="Rectangle_929" data-name="Rectangle 929" class="cls-17" width="1.259" height="15.611" transform="translate(152.082 83.343)"/>
        </g>
        <g id="Group_1609" data-name="Group 1609" class="cls-1">
          <rect id="Rectangle_931" data-name="Rectangle 931" class="cls-9" width="9.064" height="15.611" transform="translate(127.406 83.343)"/>
        </g>
        <g id="Group_1610" data-name="Group 1610" class="cls-1">
          <rect id="Rectangle_933" data-name="Rectangle 933" class="cls-18" width="6.547" height="13.849" transform="translate(128.414 85.105)"/>
        </g>
        <g id="Group_1611" data-name="Group 1611" class="cls-1">
          <rect id="Rectangle_935" data-name="Rectangle 935" class="cls-16" width="6.295" height="14.604" transform="translate(116.579 55.646)"/>
        </g>
        <g id="Group_1612" data-name="Group 1612" class="cls-1">
          <rect id="Rectangle_937" data-name="Rectangle 937" class="cls-16" width="6.295" height="14.604" transform="translate(128.665 55.646)"/>
        </g>
        <g id="Group_1613" data-name="Group 1613" class="cls-1">
          <rect id="Rectangle_939" data-name="Rectangle 939" class="cls-16" width="6.295" height="14.604" transform="translate(140.751 55.646)"/>
        </g>
        <g id="Group_1614" data-name="Group 1614" class="cls-1">
          <rect id="Rectangle_941" data-name="Rectangle 941" class="cls-14" width="4.532" height="5.036" transform="translate(117.335 64.207)"/>
        </g>
        <g id="Group_1615" data-name="Group 1615" class="cls-1">
          <rect id="Rectangle_943" data-name="Rectangle 943" class="cls-14" width="4.532" height="5.036" transform="translate(129.421 64.207)"/>
        </g>
        <g id="Group_1616" data-name="Group 1616" class="cls-1">
          <rect id="Rectangle_945" data-name="Rectangle 945" class="cls-14" width="4.532" height="5.036" transform="translate(141.758 64.207)"/>
        </g>
        <g id="Group_1617" data-name="Group 1617" class="cls-1">
          <rect id="Rectangle_947" data-name="Rectangle 947" class="cls-19" width="5.791" height="3.525" transform="translate(249.525 84.602)"/>
        </g>
        <g id="Group_1618" data-name="Group 1618" class="cls-1">
          <rect id="Rectangle_949" data-name="Rectangle 949" class="cls-19" width="2.77" height="3.525" transform="translate(252.295 88.379)"/>
        </g>
        <g id="Group_1619" data-name="Group 1619" class="cls-1">
          <rect id="Rectangle_951" data-name="Rectangle 951" class="cls-19" width="5.791" height="3.525" transform="translate(249.525 91.904)"/>
        </g>
        <g id="Group_1620" data-name="Group 1620" class="cls-1">
          <rect id="Rectangle_953" data-name="Rectangle 953" class="cls-19" width="2.77" height="3.525" transform="translate(252.295 95.429)"/>
        </g>
        <g id="Group_1621" data-name="Group 1621" class="cls-1">
          <rect id="Rectangle_955" data-name="Rectangle 955" class="cls-19" width="5.791" height="3.525" transform="translate(249.525 99.206)"/>
        </g>
        <g id="Group_1622" data-name="Group 1622" class="cls-1">
          <rect id="Rectangle_957" data-name="Rectangle 957" class="cls-19" width="5.791" height="3.525" transform="translate(191.613 99.206)"/>
        </g>
        <g id="Group_1623" data-name="Group 1623" class="cls-1">
          <rect id="Rectangle_959" data-name="Rectangle 959" class="cls-19" width="2.77" height="3.525" transform="translate(191.613 95.429)"/>
        </g>
        <g id="Group_1624" data-name="Group 1624" class="cls-1">
          <rect id="Rectangle_961" data-name="Rectangle 961" class="cls-19" width="5.791" height="3.525" transform="translate(191.613 91.904)"/>
        </g>
        <g id="Group_1625" data-name="Group 1625" class="cls-1">
          <rect id="Rectangle_963" data-name="Rectangle 963" class="cls-19" width="2.77" height="3.525" transform="translate(191.613 88.379)"/>
        </g>
        <g id="Group_1626" data-name="Group 1626" class="cls-1">
          <rect id="Rectangle_965" data-name="Rectangle 965" class="cls-19" width="5.791" height="3.525" transform="translate(191.613 84.602)"/>
        </g>
        <g id="Group_1627" data-name="Group 1627" class="cls-1">
          <rect id="Rectangle_967" data-name="Rectangle 967" class="cls-17" width="12.841" height="11.834" transform="translate(234.669 88.882)"/>
        </g>
        <g id="Group_1628" data-name="Group 1628" class="cls-1">
          <rect id="Rectangle_969" data-name="Rectangle 969" class="cls-17" width="12.841" height="11.834" transform="translate(199.419 88.882)"/>
        </g>
        <g id="Group_1629" data-name="Group 1629" class="cls-1">
          <rect id="Rectangle_971" data-name="Rectangle 971" class="cls-14" width="10.072" height="9.064" transform="translate(200.929 90.141)"/>
        </g>
        <g id="Group_1630" data-name="Group 1630" class="cls-1">
          <rect id="Rectangle_973" data-name="Rectangle 973" class="cls-14" width="10.072" height="9.064" transform="translate(235.928 90.141)"/>
        </g>
        <g id="Group_1631" data-name="Group 1631" class="cls-1">
          <rect id="Rectangle_975" data-name="Rectangle 975" class="cls-20" width="44.063" height="8.561" transform="translate(50.862 89.386)"/>
        </g>
        <g id="Group_1632" data-name="Group 1632" class="cls-1">
          <path id="Path_2982" data-name="Path 2982" class="cls-12" d="M94.925,53.811H3.525A3.442,3.442,0,0,1,0,50.286V38.2H94.925Z" transform="translate(0 57.984)"/>
        </g>
        <g id="Group_1633" data-name="Group 1633" class="cls-1">
          <rect id="Rectangle_978" data-name="Rectangle 978" class="cls-21" width="32.481" height="22.158" transform="translate(17.122 77.3)"/>
        </g>
        <g id="Group_1634" data-name="Group 1634" class="cls-1">
          <path id="Path_2983" data-name="Path 2983" class="cls-22" d="M41.862,29.9h-28.7L5.1,34.432H41.862Z" transform="translate(7.741 45.386)"/>
        </g>
        <g id="Group_1635" data-name="Group 1635" class="cls-1">
          <path id="Path_2984" data-name="Path 2984" class="cls-23" d="M10.911,45.973a1.451,1.451,0,0,1,1.511,1.511v5.288h3.273V27.341a2.991,2.991,0,0,1,2.518-3.021,2.792,2.792,0,0,1,3.273,2.77V46.981h3.273V36.154a2.77,2.77,0,1,1,5.539,0v14.1a2.523,2.523,0,0,1-2.518,2.518H21.486V65.613H15.695V56.3H11.666A2.325,2.325,0,0,1,9.4,53.779V47.484a1.451,1.451,0,0,1,1.511-1.511" transform="translate(14.268 36.866)"/>
        </g>
        <g id="Group_1636" data-name="Group 1636" class="cls-1">
          <path id="Path_2985" data-name="Path 2985" class="cls-8" d="M19.7,30.2V57.649H58.979V29.7H19.7Z" transform="translate(29.903 45.082)"/>
        </g>
        <g id="Group_1637" data-name="Group 1637" class="cls-1">
          <path id="Path_2986" data-name="Path 2986" class="cls-8" d="M41.606,27.9,19.7,32.432H58.979Z" transform="translate(29.903 42.35)"/>
        </g>
        <g id="Group_1638" data-name="Group 1638" class="cls-1">
          <path id="Path_2987" data-name="Path 2987" class="cls-22" d="M22.07,30.177a2.12,2.12,0,0,1,1.763,1.007,2.038,2.038,0,0,1,3.777-.755,2.038,2.038,0,0,1,3.777-.755,2.038,2.038,0,0,1,3.777-.755,2.038,2.038,0,0,1,3.777-.755A2.137,2.137,0,0,1,40.954,26.4a1.946,1.946,0,0,1,2.014,1.763,2.549,2.549,0,0,1,1.763-1.007A2.387,2.387,0,0,1,47,29.17a2.549,2.549,0,0,1,1.763-1.007,2.387,2.387,0,0,1,2.266,2.014,2.549,2.549,0,0,1,1.763-1.007A1.986,1.986,0,0,1,54.8,31.184a2.549,2.549,0,0,1,1.763-1.007,1.994,1.994,0,0,1,2.014,1.259v3.273L41.206,30.177,19.3,34.709V31.184c1.511-.5,2.014-1.007,2.77-1.007" transform="translate(29.296 40.073)"/>
        </g>
        <g id="Group_1639" data-name="Group 1639" class="cls-1">
          <path id="Path_2988" data-name="Path 2988" class="cls-21" d="M29.777,35.6a3.872,3.872,0,0,1,3.777,3.777v9.316H26V39.377A3.866,3.866,0,0,1,29.777,35.6" transform="translate(39.466 54.038)"/>
        </g>
        <g id="Group_1640" data-name="Group 1640" class="cls-1">
          <path id="Path_2989" data-name="Path 2989" class="cls-23" d="M21.1,39.47a2.77,2.77,0,1,1,2.77,2.77,2.794,2.794,0,0,1-2.77-2.77" transform="translate(32.028 55.707)"/>
        </g>
        <g id="Group_1641" data-name="Group 1641" class="cls-1">
          <path id="Path_2990" data-name="Path 2990" class="cls-23" d="M18.1,39.47a2.77,2.77,0,1,1,2.77,2.77,2.794,2.794,0,0,1-2.77-2.77" transform="translate(27.474 55.707)"/>
        </g>
        <g id="Group_1642" data-name="Group 1642" class="cls-1">
          <rect id="Rectangle_988" data-name="Rectangle 988" class="cls-24" width="16.87" height="7.302" transform="translate(45.574 95.429)"/>
        </g>
        <g id="Group_1643" data-name="Group 1643" class="cls-1">
          <path id="Path_2991" data-name="Path 2991" class="cls-25" d="M62.2,13.849A13.849,13.849,0,1,0,48.349,27.7,13.808,13.808,0,0,0,62.2,13.849" transform="translate(52.368 0)"/>
        </g>
        <g id="Group_1644" data-name="Group 1644" class="cls-1">
          <path id="Path_2992" data-name="Path 2992" class="cls-26" d="M44.057,11.072c-1.511-.755-2.77-1.511-2.77-2.77s.755-2.014,2.266-2.014a3.515,3.515,0,0,1,2.266.755,1.244,1.244,0,0,0,1.763-.252.925.925,0,0,0,.252-.755c0-.252-.252-.5-.5-.755a4.591,4.591,0,0,0-2.77-1.259V2.007A1.7,1.7,0,0,0,43.05,1a.922.922,0,0,0-1.007,1.007V3.518A4.581,4.581,0,0,0,38.265,8.05c0,2.77,2.014,4.029,4.029,4.784,1.763,1.259,3.273,2.014,3.273,3.777,0,1.511-1.007,2.266-2.518,2.266a4.839,4.839,0,0,1-3.021-1.007,1.244,1.244,0,0,0-1.763.252.949.949,0,0,0,.252,1.511,8.828,8.828,0,0,0,3.525,1.511v1.511a1.007,1.007,0,0,0,2.014,0V21.143a4.649,4.649,0,0,0,4.029-4.784c.252-3.273-2.266-4.532-4.029-5.288" transform="translate(57.667 1.518)"/>
        </g>
        <g id="Group_1645" data-name="Group 1645" class="cls-1">
          <path id="Path_2993" data-name="Path 2993" class="cls-25" d="M49.991,21.683a.472.472,0,0,1-.755,0L43.7,20.172c-.5-.252-1.007-.755-.755-1.259s.755-1.007,1.259-.755l2.77.755L43.444,12.87a1.126,1.126,0,0,1,2.014-1.007l3.525,6.043.755-2.77c.252-.5.755-1.007,1.259-.755s1.007.755.755,1.259l-1.511,5.539c.252.252,0,.252-.252.5" transform="translate(65.078 17.093)"/>
        </g>
        <g id="Group_1646" data-name="Group 1646" class="cls-1">
          <path id="Path_2994" data-name="Path 2994" class="cls-25" d="M35,13.849A13.808,13.808,0,0,0,21.149,0,13.971,13.971,0,0,0,7.3,13.849a13.849,13.849,0,0,0,27.7,0" transform="translate(11.081 0)"/>
        </g>
        <g id="Group_1647" data-name="Group 1647" class="cls-1">
          <path id="Path_2995" data-name="Path 2995" class="cls-26" d="M16.539,11.072c-1.511-.755-2.77-1.511-2.77-3.021,0-1.259.755-2.014,2.266-2.014a3.515,3.515,0,0,1,2.266.755,1.244,1.244,0,0,0,1.763-.252.925.925,0,0,0,.252-.755c0-.252-.252-.5-.5-.755a6.862,6.862,0,0,0-3.021-1.511V2.007a1.007,1.007,0,0,0-2.014,0V3.518A4.581,4.581,0,0,0,11,8.05c0,2.77,2.014,4.029,4.029,4.784,1.763.755,3.273,1.511,3.273,3.273,0,1.511-1.007,2.266-2.518,2.266a4.839,4.839,0,0,1-3.021-1.007A1.244,1.244,0,0,0,11,17.618a1.551,1.551,0,0,0,.252,1.763,8.828,8.828,0,0,0,3.525,1.511V22.4a1.007,1.007,0,0,0,2.014,0V21.143a4.649,4.649,0,0,0,4.029-4.784c0-3.273-2.266-4.532-4.28-5.288" transform="translate(16.446 1.518)"/>
        </g>
        <g id="Group_1648" data-name="Group 1648" class="cls-1">
          <path id="Path_2996" data-name="Path 2996" class="cls-25" d="M22.691,21.683a.472.472,0,0,1-.755,0L16.4,20.172c-.5-.252-1.007-.755-.755-1.259s.755-1.007,1.259-.755l2.77.755L16.648,12.87a1.126,1.126,0,0,1,2.014-1.007l3.525,6.043.755-2.77c.252-.5.755-1.007,1.259-.755s1.007.755.755,1.259l-1.511,5.539c-.252.252-.5.252-.755.5" transform="translate(23.639 17.093)"/>
        </g>
        <g id="Group_1649" data-name="Group 1649" class="cls-1">
          <path id="Path_2997" data-name="Path 2997" class="cls-25" d="M89.5,13.849A13.849,13.849,0,1,0,75.649,27.7,13.808,13.808,0,0,0,89.5,13.849" transform="translate(93.807 0)"/>
        </g>
        <g id="Group_1650" data-name="Group 1650" class="cls-1">
          <path id="Path_2998" data-name="Path 2998" class="cls-26" d="M71.039,11.072c-1.511-.755-2.77-1.511-2.77-2.77s.755-2.014,2.266-2.014a3.515,3.515,0,0,1,2.266.755,1.244,1.244,0,0,0,1.763-.252V5.784c0-.252-.252-.5-.5-.755a4.591,4.591,0,0,0-2.77-1.259V2.007a1.007,1.007,0,1,0-2.014,0V3.518A4.581,4.581,0,0,0,65.5,8.05c0,2.77,2.014,4.029,4.029,4.784,1.763.755,3.273,1.511,3.273,3.273,0,1.511-1.007,2.266-2.518,2.266a4.839,4.839,0,0,1-3.021-1.007,1.244,1.244,0,0,0-1.763.252,1.551,1.551,0,0,0,.252,1.763,8.828,8.828,0,0,0,3.525,1.511V22.4a1.007,1.007,0,0,0,2.014,0V21.143a4.649,4.649,0,0,0,4.029-4.784c0-3.273-2.266-4.532-4.28-5.288" transform="translate(99.172 1.518)"/>
        </g>
        <g id="Group_1651" data-name="Group 1651" class="cls-1">
          <path id="Path_2999" data-name="Path 2999" class="cls-25" d="M77.191,21.683a.472.472,0,0,1-.755,0L70.9,20.172c-.5-.252-1.007-.755-.755-1.259s.755-1.007,1.259-.755l2.77.755L70.644,12.87a1.126,1.126,0,1,1,2.014-1.007l3.525,6.043.755-2.77c.252-.5.755-1.007,1.259-.755s1.007.755.755,1.259l-1.511,5.539c.252.252,0,.252-.252.5" transform="translate(106.365 17.093)"/>
        </g>
      </g>
    </g>
  </g>
</svg>
