<svg xmlns="http://www.w3.org/2000/svg" xmlns:xlink="http://www.w3.org/1999/xlink" viewBox="433 -1219.707 201.691 226.956">
  <defs>
    <style>
      .cls-1 {
        clip-path: url(#clip-path);
      }

      .cls-2 {
        fill: #b34b4b;
      }

      .cls-3 {
        fill: #d6282c;
      }

      .cls-4 {
        fill: #bab9be;
      }

      .cls-5 {
        fill: #e15154;
      }

      .cls-6 {
        fill: #e4e4e6;
      }

      .cls-7 {
        fill: #c2c0c4;
      }

      .cls-8 {
        fill: #d5d7d1;
      }

      .cls-9 {
        fill: #dd4343;
      }

      .cls-10 {
        fill: #dcdfdb;
      }

      .cls-11 {
        fill: #c7c5ca;
      }

      .cls-12 {
        fill: #a55359;
      }

      .cls-13 {
        fill: #cc7d82;
      }

      .cls-14 {
        fill: #c9c9c9;
      }

      .cls-15 {
        fill: #997474;
      }

      .cls-16 {
        fill: #7e7f7f;
      }

      .cls-17 {
        fill: #c8c5c2;
      }
    </style>
    <clipPath id="clip-path">
      <rect id="Rectangle_307" data-name="Rectangle 307" width="201.691" height="226.956"/>
    </clipPath>
  </defs>
  <g id="Process_2_-_Allocation_1_" transform="translate(433 -1219.707)">
    <g id="Group_886" data-name="Group 886">
      <g id="Group_885" data-name="Group 885" class="cls-1">
        <g id="Group_859" data-name="Group 859" class="cls-1">
          <path id="Path_2275" data-name="Path 2275" class="cls-2" d="M21.609,10.377a2.186,2.186,0,0,0-.864,1.512L19.018,23.982a2.132,2.132,0,0,0,1.943,2.591,2.132,2.132,0,0,0,2.591-1.943l.864-6.478,13.82,18.355a2.2,2.2,0,0,0,3.239.432h0a2.2,2.2,0,0,0,.432-3.239L28.087,15.344l6.478.864a2.132,2.132,0,0,0,2.591-1.943,2.132,2.132,0,0,0-1.943-2.591L23.337,9.945a1.679,1.679,0,0,0-1.728.432" transform="translate(22.012 11.433)"/>
        </g>
        <g id="Group_860" data-name="Group 860" class="cls-1">
          <path id="Path_2276" data-name="Path 2276" class="cls-3" d="M4.148,61.336a2.5,2.5,0,0,0,1.08,1.512l10.581,6.046a2.37,2.37,0,0,0,2.375-4.1L12.57,61.552l22.242-5.83a2.331,2.331,0,1,0-1.08-4.535l-22.458,5.83L14.513,51.4a2.256,2.256,0,0,0-.864-3.239,2.438,2.438,0,0,0-3.239.864L4.364,59.608a2.294,2.294,0,0,0-.216,1.728" transform="translate(4.706 55.489)"/>
        </g>
        <g id="Group_861" data-name="Group 861" class="cls-1">
          <path id="Path_2277" data-name="Path 2277" class="cls-3" d="M72.047,50.952,42.462,42.315a10.177,10.177,0,0,0,5.4,18.787H60.6v1.512L36.848,87.663A50.34,50.34,0,0,1,21.3,50.952,51.63,51.63,0,0,1,23.243,36.7Z" transform="translate(24.696 42.551)"/>
        </g>
        <g id="Group_862" data-name="Group 862" class="cls-1">
          <path id="Path_2278" data-name="Path 2278" class="cls-4" d="M63.119,47.938,51.89,59.6V58.087H39.149A10.138,10.138,0,0,1,29,47.938,10.455,10.455,0,0,1,33.751,39.3Z" transform="translate(33.624 45.566)"/>
        </g>
        <g id="Group_863" data-name="Group 863" class="cls-1">
          <path id="Path_2279" data-name="Path 2279" class="cls-5" d="M45.507,103.07a2.327,2.327,0,0,0,1.728-.432l9.5-7.558a2.311,2.311,0,0,0-2.807-3.671l-4.967,4.1,2.375-23.106a2.385,2.385,0,1,0-4.751-.432L44,94.864l-3.887-5.183a2.311,2.311,0,0,0-3.671,2.807L44,101.99c.432.648.864,1.08,1.512,1.08" transform="translate(41.734 80.914)"/>
        </g>
        <g id="Group_864" data-name="Group 864" class="cls-1">
          <path id="Path_2280" data-name="Path 2280" class="cls-5" d="M72.868,52.919,89.5,80.992A49.786,49.786,0,0,1,63.8,87.9,50.358,50.358,0,0,1,28.6,73.649L52.57,48.6V60.261a10.149,10.149,0,0,0,20.3,0V52.919Z" transform="translate(33.16 56.348)"/>
        </g>
        <g id="Group_865" data-name="Group 865" class="cls-1">
          <path id="Path_2281" data-name="Path 2281" class="cls-6" d="M60,58.948V66.29a10.149,10.149,0,0,1-20.3,0V55.061L50.929,43.4Z" transform="translate(46.03 50.319)"/>
        </g>
        <g id="Group_866" data-name="Group 866" class="cls-1">
          <path id="Path_2282" data-name="Path 2282" class="cls-2" d="M95.668,76.067a2.294,2.294,0,0,0,.216-1.728L93.293,62.462a2.331,2.331,0,1,0-4.535,1.08L90.27,69.8,70.835,57.5a2.378,2.378,0,0,0-3.239.648h0a2.378,2.378,0,0,0,.648,3.239L87.678,73.691,81.416,75.2a2.331,2.331,0,1,0,1.08,4.535l11.877-2.591a2.211,2.211,0,0,0,1.3-1.08" transform="translate(77.95 66.24)"/>
        </g>
        <g id="Group_867" data-name="Group 867" class="cls-1">
          <path id="Path_2283" data-name="Path 2283" class="cls-2" d="M71.674,44.7l18.787,1.728a50.43,50.43,0,0,1-24.833,39.3L49,57.657v-5.4H61.957A10.7,10.7,0,0,0,71.674,44.7" transform="translate(56.812 51.827)"/>
        </g>
        <g id="Group_868" data-name="Group 868" class="cls-1">
          <path id="Path_2284" data-name="Path 2284" class="cls-7" d="M44.8,43.3l31.744,2.807a10.237,10.237,0,0,1-9.933,7.342H53.87v5.4Z" transform="translate(51.943 50.203)"/>
        </g>
        <g id="Group_869" data-name="Group 869" class="cls-1">
          <path id="Path_2285" data-name="Path 2285" class="cls-5" d="M107.451,28.117a1.947,1.947,0,0,0-1.3-1.3L94.926,22.287A2.326,2.326,0,1,0,93.2,26.606l6.046,2.375L78.083,37.835a2.3,2.3,0,0,0-1.3,3.023h0a2.3,2.3,0,0,0,3.023,1.3L100.973,33.3,98.6,39.346a2.326,2.326,0,0,0,4.319,1.728l4.535-11.229a2.366,2.366,0,0,0,0-1.728" transform="translate(88.842 25.652)"/>
        </g>
        <g id="Group_870" data-name="Group 870" class="cls-1">
          <path id="Path_2286" data-name="Path 2286" class="cls-5" d="M97.861,62.55a31.894,31.894,0,0,1-.216,4.535L78.858,65.357a12.638,12.638,0,0,0,.432-2.807A10.138,10.138,0,0,0,69.141,52.4H56.4V50.889L78.858,22.6a51.508,51.508,0,0,1,19,39.95" transform="translate(65.392 26.203)"/>
        </g>
        <g id="Group_871" data-name="Group 871" class="cls-1">
          <path id="Path_2287" data-name="Path 2287" class="cls-8" d="M84.176,47.361a10.941,10.941,0,0,1-.432,2.807L52,47.361,61.286,35.7v1.512H74.026A9.873,9.873,0,0,1,84.176,47.361" transform="translate(60.291 41.392)"/>
        </g>
        <g id="Group_872" data-name="Group 872" class="cls-1">
          <path id="Path_2288" data-name="Path 2288" class="cls-9" d="M67.459.187a2.365,2.365,0,0,0-1.728,0l-11.013,5.4A2.414,2.414,0,1,0,56.878,9.9L62.708,7.1,55.15,28.907a2.334,2.334,0,0,0,1.512,3.023h0a2.334,2.334,0,0,0,3.023-1.512l7.342-21.81,2.807,5.615a2.414,2.414,0,1,0,4.319-2.159l-5.4-11.013a1.983,1.983,0,0,0-1.3-.864" transform="translate(61.891 0.029)"/>
        </g>
        <g id="Group_873" data-name="Group 873" class="cls-1">
          <path id="Path_2289" data-name="Path 2289" class="cls-3" d="M77.628,27.113,55.386,55.186V43.957A10.135,10.135,0,0,0,46.1,33.807V16.1A50.378,50.378,0,0,1,77.628,27.113" transform="translate(53.45 18.667)"/>
        </g>
        <g id="Group_874" data-name="Group 874" class="cls-1">
          <path id="Path_2290" data-name="Path 2290" class="cls-10" d="M55.386,34.449V45.678L46.1,57.339V24.3a10.135,10.135,0,0,1,9.286,10.149" transform="translate(53.45 28.174)"/>
        </g>
        <g id="Group_875" data-name="Group 875" class="cls-1">
          <path id="Path_2291" data-name="Path 2291" class="cls-11" d="M132.7,103.877c0,6.478-29.368,9.5-56.793,11.229A50.623,50.623,0,0,0,59.5,92c30.232,1.08,73.2,4.1,73.2,11.877" transform="translate(68.986 106.668)"/>
        </g>
        <g id="Group_876" data-name="Group 876" class="cls-1">
          <path id="Path_2292" data-name="Path 2292" class="cls-12" d="M71.458,92.116A49.521,49.521,0,0,1,87.87,115.222c-15.548.864-30.448,1.3-38.87,1.3V116.3L63.252,91.9c2.807,0,5.4,0,8.206.216" transform="translate(56.812 106.552)"/>
        </g>
        <g id="Group_877" data-name="Group 877" class="cls-1">
          <path id="Path_2293" data-name="Path 2293" class="cls-13" d="M87.121,91.916l-14.252,24.4v-7.126a10.149,10.149,0,1,0-20.3,0v7.342H48.683L28.6,95.587c1.08-.864,2.159-1.943,3.239-2.807,16.412-.864,31.1-1.08,36.063-1.08,2.807,0,10.149,0,19.219.216" transform="translate(33.16 106.32)"/>
        </g>
        <g id="Group_878" data-name="Group 878" class="cls-1">
          <path id="Path_2294" data-name="Path 2294" class="cls-14" d="M60.115,112.491v.216H54.932c-2.591,0-8.206,0-15.332-.216v-7.342a10.149,10.149,0,0,1,20.3,0v7.342Z" transform="translate(45.914 110.146)"/>
        </g>
        <g id="Group_879" data-name="Group 879" class="cls-1">
          <path id="Path_2295" data-name="Path 2295" class="cls-6" d="M41.687,103.316V107.2L37.8,103.1c1.3,0,2.591.216,3.887.216" transform="translate(43.827 119.538)"/>
        </g>
        <g id="Group_880" data-name="Group 880" class="cls-1">
          <path id="Path_2296" data-name="Path 2296" class="cls-15" d="M35.341,93.4l20.083,20.946c-9.5-.216-21.162-.648-32.823-1.512A53.379,53.379,0,0,1,35.341,93.4" transform="translate(26.203 108.291)"/>
        </g>
        <g id="Group_881" data-name="Group 881" class="cls-1">
          <path id="Path_2297" data-name="Path 2297" class="cls-11" d="M64.567,92.1a37.537,37.537,0,0,0-3.239,2.807A50.255,50.255,0,0,0,48.8,114.342C23.97,112.615,0,109.591,0,103.761,0,96.851,35.415,93.612,64.567,92.1" transform="translate(0 106.784)"/>
        </g>
        <g id="Group_882" data-name="Group 882" class="cls-1">
          <path id="Path_2298" data-name="Path 2298" class="cls-16" d="M201.691,97.5v3.887c0,6.91-45.132,12.525-100.846,12.525S0,108.3,0,101.387V97.5c0,11.013,87.241,12.525,100.846,12.525,14.252,0,100.846-1.512,100.846-12.525" transform="translate(0 113.045)"/>
        </g>
        <g id="Group_883" data-name="Group 883" class="cls-1">
          <path id="Path_2299" data-name="Path 2299" class="cls-17" d="M60.684,28.116V61.155L31.1,52.518a9.625,9.625,0,0,1,5.615-1.728H49.455V38.049A10.138,10.138,0,0,1,59.6,27.9a2.348,2.348,0,0,0,1.08.216" transform="translate(36.058 32.348)"/>
        </g>
        <g id="Group_884" data-name="Group 884" class="cls-1">
          <path id="Path_2300" data-name="Path 2300" class="cls-2" d="M71,19.8V37.507h-1.08A10.138,10.138,0,0,0,59.774,47.657V60.4H47.034a10.14,10.14,0,0,0-5.615,1.728L22.2,56.51A50.848,50.848,0,0,1,71,19.8" transform="translate(25.739 22.957)"/>
        </g>
      </g>
    </g>
  </g>
</svg>
