<svg xmlns="http://www.w3.org/2000/svg" xmlns:xlink="http://www.w3.org/1999/xlink" viewBox="88 -752 131.977 100.331">
  <defs>
    <style>
      .cls-1 {
        clip-path: url(#clip-path);
      }

      .cls-2 {
        fill: #9cd8d9;
      }

      .cls-3 {
        fill: #403f3f;
      }

      .cls-4 {
        fill: #b4dfd6;
      }

      .cls-5 {
        clip-path: url(#clip-path-8);
      }

      .cls-6 {
        fill: #3eaaac;
      }

      .cls-7 {
        fill: #c58768;
      }

      .cls-8 {
        fill: #888585;
      }

      .cls-9 {
        fill: #40403f;
      }

      .cls-10 {
        fill: #a06464;
      }

      .cls-11 {
        fill: #7a7a7a;
      }

      .cls-12 {
        fill: #7f2618;
      }

      .cls-13 {
        fill: #d1deed;
      }

      .cls-14 {
        fill: #d86060;
      }

      .cls-15 {
        fill: #f7976a;
      }

      .cls-16 {
        fill: #c6d9f0;
      }

      .cls-17 {
        fill: #9cacbe;
      }

      .cls-18 {
        fill: #ebecec;
      }

      .cls-19 {
        fill: #a3a493;
      }

      .cls-20 {
        clip-path: url(#clip-path-78);
      }

      .cls-21 {
        fill: #84869f;
      }

      .cls-22 {
        fill: #2c3178;
      }

      .cls-23 {
        fill: #c58868;
      }

      .cls-24 {
        fill: #945224;
      }

      .cls-25 {
        fill: #94d5d7;
      }

      .cls-26 {
        fill: #915022;
      }

      .cls-27 {
        fill: #c5886a;
      }

      .cls-28 {
        fill: #a9d9f2;
      }

      .cls-29 {
        fill: #925123;
      }
    </style>
    <clipPath id="clip-path">
      <rect id="Rectangle_860" data-name="Rectangle 860" width="131.977" height="100.331"/>
    </clipPath>
    <clipPath id="clip-path-8">
      <rect id="Rectangle_741" data-name="Rectangle 741" width="36.5" height="26.431"/>
    </clipPath>
    <clipPath id="clip-path-78">
      <rect id="Rectangle_828" data-name="Rectangle 828" width="25.173" height="42.074"/>
    </clipPath>
  </defs>
  <g id="Process_1b_-_Docs_1_" transform="translate(88 -752)">
    <g id="Group_1559" data-name="Group 1559">
      <g id="Group_1558" data-name="Group 1558" class="cls-1">
        <g id="Group_1434" data-name="Group 1434" class="cls-1">
          <path id="Path_2839" data-name="Path 2839" class="cls-2" d="M77.919,99.773a23.312,23.312,0,0,1-5.214-.719l-1.259-.18a4.286,4.286,0,0,1-1.978-1.079,4.286,4.286,0,0,1-1.978,1.079l-1.259.18a23.312,23.312,0,0,1-5.214.719H58.14a3.414,3.414,0,0,1-3.416-3.416v-.18a3.294,3.294,0,0,1,2.517-3.236,4.906,4.906,0,0,0,2.337-1.259l.18-.18L58.5,74.6l1.079-15.283-.719-.719-.539-.539.36-10.069a10.461,10.461,0,0,1-2.877.9h-.36c-1.259,0-4.136-.539-4.675-4.855-.9-5.574,2.337-15.1,4.855-18.52a.628.628,0,0,0,.18-.36,3.714,3.714,0,0,1,1.978-1.618,13.47,13.47,0,0,1,2.877-.719,10.169,10.169,0,0,0,3.6-1.079,2.951,2.951,0,0,1,1.618-1.8A5.566,5.566,0,0,1,63.714,15.8v-.539l.18-.18h0c-1.438-1.079-2.877-3.236-3.236-7.012V6.454l.18-.18a4.9,4.9,0,0,1,1.079-2.158l.18-.18a29.567,29.567,0,0,1,3.956-2.517,3.091,3.091,0,0,0,1.438-.18l.36-.18h0A9.278,9.278,0,0,1,69.827.7h1.079a10.523,10.523,0,0,1,2.337.36A8.766,8.766,0,0,1,74.5,1.6a11.428,11.428,0,0,1,3.956,2.517l.18.18h0a4.869,4.869,0,0,1,.9,4.675A9.322,9.322,0,0,1,76.66,14.9v.18l.18.18V15.8a5.038,5.038,0,0,1-2.158,4.136,2.951,2.951,0,0,1,1.618,1.8c.18.18,1.079.719,3.6,1.079l2.158.539.539.18.36.36c.18.36,5.934,7.552,8.271,14.2v.36a13.5,13.5,0,0,1,.719,4.315,4.538,4.538,0,0,1-1.259,3.236,4.975,4.975,0,0,1-2.877.9,20.5,20.5,0,0,1-5.394-1.079c.539,5.574,1.079,7.372,1.618,8.99l.18.719a3.781,3.781,0,0,1-1.8,4.5.628.628,0,0,0-.36.18c-.9,12.047-1.079,15.1-1.079,18.16,0,2.7-.18,5.574-.719,13.845a6.647,6.647,0,0,0,1.978.9,3.294,3.294,0,0,1,2.517,3.236v.18a3.414,3.414,0,0,1-3.416,3.416Z" transform="translate(40.393 0.559)"/>
        </g>
        <g id="Group_1435" data-name="Group 1435" class="cls-1">
          <path id="Path_2840" data-name="Path 2840" class="cls-2" d="M32.092,99.573a3.313,3.313,0,0,1-3.416-2.517A3.412,3.412,0,0,1,30.294,93.1l3.776-1.978c.18-.18.36-.18.539-.36v-.719c0-4.855,0-17.081-.539-26.791a7.812,7.812,0,0,1-3.057-2.158l-.539-.539,2.337-17.8-2.7.539h-.9a4.276,4.276,0,0,1-3.956-2.877l-.36-1.079v-.36c0-3.776,3.956-13.126,5.035-15.643,1.438-1.618.9-1.8,6.653-3.057.36-1.618,1.618-2.877,3.6-3.776l-.36-.18a3.342,3.342,0,0,1-1.618-2.7V5a4.977,4.977,0,0,1,.539-2.337,3.936,3.936,0,0,1,1.8-1.618A4.977,4.977,0,0,1,42.881.5H47.2a4.977,4.977,0,0,1,2.337.539,3.936,3.936,0,0,1,1.618,1.8A3.411,3.411,0,0,1,51.871,5v8.631a2.966,2.966,0,0,1-1.618,2.7l-.36.18a6.02,6.02,0,0,1,3.416,3.6c2.517.539,4.5.719,6.293,3.776,2.158,3.776,6.293,11.148,6.293,14.2v.36c-.539,1.618-2.158,4.5-5.214,4.5a17.243,17.243,0,0,1-3.776-.539,1.621,1.621,0,0,0,.18.9v.18h0a126.764,126.764,0,0,1,1.438,15.1,5,5,0,0,1-1.438,3.776,5.667,5.667,0,0,1-3.057,1.618l-.18,1.259A49.673,49.673,0,0,0,52.59,78.895l.539,11.148A30.4,30.4,0,0,1,57.445,92.2a4.068,4.068,0,0,1,1.978,3.776,3.816,3.816,0,0,1-3.236,3.057l-1.618.18H53.489a13.688,13.688,0,0,1-3.776-.539l-4.136-1.259a2.857,2.857,0,0,1-1.8-1.438,3.2,3.2,0,0,1-1.438,1.259,20.824,20.824,0,0,1-9.35,1.978h-.9Z" transform="translate(19.871 0.399)"/>
        </g>
        <g id="Group_1436" data-name="Group 1436" class="cls-1">
          <path id="Path_2841" data-name="Path 2841" class="cls-3" d="M60.833,51.119l-2.517,2.158A9.127,9.127,0,0,1,55.079,54.9,1.573,1.573,0,0,0,54,56.513v.36a1.612,1.612,0,0,0,1.618,1.618c4.855,0,3.416.18,8.99-.9a1.912,1.912,0,0,0,1.618-1.8l-.9-5.394Z" transform="translate(43.095 40.222)"/>
        </g>
        <g id="Group_1437" data-name="Group 1437" class="cls-1">
          <path id="Path_2842" data-name="Path 2842" class="cls-3" d="M66.814,51.119l2.517,2.158A9.127,9.127,0,0,0,72.568,54.9a1.727,1.727,0,0,1,1.259,1.618v.36a1.612,1.612,0,0,1-1.618,1.618c-4.855,0-3.416.18-8.99-.9a1.912,1.912,0,0,1-1.618-1.8l.9-5.394Z" transform="translate(49.16 40.222)"/>
        </g>
        <g id="Group_1438" data-name="Group 1438" class="cls-1">
          <path id="Path_2843" data-name="Path 2843" class="cls-4" d="M57.538,32.338,76.058,30.9c-2.337,28.409-.9,17.441-2.337,37.22A49.2,49.2,0,0,1,65.989,69.2V48.161l-.9,4.315L64.731,69.2c-5.754,0-7.372-1.8-7.372-1.8L56.1,50.5Z" transform="translate(44.771 24.66)"/>
        </g>
        <g id="Group_1442" data-name="Group 1442" class="cls-1">
          <g id="Group_1441" data-name="Group 1441" class="cls-5" transform="translate(93.139 21.397)">
            <g id="Group_1439" data-name="Group 1439" class="cls-5">
              <path id="Path_2844" data-name="Path 2844" class="cls-4" d="M88.268,29.78h0a6.73,6.73,0,0,1-1.438,3.236c-.539.539-5.754-.36-8.091-.9-1.978-4.5-8.99-.9-15.1,2.337l-1.259-1.8c-4.136,1.978-7.012,3.776-10.429,2.158-.719-5.035,2.337-14.2,4.5-17.261.36-.539.719-1.259,1.259-1.438a10.372,10.372,0,0,1,2.517-.539c4.5-.719,4.855-2.158,4.855-2.158,0-1.079,2.158-1.618,4.136-1.618s4.136.539,4.136,1.618c0,0,.36,1.438,4.855,2.158.719.18,1.259.18,1.8.36.36.18,6.113,7.372,8.271,13.845" transform="translate(-51.768 -11.98)"/>
            </g>
            <g id="Group_1440" data-name="Group 1440" class="cls-5">
              <path id="Path_2845" data-name="Path 2845" class="cls-6" d="M62.329,23.4l1.259,1.8c-3.416,1.8-6.653,3.6-8.631,3.776-1.8,0-2.7-1.438-3.057-3.416,3.416,1.8,6.293-.18,10.429-2.158" transform="translate(-51.72 -2.722)"/>
            </g>
          </g>
        </g>
        <g id="Group_1443" data-name="Group 1443" class="cls-1">
          <path id="Path_2846" data-name="Path 2846" class="cls-7" d="M62.865,21.631l-6.653,2.158-.18.18a1.689,1.689,0,0,0-.18,1.618l.36.36a1.8,1.8,0,0,0,.719.9c.36.36.9.36,1.259.539h.719a11.548,11.548,0,0,0,2.877-1.259l.36-.719,1.978-3.236v-.18a1.112,1.112,0,0,0-1.259-.36" transform="translate(44.479 17.207)"/>
        </g>
        <g id="Group_1444" data-name="Group 1444" class="cls-1">
          <path id="Path_2847" data-name="Path 2847" class="cls-6" d="M77.856,38.263c-.719-1.978-1.438-3.6-1.978-11.148-.18-1.259-.18-2.7-.36-4.315H74.98L61.854,24.418l-.539.719A7.268,7.268,0,0,1,58.437,26.4c-.36.36-1.079,0-1.978.539v1.618L56.1,39.7c2.337,2.517,9.17,7.012,20.678.719a1.611,1.611,0,0,0,1.079-2.158" transform="translate(44.771 18.196)"/>
        </g>
        <g id="Group_1445" data-name="Group 1445" class="cls-1" transform="matrix(0.819, -0.573, 0.573, 0.819, -2.455, 66.041)">
          <rect id="Rectangle_745" data-name="Rectangle 745" class="cls-8" width="1.079" height="10.069" transform="translate(103.028 31.826)"/>
        </g>
        <g id="Group_1446" data-name="Group 1446" class="cls-1">
          <path id="Path_2848" data-name="Path 2848" class="cls-3" d="M34.733,49.78c-.18,1.438-.18,2.517-2.158,3.6L28.8,55.354a1.834,1.834,0,0,0-.9,1.438,1.8,1.8,0,0,0,1.8,1.8h.719a20.237,20.237,0,0,0,8.631-1.978,1.6,1.6,0,0,0,.9-1.438V49.6H34.733Z" transform="translate(22.266 39.583)"/>
        </g>
        <g id="Group_1447" data-name="Group 1447" class="cls-1">
          <path id="Path_2849" data-name="Path 2849" class="cls-3" d="M49.04,32.7l-1.618,6.473A53.148,53.148,0,0,0,45.983,53.2l.539,10.968H40.23l-.9-24.813c-1.079,3.236-1.259,8.451-1.259,11.867,0,8.81.18,12.946.18,12.946H31.6c0-6.833-.18-22.116-.9-31.466H49.04Z" transform="translate(24.5 26.096)"/>
        </g>
        <g id="Group_1448" data-name="Group 1448" class="cls-1">
          <path id="Path_2850" data-name="Path 2850" class="cls-2" d="M24.965,99.432a8.526,8.526,0,0,1-6.653-2.7H15.975l-.18.36H14.536a5.484,5.484,0,0,1-4.315,2.517c-1.618,0-4.675-.719-5.035-3.416v-.719L8.962,89.9c0-2.7-.36-11.328-1.079-13.845A50.991,50.991,0,0,1,6.8,68.326c-.18-1.8-.18-3.6-.36-5.214l-.18-.18c-1.259-1.259-1.8-3.6-1.438-7.012V55.2h0a7.913,7.913,0,0,1,.36-1.8,3.505,3.505,0,0,1,.18-1.438,12.529,12.529,0,0,1-1.618-4.675,5.132,5.132,0,0,1,0-2.337,11.692,11.692,0,0,1,2.337-5.934,20.788,20.788,0,0,0-.18-3.057c-.18-1.8-.18-3.416-.36-4.675C.871,29.488-.388,25.712.152,22.655L.511,21.4H1.77a24.368,24.368,0,0,0,3.6-.36,6.388,6.388,0,0,1-.36-1.8V17.261l1.978.36A11.871,11.871,0,0,0,9.5,17.8H10.94c.719,0,.9-.18,1.079-.36a.628.628,0,0,1-.18-.36c-2.7-3.416-3.6-7.192-2.517-10.608A8.1,8.1,0,0,1,15.255.9,5.214,5.214,0,0,1,18.492,0a15.317,15.317,0,0,1,4.136.719c2.7,1.259,4.315,6.113,3.236,10.069v1.978a3.377,3.377,0,0,1-1.978,2.877,9.881,9.881,0,0,1-1.259,1.618c-.18.539-.18,1.079-.36,1.8a2.618,2.618,0,0,1,1.618,1.079,2.556,2.556,0,0,1,.36,1.079l.18.539c.9.539,1.8,1.079,2.517,1.618a7.835,7.835,0,0,1,2.337,2.517l.36.9c0,.18.18.36.18.719v.9L28.381,40.456a4.574,4.574,0,0,0,.36,1.259,47.867,47.867,0,0,1,1.438,5.934l.36.9c.18,1.438.36,2.158.539,3.236,0,.18.18.18.18.36a4.05,4.05,0,0,1,.18,1.259,2.672,2.672,0,0,1-.36,1.618l-.18.36a2.659,2.659,0,0,1-1.438,1.978c0,.36-.18.719-.18,1.079A3.51,3.51,0,0,0,29.1,59.7a3.579,3.579,0,0,1-1.438,2.158L25.324,79.114c.18,1.259.719,7.372.719,8.99a6.347,6.347,0,0,1-.719,3.057l.9.9c.9.719,1.978,1.438,2.517,1.8a10.652,10.652,0,0,1,1.079.719,3.675,3.675,0,0,1,.9,1.618l.36.18-.18,1.438c-.18,1.438-1.8,1.618-5.934,1.618" transform="translate(0.028 0)"/>
        </g>
        <g id="Group_1449" data-name="Group 1449" class="cls-1">
          <path id="Path_2851" data-name="Path 2851" class="cls-9" d="M21.744,57.771s1.079.539-4.315.539a7,7,0,0,1-6.833-4.5v1.8H9.7A7.746,7.746,0,0,1,10.956,49.5h.9c-.18,1.438.18,3.956,1.438,4.675a5.2,5.2,0,0,0,2.877,0c.539-.18.9-.18,1.438-.36a15.146,15.146,0,0,0,3.6,2.337,2.663,2.663,0,0,1,.539,1.618" transform="translate(7.564 39.503)"/>
        </g>
        <g id="Group_1450" data-name="Group 1450" class="cls-1">
          <path id="Path_2852" data-name="Path 2852" class="cls-10" d="M16.711,53.9a4.232,4.232,0,0,1-1.438.36,5.216,5.216,0,0,1-2.877,0c-1.438-.719-1.8-3.236-1.438-4.675L13.3,49.4a10.729,10.729,0,0,0,3.416,4.5" transform="translate(8.641 39.424)"/>
        </g>
        <g id="Group_1451" data-name="Group 1451" class="cls-1">
          <path id="Path_2853" data-name="Path 2853" class="cls-9" d="M12.071,49.7s1.618,1.8-.36,5.934h-.36V53.656s-1.259,4.5-4.315,4.5c0,0-3.057,0-3.236-1.978L5.238,54.2c1.259,1.618,6.653.719,6.833-4.5Z" transform="translate(3.033 39.663)"/>
        </g>
        <g id="Group_1452" data-name="Group 1452" class="cls-1">
          <path id="Path_2854" data-name="Path 2854" class="cls-10" d="M8.2,49.3l3.057.539c-.18,5.214-5.574,6.113-6.653,4.5Z" transform="translate(3.671 39.344)"/>
        </g>
        <g id="Group_1453" data-name="Group 1453" class="cls-1">
          <path id="Path_2855" data-name="Path 2855" class="cls-9" d="M18.884,27.3l3.776,9.709L21.222,47.8c-3.6,1.618-5.574,2.877-6.833,4.136V48.517c0-8.451-.719-7.552-.719-7.552-.9,0-1.438,4.136-1.618,8.271A15.326,15.326,0,0,1,7.916,48.7a6.78,6.78,0,0,1-2.877-2.158c-.36-4.5-.539-9.35-.539-9.35l1.438-9.53Z" transform="translate(3.591 21.787)"/>
        </g>
        <g id="Group_1454" data-name="Group 1454" class="cls-1">
          <path id="Path_2856" data-name="Path 2856" class="cls-11" d="M17.012,38.7l-.36,2.7A25.953,25.953,0,0,1,10,44.813V42.836c1.259-1.259,3.416-2.337,7.012-4.136" transform="translate(7.981 30.885)"/>
        </g>
        <g id="Group_1455" data-name="Group 1455" class="cls-1">
          <path id="Path_2857" data-name="Path 2857" class="cls-9" d="M16.892,40.2l-.9,6.833s.719,7.192.719,8.99a4.518,4.518,0,0,1-.719,2.7c-4.855,1.8-6.293,0-6.293,0s.539-7.732.719-15.1A28.16,28.16,0,0,0,16.892,40.2" transform="translate(7.741 32.082)"/>
        </g>
        <g id="Group_1456" data-name="Group 1456" class="cls-1">
          <path id="Path_2858" data-name="Path 2858" class="cls-11" d="M11.992,47.17s2.158,12.766.539,13.306c-1.438.539-5.574.539-5.574-.539S6.778,48.429,5.7,45.372A45.018,45.018,0,0,1,4.8,38a6.667,6.667,0,0,0,3.057,2.337,8.009,8.009,0,0,0,4.136.539,36.358,36.358,0,0,0,0,6.293" transform="translate(3.831 30.326)"/>
        </g>
        <g id="Group_1457" data-name="Group 1457" class="cls-1">
          <path id="Path_2859" data-name="Path 2859" class="cls-12" d="M12.745,29.809c-8.81.719-12.586-3.776-11.687-7.732A33.4,33.4,0,0,0,7.171,21a4.243,4.243,0,0,1-1.259-2.877,17.374,17.374,0,0,0,4.315.18c.9-.18,2.158-.36,2.337-1.259a2.029,2.029,0,0,0-.539-1.978C7.351,8.951,10.048,2.658,14.723,1.4a9.955,9.955,0,0,1,6.473.18c2.337,1.079,3.956,7.552,1.079,10.968-3.956,4.5-1.438,9.889-3.236,12.586-1.079,1.259-6.293,4.675-6.293,4.675" transform="translate(0.741 0.758)"/>
        </g>
        <g id="Group_1458" data-name="Group 1458" class="cls-1">
          <path id="Path_2860" data-name="Path 2860" class="cls-13" d="M16.93,14.357l-.36-1.978s.18-1.079-4.5-1.079-4.5,1.079-4.5,1.079L7.4,14.357Z" transform="translate(5.906 9.018)"/>
        </g>
        <g id="Group_1459" data-name="Group 1459" class="cls-1">
          <rect id="Rectangle_760" data-name="Rectangle 760" class="cls-14" width="3.236" height="5.574" transform="translate(16.542 16.362)"/>
        </g>
        <g id="Group_1460" data-name="Group 1460" class="cls-1">
          <path id="Path_2861" data-name="Path 2861" class="cls-14" d="M12.86,9.815H12.5V5.5h.36a1.229,1.229,0,0,1,1.259,1.259v1.8c.18.719-.36,1.259-1.259,1.259" transform="translate(9.976 4.389)"/>
        </g>
        <g id="Group_1461" data-name="Group 1461" class="cls-1">
          <path id="Path_2862" data-name="Path 2862" class="cls-14" d="M8.038,9.815H8.4V5.5h-.36A1.39,1.39,0,0,0,6.6,6.759v1.8A1.39,1.39,0,0,0,8.038,9.815" transform="translate(5.267 4.389)"/>
        </g>
        <g id="Group_1462" data-name="Group 1462" class="cls-1">
          <path id="Path_2863" data-name="Path 2863" class="cls-15" d="M12.255,2.8c2.7,0,4.855,0,4.855,4.855v3.416c0,2.7-3.776,4.855-4.855,4.855S7.4,13.768,7.4,11.071V7.655C7.4,2.8,9.558,2.8,12.255,2.8" transform="translate(5.906 2.235)"/>
        </g>
        <g id="Group_1463" data-name="Group 1463" class="cls-1">
          <path id="Path_2864" data-name="Path 2864" class="cls-16" d="M45.865,13.756c0-2.158-3.057-3.956-6.833-3.956S32.2,11.6,32.2,13.756v2.337H45.865Z" transform="translate(25.697 7.821)"/>
        </g>
        <g id="Group_1464" data-name="Group 1464" class="cls-1">
          <path id="Path_2865" data-name="Path 2865" class="cls-12" d="M16.01,2.1c.18.719-.539,1.079-1.079,1.438A18.928,18.928,0,0,1,7.2,5.516,10.71,10.71,0,0,1,10.976,3a13.066,13.066,0,0,1,4.5-.719" transform="translate(5.746 1.676)"/>
        </g>
        <g id="Group_1465" data-name="Group 1465" class="cls-1">
          <path id="Path_2866" data-name="Path 2866" class="cls-17" d="M17.153,18.913c-.36.36-.719.539-1.079.9A18.409,18.409,0,0,1,10.5,23.229v-.719c1.438-.9,3.6-3.776,5.394-5.754L14.636,12.8a27.069,27.069,0,0,1,3.057,1.8,4.783,4.783,0,0,1,1.8,1.978c0,.18.18.18.18.36a24.172,24.172,0,0,0-2.517,1.978" transform="translate(8.38 10.215)"/>
        </g>
        <g id="Group_1466" data-name="Group 1466" class="cls-1">
          <path id="Path_2867" data-name="Path 2867" class="cls-18" d="M15.894,17.075c-1.618,2.158-3.956,4.855-5.394,5.754V19.952A21.542,21.542,0,0,0,13.2,12.4h0c.36.18.9.36,1.259.539Z" transform="translate(8.38 9.896)"/>
        </g>
        <g id="Group_1467" data-name="Group 1467" class="cls-1">
          <path id="Path_2868" data-name="Path 2868" class="cls-18" d="M16.8,29.4a31.192,31.192,0,0,1,0,4.315c0,.36.36.719,1.079.9,0,.539-.18.9-.18,1.259a2.126,2.126,0,0,1-1.618,1.618l-1.438.18-1.618-2.517c-.18-1.618-.36-3.6-.719-5.754Z" transform="translate(9.816 23.463)"/>
        </g>
        <g id="Group_1468" data-name="Group 1468" class="cls-1">
          <path id="Path_2869" data-name="Path 2869" class="cls-17" d="M10.98,26.7c0-.36-.18-.9-.18-1.438a2.6,2.6,0,0,0,1.259-.36c.18,1.079.539,2.158.719,3.416H11.16a3.991,3.991,0,0,0-.18-1.618" transform="translate(8.619 19.871)"/>
        </g>
        <g id="Group_1469" data-name="Group 1469" class="cls-1">
          <path id="Path_2870" data-name="Path 2870" class="cls-17" d="M10.1,17.859a13.006,13.006,0,0,0,.719-1.259v2.877l-.18.18v.719A.557.557,0,0,0,11,20.2a8.754,8.754,0,0,0,.18,2.158h-.539a23.828,23.828,0,0,1-.539-4.5" transform="translate(8.06 13.248)"/>
        </g>
        <g id="Group_1470" data-name="Group 1470" class="cls-1">
          <path id="Path_2871" data-name="Path 2871" class="cls-17" d="M10.4,18.38a.176.176,0,0,0,.18-.18v.719c-.18,0-.18,0-.18.18Z" transform="translate(8.3 14.525)"/>
        </g>
        <g id="Group_1471" data-name="Group 1471" class="cls-1">
          <path id="Path_2872" data-name="Path 2872" class="cls-16" d="M14.8,33.715a31.831,31.831,0,0,0,0-4.315h1.438a23.233,23.233,0,0,1-.539,5.214c-.36-.18-.9-.36-.9-.9" transform="translate(11.811 23.463)"/>
        </g>
        <g id="Group_1472" data-name="Group 1472" class="cls-1">
          <path id="Path_2873" data-name="Path 2873" class="cls-18" d="M14.377,23.8a23.7,23.7,0,0,1,2.337,5.214l-4.5.18c-.18-1.079-.539-2.337-.719-3.416A6.845,6.845,0,0,0,14.377,23.8" transform="translate(9.178 18.994)"/>
        </g>
        <g id="Group_1473" data-name="Group 1473" class="cls-1">
          <path id="Path_2874" data-name="Path 2874" class="cls-17" d="M16.776,30.183c-1.618.36-1.8,2.337-1.8,2.337A19.261,19.261,0,0,0,13.9,30.363c0-.18-.18-.18-.18-.36h0A10.419,10.419,0,0,1,13,27.666l2.7-3.6c.36-.539,0-4.855-.36-7.012A24.411,24.411,0,0,0,17.5,14.9c0,.18.18.36.18.539s.18.18.18.36v.36L16.416,28.385a15.059,15.059,0,0,0,.36,1.8" transform="translate(10.375 11.891)"/>
        </g>
        <g id="Group_1474" data-name="Group 1474" class="cls-1">
          <path id="Path_2875" data-name="Path 2875" class="cls-16" d="M15.039,29.677A16.191,16.191,0,0,0,14.5,26.8h1.079a10.705,10.705,0,0,1,1.079,4.855H15.219a7.375,7.375,0,0,1-.18-1.978" transform="translate(11.572 21.388)"/>
        </g>
        <g id="Group_1475" data-name="Group 1475" class="cls-1">
          <path id="Path_2876" data-name="Path 2876" class="cls-16" d="M14.9,25.837s.36-1.978,1.8-2.337a33.669,33.669,0,0,1,1.438,5.754,17.8,17.8,0,0,1,.539,5.035H17.6a10.188,10.188,0,0,0-1.079-4.855H15.437A36.778,36.778,0,0,0,13.1,24.219c.18-.18.36-.539.539-.719,0,.18.18.18.18.36A12.045,12.045,0,0,1,14.9,25.837" transform="translate(10.454 18.754)"/>
        </g>
        <g id="Group_1476" data-name="Group 1476" class="cls-1">
          <path id="Path_2877" data-name="Path 2877" class="cls-16" d="M5.186,19.9a4.765,4.765,0,0,0,2.337.18l1.618,2.337L8.062,26.553A58.384,58.384,0,0,0,4.826,35.9a10.456,10.456,0,0,1-1.8-6.653,10.27,10.27,0,0,1,2.337-5.574s0-1.8-.18-3.776" transform="translate(2.366 15.881)"/>
        </g>
        <g id="Group_1477" data-name="Group 1477" class="cls-1">
          <path id="Path_2878" data-name="Path 2878" class="cls-18" d="M5.254,15.457A15.844,15.844,0,0,1,11.547,12.4h0c.18.18,1.978,2.158,3.6,8.81,0,0,.18,1.978.36,4.675-4.855.18-7.732-1.079-8.99-1.8l.36,1.978a3.089,3.089,0,0,1-2.337-.36,51.079,51.079,0,0,0-.719-6.293,5.421,5.421,0,0,1,1.438-3.956" transform="translate(3.017 9.896)"/>
        </g>
        <g id="Group_1478" data-name="Group 1478" class="cls-1">
          <path id="Path_2879" data-name="Path 2879" class="cls-18" d="M17.114,31.555h-4.5c-.18-1.618-.539-3.057-.719-4.675l4.5-.18a8.942,8.942,0,0,1,.539,2.877,8.823,8.823,0,0,1,.18,1.978" transform="translate(9.497 21.308)"/>
        </g>
        <g id="Group_1479" data-name="Group 1479" class="cls-1">
          <path id="Path_2880" data-name="Path 2880" class="cls-16" d="M14.815,22.134A15.74,15.74,0,0,0,16.074,17.1c.36-.36.719-.539,1.079-.9.18,2.158.719,6.293.36,6.833l-2.7,3.6a14.657,14.657,0,0,0,.719,2.517h0c-.18.18-.36.539-.539.719a6.845,6.845,0,0,1-2.877,1.978c-.18-.36-.18-.719-.36-1.079A46.8,46.8,0,0,1,10.5,22.673a17.733,17.733,0,0,0,4.315-.539" transform="translate(8.38 12.928)"/>
        </g>
        <g id="Group_1480" data-name="Group 1480" class="cls-1">
          <path id="Path_2881" data-name="Path 2881" class="cls-18" d="M12.7,32.6l1.618,2.517H12.88A12.738,12.738,0,0,0,12.7,32.6" transform="translate(10.135 26.016)"/>
        </g>
        <g id="Group_1481" data-name="Group 1481" class="cls-1">
          <path id="Path_2882" data-name="Path 2882" class="cls-16" d="M13.1,34.08l.9-.18c0,.18-.36.18-.9.18" transform="translate(10.454 27.054)"/>
        </g>
        <g id="Group_1482" data-name="Group 1482" class="cls-1">
          <path id="Path_2883" data-name="Path 2883" class="cls-18" d="M10.5,20.116A52.492,52.492,0,0,0,16.074,16.7a14.54,14.54,0,0,1-1.259,5.035,17.427,17.427,0,0,1-4.136.539,8.754,8.754,0,0,0-.18-2.158" transform="translate(8.38 13.327)"/>
        </g>
        <g id="Group_1483" data-name="Group 1483" class="cls-1">
          <path id="Path_2884" data-name="Path 2884" class="cls-18" d="M13.26,34.08H12.9V33.9c.18.18.18.18.36.18" transform="translate(10.295 27.054)"/>
        </g>
        <g id="Group_1484" data-name="Group 1484" class="cls-1">
          <path id="Path_2885" data-name="Path 2885" class="cls-17" d="M13.9,34.276a12.738,12.738,0,0,1,.18,2.517c-1.079-.18-2.337-1.259-2.7-4.5h0a6.117,6.117,0,0,0-.18-1.8Z" transform="translate(8.938 24.341)"/>
        </g>
        <g id="Group_1485" data-name="Group 1485" class="cls-1">
          <path id="Path_2886" data-name="Path 2886" class="cls-17" d="M13.9,35.154,11.38,31.2a6.117,6.117,0,0,0-.18-1.8h1.978c.36,2.158.539,3.956.719,5.754" transform="translate(8.938 23.463)"/>
        </g>
        <g id="Group_1486" data-name="Group 1486" class="cls-1">
          <path id="Path_2887" data-name="Path 2887" class="cls-17" d="M13.337,31.475H11.36c-.18-1.8-.18-3.416-.36-4.675h1.618c.36,1.618.539,3.236.719,4.675" transform="translate(8.779 21.388)"/>
        </g>
        <g id="Group_1487" data-name="Group 1487" class="cls-1">
          <path id="Path_2888" data-name="Path 2888" class="cls-14" d="M12,12.4h0" transform="translate(9.577 9.896)"/>
        </g>
        <g id="Group_1488" data-name="Group 1488" class="cls-1">
          <path id="Path_2889" data-name="Path 2889" class="cls-14" d="M15.112,12.4h0c-2.158,1.978-3.956,2.158-7.012,0h7.012" transform="translate(6.464 9.896)"/>
        </g>
        <g id="Group_1489" data-name="Group 1489" class="cls-1">
          <path id="Path_2890" data-name="Path 2890" class="cls-14" d="M15.192,13.278H8A2.4,2.4,0,0,0,9.978,11.3h3.236a2.736,2.736,0,0,0,1.978,1.978" transform="translate(6.384 9.018)"/>
        </g>
        <g id="Group_1490" data-name="Group 1490" class="cls-1">
          <path id="Path_2891" data-name="Path 2891" class="cls-14" d="M11.935,12.46h0c-.18-.18,0-.18,0,0" transform="translate(9.461 9.836)"/>
        </g>
        <g id="Group_1491" data-name="Group 1491" class="cls-1">
          <path id="Path_2892" data-name="Path 2892" class="cls-17" d="M12.2,27.891c.18.36.18.719.36,1.079a11.46,11.46,0,0,1-1.259.36h0c-.36-2.517-.719-6.473-.9-9.53h.539A34.164,34.164,0,0,0,12.2,27.891" transform="translate(8.3 15.801)"/>
        </g>
        <g id="Group_1492" data-name="Group 1492" class="cls-1">
          <path id="Path_2893" data-name="Path 2893" class="cls-16" d="M11.3,32.3v-.719h0V32.3" transform="translate(9.018 24.341)"/>
        </g>
        <g id="Group_1493" data-name="Group 1493" class="cls-1">
          <path id="Path_2894" data-name="Path 2894" class="cls-16" d="M11.3,31Z" transform="translate(9.018 24.74)"/>
        </g>
        <g id="Group_1494" data-name="Group 1494" class="cls-1">
          <path id="Path_2895" data-name="Path 2895" class="cls-18" d="M12.816,31h0c-.36,5.574-3.236,6.113-3.416,6.113Z" transform="translate(7.502 24.74)"/>
        </g>
        <g id="Group_1495" data-name="Group 1495" class="cls-1">
          <path id="Path_2896" data-name="Path 2896" class="cls-18" d="M3.773,32.936h0A28.263,28.263,0,0,1,4.492,28.8a4.451,4.451,0,0,0,.719,1.079H17.438a6.117,6.117,0,0,0,.18,1.8v1.079L14.2,38.869h0l-5.394.719s-2.517.539-3.956-.9c-1.259-.9-1.438-3.236-1.079-5.754" transform="translate(2.88 22.984)"/>
        </g>
        <g id="Group_1496" data-name="Group 1496" class="cls-1">
          <path id="Path_2897" data-name="Path 2897" class="cls-18" d="M16.866,31.4H4.819A4.451,4.451,0,0,1,4.1,30.316,17.034,17.034,0,0,1,5,27.26l11.687-.36c0,1.079.18,2.7.18,4.5" transform="translate(3.272 21.468)"/>
        </g>
        <g id="Group_1497" data-name="Group 1497" class="cls-1">
          <path id="Path_2898" data-name="Path 2898" class="cls-18" d="M16.586,31.269,4.9,31.629s-.36,1.259-.9,3.057H4a67.3,67.3,0,0,1,3.057-9.35V21.2c1.438,2.158,3.956,6.653,7.732,6.833h1.259c0,.539.18,1.079.18,1.438a2.957,2.957,0,0,1,.36,1.8" transform="translate(3.192 16.919)"/>
        </g>
        <g id="Group_1498" data-name="Group 1498" class="cls-1">
          <path id="Path_2899" data-name="Path 2899" class="cls-16" d="M5.3,18.9c1.079.719,4.136,1.978,8.99,1.8.18,3.057.719,7.012.9,9.53H13.931c-3.776-.18-6.473-4.5-7.911-6.653Z" transform="translate(4.23 15.083)"/>
        </g>
        <g id="Group_1499" data-name="Group 1499" class="cls-1">
          <path id="Path_2900" data-name="Path 2900" class="cls-19" d="M12.415,19.952c-.539.9-.719,1.259-.719,1.259C10.258,14.558,8.46,12.58,8.1,12.4c3.057,2.158,5.035,1.978,7.012,0a21.542,21.542,0,0,1-2.7,7.552" transform="translate(6.464 9.896)"/>
        </g>
        <g id="Group_1500" data-name="Group 1500" class="cls-1">
          <path id="Path_2901" data-name="Path 2901" class="cls-18" d="M6.516,25.927s-2.877-1.618-3.416.9A9.934,9.934,0,0,0,4.9,31.5c1.8,2.7,2.158-3.236,2.158-3.236Z" transform="translate(2.474 20.283)"/>
        </g>
        <g id="Group_1501" data-name="Group 1501" class="cls-1">
          <path id="Path_2902" data-name="Path 2902" class="cls-17" d="M10.7,23.3a.849.849,0,0,0-.9-.9.9.9,0,1,0,0,1.8.849.849,0,0,0,.9-.9" transform="translate(7.103 17.876)"/>
        </g>
        <g id="Group_1502" data-name="Group 1502" class="cls-1">
          <path id="Path_2903" data-name="Path 2903" class="cls-15" d="M18.987,28.535v.539a2.281,2.281,0,0,1-.18,1.079c-.539,1.618-.539,2.158-2.517,1.438a.176.176,0,0,1-.18-.18v-.18c0-.36.18-.719.18-1.079a4,4,0,0,1-3.057,1.618c-.18-.18,0-.539.18-.719.719-.9.719-.719,1.079-.9a1.632,1.632,0,0,0,.539-1.259v-.539c.18-.36.36-.539.719-.539.719-.18,3.057.36,3.236.719" transform="translate(10.501 22.17)"/>
        </g>
        <g id="Group_1503" data-name="Group 1503" class="cls-1">
          <path id="Path_2904" data-name="Path 2904" class="cls-15" d="M8.572,29.942c.539.9-1.8,2.517-2.7,2.877a1.725,1.725,0,0,1-1.618-.36c0-.18-.18-.36-.18-.539-.36-1.079-.18-3.057.719-3.416a2.938,2.938,0,0,1,3.776,1.438" transform="translate(3.115 22.561)"/>
        </g>
        <g id="Group_1504" data-name="Group 1504" class="cls-1">
          <path id="Path_2905" data-name="Path 2905" class="cls-16" d="M6.381,14.463a3.2,3.2,0,0,0-1.259,1.8,20.889,20.889,0,0,0,.18,3.956,31.365,31.365,0,0,1,.9-4.675c.719-1.8.18-1.079.18-1.079" transform="translate(4.048 11.429)"/>
        </g>
        <g id="Group_1505" data-name="Group 1505" class="cls-1">
          <path id="Path_2906" data-name="Path 2906" class="cls-14" d="M7.6,6.035c0-.719,4.136-1.259,4.136,0,0,0-.539,1.259-1.259,1.259S7.6,6.934,7.6,6.035" transform="translate(6.065 4.214)"/>
        </g>
        <g id="Group_1506" data-name="Group 1506" class="cls-1">
          <path id="Path_2907" data-name="Path 2907" class="cls-14" d="M14.336,6.035c0-.719-4.136-1.259-4.136,0,0,0,.539,1.259,1.259,1.259.9,0,2.877-.36,2.877-1.259" transform="translate(8.14 4.214)"/>
        </g>
        <g id="Group_1507" data-name="Group 1507" class="cls-1">
          <path id="Path_2908" data-name="Path 2908" class="cls-14" d="M10.682,7.1a3.128,3.128,0,0,0-1.259.539c-.36.36,1.259.719,1.259.719s1.618-.18,1.259-.719A4.678,4.678,0,0,0,10.682,7.1" transform="translate(7.479 5.666)"/>
        </g>
        <g id="Group_1508" data-name="Group 1508" class="cls-1">
          <path id="Path_2909" data-name="Path 2909" class="cls-14" d="M11.058,9.838A3.131,3.131,0,0,1,8.9,8.4a5.579,5.579,0,0,0,2.158.539A5.579,5.579,0,0,0,13.215,8.4a3.516,3.516,0,0,1-2.158,1.438" transform="translate(7.103 6.704)"/>
        </g>
        <g id="Group_1527" data-name="Group 1527" class="cls-1">
          <g id="Group_1526" data-name="Group 1526" class="cls-20" transform="translate(51.604 21.217)">
            <g id="Group_1509" data-name="Group 1509" class="cls-20">
              <path id="Path_2910" data-name="Path 2910" class="cls-16" d="M48.665,39.883a3.5,3.5,0,0,1-3.6,3.6H35a111.7,111.7,0,0,0,1.079-11.867c3.776.18,7.372-1.978,11.148-7.012v.18a138.587,138.587,0,0,1,1.438,15.1" transform="translate(-23.672 -1.585)"/>
            </g>
            <g id="Group_1510" data-name="Group 1510" class="cls-20">
              <path id="Path_2911" data-name="Path 2911" class="cls-17" d="M51.037,21.519a23.545,23.545,0,0,0,.18,6.293c-3.776,5.035-7.372,7.012-11.148,7.012V31.768l-1.438.9-.18,1.978c-2.877-.539-5.574-2.337-8.451-5.214l1.079-8.451V20.8l8.99,1.259.9.18Z" transform="translate(-27.663 -4.618)"/>
            </g>
            <g id="Group_1511" data-name="Group 1511" class="cls-20">
              <path id="Path_2912" data-name="Path 2912" class="cls-16" d="M48.626,13.718a145.639,145.639,0,0,0-1.8,14.744L36.4,29l-.9-.18.18-1.618.9-2.158h1.259l-.36-2.158,4.5-10.788a51.643,51.643,0,0,1,6.653,1.618" transform="translate(-23.273 -11.561)"/>
            </g>
            <g id="Group_1512" data-name="Group 1512" class="cls-20">
              <path id="Path_2913" data-name="Path 2913" class="cls-16" d="M41.794,11.8l-.36.719a44.2,44.2,0,0,0-5.035-.36Z" transform="translate(-22.555 -11.8)"/>
            </g>
            <g id="Group_1513" data-name="Group 1513" class="cls-20">
              <path id="Path_2914" data-name="Path 2914" class="cls-21" d="M44.168,12.313,39.673,23.1l-.9-6.113,1.978-3.236h-4.5l1.259,3.057h0l-1.438,5.035L33.2,12.493h.18l5.754-.36a23.181,23.181,0,0,1,5.035.18" transform="translate(-25.109 -11.594)"/>
            </g>
            <g id="Group_1514" data-name="Group 1514" class="cls-20">
              <path id="Path_2915" data-name="Path 2915" class="cls-22" d="M39.3,13l-1.978,3.236-.18-.9h-.9l-.18.719h0L34.8,13Z" transform="translate(-23.832 -10.842)"/>
            </g>
            <g id="Group_1515" data-name="Group 1515" class="cls-20">
              <path id="Path_2916" data-name="Path 2916" class="cls-16" d="M37.1,18.2l.36,2.158H36.2Z" transform="translate(-22.715 -6.692)"/>
            </g>
            <g id="Group_1516" data-name="Group 1516" class="cls-20">
              <path id="Path_2917" data-name="Path 2917" class="cls-22" d="M37.317,14.88l.9,6.113-.9,2.158-1.438-.18h0L34.8,19.555,36.059,14.7h0Z" transform="translate(-23.832 -9.486)"/>
            </g>
            <g id="Group_1517" data-name="Group 1517" class="cls-20">
              <path id="Path_2918" data-name="Path 2918" class="cls-16" d="M39.054,12l-5.754.36A31.906,31.906,0,0,1,39.054,12" transform="translate(-25.029 -11.64)"/>
            </g>
            <g id="Group_1518" data-name="Group 1518" class="cls-20">
              <path id="Path_2919" data-name="Path 2919" class="cls-21" d="M36.838,19.48l-.9,2.158L35.4,19.3Z" transform="translate(-23.353 -5.815)"/>
            </g>
            <g id="Group_1519" data-name="Group 1519" class="cls-20">
              <path id="Path_2920" data-name="Path 2920" class="cls-22" d="M36.579,14.3l.18.9-1.259-.18.18-.719Z" transform="translate(-23.273 -9.805)"/>
            </g>
            <g id="Group_1520" data-name="Group 1520" class="cls-20">
              <path id="Path_2921" data-name="Path 2921" class="cls-16" d="M40.667,24.966l.719,2.337-.18,1.618-8.99-1.259L28.8,14.178A44.228,44.228,0,0,1,36.891,12.2l2.877,9.35-.9,3.416Z" transform="translate(-28.62 -11.481)"/>
            </g>
            <g id="Group_1521" data-name="Group 1521" class="cls-20">
              <path id="Path_2922" data-name="Path 2922" class="cls-17" d="M36.318,26.8a17.322,17.322,0,0,1,0,3.057,4.978,4.978,0,0,1-1.618-.18l.18-1.978Z" transform="translate(-23.912 0.171)"/>
            </g>
            <g id="Group_1522" data-name="Group 1522" class="cls-20">
              <path id="Path_2923" data-name="Path 2923" class="cls-16" d="M36.278,20.816H34.3l.9-3.416Z" transform="translate(-24.231 -7.331)"/>
            </g>
            <g id="Group_1523" data-name="Group 1523" class="cls-20">
              <path id="Path_2924" data-name="Path 2924" class="cls-17" d="M35.019,28.5a4.978,4.978,0,0,0,1.618.18c-.18,3.776-.719,8.81-1.079,11.867H34.3Z" transform="translate(-24.231 1.527)"/>
            </g>
            <g id="Group_1524" data-name="Group 1524" class="cls-20">
              <path id="Path_2925" data-name="Path 2925" class="cls-16" d="M39.249,30.814,38.53,42.861c-4.5-.18-7.732-.719-9.53-2.7L30.8,25.6c2.877,2.877,5.754,4.675,8.451,5.214" transform="translate(-28.461 -0.787)"/>
            </g>
            <g id="Group_1525" data-name="Group 1525" class="cls-20">
              <path id="Path_2926" data-name="Path 2926" class="cls-16" d="M33.38,12.2h0Z" transform="translate(-25.109 -11.481)"/>
            </g>
          </g>
        </g>
        <g id="Group_1528" data-name="Group 1528" class="cls-1">
          <path id="Path_2927" data-name="Path 2927" class="cls-16" d="M30.935,13.3S25.9,24.987,25.9,28.943l.36.9a2.58,2.58,0,0,0,2.877,1.8L48.2,28.224,34.89,22.47l1.259-5.754c-.18,0-3.416-3.416-5.214-3.416" transform="translate(20.67 10.614)"/>
        </g>
        <g id="Group_1529" data-name="Group 1529" class="cls-1">
          <path id="Path_2928" data-name="Path 2928" class="cls-18" d="M49.823,13s7.192,11.867,7.192,15.283c0,0-1.079,3.236-3.6,3.236S34,27.924,34,27.924l1.259-5.394,11.867.9-3.6-2.877Z" transform="translate(27.134 10.375)"/>
        </g>
        <g id="Group_1530" data-name="Group 1530" class="cls-1">
          <path id="Path_2929" data-name="Path 2929" class="cls-23" d="M38.684,19.332s-2.337-2.7-4.675-1.978c-2.158.539-4.855,1.618-4.5,3.776,0,0,1.079,2.158,7.911,3.6" transform="translate(23.528 13.752)"/>
        </g>
        <g id="Group_1531" data-name="Group 1531" class="cls-1">
          <path id="Path_2930" data-name="Path 2930" class="cls-23" d="M37.8,20.219s.9-3.236,2.337-3.6,3.956,1.259,3.956,1.259,1.978,1.079,1.978,2.877Z" transform="translate(30.166 13.224)"/>
        </g>
        <g id="Group_1532" data-name="Group 1532" class="cls-1">
          <path id="Path_2931" data-name="Path 2931" class="cls-21" d="M33.2,13.158S34.1,11,38.774,11s5.394,2.158,5.394,2.158l-4.315,1.978Z" transform="translate(26.495 8.779)"/>
        </g>
        <g id="Group_1533" data-name="Group 1533" class="cls-1">
          <path id="Path_2932" data-name="Path 2932" class="cls-24" d="M41.033,13.358c0-1.259-1.618-2.158-3.416-2.158-1.978,0-3.416.9-3.416,2.158s1.618,2.158,3.416,2.158,3.416-.9,3.416-2.158" transform="translate(27.293 8.938)"/>
        </g>
        <g id="Group_1534" data-name="Group 1534" class="cls-1">
          <path id="Path_2933" data-name="Path 2933" class="cls-24" d="M34.1,15.034,35.179,9.1h5.035l.9,5.934Z" transform="translate(27.214 7.262)"/>
        </g>
        <g id="Group_1535" data-name="Group 1535" class="cls-1">
          <path id="Path_2934" data-name="Path 2934" class="cls-23" d="M37.615,1.3H36.177a3.387,3.387,0,0,0-1.438.36A2.1,2.1,0,0,0,33.66,2.738a3.387,3.387,0,0,0-.36,1.438v8.631a1.514,1.514,0,0,0,.719,1.259l2.7,1.618h3.236l2.7-1.618a1.357,1.357,0,0,0,.719-1.259V4.357a3.387,3.387,0,0,0-.36-1.438,2.1,2.1,0,0,0-1.079-1.079,3.387,3.387,0,0,0-1.438-.36H37.615Z" transform="translate(26.575 1.037)"/>
        </g>
        <g id="Group_1536" data-name="Group 1536" class="cls-1">
          <path id="Path_2935" data-name="Path 2935" class="cls-3" d="M36.719,50.138,36,56.072a1.424,1.424,0,0,0,.9,1.438l4.136,1.259a16.325,16.325,0,0,0,4.136.539l1.618-.18a1.7,1.7,0,0,0,1.618-1.438,1.847,1.847,0,0,0-.9-2.337c-7.012-4.136-5.214-.9-6.833-6.653Z" transform="translate(28.73 38.865)"/>
        </g>
        <g id="Group_1537" data-name="Group 1537" class="cls-1">
          <path id="Path_2936" data-name="Path 2936" class="cls-6" d="M64.852,2.1,57.3,6.236c.18,8.091,7.012,8.091,7.552,7.911.539.18,7.372.36,7.552-7.911Z" transform="translate(45.728 1.676)"/>
        </g>
        <g id="Group_1538" data-name="Group 1538" class="cls-1">
          <path id="Path_2937" data-name="Path 2937" class="cls-6" d="M62.2,4.659,64.173,3.4a3.046,3.046,0,0,1,1.978.9l3.776-.9a2.24,2.24,0,0,1-.539,1.8l2.517.18s-.539,1.438-1.259,1.8h1.079l-.539.539-1.259.9L67.23,5.2a10.252,10.252,0,0,0-2.337-.18,9.5,9.5,0,0,0-2.337.18l-2.7,3.416L58.239,7.9l-.18-.18L57.7,5.737s1.618.539,1.438.18a1.605,1.605,0,0,1,0-1.8Z" transform="translate(46.048 2.713)"/>
        </g>
        <g id="Group_1539" data-name="Group 1539" class="cls-1">
          <path id="Path_2938" data-name="Path 2938" class="cls-25" d="M68.07,2.419a23.807,23.807,0,0,1,3.6,2.158h0a2.848,2.848,0,0,1,.36,3.956H70.947c.719-.36,1.259-1.8,1.259-1.8l-2.517-.18a1.724,1.724,0,0,0,.539-1.8l-3.776.9a3.046,3.046,0,0,0-1.978-.9L62.5,6.015l-3.057-.36c-.539.539-.18,1.438,0,1.8.18.18-1.438-.18-1.438-.18l.36,1.978a2.938,2.938,0,0,1-.18-4.315h0a10.661,10.661,0,0,1,3.6-2.158c.36-.539.539-.719.9-.719h0a5.32,5.32,0,0,1,1.8-.36h1.079a6.389,6.389,0,0,1,1.8.36h0a1.363,1.363,0,0,1,.719.36" transform="translate(45.746 1.357)"/>
        </g>
        <g id="Group_1540" data-name="Group 1540" class="cls-1">
          <path id="Path_2939" data-name="Path 2939" class="cls-26" d="M65.836,7.836c0,2.877-1.259,5.394-3.057,6.473a.176.176,0,0,0-.18.18,14.136,14.136,0,0,0,1.438-4.675,50.438,50.438,0,0,0,0-5.214,4.215,4.215,0,0,1,1.8.9V7.836Z" transform="translate(49.958 3.671)"/>
        </g>
        <g id="Group_1541" data-name="Group 1541" class="cls-1">
          <path id="Path_2940" data-name="Path 2940" class="cls-27" d="M67.231,4.76a25.269,25.269,0,0,1,0,5.214,10.911,10.911,0,0,1-1.438,4.675,3.625,3.625,0,0,1-1.978.539,3.455,3.455,0,0,1-2.158-.719C59.859,13.39,58.6,10.873,58.6,8V5.659A9.629,9.629,0,0,1,63.814,4.4a9.466,9.466,0,0,1,3.416.36" transform="translate(46.766 3.511)"/>
        </g>
        <g id="Group_1542" data-name="Group 1542" class="cls-1">
          <path id="Path_2941" data-name="Path 2941" class="cls-26" d="M60.768,9.5c0,5.754-1.978,6.293.18,6.653a12.038,12.038,0,0,0,3.6,0c2.158-.36.18-.719.18-6.653Z" transform="translate(47.835 7.581)"/>
        </g>
        <g id="Group_1543" data-name="Group 1543" class="cls-1">
          <path id="Path_2942" data-name="Path 2942" class="cls-6" d="M64.4,5.1a1.357,1.357,0,0,1,.719,1.259A1.82,1.82,0,0,1,64.4,7.617V5.1Z" transform="translate(51.395 4.07)"/>
        </g>
        <g id="Group_1544" data-name="Group 1544" class="cls-1">
          <path id="Path_2943" data-name="Path 2943" class="cls-6" d="M59.019,7.437h0A.986.986,0,0,1,58.3,6.359,2.284,2.284,0,0,1,59.019,5.1Z" transform="translate(46.526 4.07)"/>
        </g>
        <g id="Group_1545" data-name="Group 1545" class="cls-1">
          <path id="Path_2944" data-name="Path 2944" class="cls-28" d="M63.675,14.472c-2.517,0-4.675-1.8-4.675-3.956l1.079-1.438a4.263,4.263,0,0,1,2.7-1.618,2.5,2.5,0,0,1,1.618,0,4.263,4.263,0,0,1,2.7,1.618l1.079,1.438a4.247,4.247,0,0,1-4.5,3.956" transform="translate(47.085 5.846)"/>
        </g>
        <g id="Group_1546" data-name="Group 1546" class="cls-1">
          <path id="Path_2945" data-name="Path 2945" class="cls-17" d="M6.179,20.7l.9,5.035L5.1,29.51Z" transform="translate(4.07 16.52)"/>
        </g>
        <g id="Group_1547" data-name="Group 1547" class="cls-1">
          <path id="Path_2946" data-name="Path 2946" class="cls-8" d="M73.882,21.417,62.375,18.9,57.7,31.127l11.508,2.517Z" transform="translate(46.048 15.083)"/>
        </g>
        <g id="Group_1548" data-name="Group 1548" class="cls-1">
          <path id="Path_2947" data-name="Path 2947" class="cls-6" d="M77.049,25.756c0,3.956-5.214,1.978-9.71.719a4.5,4.5,0,0,0-.539-2.337c2.158.36,7.552,1.438,8.091.9A6.73,6.73,0,0,0,76.33,21.8a18.555,18.555,0,0,1,.719,3.956" transform="translate(53.31 17.397)"/>
        </g>
        <g id="Group_1549" data-name="Group 1549" class="cls-1">
          <path id="Path_2948" data-name="Path 2948" class="cls-7" d="M69.054,22.958C68.874,22.6,67.436,20.8,66,20.8q-1.349,0-1.079,1.079c.18.539,1.259-.18,2.158,1.618,0,0,.18.539-3.057,0a12.748,12.748,0,0,0-.719,3.057,6.156,6.156,0,0,0,3.416.36S66,28.532,63.3,27.453v1.079a4.8,4.8,0,0,0,5.394-.539h.9a2.367,2.367,0,0,0,2.7-2.337v-.9c0-1.438-2.517-1.8-3.236-1.8" transform="translate(50.517 16.599)"/>
        </g>
        <g id="Group_1550" data-name="Group 1550" class="cls-1">
          <path id="Path_2949" data-name="Path 2949" class="cls-29" d="M37.736,4.983C38.1,6.6,35.218,6.961,33.78,6.062a.176.176,0,0,1-.18-.18c0-.18.36-1.079.539-1.079.9-.719,3.416-.539,3.6.18" transform="translate(26.815 3.468)"/>
        </g>
        <g id="Group_1551" data-name="Group 1551" class="cls-1">
          <path id="Path_2950" data-name="Path 2950" class="cls-29" d="M36.214,4.983c-.36,1.618,2.517,1.978,3.956,1.079a.176.176,0,0,0,.18-.18c0-.18-.36-1.079-.539-1.079-.9-.719-3.416-.539-3.6.18" transform="translate(28.876 3.468)"/>
        </g>
        <g id="Group_1552" data-name="Group 1552" class="cls-1">
          <path id="Path_2951" data-name="Path 2951" class="cls-26" d="M63.236,5.783C63.6,7.4,60.718,7.761,59.28,6.862a.176.176,0,0,1-.18-.18c0-.18.36-1.079.539-1.079.9-.719,3.416-.539,3.6.18" transform="translate(47.165 4.106)"/>
        </g>
        <g id="Group_1553" data-name="Group 1553" class="cls-1">
          <path id="Path_2952" data-name="Path 2952" class="cls-26" d="M61.814,5.783c-.36,1.618,2.517,1.978,3.956,1.079l.18-.18c0-.18-.36-1.079-.539-1.079-.9-.719-3.6-.539-3.6.18" transform="translate(49.306 4.106)"/>
        </g>
        <g id="Group_1554" data-name="Group 1554" class="cls-1">
          <path id="Path_2953" data-name="Path 2953" class="cls-29" d="M36.738,6.8c-.539,0-1.259.18-1.438.539a4.788,4.788,0,0,0,1.438.719,4.788,4.788,0,0,0,1.438-.719A6.087,6.087,0,0,0,36.738,6.8" transform="translate(28.171 5.427)"/>
        </g>
        <g id="Group_1555" data-name="Group 1555" class="cls-1">
          <path id="Path_2954" data-name="Path 2954" class="cls-16" d="M37.875,1.3h-1.8a3.387,3.387,0,0,0-1.438.36A3.1,3.1,0,0,0,33.56,2.738a3.387,3.387,0,0,0-.36,1.438V7.054c.36-.36.9-.719.9-1.259V3.637H42.37V5.8a2.293,2.293,0,0,0,.9,1.259v-2.7a3.387,3.387,0,0,0-.36-1.438,3.053,3.053,0,0,0-1.079-1.079,4.232,4.232,0,0,0-1.438-.36H37.875Z" transform="translate(26.495 1.037)"/>
        </g>
        <g id="Group_1556" data-name="Group 1556" class="cls-1">
          <path id="Path_2955" data-name="Path 2955" class="cls-29" d="M32.5,6.683V5.6c0-1.079,1.259-.9,1.259-.9V8.841s-1.259.18-1.259-.9Z" transform="translate(25.937 3.746)"/>
        </g>
        <g id="Group_1557" data-name="Group 1557" class="cls-1">
          <path id="Path_2956" data-name="Path 2956" class="cls-29" d="M40.159,6.683V7.941c0,1.079-1.259.9-1.259.9V4.7s1.259-.18,1.259.9Z" transform="translate(31.044 3.746)"/>
        </g>
      </g>
    </g>
  </g>
</svg>
