<svg xmlns="http://www.w3.org/2000/svg" xmlns:xlink="http://www.w3.org/1999/xlink" viewBox="52 -1219.707 202.462 226.956">
  <defs>
    <style>
      .cls-1 {
        clip-path: url(#clip-path);
      }

      .cls-2 {
        fill: #eb9c7f;
      }

      .cls-3 {
        fill: #b1aeae;
      }

      .cls-4 {
        fill: #fff;
      }

      .cls-5 {
        fill: #b12025;
      }

      .cls-6 {
        fill: #068792;
      }

      .cls-7 {
        fill: #816351;
      }

      .cls-8 {
        fill: #ac8a79;
      }

      .cls-9 {
        fill: #cd7767;
      }

      .cls-10 {
        fill: #765945;
      }

      .cls-11 {
        fill: #5f605f;
      }

      .cls-12 {
        fill: #4f677e;
      }

      .cls-13 {
        fill: #353635;
      }

      .cls-14 {
        fill: #cbcbca;
      }

      .cls-15 {
        fill: #48b590;
      }

      .cls-16 {
        fill: #727070;
      }

      .cls-17 {
        fill: #888585;
      }

      .cls-18 {
        clip-path: url(#clip-path-46);
      }

      .cls-19 {
        fill: #d9d8d9;
      }

      .cls-20 {
        fill: #cdb28e;
      }
    </style>
    <clipPath id="clip-path">
      <rect id="Rectangle_280" data-name="Rectangle 280" width="202.462" height="226.956"/>
    </clipPath>
    <clipPath id="clip-path-46">
      <rect id="Rectangle_270" data-name="Rectangle 270" width="110.379" height="114.612"/>
    </clipPath>
  </defs>
  <g id="Process_1_-_Dude_1_" transform="translate(52 -1219.707)">
    <g id="Group_858" data-name="Group 858">
      <g id="Group_857" data-name="Group 857" class="cls-1">
        <g id="Group_800" data-name="Group 800" class="cls-1">
          <path id="Path_2220" data-name="Path 2220" class="cls-2" d="M105.643,25.7V39c0,.151-.454.151-.756.3-.151-3.931-.756-7.711-.756-11.189h0c0-.3.3-.756.3-1.058h.151V24.94a1.918,1.918,0,0,0-.151-.907v-.151c0-.3-.151-.6-.151-.907v-.151c0-.3-.151-.6-.151-.907v-.151c0-.3-.151-.6-.151-.907v-.151c0-.3-.151-.6-.151-.907v-.151c-.151-.3-.151-.6-.3-.907h.151a17.5,17.5,0,0,0-7.107-9.223c0-.151,0-.151-.151-.3A22.662,22.662,0,0,0,91.581,7.7c-1.21,2.722-5.443,6.351-13.155,9.072-8.467-2.722-13-6.653-14.213-9.375a36.522,36.522,0,0,0-4.839,1.512c-1.361,3.024-1.966,7.107-2.419,11.945H53.932l-2.873,18.6c-.151,0,.151-.151.151-.151V25.544c-10.584,0-8.77-2.722-8.77,17.691,0,3.478,2.268,5.595,5.746,5.595h.454c.151,6.048.454,10.584,2.419,15.876v.3c0,.151.151.3.151.454,3.024,7.863,8.165,14.364,14.818,17.691,0,6.5-1.512,14.062-8.014,14.062H54.688a22.754,22.754,0,0,0,23.134,23.134c12.7,0,23.134-12.55,23.134-23.134H97.629c-3.629,0-6.2-4.082-7.409-7.56-.6-1.814-.454-2.873-.454-6.653C99.6,78.314,105.038,68.637,106.7,58.2c0,0,.151-3.326.3-9.375h.6c3.478,0,6.351-2.268,6.351-5.595-.151-20.261,2.268-17.54-8.316-17.54" transform="translate(21.67 3.789)"/>
        </g>
        <g id="Group_801" data-name="Group 801" class="cls-1">
          <path id="Path_2221" data-name="Path 2221" class="cls-3" d="M30.9,179.751,109.526,66.5h7.409L102.571,179.751Z" transform="translate(15.822 34.05)"/>
        </g>
        <g id="Group_802" data-name="Group 802" class="cls-1">
          <path id="Path_2222" data-name="Path 2222" class="cls-4" d="M80.278,122.139a23.739,23.739,0,1,0-23.739,23.739,23.779,23.779,0,0,0,23.739-23.739" transform="translate(16.795 50.384)"/>
        </g>
        <g id="Group_803" data-name="Group 803" class="cls-1">
          <path id="Path_2223" data-name="Path 2223" class="cls-5" d="M67.65,114.652H60.544v-7.107a5.746,5.746,0,0,0-11.491,0v7.107H41.946a5.746,5.746,0,1,0,0,11.491h7.107v7.107a5.746,5.746,0,0,0,11.491,0v-7.107H67.65a5.746,5.746,0,1,0,0-11.491" transform="translate(18.536 52.125)"/>
        </g>
        <g id="Group_804" data-name="Group 804" class="cls-1">
          <path id="Path_2224" data-name="Path 2224" class="cls-2" d="M120.4,105.4v43.7H102.1V115.833A38.281,38.281,0,0,0,120.4,105.4" transform="translate(52.279 53.968)"/>
        </g>
        <g id="Group_805" data-name="Group 805" class="cls-1">
          <path id="Path_2225" data-name="Path 2225" class="cls-6" d="M133.232,66.854c-1.663-.151-3.175-.3-4.839-.3H113.878a22.9,22.9,0,0,1-2.419,10.282,22.306,22.306,0,0,1-6.351,7.711,22.7,22.7,0,0,1-14.364,4.99A23.134,23.134,0,0,1,67.609,66.4H55.059A38.847,38.847,0,0,0,16.2,105.259V122.5H37.369v46.571l108.715-.3V122.345h21.169V105.411a38.881,38.881,0,0,0-34.021-38.557" transform="translate(8.295 33.999)"/>
        </g>
        <g id="Group_806" data-name="Group 806" class="cls-1">
          <path id="Path_2226" data-name="Path 2226" class="cls-7" d="M0,142.98c0,6.955,45.361,12.55,101.306,12.55s101.306-5.595,101.306-12.55V139.2H0Z" transform="translate(0 71.275)"/>
        </g>
        <g id="Group_807" data-name="Group 807" class="cls-1">
          <path id="Path_2227" data-name="Path 2227" class="cls-8" d="M202.513,143.45c0-6.955-45.361-12.55-101.306-12.55S-.1,136.495-.1,143.45,45.261,156,101.206,156c56.1,0,101.306-5.594,101.306-12.55" transform="translate(-0.051 67.025)"/>
        </g>
        <g id="Group_808" data-name="Group 808" class="cls-1">
          <path id="Path_2228" data-name="Path 2228" class="cls-9" d="M102.1,103.6v18.447a37.592,37.592,0,0,0,18.3-10.433v-7.863H102.1Z" transform="translate(52.279 53.047)"/>
        </g>
        <g id="Group_809" data-name="Group 809" class="cls-1">
          <path id="Path_2229" data-name="Path 2229" class="cls-10" d="M19.565,136.4s-5.9,2.873-2.873,5.746c2.873,2.873,13.155,2.57,13.155,2.57H129.49s8.316.151,8.316-1.361c0-1.663-4.687-6.2-4.687-6.2Z" transform="translate(8.105 69.842)"/>
        </g>
        <g id="Group_810" data-name="Group 810" class="cls-1">
          <path id="Path_2230" data-name="Path 2230" class="cls-2" d="M96.366,68.907H93.039c-3.629,0-6.2-3.78-7.409-7.107A31.908,31.908,0,0,1,61.589,72.989c-3.931,0-7.711.454-11.189-.756a23.1,23.1,0,0,0,45.966-3.326" transform="translate(25.807 31.644)"/>
        </g>
        <g id="Group_811" data-name="Group 811" class="cls-1">
          <path id="Path_2231" data-name="Path 2231" class="cls-9" d="M92.065,37.817a6.132,6.132,0,0,1-6.2,6.2H83.9V19.521c10.131,0,8.165-2.117,8.165,18.3" transform="translate(42.96 9.964)"/>
        </g>
        <g id="Group_812" data-name="Group 812" class="cls-1">
          <path id="Path_2232" data-name="Path 2232" class="cls-9" d="M69.491,18.184a22.229,22.229,0,0,0,3.78-1.21c-8.467-2.722-13-6.653-14.213-9.375a36.522,36.522,0,0,0-4.839,1.512c-1.361,3.024-1.966,7.107-2.419,11.945a80.534,80.534,0,0,0,17.691-2.873" transform="translate(26.524 3.891)"/>
        </g>
        <g id="Group_813" data-name="Group 813" class="cls-1">
          <path id="Path_2233" data-name="Path 2233" class="cls-9" d="M101.726,38.485C100.819,17.014,100.97,13.99,93.259,9c3.175,7.711,2.722,21.32,2.722,37.65a45.83,45.83,0,0,1-1.512,15.272C88.118,86.265,62.111,83.241,48.2,65.1c3.024,7.863,8.165,14.364,14.818,17.54,0,6.5-1.512,13.911-8.014,13.911H51.678a14.374,14.374,0,0,0,.3,2.873,34.675,34.675,0,0,0,24.8-1.361,33.315,33.315,0,0,0,10.735-8.014c-1.058-2.722-.756-3.175-.756-7.711,9.828-4.687,15.272-13.759,16.935-24.041,0,0,.454-4.839.454-20.564a11.33,11.33,0,0,0-2.419.756" transform="translate(24.68 4.608)"/>
        </g>
        <g id="Group_814" data-name="Group 814" class="cls-1">
          <path id="Path_2234" data-name="Path 2234" class="cls-9" d="M18.1,117.36h1.663A35.972,35.972,0,0,0,36.4,113.428V103.6H18.1Z" transform="translate(9.268 53.047)"/>
        </g>
        <g id="Group_815" data-name="Group 815" class="cls-1">
          <path id="Path_2235" data-name="Path 2235" class="cls-2" d="M36.4,110.2v25.856H18.1V113.98h1.663A38.35,38.35,0,0,0,36.4,110.2" transform="translate(9.268 56.426)"/>
        </g>
        <g id="Group_816" data-name="Group 816" class="cls-1">
          <path id="Path_2236" data-name="Path 2236" class="cls-9" d="M62.742,21.318c-3.931.756-15.12,2.268-12.4,10.584,1.21,3.629,2.419,9.223,6.5,9.223h8.921c3.629,0,7.258-12.7,4.234-19.354-1.361-3.024-4.083-1.21-7.258-.454" transform="translate(25.561 10.284)"/>
        </g>
        <g id="Group_817" data-name="Group 817" class="cls-1">
          <path id="Path_2237" data-name="Path 2237" class="cls-9" d="M75.539,21.318c3.931.756,15.12,2.268,12.4,10.584-1.21,3.629-2.419,9.223-6.5,9.223H72.515c-3.629,0-7.258-12.7-4.234-19.354,1.21-3.024,4.083-1.21,7.258-.454" transform="translate(34.386 10.284)"/>
        </g>
        <g id="Group_818" data-name="Group 818" class="cls-1">
          <path id="Path_2238" data-name="Path 2238" class="cls-9" d="M70.323,25.1l1.512,17.842a3.27,3.27,0,0,1-3.175,3.78H63.822a1.133,1.133,0,0,0-.756.151l-.907.454a1.836,1.836,0,0,0,0,3.326l9.677,4.082a15.323,15.323,0,0,0,6.351,1.21,2.625,2.625,0,0,0,2.57-2.873L78.337,33.416Z" transform="translate(31.285 12.852)"/>
        </g>
        <g id="Group_819" data-name="Group 819" class="cls-1">
          <path id="Path_2239" data-name="Path 2239" class="cls-3" d="M65.043,30.646a5.778,5.778,0,0,0-5.9-5.746A5.649,5.649,0,0,0,53.4,30.646a5.822,5.822,0,1,0,11.643,0" transform="translate(27.343 12.75)"/>
        </g>
        <g id="Group_820" data-name="Group 820" class="cls-1">
          <path id="Path_2240" data-name="Path 2240" class="cls-3" d="M70,30.646a5.746,5.746,0,0,1,11.492,0,5.874,5.874,0,0,1-5.746,5.9A5.778,5.778,0,0,1,70,30.646" transform="translate(35.843 12.75)"/>
        </g>
        <g id="Group_821" data-name="Group 821" class="cls-1">
          <path id="Path_2241" data-name="Path 2241" class="cls-6" d="M62.563,29.031a3.931,3.931,0,1,0-3.931,3.931,3.812,3.812,0,0,0,3.931-3.931" transform="translate(28.008 12.852)"/>
        </g>
        <g id="Group_822" data-name="Group 822" class="cls-1">
          <path id="Path_2242" data-name="Path 2242" class="cls-6" d="M71.2,29.031a3.931,3.931,0,1,1,3.931,3.931A3.812,3.812,0,0,1,71.2,29.031" transform="translate(36.457 12.852)"/>
        </g>
        <g id="Group_823" data-name="Group 823" class="cls-1">
          <path id="Path_2243" data-name="Path 2243" class="cls-11" d="M60.236,28.468a2.268,2.268,0,1,0-2.268,2.268,2.325,2.325,0,0,0,2.268-2.268" transform="translate(28.52 13.415)"/>
        </g>
        <g id="Group_824" data-name="Group 824" class="cls-1">
          <path id="Path_2244" data-name="Path 2244" class="cls-11" d="M72.3,28.468a2.268,2.268,0,1,1,2.268,2.268A2.325,2.325,0,0,1,72.3,28.468" transform="translate(37.02 13.415)"/>
        </g>
        <g id="Group_825" data-name="Group 825" class="cls-1">
          <path id="Path_2245" data-name="Path 2245" class="cls-9" d="M52.2,29.9a12.72,12.72,0,0,1,14.364-1.663L64.9,25.061,59.307,23.7l-6.5,2.117Z" transform="translate(26.728 12.135)"/>
        </g>
        <g id="Group_826" data-name="Group 826" class="cls-1">
          <path id="Path_2246" data-name="Path 2246" class="cls-9" d="M83.664,29.9A12.72,12.72,0,0,0,69.3,28.236l1.663-3.175L76.558,23.7l6.5,2.117Z" transform="translate(35.484 12.135)"/>
        </g>
        <g id="Group_827" data-name="Group 827" class="cls-1">
          <path id="Path_2247" data-name="Path 2247" class="cls-3" d="M65.043,31.046a5.778,5.778,0,0,0-5.9-5.746A5.649,5.649,0,0,0,53.4,31.046a5.874,5.874,0,0,0,5.746,5.9,6,6,0,0,0,5.9-5.9" transform="translate(27.343 12.954)"/>
        </g>
        <g id="Group_828" data-name="Group 828" class="cls-1">
          <path id="Path_2248" data-name="Path 2248" class="cls-3" d="M70,31.046a5.746,5.746,0,0,1,11.492,0,5.748,5.748,0,1,1-11.492,0" transform="translate(35.843 12.954)"/>
        </g>
        <g id="Group_829" data-name="Group 829" class="cls-1">
          <path id="Path_2249" data-name="Path 2249" class="cls-12" d="M55.805,29.422a4.971,4.971,0,0,1,5.443,1.21c1.21,1.512.907,3.326-.756,4.082a4.971,4.971,0,0,1-5.443-1.21c-1.21-1.512-.907-3.326.756-4.082" transform="translate(27.81 14.881)"/>
        </g>
        <g id="Group_830" data-name="Group 830" class="cls-1">
          <path id="Path_2250" data-name="Path 2250" class="cls-13" d="M56.363,30.572a2.312,2.312,0,0,1,2.722.6,1.711,1.711,0,0,1-.454,2.419,2.312,2.312,0,0,1-2.722-.6,1.684,1.684,0,0,1,.454-2.419" transform="translate(28.463 15.545)"/>
        </g>
        <g id="Group_831" data-name="Group 831" class="cls-1">
          <path id="Path_2251" data-name="Path 2251" class="cls-9" d="M52.2,29.695a15.8,15.8,0,0,0,15.876-.6L64.9,25.461,59.307,24.1l-6.5,2.117Z" transform="translate(26.728 12.34)"/>
        </g>
        <g id="Group_832" data-name="Group 832" class="cls-1">
          <path id="Path_2252" data-name="Path 2252" class="cls-9" d="M83.664,30.3A12.72,12.72,0,0,0,69.3,28.636l1.663-3.175L76.558,24.1l6.5,2.117Z" transform="translate(35.484 12.34)"/>
        </g>
        <g id="Group_833" data-name="Group 833" class="cls-1">
          <path id="Path_2253" data-name="Path 2253" class="cls-14" d="M59.891,30.133c-.151-.454-.756-.454-1.058-.3-.454.151-.454.756-.3,1.058.151.454.756.454,1.058.3a.868.868,0,0,0,.3-1.058" transform="translate(29.924 15.228)"/>
        </g>
        <g id="Group_834" data-name="Group 834" class="cls-1">
          <path id="Path_2254" data-name="Path 2254" class="cls-15" d="M49.7,66.3c0,13.306,10.887,24.8,24.193,24.8S98.085,80.967,98.085,67.358H95.817c0,10.584-9.828,21.471-21.925,21.471A22.2,22.2,0,0,1,51.968,66.6Z" transform="translate(25.448 33.948)"/>
        </g>
        <g id="Group_835" data-name="Group 835" class="cls-1">
          <path id="Path_2255" data-name="Path 2255" class="cls-16" d="M69.414,21.929a1.379,1.379,0,0,0-1.21-1.814,26.227,26.227,0,0,0-16.481,5.141c-4.082,3.326,1.21,1.512,1.21,1.512A20.569,20.569,0,0,1,67.751,23.29a1.472,1.472,0,0,0,1.663-1.058c-.151,0,0-.151,0-.3" transform="translate(25.693 10.277)"/>
        </g>
        <g id="Group_836" data-name="Group 836" class="cls-1">
          <path id="Path_2256" data-name="Path 2256" class="cls-16" d="M68.927,21.929a1.379,1.379,0,0,1,1.21-1.814,23.01,23.01,0,0,1,15.272,5.141c4.082,3.326-1.21,1.512-1.21,1.512A16.761,16.761,0,0,0,70.59,23.29a1.472,1.472,0,0,1-1.663-1.058v-.3" transform="translate(35.253 10.277)"/>
        </g>
        <g id="Group_837" data-name="Group 837" class="cls-1">
          <path id="Path_2257" data-name="Path 2257" class="cls-12" d="M72.742,29.422a4.971,4.971,0,0,1,5.443,1.21c1.21,1.512.907,3.326-.756,4.082a4.971,4.971,0,0,1-5.443-1.21c-1.361-1.512-1.058-3.326.756-4.082" transform="translate(36.427 14.881)"/>
        </g>
        <g id="Group_838" data-name="Group 838" class="cls-1">
          <path id="Path_2258" data-name="Path 2258" class="cls-13" d="M73.3,30.172a2.312,2.312,0,0,1,2.722.6,1.711,1.711,0,0,1-.454,2.419,2.312,2.312,0,0,1-2.722-.6,1.512,1.512,0,0,1,.454-2.419" transform="translate(37.08 15.34)"/>
        </g>
        <g id="Group_839" data-name="Group 839" class="cls-1">
          <path id="Path_2259" data-name="Path 2259" class="cls-14" d="M76.691,29.833c-.151-.454-.756-.454-1.058-.3-.454.151-.454.756-.3,1.058.151.454.756.454,1.058.3.454-.3.6-.756.3-1.058" transform="translate(38.526 15.074)"/>
        </g>
        <g id="Group_840" data-name="Group 840" class="cls-1">
          <path id="Path_2260" data-name="Path 2260" class="cls-3" d="M89.537,66.5H97.55L84.093,172.494,72.148,137.414,66.1,100.37Z" transform="translate(33.846 34.05)"/>
        </g>
        <g id="Group_841" data-name="Group 841" class="cls-1">
          <path id="Path_2261" data-name="Path 2261" class="cls-17" d="M67.534,88.9l23.285,30.089-5.292,42.035L63.3,95.1Z" transform="translate(32.412 45.52)"/>
        </g>
        <g id="Group_842" data-name="Group 842" class="cls-1">
          <path id="Path_2262" data-name="Path 2262" class="cls-2" d="M93.634,123.048c2.268,0,3.629-1.21,3.629-3.024S95.75,117,93.634,117H83.352L64.3,125.316l22.076.3Z" transform="translate(32.924 59.908)"/>
        </g>
        <g id="Group_848" data-name="Group 848" class="cls-1">
          <g id="Group_847" data-name="Group 847" class="cls-18" transform="translate(20.715 99.189)">
            <g id="Group_843" data-name="Group 843" class="cls-18">
              <path id="Path_2263" data-name="Path 2263" class="cls-15" d="M93.817,121.3v30.392H83.384c-2.873-8.014-3.629-9.979-10.584-30.392H93.817Z" transform="translate(16.561 -37.08)"/>
            </g>
            <g id="Group_844" data-name="Group 844" class="cls-18">
              <path id="Path_2264" data-name="Path 2264" class="cls-19" d="M107.808,151.692H38.255A29.51,29.51,0,0,1,25.1,148.668L28.88,121.3H97.073c7.107,20.413,7.863,22.378,10.735,30.392" transform="translate(-7.863 -37.08)"/>
            </g>
            <g id="Group_845" data-name="Group 845" class="cls-18">
              <path id="Path_2265" data-name="Path 2265" class="cls-19" d="M95.893,149.769H27.7L38.587,70.992c.3-3.478,3.175-5.292,6.653-5.292H67.467c14.969,44.151,23.285,69.1,28.426,84.069" transform="translate(-6.531 -65.549)"/>
            </g>
            <g id="Group_846" data-name="Group 846" class="cls-18">
              <path id="Path_2266" data-name="Path 2266" class="cls-15" d="M34.817,121.3l-3.78,27.368A30.1,30.1,0,0,1,13.8,121.3H34.817Z" transform="translate(-13.649 -37.08)"/>
            </g>
          </g>
        </g>
        <g id="Group_849" data-name="Group 849" class="cls-1">
          <path id="Path_2267" data-name="Path 2267" class="cls-5" d="M80.078,119.239a23.739,23.739,0,1,0-23.739,23.739,23.779,23.779,0,0,0,23.739-23.739" transform="translate(16.692 48.899)"/>
        </g>
        <g id="Group_850" data-name="Group 850" class="cls-1">
          <path id="Path_2268" data-name="Path 2268" class="cls-4" d="M67.45,111.752H60.344v-7.107a5.746,5.746,0,1,0-11.491,0v7.107H41.746a5.746,5.746,0,1,0,0,11.491h7.107v7.107a5.746,5.746,0,1,0,11.491,0v-7.107H67.45a5.746,5.746,0,1,0,0-11.491" transform="translate(18.433 50.64)"/>
        </g>
        <g id="Group_851" data-name="Group 851" class="cls-1">
          <path id="Path_2269" data-name="Path 2269" class="cls-9" d="M69.874,51.339c10.584,0,14.818-4.536,12.7-4.234-7.107.756-7.107,1.058-12.55,1.058s-5.443-.3-12.55-1.058c-2.117-.3,2.268,4.234,12.7,4.234" transform="translate(29.164 24.112)"/>
        </g>
        <g id="Group_852" data-name="Group 852" class="cls-1">
          <path id="Path_2270" data-name="Path 2270" class="cls-9" d="M68.6,29.543a14.316,14.316,0,0,0,15.423.151L81.15,25.461,75.555,24.1l-6.5,2.117Z" transform="translate(35.126 12.34)"/>
        </g>
        <g id="Group_853" data-name="Group 853" class="cls-1">
          <path id="Path_2271" data-name="Path 2271" class="cls-20" d="M98.44,136.472c0-8.467-3.931-15.272-8.77-15.272S80.9,128,80.9,136.472s3.931,15.272,8.77,15.272,8.77-6.8,8.77-15.272" transform="translate(41.424 62.059)"/>
        </g>
        <g id="Group_854" data-name="Group 854" class="cls-1">
          <path id="Path_2272" data-name="Path 2272" class="cls-2" d="M89.953,123.7c-3.629,0-6.653,5.141-6.653,11.491s3.024,11.492,6.653,11.492c7.107,0,12.852-5.141,12.852-11.492.151-6.351.151-11.038-12.852-11.491" transform="translate(42.653 63.339)"/>
        </g>
        <g id="Group_855" data-name="Group 855" class="cls-1">
          <path id="Path_2273" data-name="Path 2273" class="cls-9" d="M41.852,37.947a6.132,6.132,0,0,0,6.2,6.2H48.5L50.017,19.5c-10.131.151-8.165-1.966-8.165,18.447" transform="translate(21.351 9.984)"/>
        </g>
        <g id="Group_856" data-name="Group 856" class="cls-1">
          <path id="Path_2274" data-name="Path 2274" class="cls-16" d="M101.155,6.636c9.072,0,9.223-6.2,9.223-6.2-47.478,0-68.646-6.8-66.53,35.533a8.509,8.509,0,0,0,5.595,7.56l3.326-18.6s6.8.756,20.413-2.873c10.282-2.722,15.725-7.107,17.086-10.282C97.829,14.045,101,21,101.911,26.746l1.512,16.632c2.873,0,7.863-3.78,7.863-8.467,0-14.213,0-18.144-10.131-28.275" transform="translate(22.378 0.017)"/>
        </g>
      </g>
    </g>
  </g>
</svg>
