<svg xmlns="http://www.w3.org/2000/svg" xmlns:xlink="http://www.w3.org/1999/xlink" viewBox="855 -550 121.724 111.795">
  <defs>
    <style>
      .cls-1 {
        clip-path: url(#clip-path);
      }

      .cls-2 {
        fill: #a8a8a9;
      }

      .cls-3 {
        fill: #77494a;
      }

      .cls-4 {
        fill: #9e6162;
      }

      .cls-5 {
        fill: #69505f;
      }

      .cls-6 {
        fill: #6d615e;
      }

      .cls-7 {
        fill: #1a3244;
      }

      .cls-8 {
        fill: #6988b7;
      }

      .cls-9 {
        fill: #088792;
      }

      .cls-10 {
        fill: #90979e;
      }

      .cls-11 {
        clip-path: url(#clip-path-18);
      }

      .cls-12 {
        fill: #cc7e6d;
      }

      .cls-13 {
        fill: #a55b56;
      }

      .cls-14 {
        clip-path: url(#clip-path-22);
      }

      .cls-15 {
        fill: #491413;
      }

      .cls-16 {
        fill: #60342d;
      }

      .cls-17 {
        fill: #bac2cc;
      }

      .cls-18 {
        clip-path: url(#clip-path-33);
      }

      .cls-19 {
        fill: #432c16;
      }

      .cls-20 {
        fill: #407775;
      }

      .cls-21 {
        fill: #e2f2e9;
      }

      .cls-22 {
        fill: #bdceeb;
      }

      .cls-23 {
        fill: #3c3d66;
      }

      .cls-24 {
        fill: #cce195;
      }

      .cls-25 {
        fill: #1e4721;
      }

      .cls-26 {
        clip-path: url(#clip-path-72);
      }

      .cls-27 {
        fill: #009949;
      }

      .cls-28 {
        fill: #59bc6c;
      }

      .cls-29 {
        fill: #183319;
      }

      .cls-30 {
        fill: #1d4923;
      }

      .cls-31 {
        fill: #149853;
      }

      .cls-32 {
        clip-path: url(#clip-path-92);
      }

      .cls-33 {
        fill: #111132;
      }

      .cls-34, .cls-35 {
        fill: none;
        stroke: #5e6367;
        stroke-miterlimit: 10;
        stroke-width: 0.8px;
      }

      .cls-35 {
        stroke-linecap: round;
      }

      .cls-36 {
        fill: #5e6367;
      }

      .cls-37 {
        fill: #7c8084;
      }

      .cls-38 {
        fill: #5c5f61;
      }

      .cls-39 {
        fill: #664258;
      }

      .cls-40 {
        clip-path: url(#clip-path-113);
      }

      .cls-41 {
        fill: #854748;
      }

      .cls-42 {
        fill: #543434;
      }
    </style>
    <clipPath id="clip-path">
      <rect id="Rectangle_1120" data-name="Rectangle 1120" width="121.725" height="111.795"/>
    </clipPath>
    <clipPath id="clip-path-18">
      <rect id="Rectangle_1017" data-name="Rectangle 1017" width="10.297" height="11.032"/>
    </clipPath>
    <clipPath id="clip-path-22">
      <rect id="Rectangle_1021" data-name="Rectangle 1021" width="13.607" height="21.329"/>
    </clipPath>
    <clipPath id="clip-path-33">
      <rect id="Rectangle_1033" data-name="Rectangle 1033" width="15.078" height="18.02"/>
    </clipPath>
    <clipPath id="clip-path-72">
      <rect id="Rectangle_1071" data-name="Rectangle 1071" width="121.724" height="111.795" transform="translate(0 0)"/>
    </clipPath>
    <clipPath id="clip-path-92">
      <rect id="Rectangle_1096" data-name="Rectangle 1096" width="14.71" height="11.216"/>
    </clipPath>
    <clipPath id="clip-path-113">
      <rect id="Rectangle_1117" data-name="Rectangle 1117" width="15.078" height="18.204"/>
    </clipPath>
  </defs>
  <g id="Process_3c_-_Pay_Doc_1_" transform="translate(855 -550)">
    <g id="Group_1771" data-name="Group 1771">
      <g id="Group_1770" data-name="Group 1770" class="cls-1">
        <g id="Group_1654" data-name="Group 1654" class="cls-1">
          <path id="Path_3000" data-name="Path 3000" class="cls-2" d="M88.678,60.1c0-3.861-11.032-6.8-24.639-6.8S39.4,56.426,39.4,60.1s11.032,6.8,24.639,6.8c13.607.184,24.639-2.942,24.639-6.8" transform="translate(33.046 44.705)"/>
        </g>
        <g id="Group_1655" data-name="Group 1655" class="cls-1">
          <path id="Path_3001" data-name="Path 3001" class="cls-2" d="M49.462,60.1c0-3.861-11.032-6.8-24.639-6.8C11.032,53.3,0,56.426,0,60.1s11.032,6.8,24.639,6.8c13.607.184,24.823-2.942,24.823-6.8" transform="translate(0 44.705)"/>
        </g>
        <g id="Group_1656" data-name="Group 1656" class="cls-1">
          <path id="Path_3002" data-name="Path 3002" class="cls-3" d="M36.5,20.3a1.589,1.589,0,0,0,.552,1.1c-.368-.368-.368-.735-.552-1.1" transform="translate(30.614 17.026)"/>
        </g>
        <g id="Group_1657" data-name="Group 1657" class="cls-1">
          <path id="Path_3003" data-name="Path 3003" class="cls-3" d="M37.3,21.3l3.861,2.39C39.139,22.4,38.035,21.852,37.3,21.3" transform="translate(31.285 17.865)"/>
        </g>
        <g id="Group_1658" data-name="Group 1658" class="cls-1">
          <path id="Path_3004" data-name="Path 3004" class="cls-4" d="M44.39,23.363l1.287.919c-2.758,3.126-2.39,2.758-2.758,3.126A4.019,4.019,0,0,1,42,26.856l-3.861-2.39h0a4.011,4.011,0,0,1-.919-.735l-.552-1.1a7.964,7.964,0,0,0-.184-.919c0-.368-.184-.735-.184-1.1h0a.675.675,0,0,1,.184-.552v-.184c.184-.184.184-.552.552-.919a4.019,4.019,0,0,0,.552-.919c1.1.735.919.552,1.1.735l.368-.552a1.527,1.527,0,0,1,2.206-.368L43.1,19.133c1.1.735.919,1.471,1.287,4.229" transform="translate(30.446 14.699)"/>
        </g>
        <g id="Group_1659" data-name="Group 1659" class="cls-1">
          <path id="Path_3005" data-name="Path 3005" class="cls-5" d="M38.459,17.887c-.184.368-.368.552-.552.919l-.184.368c-.184.184-.184.368-.368.552v.184a.676.676,0,0,1-.184.552h0v1.1a7.964,7.964,0,0,1,.184.919,1.311,1.311,0,0,0,.552,1.1l.552.552.368.184h0c.735.552,2.023,1.287,3.861,2.39.368.184.552.368.919.552l-1.1,1.287L41.768,28,36.62,24.874a2.678,2.678,0,0,1-1.1-1.655l-.184-1.471A2.138,2.138,0,0,1,35.7,19.91l1.1-1.655c.552-.552,1.1-.735,1.655-.368Z" transform="translate(29.575 14.842)"/>
        </g>
        <g id="Group_1660" data-name="Group 1660" class="cls-1">
          <path id="Path_3006" data-name="Path 3006" class="cls-3" d="M36.484,18.9a.675.675,0,0,1-.184.552c.184-.368.184-.368.184-.552" transform="translate(30.446 15.852)"/>
        </g>
        <g id="Group_1661" data-name="Group 1661" class="cls-1">
          <path id="Path_3007" data-name="Path 3007" class="cls-4" d="M68.99,28.8l-6.068.184v1.655l-1.287,1.655a2.27,2.27,0,0,0-.735,1.471v2.206a1.648,1.648,0,0,0,1.655,1.655h-.184V39.1a.869.869,0,0,0,.919.919c2.023,0,2.942.184,3.861-.735,2.574-2.39,1.839-1.287,1.839-10.481" transform="translate(51.079 24.156)"/>
        </g>
        <g id="Group_1662" data-name="Group 1662" class="cls-1">
          <path id="Path_3008" data-name="Path 3008" class="cls-6" d="M16.27,52.535l-6.8-.735a29.09,29.09,0,0,1-2.758,4.229c-1.839,2.39-4.6,5.148-3.494,6.987.919,1.655,4.045,1.471,6.8-.184,1.1-.735,5.332-3.31,5.516-5.148Z" transform="translate(2.485 43.447)"/>
        </g>
        <g id="Group_1663" data-name="Group 1663" class="cls-1">
          <path id="Path_3009" data-name="Path 3009" class="cls-6" d="M16.532,52.168,15.613,57.5A1.3,1.3,0,0,0,16.9,58.971l12.136.736a12.511,12.511,0,0,0,3.677-.368c.919-.184,1.655-1.655.919-2.206S20.945,51.8,20.945,51.8Z" transform="translate(13.071 43.447)"/>
        </g>
        <g id="Group_1664" data-name="Group 1664" class="cls-1">
          <path id="Path_3010" data-name="Path 3010" class="cls-7" d="M20.552,37.229h.735L16.874,71.246a2.9,2.9,0,0,0,2.942,3.31h1.471A3.031,3.031,0,0,0,24.413,71.8L30.3,27.3l-16,4.045" transform="translate(11.994 22.898)"/>
        </g>
        <g id="Group_1665" data-name="Group 1665" class="cls-1">
          <path id="Path_3011" data-name="Path 3011" class="cls-8" d="M31.507,20.461,35,26.713v.368c-1.287,5.516-5.7,9.561-11.216,9.561-5.148,0-9.561-3.861-11.032-9.194a11.856,11.856,0,0,1-.552-3.677C12.2,16.6,17.348,10.9,23.784,10.9a11.238,11.238,0,0,1,8.826,4.413,4.1,4.1,0,0,0-1.655,3.126,3.707,3.707,0,0,0,.552,2.023" transform="translate(10.233 9.142)"/>
        </g>
        <g id="Group_1666" data-name="Group 1666" class="cls-1">
          <path id="Path_3012" data-name="Path 3012" class="cls-9" d="M33.607,21.505,30.114,39.341l-15.445.184s.735-12.136-.735-17.652,20.226-5.884,19.675-.368" transform="translate(11.626 14.718)"/>
        </g>
        <g id="Group_1667" data-name="Group 1667" class="cls-1">
          <path id="Path_3013" data-name="Path 3013" class="cls-9" d="M40.423,18.523a5.369,5.369,0,0,0-.368-1.655,3.642,3.642,0,0,0-2.023-2.023l-8.458-3.31a8.528,8.528,0,0,0-3.861-.735,9.6,9.6,0,0,0-3.861.735L12.29,15.213a3.642,3.642,0,0,0-2.023,2.023A8.092,8.092,0,0,0,9.9,19.074a3.884,3.884,0,0,0,3.861,3.861h.552v1.1c0,7.171,5.148,12.871,11.584,12.871s11.584-5.7,11.584-12.871V22.568a4.246,4.246,0,0,0,2.942-4.045" transform="translate(8.304 9.058)"/>
        </g>
        <g id="Group_1668" data-name="Group 1668" class="cls-1">
          <path id="Path_3014" data-name="Path 3014" class="cls-10" d="M21.387,35.72l14.894-22.8L33.523,12,8.7,35.536" transform="translate(7.297 10.065)"/>
        </g>
        <g id="Group_1672" data-name="Group 1672" class="cls-1">
          <g id="Group_1671" data-name="Group 1671" class="cls-11" transform="translate(56.265 29.42)">
            <g id="Group_1669" data-name="Group 1669" class="cls-11">
              <path id="Path_3015" data-name="Path 3015" class="cls-12" d="M39.794,16.775a2.553,2.553,0,0,1,.919,1.839,3.088,3.088,0,0,0-3.31-.368l-1.287.552a6.842,6.842,0,0,0-3.494,3.677l-.735,2.758L30.6,23.578l1.1-2.942A6.252,6.252,0,0,1,35.2,16.959l1.287-.552a2.532,2.532,0,0,1,3.31.368" transform="translate(-30.6 -16.039)"/>
            </g>
            <g id="Group_1670" data-name="Group 1670" class="cls-11">
              <path id="Path_3016" data-name="Path 3016" class="cls-13" d="M37,17.346a3.088,3.088,0,0,1,3.31.368,3.585,3.585,0,0,1-.184,1.471A8.681,8.681,0,0,1,35.9,24.15l-3.126,1.839L31.3,24.15l.919-2.574A6.252,6.252,0,0,1,35.713,17.9Z" transform="translate(-30.013 -15.14)"/>
            </g>
          </g>
        </g>
        <g id="Group_1676" data-name="Group 1676" class="cls-1">
          <g id="Group_1675" data-name="Group 1675" class="cls-14" transform="translate(12.136 24.271)">
            <g id="Group_1673" data-name="Group 1673" class="cls-14">
              <path id="Path_3017" data-name="Path 3017" class="cls-15" d="M19.452,16.306a6.533,6.533,0,0,1-.368,1.839L13.568,28.626,11.729,32.12a3.418,3.418,0,0,1-2.758,1.655H8.419c-.368,0-.552-.184-.735-.184A2.726,2.726,0,0,1,7.5,32.3a3.129,3.129,0,0,1,.184-1.287L13.752,16.49a3.857,3.857,0,0,1,3.494-2.39,5.44,5.44,0,0,1,1.839.368,3.024,3.024,0,0,1,.368,1.839" transform="translate(-5.845 -12.445)"/>
            </g>
            <g id="Group_1674" data-name="Group 1674" class="cls-14">
              <path id="Path_3018" data-name="Path 3018" class="cls-16" d="M16.529,13.2a3.791,3.791,0,0,1,3.31,2.023A3.024,3.024,0,0,0,18,14.855a3.6,3.6,0,0,0-3.494,2.39L8.439,31.771a2.726,2.726,0,0,0-.184,1.287,3.129,3.129,0,0,0,.184,1.287A3.275,3.275,0,0,1,6.6,31.4a3.129,3.129,0,0,1,.184-1.287L12.852,15.59a4.022,4.022,0,0,1,3.677-2.39" transform="translate(-6.6 -13.2)"/>
            </g>
          </g>
        </g>
        <g id="Group_1677" data-name="Group 1677" class="cls-1">
          <path id="Path_3019" data-name="Path 3019" class="cls-9" d="M27.257,22.687l-13.239-.919L9.973,21.4H9.237a3.137,3.137,0,0,0-2.574,2.39,1.555,1.555,0,0,0,0,1.287,3.164,3.164,0,0,0,3.126,2.574H27.441a2.466,2.466,0,0,0,2.023-2.758,2.367,2.367,0,0,0-2.206-2.206" transform="translate(5.473 17.949)"/>
        </g>
        <g id="Group_1678" data-name="Group 1678" class="cls-1">
          <path id="Path_3020" data-name="Path 3020" class="cls-7" d="M21.182,29.5,6.288,68.849a3.078,3.078,0,0,0,2.574,4.045l1.1.184a3.235,3.235,0,0,0,3.126-1.839L27.434,35.568" transform="translate(5.112 24.743)"/>
        </g>
        <g id="Group_1679" data-name="Group 1679" class="cls-1">
          <path id="Path_3021" data-name="Path 3021" class="cls-9" d="M29.745,30.416c0-1.287-3.494-2.39-7.723-2.206-4.229,0-7.723,1.1-7.723,2.39s3.494,2.39,7.723,2.206c4.229,0,7.723-1.1,7.723-2.39" transform="translate(11.994 23.643)"/>
        </g>
        <g id="Group_1680" data-name="Group 1680" class="cls-1">
          <path id="Path_3022" data-name="Path 3022" class="cls-17" d="M17.894,13.155,21.939,11.5l-.552,24.639L8.7,35.955Z" transform="translate(7.297 9.645)"/>
        </g>
        <g id="Group_1681" data-name="Group 1681" class="cls-1">
          <path id="Path_3023" data-name="Path 3023" class="cls-13" d="M16.868,22.1h8.274A1.648,1.648,0,0,1,26.8,23.755a1.986,1.986,0,0,1-.552,1.287l-1.839,2.39a3.184,3.184,0,0,1-3.126.735l-4.781-1.1Z" transform="translate(13.839 18.536)"/>
        </g>
        <g id="Group_1682" data-name="Group 1682" class="cls-1">
          <path id="Path_3024" data-name="Path 3024" class="cls-13" d="M16.6,22.771l.552-.184A11.589,11.589,0,0,1,22.668,21.3a1.257,1.257,0,0,1,1.287,1.287v.919s-6.987-.919-7.355-.735" transform="translate(13.923 17.865)"/>
        </g>
        <g id="Group_1683" data-name="Group 1683" class="cls-1">
          <path id="Path_3025" data-name="Path 3025" class="cls-13" d="M21.929,17.813,21.561,18a2.822,2.822,0,0,1-2.942,0,2.521,2.521,0,0,1-1.1-2.39L17.884,7.7h5.884V9.539a36.456,36.456,0,0,1-.552,6.436,6.6,6.6,0,0,1-1.287,1.839" transform="translate(14.662 6.458)"/>
        </g>
        <g id="Group_1688" data-name="Group 1688" class="cls-1">
          <g id="Group_1687" data-name="Group 1687" class="cls-18" transform="translate(27.765 1.103)">
            <g id="Group_1684" data-name="Group 1684" class="cls-18">
              <path id="Path_3026" data-name="Path 3026" class="cls-12" d="M23.348,1.3s2.942,2.758,2.574,5.884H24.084a5.873,5.873,0,0,0,.552,3.494l.735,1.1a.621.621,0,0,1-.552.919H23.165v2.942c0,.552-.184,1.839-1.1,1.839h-2.39c-.184,0-.184,0-.368-.184l-1.1-.552Z" transform="translate(-12.5 -0.013)"/>
            </g>
            <g id="Group_1685" data-name="Group 1685" class="cls-18">
              <path id="Path_3027" data-name="Path 3027" class="cls-13" d="M25.336,7.352c.552-3.126-2.574-5.884-2.574-5.884l.184-.368A6.344,6.344,0,0,1,24.6,2.571l.184.184c.184.184.368.552.552.735a8.871,8.871,0,0,1,.919,7.171s-1.471,5.516-1.471,5.884a1.791,1.791,0,0,1-1.839,1.471H21.29a10.761,10.761,0,0,1-2.39-.368h2.39c.919,0,1.1-1.287,1.1-1.839V12.868h1.655a.621.621,0,0,0,.552-.919l-.735-1.1a4.627,4.627,0,0,1-.552-3.494Z" transform="translate(-11.913 -0.181)"/>
            </g>
            <g id="Group_1686" data-name="Group 1686" class="cls-18">
              <path id="Path_3028" data-name="Path 3028" class="cls-12" d="M26.032,1.887,20.884,17.516a13.576,13.576,0,0,1-4.6-3.861,4.609,4.609,0,0,1-.735-1.287A7.623,7.623,0,0,1,15,9.426c0-2.574.184-5.332,2.39-7.171C19.229.6,20.7.6,22.723.6A6.63,6.63,0,0,1,26.4,1.7Z" transform="translate(-15.184 -0.6)"/>
            </g>
          </g>
        </g>
        <g id="Group_1689" data-name="Group 1689" class="cls-1">
          <path id="Path_3029" data-name="Path 3029" class="cls-13" d="M18.852,4.5h3.31L21.61,6.706H18.3Z" transform="translate(15.349 3.774)"/>
        </g>
        <g id="Group_1690" data-name="Group 1690" class="cls-1">
          <path id="Path_3030" data-name="Path 3030" class="cls-19" d="M28.507,2.974A7.54,7.54,0,0,0,22.807.4c-2.023,0-3.494,0-5.516,1.655C14.9,4.077,14.9,6.836,14.9,9.778a8.589,8.589,0,0,0,.552,3.126c.184.552.552.919.735,1.471h.552c.552,0,2.023-1.287,2.023-1.287h.919l.184-1.471A16.526,16.526,0,0,1,23.91,3.158h3.861l.184.184.184.184a2.538,2.538,0,0,1,.552.735,2.03,2.03,0,0,0-.184-1.287" transform="translate(12.497 0.335)"/>
        </g>
        <g id="Group_1691" data-name="Group 1691" class="cls-1">
          <path id="Path_3031" data-name="Path 3031" class="cls-12" d="M18.752,6.935c0-.184-.184-.368-.368-.552a2.951,2.951,0,0,0-2.942.552c-.919.919.184,4.413,3.494,4.045V6.935Z" transform="translate(12.691 5.2)"/>
        </g>
        <g id="Group_1692" data-name="Group 1692" class="cls-1">
          <path id="Path_3032" data-name="Path 3032" class="cls-13" d="M19.3,8.5h5.148L23.161,9.787Z" transform="translate(16.188 7.129)"/>
        </g>
        <g id="Group_1693" data-name="Group 1693" class="cls-1">
          <path id="Path_3033" data-name="Path 3033" class="cls-13" d="M20.1,8.752a.552.552,0,1,0-.552.552q.552-.276.552-.552" transform="translate(15.936 6.878)"/>
        </g>
        <g id="Group_1694" data-name="Group 1694" class="cls-1">
          <path id="Path_3034" data-name="Path 3034" class="cls-6" d="M67.139,57.616l-6.8-5.516H53.9v5.148a1.011,1.011,0,0,0,.552.919c5.7,2.574,13.607,7.539,13.607,1.655a2.109,2.109,0,0,0-.919-2.206" transform="translate(45.208 43.698)"/>
        </g>
        <g id="Group_1695" data-name="Group 1695" class="cls-1">
          <path id="Path_3035" data-name="Path 3035" class="cls-6" d="M45,57.616a3.085,3.085,0,0,0-1.1,2.574c.736,6.068,13.974-2.206,13.607-2.023a1.011,1.011,0,0,0,.552-.919V52.1H51.623Z" transform="translate(36.821 43.698)"/>
        </g>
        <g id="Group_1696" data-name="Group 1696" class="cls-1">
          <path id="Path_3036" data-name="Path 3036" class="cls-20" d="M52.129,35.5c-2.023,0-3.677.736-3.677,1.839h0L47.9,66.391h0c0,.919,1.655,1.839,3.861,1.839,2.023,0,3.677-.736,3.677-1.839h0l.552-29.052h0c0-.919-1.655-1.839-3.861-1.839" transform="translate(40.176 29.775)"/>
        </g>
        <g id="Group_1697" data-name="Group 1697" class="cls-1">
          <path id="Path_3037" data-name="Path 3037" class="cls-20" d="M57.377,39.1c-2.023,0-3.677.735-3.677,1.839h0V63.371h0c0,.919,1.655,1.839,3.861,1.839,2.023,0,3.677-.735,3.677-1.839h0V40.939h0c0-1.1-1.839-1.839-3.861-1.839" transform="translate(45.04 32.795)"/>
        </g>
        <g id="Group_1698" data-name="Group 1698" class="cls-1">
          <path id="Path_3038" data-name="Path 3038" class="cls-21" d="M45.706,32.665,43.5,31.378l1.655-12.871a3.837,3.837,0,0,1,2.023-2.942h0l7.539-4.045,9.01-.919c.184,0,8.274,1.655,8.458,1.655,2.942.735,4.229,1.287,5.148,2.942a9.256,9.256,0,0,0-2.942-.919c-.184,0-8.274-1.655-8.458-1.655l-9.01.919-7.539,4.045h0a3.837,3.837,0,0,0-2.023,2.942Z" transform="translate(36.485 8.891)"/>
        </g>
        <g id="Group_1699" data-name="Group 1699" class="cls-1">
          <path id="Path_3039" data-name="Path 3039" class="cls-21" d="M64.494,36.365H62.839C62.287,25.332,62.471,21.655,61,20c3.31.735,2.942,5.332,3.494,16.365" transform="translate(51.163 16.775)"/>
        </g>
        <g id="Group_1700" data-name="Group 1700" class="cls-1">
          <path id="Path_3040" data-name="Path 3040" class="cls-22" d="M86.472,29.168c0-.552.368.735-4.781-12.871a17.088,17.088,0,0,0-.919-1.839c-1.1-.552-2.39-.919-11.4-2.758l-9.01.919-7.539,4.045h0A3.837,3.837,0,0,0,50.8,19.607L49.145,31.742l-2.206-1.287v.184l-4.781-3.126c-.184.368-2.574,2.942-2.758,3.126,11.216,8.458,10.665,8.09,11.216,8.274a3.434,3.434,0,0,0,2.023-2.206l1.287-6.068c3.861,7.723,2.942,5.516,4.965,9.929-4.781,28.317-6.252,35.12-6.068,37.694a16.013,16.013,0,0,0,6.619,2.574l2.574-12.5V81.388C72.13,82.675,81.691,78.63,80.4,73.665,72.5,35.971,73.417,37.075,73.417,37.075l5.7-10.113c3.31.735,2.942,5.332,3.494,16.365l4.413-.184Z" transform="translate(33.046 9.813)"/>
        </g>
        <g id="Group_1701" data-name="Group 1701" class="cls-1">
          <path id="Path_3041" data-name="Path 3041" class="cls-21" d="M51.839,25.5l1.655,3.494c-4.781,28.317-6.252,35.12-6.068,37.694-.184-.184-.552-.368-.735-.552-2.023-2.39-1.655-.735,5.148-40.636" transform="translate(38.259 21.388)"/>
        </g>
        <g id="Group_1702" data-name="Group 1702" class="cls-1">
          <path id="Path_3042" data-name="Path 3042" class="cls-22" d="M50.284,29.907a1.394,1.394,0,0,0,.736.368,2.332,2.332,0,0,1-1.1.184,3.106,3.106,0,0,1-1.839-.552L38.7,23.287,39.8,22h0Z" transform="translate(32.459 18.452)"/>
        </g>
        <g id="Group_1703" data-name="Group 1703" class="cls-1">
          <path id="Path_3043" data-name="Path 3043" class="cls-21" d="M60.325,11.285a10.21,10.21,0,0,1-.552,8.642L53.889,30.96,52.6,29.305c-2.942-4.229-3.494-12.32-1.287-17.1l.184-.184C55.36,10,54.993,10.182,59.406,11.1Z" transform="translate(41.909 8.757)"/>
        </g>
        <g id="Group_1704" data-name="Group 1704" class="cls-1">
          <path id="Path_3044" data-name="Path 3044" class="cls-20" d="M59.173,10.985a10.21,10.21,0,0,1-.552,8.642l-5.148,9.745L51.45,26.431a14.638,14.638,0,0,1-1.1-14.526l.184-.184c3.861-2.023,3.494-1.839,7.907-.919Z" transform="translate(41.038 8.505)"/>
        </g>
        <g id="Group_1705" data-name="Group 1705" class="cls-1">
          <path id="Path_3045" data-name="Path 3045" class="cls-23" d="M57.5,18.665V14.252a.488.488,0,0,1,.552-.552h0a.488.488,0,0,1,.552.552v4.413Z" transform="translate(48.227 11.491)"/>
        </g>
        <g id="Group_1706" data-name="Group 1706" class="cls-1">
          <path id="Path_3046" data-name="Path 3046" class="cls-10" d="M61.832,17.771h-4.6a.735.735,0,1,1,0-1.471h4.6a.791.791,0,0,1,.735.735.674.674,0,0,1-.735.735" transform="translate(47.389 13.671)"/>
        </g>
        <g id="Group_1707" data-name="Group 1707" class="cls-1">
          <path id="Path_3047" data-name="Path 3047" class="cls-23" d="M58.468,18.41a.4.4,0,0,1-.368-.368V15.468a.368.368,0,1,1,.735,0v2.574a.4.4,0,0,1-.368.368" transform="translate(48.731 12.665)"/>
        </g>
        <g id="Group_1708" data-name="Group 1708" class="cls-1">
          <path id="Path_3048" data-name="Path 3048" class="cls-8" d="M31.507,20.461,35,26.713v.368c-1.287,5.516-5.7,9.561-11.216,9.561-5.148,0-9.561-3.861-11.032-9.194a11.856,11.856,0,0,1-.552-3.677C12.2,16.6,17.348,10.9,23.784,10.9a11.238,11.238,0,0,1,8.826,4.413,4.1,4.1,0,0,0-1.655,3.126,3.707,3.707,0,0,0,.552,2.023" transform="translate(10.233 9.142)"/>
        </g>
        <g id="Group_1709" data-name="Group 1709" class="cls-1">
          <path id="Path_3049" data-name="Path 3049" class="cls-9" d="M38.024,14.967C24.05,9.45,27.359,9.45,12.282,15.334c-4.045,1.655-2.574,7.907,1.839,7.355-.552,7.171,4.413,13.974,11.4,13.974s12.32-6.8,11.4-14.342a3.829,3.829,0,0,0,1.1-7.355" transform="translate(8.312 9.121)"/>
        </g>
        <g id="Group_1710" data-name="Group 1710" class="cls-1">
          <path id="Path_3050" data-name="Path 3050" class="cls-9" d="M22.023,28.2c-4.229,0-7.723,1.1-7.723,2.39s3.494,2.39,7.723,2.206c4.229,0,7.723-1.1,7.723-2.39" transform="translate(11.994 23.652)"/>
        </g>
        <g id="Group_1711" data-name="Group 1711" class="cls-1">
          <path id="Path_3051" data-name="Path 3051" class="cls-13" d="M21.929,17.813,21.561,18a2.822,2.822,0,0,1-2.942,0,2.521,2.521,0,0,1-1.1-2.39L17.884,7.7h5.884V9.539a36.456,36.456,0,0,1-.552,6.436,6.6,6.6,0,0,1-1.287,1.839" transform="translate(14.662 6.458)"/>
        </g>
        <g id="Group_1716" data-name="Group 1716" class="cls-1">
          <g id="Group_1715" data-name="Group 1715" class="cls-18" transform="translate(27.765 1.103)">
            <g id="Group_1712" data-name="Group 1712" class="cls-18">
              <path id="Path_3052" data-name="Path 3052" class="cls-12" d="M23.348,1.3s2.942,2.758,2.574,5.884H24.084a5.873,5.873,0,0,0,.552,3.494l.735,1.1a.621.621,0,0,1-.552.919H23.165v2.942c0,.552-.184,1.839-1.1,1.839h-2.39c-.184,0-.184,0-.368-.184l-1.1-.552Z" transform="translate(-12.5 -0.013)"/>
            </g>
            <g id="Group_1713" data-name="Group 1713" class="cls-18">
              <path id="Path_3053" data-name="Path 3053" class="cls-13" d="M24.884,2.939c.184.184.368.552.552.735a8.871,8.871,0,0,1,.919,7.171s-1.471,5.516-1.471,5.884A1.791,1.791,0,0,1,23.045,18.2H21.39A10.762,10.762,0,0,1,19,17.833h2.39c.919,0,1.1-1.287,1.1-1.839V12.868h1.655a.621.621,0,0,0,.552-.919l-.735-1.1a4.627,4.627,0,0,1-.552-3.494h1.839c.552-3.126-2.574-5.884-2.574-5.884l.184-.368a6.344,6.344,0,0,1,1.655,1.471c.184.184.368.184.368.368" transform="translate(-11.829 -0.181)"/>
            </g>
            <g id="Group_1714" data-name="Group 1714" class="cls-18">
              <path id="Path_3054" data-name="Path 3054" class="cls-12" d="M26.032,1.887,20.884,17.516a13.576,13.576,0,0,1-4.6-3.861,4.609,4.609,0,0,1-.735-1.287A7.623,7.623,0,0,1,15,9.426c0-2.574.184-5.332,2.39-7.171C19.229.6,20.7.6,22.723.6A6.63,6.63,0,0,1,26.4,1.7Z" transform="translate(-15.184 -0.6)"/>
            </g>
          </g>
        </g>
        <g id="Group_1717" data-name="Group 1717" class="cls-1">
          <path id="Path_3055" data-name="Path 3055" class="cls-13" d="M18.852,4.5h3.31L21.61,6.706H18.3Z" transform="translate(15.349 3.774)"/>
        </g>
        <g id="Group_1718" data-name="Group 1718" class="cls-1">
          <path id="Path_3056" data-name="Path 3056" class="cls-19" d="M28.507,2.974A7.54,7.54,0,0,0,22.807.4c-2.023,0-3.494,0-5.516,1.655C14.9,4.077,14.9,6.836,14.9,9.778a8.589,8.589,0,0,0,.552,3.126c.184.552.552.919.735,1.471h.552c.552,0,2.023-1.287,2.023-1.287h.919l.184-1.471A16.526,16.526,0,0,1,23.91,3.158h3.861l.184.184.184.184a2.538,2.538,0,0,1,.552.735,2.03,2.03,0,0,0-.184-1.287" transform="translate(12.497 0.335)"/>
        </g>
        <g id="Group_1719" data-name="Group 1719" class="cls-1">
          <path id="Path_3057" data-name="Path 3057" class="cls-12" d="M18.752,6.935c0-.184-.184-.368-.368-.552a2.951,2.951,0,0,0-2.942.552c-.919.919.184,4.413,3.494,4.045V6.935Z" transform="translate(12.691 5.2)"/>
        </g>
        <g id="Group_1720" data-name="Group 1720" class="cls-1">
          <path id="Path_3058" data-name="Path 3058" class="cls-13" d="M19.3,8.5h5.148L23.161,9.787Z" transform="translate(16.188 7.129)"/>
        </g>
        <g id="Group_1721" data-name="Group 1721" class="cls-1">
          <path id="Path_3059" data-name="Path 3059" class="cls-13" d="M20.1,8.752a.552.552,0,1,0-.552.552q.552-.276.552-.552" transform="translate(15.936 6.878)"/>
        </g>
        <g id="Group_1722" data-name="Group 1722" class="cls-1">
          <path id="Path_3060" data-name="Path 3060" class="cls-24" d="M42.226,12.319,41.49,27.949l-7.723-.368-.368-.919L34.135,11.4l7.539.368Z" transform="translate(28.014 9.562)"/>
        </g>
        <g id="Group_1723" data-name="Group 1723" class="cls-1">
          <path id="Path_3061" data-name="Path 3061" class="cls-25" d="M37.835,11.9h1.287l-.552,15.629H37.1Z" transform="translate(31.117 9.981)"/>
        </g>
        <g id="Group_1724" data-name="Group 1724" class="cls-26" transform="translate(33.477 94.18) rotate(-87.275)">
          <rect id="Rectangle_1070" data-name="Rectangle 1070" class="cls-27" width="15.629" height="4.965" transform="translate(58.288 27.029)"/>
        </g>
        <g id="Group_1725" data-name="Group 1725" class="cls-26" transform="translate(30.618 90.86) rotate(-87.306)">
          <rect id="Rectangle_1072" data-name="Rectangle 1072" class="cls-25" width="15.629" height="1.471" transform="translate(55.162 28.684)"/>
        </g>
        <g id="Group_1726" data-name="Group 1726" class="cls-1">
          <path id="Path_3062" data-name="Path 3062" class="cls-28" d="M33.9,17.258a3.313,3.313,0,0,0,3.494,3.126h.184a6.61,6.61,0,0,0,2.023-.368c.184-.184.368-.184.552-.368a2.541,2.541,0,0,0,1.1-2.023,2.361,2.361,0,0,0-.735-1.839A3.594,3.594,0,0,0,37.761,14.5c-2.023,0-3.677,1.1-3.861,2.758" transform="translate(28.433 12.162)"/>
        </g>
        <g id="Group_1727" data-name="Group 1727" class="cls-1">
          <path id="Path_3063" data-name="Path 3063" class="cls-29" d="M40.368,15.535l-.552.368v-.368c0-.368-.552-.735-1.287-.735h-.552l-.552.368H35.771A1.954,1.954,0,0,0,34.3,16.823a2.331,2.331,0,0,0,.736,1.655h0l1.839,1.287c.184,0,.184.184.368.184a6.61,6.61,0,0,0,2.023-.368c.184-.184.368-.184.552-.368a2.541,2.541,0,0,0,1.1-2.023,2.966,2.966,0,0,0-.552-1.655" transform="translate(28.769 12.413)"/>
        </g>
        <g id="Group_1728" data-name="Group 1728" class="cls-1">
          <path id="Path_3064" data-name="Path 3064" class="cls-30" d="M36.371,18.2a1.382,1.382,0,1,0,1.287,1.471A1.421,1.421,0,0,0,36.371,18.2" transform="translate(29.272 15.265)"/>
        </g>
        <g id="Group_1729" data-name="Group 1729" class="cls-1">
          <path id="Path_3065" data-name="Path 3065" class="cls-30" d="M36.535,15.242h0a.791.791,0,0,1-.735-.735V12.852c0-.368.368-.552.735-.552h0c.368,0,.552.368.552.735V14.69a.587.587,0,0,1-.552.552" transform="translate(30.027 10.316)"/>
        </g>
        <g id="Group_1730" data-name="Group 1730" class="cls-1">
          <path id="Path_3066" data-name="Path 3066" class="cls-31" d="M40.1,15.952l-.735-.184a.69.69,0,0,1,0,1.1l-.184.368-.368-.368c-.368-.735-1.471-.552-1.471-.552v-.735a.18.18,0,0,0-.184-.184h0l-1.1.919V15.4c-.919.184-1.655.552-1.655,1.471a.675.675,0,0,0,.184.552c.184.368.368.552.735.552h1.287v.184a.4.4,0,0,0,.368.368h.368a.4.4,0,0,0,.368-.368v-.184h.368c.368,0,.919,0,1.1-.184A1.817,1.817,0,0,0,40.468,16.5c0-.368-.184-.552-.368-.552" transform="translate(28.853 12.917)"/>
        </g>
        <g id="Group_1731" data-name="Group 1731" class="cls-1">
          <path id="Path_3067" data-name="Path 3067" class="cls-24" d="M42.226,12.319,41.49,27.949l-7.723-.368-.368-.919L34.135,11.4l7.539.368Z" transform="translate(28.014 9.562)"/>
        </g>
        <g id="Group_1732" data-name="Group 1732" class="cls-1">
          <path id="Path_3068" data-name="Path 3068" class="cls-25" d="M37.835,11.9h1.287l-.552,15.629H37.1Z" transform="translate(31.117 9.981)"/>
        </g>
        <g id="Group_1733" data-name="Group 1733" class="cls-26" transform="translate(33.477 94.18) rotate(-87.275)">
          <rect id="Rectangle_1081" data-name="Rectangle 1081" class="cls-27" width="15.629" height="4.965" transform="translate(58.288 27.029)"/>
        </g>
        <g id="Group_1734" data-name="Group 1734" class="cls-26" transform="translate(30.618 90.86) rotate(-87.306)">
          <rect id="Rectangle_1083" data-name="Rectangle 1083" class="cls-25" width="15.629" height="1.471" transform="translate(55.162 28.684)"/>
        </g>
        <g id="Group_1735" data-name="Group 1735" class="cls-1">
          <path id="Path_3069" data-name="Path 3069" class="cls-28" d="M33.9,17.258a3.313,3.313,0,0,0,3.494,3.126h.184a6.61,6.61,0,0,0,2.023-.368c.184-.184.368-.184.552-.368a2.541,2.541,0,0,0,1.1-2.023,2.361,2.361,0,0,0-.735-1.839A3.594,3.594,0,0,0,37.761,14.5c-2.023,0-3.677,1.1-3.861,2.758" transform="translate(28.433 12.162)"/>
        </g>
        <g id="Group_1736" data-name="Group 1736" class="cls-1">
          <path id="Path_3070" data-name="Path 3070" class="cls-29" d="M40.368,15.535l-.552.368v-.368c0-.368-.552-.735-1.287-.735h-.552l-.552.368H35.771A1.954,1.954,0,0,0,34.3,16.823a2.331,2.331,0,0,0,.736,1.655h0l1.839,1.287c.184,0,.184.184.368.184a6.61,6.61,0,0,0,2.023-.368c.184-.184.368-.184.552-.368a2.541,2.541,0,0,0,1.1-2.023,2.966,2.966,0,0,0-.552-1.655" transform="translate(28.769 12.413)"/>
        </g>
        <g id="Group_1737" data-name="Group 1737" class="cls-1">
          <path id="Path_3071" data-name="Path 3071" class="cls-30" d="M36.371,18.2a1.382,1.382,0,1,0,1.287,1.471A1.421,1.421,0,0,0,36.371,18.2" transform="translate(29.272 15.265)"/>
        </g>
        <g id="Group_1738" data-name="Group 1738" class="cls-1">
          <path id="Path_3072" data-name="Path 3072" class="cls-30" d="M36.535,15.242h0a.791.791,0,0,1-.735-.735V12.852c0-.368.368-.552.735-.552h0c.368,0,.552.368.552.735V14.69a.587.587,0,0,1-.552.552" transform="translate(30.027 10.316)"/>
        </g>
        <g id="Group_1739" data-name="Group 1739" class="cls-1">
          <path id="Path_3073" data-name="Path 3073" class="cls-31" d="M40.1,15.952l-.735-.184a.69.69,0,0,1,0,1.1l-.184.368-.368-.368c-.368-.735-1.471-.552-1.471-.552v-.735a.18.18,0,0,0-.184-.184h0l-1.1.919V15.4c-.919.184-1.655.552-1.655,1.471a.675.675,0,0,0,.184.552c.184.368.368.552.735.552h1.287v.184a.4.4,0,0,0,.368.368h.368a.4.4,0,0,0,.368-.368v-.184h.368c.368,0,.919,0,1.1-.184A1.817,1.817,0,0,0,40.468,16.5c0-.368-.184-.552-.368-.552" transform="translate(28.853 12.917)"/>
        </g>
        <g id="Group_1740" data-name="Group 1740" class="cls-1">
          <path id="Path_3074" data-name="Path 3074" class="cls-7" d="M21.182,29.5,6.288,68.849a3.078,3.078,0,0,0,2.574,4.045c.735,0,3.31.552,4.229-1.839L27.434,35.384" transform="translate(5.112 24.743)"/>
        </g>
        <g id="Group_1741" data-name="Group 1741" class="cls-1">
          <path id="Path_3075" data-name="Path 3075" class="cls-12" d="M36.129,17.614l-2.574,2.574L31.9,18.533l2.574-2.574a1.16,1.16,0,0,1,1.655,0,1.372,1.372,0,0,1,0,1.655" transform="translate(26.756 13.093)"/>
        </g>
        <g id="Group_1742" data-name="Group 1742" class="cls-1">
          <path id="Path_3076" data-name="Path 3076" class="cls-9" d="M26.161,19.213a3.771,3.771,0,0,0,3.861-3.861V14.8L32.6,31.716a3.21,3.21,0,0,0-3.31-2.758,3.3,3.3,0,0,0-3.31,3.31V33L22.3,16.271a4.14,4.14,0,0,0,3.861,2.942" transform="translate(18.704 12.413)"/>
        </g>
        <g id="Group_1747" data-name="Group 1747" class="cls-1">
          <g id="Group_1746" data-name="Group 1746" class="cls-32" transform="translate(44.681 36.591)">
            <g id="Group_1743" data-name="Group 1743" class="cls-32">
              <path id="Path_3077" data-name="Path 3077" class="cls-9" d="M34.313,21.923v.368a2.263,2.263,0,0,1-.919,1.839,1.751,1.751,0,0,1-1.287.368A2.184,2.184,0,0,1,29.9,22.658v-.552a2.261,2.261,0,0,1,1.287-2.023,2,2,0,0,1,.919-.184,2.35,2.35,0,0,1,2.206,2.023" transform="translate(-19.603 -19.9)"/>
            </g>
            <g id="Group_1744" data-name="Group 1744" class="cls-32">
              <path id="Path_3078" data-name="Path 3078" class="cls-9" d="M37.336,23.961,28.694,30.4a3.217,3.217,0,0,0,1.287-2.574v-.552a3.21,3.21,0,0,0-3.31-2.758,4.327,4.327,0,0,0-1.471.368L34.761,20.1a2.261,2.261,0,0,0-1.287,2.023v.552a2.184,2.184,0,0,0,2.206,1.839,5.557,5.557,0,0,0,1.655-.552" transform="translate(-23.545 -19.732)"/>
            </g>
            <g id="Group_1745" data-name="Group 1745" class="cls-32">
              <path id="Path_3079" data-name="Path 3079" class="cls-9" d="M30.836,25.266v.552a3.217,3.217,0,0,1-1.287,2.574,3.856,3.856,0,0,1-2.023.735A3.025,3.025,0,0,1,24.4,26.553v-.735a3.275,3.275,0,0,1,1.839-2.942,3.464,3.464,0,0,1,1.471-.368c1.471-.184,2.758,1.1,3.126,2.758" transform="translate(-24.216 -17.727)"/>
            </g>
          </g>
        </g>
        <g id="Group_1748" data-name="Group 1748" class="cls-1">
          <path id="Path_3080" data-name="Path 3080" class="cls-9" d="M29.939,16.234v.552A3.821,3.821,0,0,1,22.4,17.7v-.735a3.771,3.771,0,0,1,3.861-3.861,3.437,3.437,0,0,1,3.677,3.126" transform="translate(18.788 10.98)"/>
        </g>
        <g id="Group_1749" data-name="Group 1749" class="cls-1">
          <path id="Path_3081" data-name="Path 3081" class="cls-10" d="M21.387,35.72l14.894-22.8L33.523,12,8.7,35.536" transform="translate(7.297 10.065)"/>
        </g>
        <g id="Group_1752" data-name="Group 1752" class="cls-1">
          <g id="Group_1751" data-name="Group 1751" class="cls-14" transform="translate(12.136 24.271)">
            <g id="Group_1750" data-name="Group 1750" class="cls-14">
              <path id="Path_3082" data-name="Path 3082" class="cls-9" d="M20.207,17.061a6.533,6.533,0,0,1-.368,1.839L14.323,29.381l-1.839,3.494a3.418,3.418,0,0,1-2.758,1.655H9.174A3.025,3.025,0,0,1,6.6,31.4a3.129,3.129,0,0,1,.184-1.287L12.852,15.59a3.857,3.857,0,0,1,3.494-2.39,3.771,3.771,0,0,1,3.861,3.861" transform="translate(-6.6 -13.2)"/>
            </g>
          </g>
        </g>
        <g id="Group_1753" data-name="Group 1753" class="cls-1">
          <path id="Path_3083" data-name="Path 3083" class="cls-9" d="M27.243,22.725C8.488,21.254,9.775,21.254,9.223,21.438a3.145,3.145,0,0,0,.552,6.252H27.059c3.126-.184,3.31-4.781.184-4.965" transform="translate(5.487 17.911)"/>
        </g>
        <g id="Group_1754" data-name="Group 1754" class="cls-1">
          <path id="Path_3084" data-name="Path 3084" class="cls-17" d="M17.894,12.971,21.939,11.5l-.552,24.639L8.7,35.955Z" transform="translate(7.297 9.645)"/>
        </g>
        <g id="Group_1755" data-name="Group 1755" class="cls-1">
          <path id="Path_3085" data-name="Path 3085" class="cls-13" d="M16.868,22.1h8.274A1.648,1.648,0,0,1,26.8,23.755a1.986,1.986,0,0,1-.552,1.287l-1.839,2.39a3.184,3.184,0,0,1-3.126.735l-4.781-1.1Z" transform="translate(13.839 18.536)"/>
        </g>
        <g id="Group_1756" data-name="Group 1756" class="cls-1">
          <path id="Path_3086" data-name="Path 3086" class="cls-13" d="M16.6,22.771l.552-.184A11.589,11.589,0,0,1,22.668,21.3a1.257,1.257,0,0,1,1.287,1.287v.919s-6.987-.919-7.355-.735" transform="translate(13.923 17.865)"/>
        </g>
        <g id="Group_1757" data-name="Group 1757" class="cls-1">
          <path id="Path_3087" data-name="Path 3087" class="cls-33" d="M52.258,16.126,54.281,13H51.155c-.735.919-1.655,1.839-.184,3.677L49.5,21.642c.735,1.839,1.471,2.574,3.494,5.516l1.839-3.126a35.947,35.947,0,0,1-2.574-7.907" transform="translate(41.518 10.904)"/>
        </g>
        <g id="Group_1758" data-name="Group 1758" class="cls-1">
          <path id="Path_3088" data-name="Path 3088" class="cls-34" d="M48.451,25.158S46.8,11,56.174,11c7.171,0,6.8,5.516,6.8,5.516v10.3s-2.574.735-2.758,2.758,1.655,6.619,1.655,6.619h-1.1" transform="translate(40.544 9.226)"/>
        </g>
        <g id="Group_1759" data-name="Group 1759" class="cls-1">
          <path id="Path_3089" data-name="Path 3089" class="cls-35" d="M59.77,29.078h-1.1s1.655-4.6,1.655-6.619c-.184-2.023-2.758-2.758-2.758-2.758s-2.574.735-2.758,2.758,1.655,6.619,1.655,6.619h-1.1" transform="translate(45.957 16.523)"/>
        </g>
        <g id="Group_1760" data-name="Group 1760" class="cls-1">
          <path id="Path_3090" data-name="Path 3090" class="cls-36" d="M51.6,20.858a2.651,2.651,0,0,0-2.39-2.758C47.919,18.1,47,19.2,47,20.858a2.651,2.651,0,0,0,2.39,2.758A2.514,2.514,0,0,0,51.6,20.858" transform="translate(39.421 15.181)"/>
        </g>
        <g id="Group_1761" data-name="Group 1761" class="cls-1">
          <path id="Path_3091" data-name="Path 3091" class="cls-37" d="M50.377,20.606a1.869,1.869,0,1,0-3.677,0,2.059,2.059,0,0,0,1.839,2.206,2.184,2.184,0,0,0,1.839-2.206" transform="translate(39.169 15.433)"/>
        </g>
        <g id="Group_1762" data-name="Group 1762" class="cls-1">
          <path id="Path_3092" data-name="Path 3092" class="cls-38" d="M49.977,20.606a1.869,1.869,0,1,0-3.677,0,2.059,2.059,0,0,0,1.839,2.206,2.365,2.365,0,0,0,1.839-2.206" transform="translate(38.834 15.433)"/>
        </g>
        <g id="Group_1763" data-name="Group 1763" class="cls-1">
          <path id="Path_3093" data-name="Path 3093" class="cls-39" d="M57.3,10.258V7.5c-1.839,0-7.355,0-6.987,6.252v1.1c-.184,7.907,6.068,2.942,6.987,1.287V10.258" transform="translate(42.181 6.291)"/>
        </g>
        <g id="Group_1768" data-name="Group 1768" class="cls-1">
          <g id="Group_1767" data-name="Group 1767" class="cls-40" transform="translate(88.443 0.368)">
            <g id="Group_1764" data-name="Group 1764" class="cls-40">
              <path id="Path_3094" data-name="Path 3094" class="cls-41" d="M51.071,8.568c1.655-2.39.552-3.31,1.471-6.068h1.287A20.021,20.021,0,0,0,55.3,9.119a10.074,10.074,0,0,0,2.574,3.494l.184.184h0c-2.574,2.574-4.6,3.31-6.068,3.494,0-1.655-.184-3.31-.184-4.781-.552,0-1.1-.184-1.839-.184-.184,0-.184,0-.368-.184v-.368c.368-.735.919-1.287,1.471-2.206" transform="translate(-46.842 1.729)"/>
            </g>
            <g id="Group_1765" data-name="Group 1765" class="cls-40">
              <path id="Path_3095" data-name="Path 3095" class="cls-4" d="M52.881,11.61c0,1.471.184,3.31.184,4.781a8.006,8.006,0,0,1-2.206,0c-1.287,0-1.839-1.839-2.758-7.355A30.079,30.079,0,0,1,49.019,2.6H53.8c-.919,2.758.368,3.494-1.471,6.068a15.337,15.337,0,0,0-1.471,2.206v.368c0,.184.184.184.368.184.552,0,1.1.184,1.655.184" transform="translate(-48.1 1.813)"/>
            </g>
            <g id="Group_1766" data-name="Group 1766" class="cls-40">
              <path id="Path_3096" data-name="Path 3096" class="cls-42" d="M58.713,14.565a9.866,9.866,0,0,1-2.574-3.494C54.668,8.5,54.668,4.451,54.668,4.451H48.6a4.108,4.108,0,0,1,1.287-2.206c11.4-7.171,17.1,6.068,9.01,12.5Z" transform="translate(-47.681 -0.222)"/>
            </g>
          </g>
        </g>
        <g id="Group_1769" data-name="Group 1769" class="cls-1">
          <path id="Path_3097" data-name="Path 3097" class="cls-39" d="M51.142,4.4c.552,0-.552,3.126-1.287,3.126S48.2,5.871,48.2,5.871c0-.368.184-.919.184-1.471Z" transform="translate(40.427 3.69)"/>
        </g>
      </g>
    </g>
  </g>
</svg>
