<svg xmlns="http://www.w3.org/2000/svg" xmlns:xlink="http://www.w3.org/1999/xlink" viewBox="-8538.999 985 475 163.313">
  <defs>
    <style>
      .cls-1, .cls-13 {
        fill: none;
      }

      .cls-2 {
        fill: #f68a22;
      }

      .cls-3 {
        fill: #fcb415;
      }

      .cls-4 {
        fill: #e25f25;
      }

      .cls-5 {
        fill: #d0ebe4;
      }

      .cls-6 {
        fill: #f6c068;
      }

      .cls-7 {
        fill: #d2ccd0;
      }

      .cls-8 {
        clip-path: url(#clip-path);
      }

      .cls-9 {
        fill: #e9e6e9;
      }

      .cls-10 {
        fill: #b0adae;
      }

      .cls-11 {
        fill: #d0c9ce;
      }

      .cls-12 {
        fill: #ada3ac;
      }

      .cls-13 {
        stroke: #f68923;
        stroke-miterlimit: 10;
        stroke-width: 2px;
      }

      .cls-14 {
        clip-path: url(#clip-path-6);
      }

      .cls-15 {
        fill: #f78e27;
      }

      .cls-16 {
        fill: #d6ebcf;
      }

      .cls-17 {
        fill: #e8e5e8;
      }

      .cls-18 {
        fill: #cfeae2;
      }

      .cls-19 {
        fill: #e05926;
      }

      .cls-20 {
        fill: #a99fa7;
      }

      .cls-21 {
        fill: #efba22;
      }

      .cls-22 {
        fill: #ffd350;
      }

      .cls-23 {
        fill: #f9a01b;
      }

      .cls-24 {
        fill: #b0a5ad;
      }

      .cls-25 {
        fill: #fff;
      }

      .cls-26 {
        fill: #d0cace;
      }

      .cls-27 {
        fill: #cfeae1;
      }

      .cls-28 {
        fill: #ffd77a;
      }

      .cls-29 {
        clip-path: url(#clip-path-7);
      }
    </style>
    <clipPath id="clip-path">
      <rect id="Rectangle_194" data-name="Rectangle 194" class="cls-1" width="51.568" height="30.416"/>
    </clipPath>
    <clipPath id="clip-path-6">
      <rect id="Rectangle_199" data-name="Rectangle 199" class="cls-1" width="107.901" height="163.181" transform="translate(0 0.132) rotate(-0.07)"/>
    </clipPath>
    <clipPath id="clip-path-7">
      <rect id="Rectangle_200" data-name="Rectangle 200" class="cls-1" width="107.901" height="163.181"/>
    </clipPath>
  </defs>
  <g id="Group_703" data-name="Group 703" transform="translate(-8538.843 985.039)">
    <path id="Path_1918" data-name="Path 1918" class="cls-2" d="M191,49.3l7.717,21.107h11.015l2.9-21.107Z" transform="translate(-65.068 -16.795)"/>
    <path id="Path_1919" data-name="Path 1919" class="cls-3" d="M222.3,49.3l-2.9,21.107h5.8L230.679,49.3Z" transform="translate(-74.735 -16.795)"/>
    <path id="Path_1920" data-name="Path 1920" class="cls-3" d="M240.841,49.3,235.3,70.407h3.628L246.579,49.3Z" transform="translate(-80.147 -16.795)"/>
    <path id="Path_1921" data-name="Path 1921" class="cls-4" d="M224.2,81.3H202.7l.792,2.177H227.04l.792-2.177Z" transform="translate(-69.051 -27.687)"/>
    <g id="Group_601" data-name="Group 601" transform="translate(125.932 132.766)">
      <g id="Group_600" data-name="Group 600">
        <path id="Path_1922" data-name="Path 1922" class="cls-2" d="M191,201.3l7.717,21.107h11.015l2.9-21.107Z" transform="translate(-191 -201.3)"/>
        <path id="Path_1923" data-name="Path 1923" class="cls-3" d="M222.3,201.3l-2.9,21.107h5.8l5.475-21.107Z" transform="translate(-200.667 -201.3)"/>
        <path id="Path_1924" data-name="Path 1924" class="cls-3" d="M240.841,201.3,235.3,222.407h3.628l7.651-21.107Z" transform="translate(-206.079 -201.3)"/>
        <path id="Path_1925" data-name="Path 1925" class="cls-4" d="M224.2,233.3H202.7l.792,2.177H227.04l.792-2.177Z" transform="translate(-194.983 -212.193)"/>
      </g>
    </g>
    <g id="Group_603" data-name="Group 603" transform="translate(125.932 99.324)">
      <g id="Group_602" data-name="Group 602">
        <path id="Path_1926" data-name="Path 1926" class="cls-2" d="M191,150.6l7.717,21.107h11.015l2.9-21.107Z" transform="translate(-191 -150.6)"/>
        <path id="Path_1927" data-name="Path 1927" class="cls-3" d="M222.3,150.6l-2.9,21.107h5.8l5.475-21.107Z" transform="translate(-200.667 -150.6)"/>
        <path id="Path_1928" data-name="Path 1928" class="cls-3" d="M240.841,150.6,235.3,171.707h3.628l7.651-21.107Z" transform="translate(-206.079 -150.6)"/>
        <path id="Path_1929" data-name="Path 1929" class="cls-4" d="M224.2,182.6H202.7l.792,2.177H227.04l.792-2.177Z" transform="translate(-194.983 -161.493)"/>
      </g>
    </g>
    <g id="Group_604" data-name="Group 604" transform="translate(125.932 65.882)">
      <g id="XMLID_3_">
        <path id="Path_1930" data-name="Path 1930" class="cls-2" d="M191,99.9l7.717,21.107h11.015l2.9-21.107Z" transform="translate(-191 -99.9)"/>
        <path id="Path_1931" data-name="Path 1931" class="cls-3" d="M222.3,99.9l-2.9,21.107h5.8L230.679,99.9Z" transform="translate(-200.667 -99.9)"/>
        <path id="Path_1932" data-name="Path 1932" class="cls-3" d="M240.841,99.9,235.3,121.007h3.628L246.579,99.9Z" transform="translate(-206.079 -99.9)"/>
        <path id="Path_1933" data-name="Path 1933" class="cls-4" d="M224.2,131.9H202.7l.792,2.177H227.04l.792-2.177Z" transform="translate(-194.983 -110.793)"/>
      </g>
    </g>
    <g id="XMLID_2_" transform="translate(120.457 28.416)">
      <g id="Group_608" data-name="Group 608">
        <g id="Group_605" data-name="Group 605" transform="translate(30.012 4.09)">
          <path id="Path_1934" data-name="Path 1934" class="cls-5" d="M228.2,70.407h4.683L238.424,49.3h-4.749Z" transform="translate(-228.2 -49.3)"/>
          <path id="Path_1935" data-name="Path 1935" class="cls-5" d="M228.2,222.407h4.683l5.541-21.107h-4.749Z" transform="translate(-228.2 -101.04)"/>
          <path id="Path_1936" data-name="Path 1936" class="cls-5" d="M228.2,171.707h4.683l5.541-21.107h-4.749Z" transform="translate(-228.2 -83.782)"/>
          <path id="Path_1937" data-name="Path 1937" class="cls-5" d="M228.2,121.007h4.683L238.424,99.9h-4.749Z" transform="translate(-228.2 -66.524)"/>
        </g>
        <g id="Group_606" data-name="Group 606" transform="translate(3.958)">
          <path id="Path_1938" data-name="Path 1938" class="cls-6" d="M190.217,47.19h40.434l1.517-4.09H188.7Z" transform="translate(-188.7 -43.1)"/>
          <path id="Path_1939" data-name="Path 1939" class="cls-6" d="M190.217,199.19h40.434l1.517-4.09H188.7Z" transform="translate(-188.7 -94.84)"/>
          <path id="Path_1940" data-name="Path 1940" class="cls-6" d="M190.217,148.49h40.434l1.517-4.09H188.7Z" transform="translate(-188.7 -77.582)"/>
          <path id="Path_1941" data-name="Path 1941" class="cls-6" d="M190.217,97.79h40.434l1.517-4.09H188.7Z" transform="translate(-188.7 -60.324)"/>
        </g>
        <g id="Group_607" data-name="Group 607" transform="translate(0 0)">
          <path id="Path_1942" data-name="Path 1942" class="cls-7" d="M228.675,47.19,221.023,68.3l-.792,2.177H196.684c-1.253-3.364-7.256-19.854-8.443-23.284l-1.517-4.09H182.7c4.221,11.543,7.19,19.656,11.081,30.408H223.2q5.442-15.039,11.081-30.408h-4.024Z" transform="translate(-182.7 -43.1)"/>
          <path id="Path_1943" data-name="Path 1943" class="cls-7" d="M228.675,199.19,221.023,220.3l-.792,2.177H196.684c-1.253-3.364-7.256-19.854-8.443-23.284l-1.517-4.09H182.7c4.221,11.543,7.19,19.656,11.081,30.408H223.2q5.442-15.039,11.081-30.408h-4.024Z" transform="translate(-182.7 -94.84)"/>
          <path id="Path_1944" data-name="Path 1944" class="cls-7" d="M228.675,148.49,221.023,169.6l-.792,2.177H196.684c-1.253-3.364-7.256-19.854-8.443-23.284l-1.517-4.09H182.7c4.221,11.543,7.19,19.656,11.081,30.408H223.2q5.442-15.039,11.081-30.408h-4.024Z" transform="translate(-182.7 -77.582)"/>
          <path id="Path_1945" data-name="Path 1945" class="cls-7" d="M228.675,97.79,221.023,118.9l-.792,2.177H196.684c-1.253-3.364-7.256-19.854-8.443-23.284l-1.517-4.09H182.7c4.221,11.543,7.19,19.656,11.081,30.408H223.2q5.442-15.039,11.081-30.408h-4.024Z" transform="translate(-182.7 -60.324)"/>
        </g>
      </g>
    </g>
    <g id="Group_609" data-name="Group 609" class="cls-8" transform="translate(377.256 20.185)">
      <g id="Juice_Cup_Full_3_" transform="translate(0 0)">
        <path id="Path_1946" data-name="Path 1946" class="cls-4" d="M2.457,15.159h-21.52l.786,2.174H5.283l.786-2.174H2.457Z" transform="translate(32.273 10.056)"/>
        <path id="Path_1947" data-name="Path 1947" class="cls-3" d="M21.906-4.512,17.191,8.463H13.562L16.957-4.512Z" transform="translate(21.167 16.752)"/>
        <path id="Path_1948" data-name="Path 1948" class="cls-5" d="M10.929-10.748C9.558-5.465,10.661-9.712,6.464,6.341h4.7C15.393-9.9,14.24-5.481,15.627-10.748Z" transform="translate(23.584 18.875)"/>
        <path id="Path_1949" data-name="Path 1949" class="cls-3" d="M6.856-4.512,3.461,8.463H-2.358L-.535-4.512Z" transform="translate(26.586 16.752)"/>
        <path id="Path_1950" data-name="Path 1950" class="cls-9" d="M-32.955-23.043c1.538,4.247,2.241,6.17,2.893,7.959a.7.7,0,0,0,.067.167H7.56c.669-1.839,2.458-6.739,2.96-8.126Z" transform="translate(37.001 23.06)"/>
        <path id="Path_1951" data-name="Path 1951" class="cls-6" d="M19.8-10.748l-1.07,4.1h4.933l1.488-4.1Z" transform="translate(19.407 18.875)"/>
        <path id="Path_1952" data-name="Path 1952" class="cls-6" d="M-28.468-10.748c.134.351,1.354,3.746,1.488,4.1H-2.032l1.07-4.1Z" transform="translate(35.474 18.875)"/>
        <path id="Path_1953" data-name="Path 1953" class="cls-2" d="M-8.655-4.512-10.477,8.463H-21.5c-.033-.1-4.682-12.875-4.715-12.976Z" transform="translate(34.706 16.752)"/>
        <path id="Path_1954" data-name="Path 1954" class="cls-7" d="M8.432-23.052C3.365-9.14,1.308-3.488-1.534,4.321h-23.56c-.05-.184-7.775-21.436-9.949-27.372H-39.09C-34.876-11.5-31.933-3.388-28.02,7.347H1.425C5.071-2.7,8.749-12.8,12.495-23.068H8.432Z" transform="translate(39.09 23.068)"/>
      </g>
    </g>
    <g id="Group_611" data-name="Group 611" transform="translate(423.276 98.241)">
      <g id="Group_610" data-name="Group 610" class="cls-8">
        <g id="Juice_Cup_Full_3_2" data-name="Juice_Cup_Full_3_" transform="translate(0 0)">
          <path id="Path_1955" data-name="Path 1955" class="cls-4" d="M2.457,15.159h-21.52l.786,2.174H5.283l.786-2.174H2.457Z" transform="translate(32.273 10.056)"/>
          <path id="Path_1956" data-name="Path 1956" class="cls-3" d="M21.906-4.512,17.191,8.463H13.562L16.957-4.512Z" transform="translate(21.167 16.752)"/>
          <path id="Path_1957" data-name="Path 1957" class="cls-5" d="M10.929-10.748C9.558-5.465,10.661-9.712,6.464,6.341h4.7C15.393-9.9,14.24-5.481,15.627-10.748Z" transform="translate(23.584 18.875)"/>
          <path id="Path_1958" data-name="Path 1958" class="cls-3" d="M6.856-4.512,3.461,8.463H-2.358L-.535-4.512Z" transform="translate(26.586 16.752)"/>
          <path id="Path_1959" data-name="Path 1959" class="cls-9" d="M-32.955-23.043c1.538,4.247,2.241,6.17,2.893,7.959a.7.7,0,0,0,.067.167H7.56c.669-1.839,2.458-6.739,2.96-8.126Z" transform="translate(37.001 23.06)"/>
          <path id="Path_1960" data-name="Path 1960" class="cls-6" d="M19.8-10.748l-1.07,4.1h4.933l1.488-4.1Z" transform="translate(19.407 18.875)"/>
          <path id="Path_1961" data-name="Path 1961" class="cls-6" d="M-28.468-10.748c.134.351,1.354,3.746,1.488,4.1H-2.032l1.07-4.1Z" transform="translate(35.474 18.875)"/>
          <path id="Path_1962" data-name="Path 1962" class="cls-2" d="M-8.655-4.512-10.477,8.463H-21.5c-.033-.1-4.682-12.875-4.715-12.976Z" transform="translate(34.706 16.752)"/>
          <path id="Path_1963" data-name="Path 1963" class="cls-7" d="M8.432-23.052C3.365-9.14,1.308-3.488-1.534,4.321h-23.56c-.05-.184-7.775-21.436-9.949-27.372H-39.09C-34.876-11.5-31.933-3.388-28.02,7.347H1.425C5.071-2.7,8.749-12.8,12.495-23.068H8.432Z" transform="translate(39.09 23.068)"/>
        </g>
      </g>
    </g>
    <g id="Group_613" data-name="Group 613" transform="translate(423.276 45.883)">
      <g id="Group_612" data-name="Group 612" class="cls-8">
        <g id="Juice_Cup_Full_3_3" data-name="Juice_Cup_Full_3_" transform="translate(0 0)">
          <path id="Path_1964" data-name="Path 1964" class="cls-4" d="M2.457,15.159h-21.52l.786,2.174H5.283l.786-2.174H2.457Z" transform="translate(32.273 10.056)"/>
          <path id="Path_1965" data-name="Path 1965" class="cls-3" d="M21.906-4.512,17.191,8.463H13.562L16.957-4.512Z" transform="translate(21.167 16.752)"/>
          <path id="Path_1966" data-name="Path 1966" class="cls-5" d="M10.929-10.748C9.558-5.465,10.661-9.712,6.464,6.341h4.7C15.393-9.9,14.24-5.481,15.627-10.748Z" transform="translate(23.584 18.875)"/>
          <path id="Path_1967" data-name="Path 1967" class="cls-3" d="M6.856-4.512,3.461,8.463H-2.358L-.535-4.512Z" transform="translate(26.586 16.752)"/>
          <path id="Path_1968" data-name="Path 1968" class="cls-9" d="M-32.955-23.043c1.538,4.247,2.241,6.17,2.893,7.959a.7.7,0,0,0,.067.167H7.56c.669-1.839,2.458-6.739,2.96-8.126Z" transform="translate(37.001 23.06)"/>
          <path id="Path_1969" data-name="Path 1969" class="cls-6" d="M19.8-10.748l-1.07,4.1h4.933l1.488-4.1Z" transform="translate(19.407 18.875)"/>
          <path id="Path_1970" data-name="Path 1970" class="cls-6" d="M-28.468-10.748c.134.351,1.354,3.746,1.488,4.1H-2.032l1.07-4.1Z" transform="translate(35.474 18.875)"/>
          <path id="Path_1971" data-name="Path 1971" class="cls-2" d="M-8.655-4.512-10.477,8.463H-21.5c-.033-.1-4.682-12.875-4.715-12.976Z" transform="translate(34.706 16.752)"/>
          <path id="Path_1972" data-name="Path 1972" class="cls-7" d="M8.432-23.052C3.365-9.14,1.308-3.488-1.534,4.321h-23.56c-.05-.184-7.775-21.436-9.949-27.372H-39.09C-34.876-11.5-31.933-3.388-28.02,7.347H1.425C5.071-2.7,8.749-12.8,12.495-23.068H8.432Z" transform="translate(39.09 23.068)"/>
        </g>
      </g>
    </g>
    <g id="Group_615" data-name="Group 615" transform="translate(377.255 72.196)">
      <g id="Group_614" data-name="Group 614" class="cls-8">
        <g id="Juice_Cup_Full_3_4" data-name="Juice_Cup_Full_3_" transform="translate(0 0)">
          <path id="Path_1973" data-name="Path 1973" class="cls-4" d="M2.457,15.159h-21.52l.786,2.174H5.283l.786-2.174H2.457Z" transform="translate(32.273 10.056)"/>
          <path id="Path_1974" data-name="Path 1974" class="cls-3" d="M21.906-4.512,17.191,8.463H13.562L16.957-4.512Z" transform="translate(21.167 16.752)"/>
          <path id="Path_1975" data-name="Path 1975" class="cls-5" d="M10.929-10.748C9.558-5.465,10.661-9.712,6.464,6.341h4.7C15.393-9.9,14.24-5.481,15.627-10.748Z" transform="translate(23.584 18.875)"/>
          <path id="Path_1976" data-name="Path 1976" class="cls-3" d="M6.856-4.512,3.461,8.463H-2.358L-.535-4.512Z" transform="translate(26.586 16.752)"/>
          <path id="Path_1977" data-name="Path 1977" class="cls-9" d="M-32.955-23.043c1.538,4.247,2.241,6.17,2.893,7.959a.7.7,0,0,0,.067.167H7.56c.669-1.839,2.458-6.739,2.96-8.126Z" transform="translate(37.001 23.06)"/>
          <path id="Path_1978" data-name="Path 1978" class="cls-6" d="M19.8-10.748l-1.07,4.1h4.933l1.488-4.1Z" transform="translate(19.407 18.875)"/>
          <path id="Path_1979" data-name="Path 1979" class="cls-6" d="M-28.468-10.748c.134.351,1.354,3.746,1.488,4.1H-2.032l1.07-4.1Z" transform="translate(35.474 18.875)"/>
          <path id="Path_1980" data-name="Path 1980" class="cls-2" d="M-8.655-4.512-10.477,8.463H-21.5c-.033-.1-4.682-12.875-4.715-12.976Z" transform="translate(34.706 16.752)"/>
          <path id="Path_1981" data-name="Path 1981" class="cls-7" d="M8.432-23.052C3.365-9.14,1.308-3.488-1.534,4.321h-23.56c-.05-.184-7.775-21.436-9.949-27.372H-39.09C-34.876-11.5-31.933-3.388-28.02,7.347H1.425C5.071-2.7,8.749-12.8,12.495-23.068H8.432Z" transform="translate(39.09 23.068)"/>
        </g>
      </g>
    </g>
    <g id="Group_617" data-name="Group 617" transform="translate(377.255 124.527)">
      <g id="Group_616" data-name="Group 616" class="cls-8">
        <g id="Juice_Cup_Full_3_5" data-name="Juice_Cup_Full_3_" transform="translate(0 0)">
          <path id="Path_1982" data-name="Path 1982" class="cls-4" d="M2.457,15.159h-21.52l.786,2.174H5.283l.786-2.174H2.457Z" transform="translate(32.273 10.056)"/>
          <path id="Path_1983" data-name="Path 1983" class="cls-3" d="M21.906-4.512,17.191,8.463H13.562L16.957-4.512Z" transform="translate(21.167 16.752)"/>
          <path id="Path_1984" data-name="Path 1984" class="cls-5" d="M10.929-10.748C9.558-5.465,10.661-9.712,6.464,6.341h4.7C15.393-9.9,14.24-5.481,15.627-10.748Z" transform="translate(23.584 18.875)"/>
          <path id="Path_1985" data-name="Path 1985" class="cls-3" d="M6.856-4.512,3.461,8.463H-2.358L-.535-4.512Z" transform="translate(26.586 16.752)"/>
          <path id="Path_1986" data-name="Path 1986" class="cls-9" d="M-32.955-23.043c1.538,4.247,2.241,6.17,2.893,7.959a.7.7,0,0,0,.067.167H7.56c.669-1.839,2.458-6.739,2.96-8.126Z" transform="translate(37.001 23.06)"/>
          <path id="Path_1987" data-name="Path 1987" class="cls-6" d="M19.8-10.748l-1.07,4.1h4.933l1.488-4.1Z" transform="translate(19.407 18.875)"/>
          <path id="Path_1988" data-name="Path 1988" class="cls-6" d="M-28.468-10.748c.134.351,1.354,3.746,1.488,4.1H-2.032l1.07-4.1Z" transform="translate(35.474 18.875)"/>
          <path id="Path_1989" data-name="Path 1989" class="cls-2" d="M-8.655-4.512-10.477,8.463H-21.5c-.033-.1-4.682-12.875-4.715-12.976Z" transform="translate(34.706 16.752)"/>
          <path id="Path_1990" data-name="Path 1990" class="cls-7" d="M8.432-23.052C3.365-9.14,1.308-3.488-1.534,4.321h-23.56c-.05-.184-7.775-21.436-9.949-27.372H-39.09C-34.876-11.5-31.933-3.388-28.02,7.347H1.425C5.071-2.7,8.749-12.8,12.495-23.068H8.432Z" transform="translate(39.09 23.068)"/>
        </g>
      </g>
    </g>
    <g id="Group_619" data-name="Group 619" transform="translate(181.207 132.766)">
      <g id="Group_618" data-name="Group 618">
        <path id="Path_1991" data-name="Path 1991" class="cls-10" d="M274.8,201.3l7.651,21.107h11.015l2.968-21.107Z" transform="translate(-274.8 -201.3)"/>
        <path id="Path_1992" data-name="Path 1992" class="cls-11" d="M306.068,201.3,303.1,222.407h5.8l5.541-21.107Z" transform="translate(-284.433 -201.3)"/>
        <path id="Path_1993" data-name="Path 1993" class="cls-11" d="M324.541,201.3,319,222.407h3.628l7.651-21.107Z" transform="translate(-289.845 -201.3)"/>
        <path id="Path_1994" data-name="Path 1994" class="cls-12" d="M307.9,233.3H286.4l.792,2.177H310.74l.792-2.177Z" transform="translate(-278.749 -212.193)"/>
      </g>
    </g>
    <path id="Path_1995" data-name="Path 1995" class="cls-5" d="M311.9,222.407h4.683l5.541-21.107h-4.683Z" transform="translate(-106.221 -68.534)"/>
    <g id="Group_620" data-name="Group 620" transform="translate(179.69 128.676)">
      <path id="Path_1996" data-name="Path 1996" class="cls-9" d="M274.017,199.19h40.434l1.517-4.09H272.5Z" transform="translate(-272.5 -195.1)"/>
    </g>
    <path id="Path_1997" data-name="Path 1997" class="cls-7" d="M312.375,199.19,304.723,220.3l-.792,2.177H280.384c-1.253-3.364-7.256-19.854-8.443-23.284l-1.517-4.09H266.4c4.221,11.543,7.19,19.656,11.081,30.408H306.9q5.442-15.039,11.081-30.408h-4.024Z" transform="translate(-90.734 -66.424)"/>
    <g id="Group_621" data-name="Group 621" transform="translate(74.548 28.812)">
      <line id="Line_15" data-name="Line 15" class="cls-13" x1="153.359"/>
      <line id="Line_16" data-name="Line 16" class="cls-13" x1="153.359" transform="translate(0 33.244)"/>
      <line id="Line_17" data-name="Line 17" class="cls-13" x1="153.359" transform="translate(0 66.489)"/>
      <line id="Line_18" data-name="Line 18" class="cls-13" x1="153.359" transform="translate(0 99.733)"/>
      <line id="Line_19" data-name="Line 19" class="cls-13" x1="153.359" transform="translate(0 130.536)"/>
    </g>
    <line id="Line_20" data-name="Line 20" class="cls-13" x1="153.359" transform="translate(74.548 28.812)"/>
    <line id="Line_21" data-name="Line 21" class="cls-13" x1="153.293" transform="translate(320.846 28.35)"/>
    <line id="Line_22" data-name="Line 22" class="cls-13" x1="153.293" transform="translate(320.846 54.47)"/>
    <line id="Line_23" data-name="Line 23" class="cls-13" x1="153.293" transform="translate(320.846 80.591)"/>
    <line id="Line_24" data-name="Line 24" class="cls-13" x1="153.293" transform="translate(320.846 106.777)"/>
    <line id="Line_25" data-name="Line 25" class="cls-13" x1="153.293" transform="translate(320.846 132.898)"/>
    <line id="Line_26" data-name="Line 26" class="cls-13" x1="153.293" transform="translate(320.846 159.084)"/>
    <g id="XMLID_1_" class="cls-14" transform="translate(-0.157 -0.039)">
      <g id="XMLID_67_" transform="translate(2.144 84.45)">
        <g id="Group_622" data-name="Group 622" transform="translate(0 0)">
          <path id="Path_1998" data-name="Path 1998" class="cls-15" d="M10.467,24.454a24.993,24.993,0,0,1-3.327-.886,45.824,45.824,0,0,1-3.98-6.137C1.27,11.98-.3,6.161.049,2.716c.518-5.083,1.572-1.99,2.257.853a.662.662,0,0,0-.251.2C-.5,6.545,5.417,17.949,10.467,24.454Z" transform="translate(0 0.013) rotate(-0.07)"/>
        </g>
      </g>
      <g id="Group_624" data-name="Group 624" transform="translate(0.061 40.767)">
        <g id="Group_623" data-name="Group 623" transform="translate(0 0)">
          <path id="Path_1999" data-name="Path 1999" class="cls-2" d="M8.275,5.351a34.251,34.251,0,0,1,.853,12.842C6.017,17.022.55,13.979.015,6.906A24.147,24.147,0,0,1,.2,2.943V2.926c.05-.3.1-.6.167-.9L.349,2.007A16.411,16.411,0,0,1,.817,0,41.057,41.057,0,0,1,8.275,5.351Z" transform="translate(42.283 3.657) rotate(-0.07)"/>
          <path id="Path_2000" data-name="Path 2000" class="cls-12" d="M9.113,11.287a43.307,43.307,0,0,1-1.889,9.4A29.511,29.511,0,0,0,1.5,8.06,28.281,28.281,0,0,1,0,0C.535,7.09,6,10.116,9.113,11.287Z" transform="translate(42.323 10.563) rotate(-0.07)"/>
          <path id="Path_2001" data-name="Path 2001" class="cls-2" d="M26.182,1.951A22.258,22.258,0,0,0,14.16,7.1C-.655,19.107,1.485,40.593,1.485,40.593H.214s-1.271-8.712,2.374-21.888C9.779,2.954,25.447-5.239,41.6,3.673a16.411,16.411,0,0,0-.468,2.007A24.007,24.007,0,0,0,26.182,1.951Z" transform="translate(1.513 0.051) rotate(-0.07)"/>
          <path id="Path_2002" data-name="Path 2002" class="cls-12" d="M.15,0,.167.017C.1.318.05.619,0,.92.05.6.1.3.15,0Z" transform="translate(42.501 5.664) rotate(-0.07)"/>
          <path id="Path_2003" data-name="Path 2003" class="cls-16" d="M14.932,3.816c-.05.284-.1.6-.15.92v.017A16.256,16.256,0,0,0,14.6,8.716a28.281,28.281,0,0,0,1.5,8.06,20.615,20.615,0,0,0-4.347-3.946,30.869,30.869,0,0,1-.418-7.391S1.4,3.649,0,.1A24.146,24.146,0,0,1,14.932,3.816Z" transform="translate(27.714 1.865) rotate(-0.07)"/>
          <path id="Path_2004" data-name="Path 2004" class="cls-2" d="M.222,0A24.147,24.147,0,0,0,.038,3.963,18.16,18.16,0,0,1,.222,0Z" transform="translate(42.279 6.6) rotate(-0.07)"/>
          <path id="Path_2005" data-name="Path 2005" class="cls-12" d="M39.035,5.334a30.868,30.868,0,0,0,.418,7.391A24.886,24.886,0,0,0,31.176,9.2c-11.839-2.809-18.845,11.905-21,20.149C8.151,37.037,8,55.614,20.943,66.433a26.036,26.036,0,0,1-6.036.084A45.472,45.472,0,0,1,7.465,52.772c-1.02-3.327-1.923-8.11-3.127-7.524C3.653,42.4,2.6,39.311,2.081,44.394,1.73,47.839,3.3,53.658,5.191,59.109a38.637,38.637,0,0,1-3.344-8.528C-1.43,37.957-.143,26.035,4.1,16.755.442,29.914,1.73,38.642,1.73,38.642H3S.861,17.156,15.675,5.15A22.258,22.258,0,0,1,27.7,0C29.1,3.545,39.035,5.334,39.035,5.334Z" transform="translate(0 2.003) rotate(-0.07)"/>
        </g>
      </g>
      <g id="XMLID_66_" transform="translate(31.898 41.456)">
        <g id="Group_625" data-name="Group 625" transform="translate(0 0)">
          <path id="Path_2006" data-name="Path 2006" class="cls-2" d="M31.609,3.21a67.236,67.236,0,0,1-.5,7.792c-2.09,16.8-10.4,31.7-14.949,47.872a105.457,105.457,0,0,0-3.244,16.654c-.368,3.294-.6,6.6-.669,9.932-.067,2.96-.017,5.936.15,8.9.167,2.859.435,5.719.819,8.561a106.071,106.071,0,0,0,2.107,11.22,43.2,43.2,0,0,1-5.769-1.906C6.143,105.761,2.28,97.333.775,90.01-2.168,75.7,3.718,59.678,10.825,45.749c7.09-13.929,10.049-24.563,10.049-34.094A43.674,43.674,0,0,0,19.269,0C22.162,1.672,26.543,2.859,31.609,3.21Z" transform="translate(0 0.039) rotate(-0.07)"/>
        </g>
      </g>
      <path id="Path_2007" data-name="Path 2007" class="cls-17" d="M57.715,0h.117a1.634,1.634,0,0,1-.4.7C55.825,2.508,43.719,12.106,30.51,15.35c-8.444,2.073-15.35,3.127-20.533,3.127-6.02,0-8.528-1.421-9.581-2.608-.518-.585-.4-.9-.334-1.1.4-1.1,2.475-2.909,6.989-4.381,3.461-1.1,9.564-2.441,19.112-2.441,10.417,0,19.5-2.274,30.349-7.591A2.69,2.69,0,0,1,57.715,0Z" transform="translate(40.373 2.006) rotate(-0.07)"/>
      <g id="XMLID_65_" transform="translate(3.58 37.923)">
        <g id="Group_626" data-name="Group 626" transform="translate(0 0)">
          <path id="Path_2008" data-name="Path 2008" class="cls-18" d="M11.443,21.323a23.944,23.944,0,0,1-2.408-.368C4,14.451-1.934,3.064.608.255,1.946-1.217,2.915,4.017,4,7.578A45.472,45.472,0,0,0,11.443,21.323Z" transform="translate(0 50.02) rotate(-0.07)"/>
          <path id="Path_2009" data-name="Path 2009" class="cls-19" d="M8.076,1.07a32.389,32.389,0,0,0-.535,7.959A56.585,56.585,0,0,1,0,5.284,13.066,13.066,0,0,0,6.036,0C6.672.368,7.374.736,8.076,1.07Z" transform="translate(16.021 74.383) rotate(-0.07)"/>
          <path id="Path_2010" data-name="Path 2010" class="cls-15" d="M11.772,1.17A30.989,30.989,0,0,0,16.3,4.3a12.9,12.9,0,0,1-6.036,5.284,27.074,27.074,0,0,1-4-2.876A48.526,48.526,0,0,1,0,0,25.69,25.69,0,0,0,3.327.886,25.89,25.89,0,0,0,6.454,4.347a.654.654,0,0,0,.819.033H7.29a.679.679,0,0,0,.117-.936c-.569-.736-1.12-1.455-1.655-2.19A26.86,26.86,0,0,0,11.772,1.17Z" transform="translate(5.732 70.098) rotate(-0.07)"/>
          <path id="Path_2011" data-name="Path 2011" class="cls-18" d="M3.946,2.776a.765.765,0,0,1-.117,1H3.812a.571.571,0,0,1-.786-.033A27.654,27.654,0,0,1,0,0,22.444,22.444,0,0,0,2.324.385C2.859,1.187,3.394,1.99,3.946,2.776Z" transform="translate(8.909 69.944) rotate(-0.07)"/>
          <path id="Path_2012" data-name="Path 2012" class="cls-20" d="M3.311,0C2.157,1.923.987,3.628,0,4.983a4.333,4.333,0,0,0,.2-1.3A3.489,3.489,0,0,0,.134,2.96,11.4,11.4,0,0,0,3.311,0Z" transform="translate(95.122 110.354) rotate(-0.07)"/>
          <path id="Path_2013" data-name="Path 2013" class="cls-20" d="M3.227,0a4.993,4.993,0,0,1,.067.719,4.414,4.414,0,0,1-.2,1.3C1.555,4.147.435,5.434.435,5.434h0c-.15.117-.284.217-.435.334C.535,4.381,1.053,2.776,1.538,1.02,2.124.7,2.709.351,3.227,0Z" transform="translate(92.033 113.334) rotate(-0.07)"/>
          <path id="Path_2014" data-name="Path 2014" class="cls-21" d="M25.972,68.506c-.418-1.789-.953-3.528-1.538-5.25-5.7-16.6-18.159-30.449-20.065-48.19A54.849,54.849,0,0,1,5.037,0C4.468,1.522,2.9,2.909.623,4.013-.715,12.34.238,21.186,2.194,29.613a2.3,2.3,0,0,1,1.956.351c.117.084.217.167.318.251a5.424,5.424,0,0,1,1.187,1.756c.184.4.351.819.518,1.221Q8.381,38.91,10.4,44.729c.485,1.354.953,2.692,1.421,4.047,1.037,2.943,2.057,5.886,3.093,8.829.836,2.391,1.689,4.8,2.425,7.224.368,1.2.719,2.441,1.02,3.662a76.238,76.238,0,0,1,1.789,19.948,119.188,119.188,0,0,1-1.12,13.394c-.15,1.07-.318,2.107-.485,3.144-.368,2.19-.786,4.3-1.254,6.237h0c-.251,1.087-.518,2.124-.8,3.127.619-.334,1.187-.686,1.706-1.037a11.124,11.124,0,0,0,3.16-2.976c.134-.234.268-.451.418-.686a.816.816,0,0,1,.05-.117c.15-.368.284-.752.435-1.12C26.958,95.845,29.115,81.649,25.972,68.506Z" transform="translate(76.925 0.034) rotate(-0.07)"/>
          <path id="Path_2015" data-name="Path 2015" class="cls-20" d="M10.668,0c-.485,1.756-1,3.344-1.538,4.749A29.045,29.045,0,0,1,0,8.695C.652,7.04,1.354,5.234,2.057,3.261A41.5,41.5,0,0,0,10.668,0Z" transform="translate(82.887 114.382) rotate(-0.07)"/>
          <path id="Path_2016" data-name="Path 2016" class="cls-20" d="M6.989,0C6.287,1.973,5.6,3.8,4.933,5.434,3.394,5.852,1.739,6.22,0,6.521c.435-1.756.836-3.528,1.187-5.3C3.244.886,5.184.468,6.989,0Z" transform="translate(77.942 117.632) rotate(-0.07)"/>
          <path id="Path_2017" data-name="Path 2017" class="cls-22" d="M16.169,38.972c-.3-1.237-.652-2.458-1.02-3.662-.736-2.441-1.588-4.832-2.425-7.224-1.037-2.943-2.057-5.886-3.093-8.829-.468-1.354-.953-2.692-1.421-4.047C6.839,11.349,5.451,7.487,3.98,3.674c-.167-.418-.318-.819-.518-1.221A5.611,5.611,0,0,0,2.274.7,1.5,1.5,0,0,0,1.956.447,2.246,2.246,0,0,0,0,.1c3.6,15.5,15.149,35.2,10.568,68.891A82.873,82.873,0,0,1,8.9,77.3,105.494,105.494,0,0,1,5.7,88.049,39.387,39.387,0,0,0,14.313,84.8c.284-.987.535-2.04.8-3.127h0c.451-1.956.886-4.047,1.254-6.237.167-1.02.334-2.073.485-3.144A119.189,119.189,0,0,0,17.975,58.9,76.156,76.156,0,0,0,16.169,38.972Z" transform="translate(79.139 29.565) rotate(-0.07)"/>
          <path id="Path_2018" data-name="Path 2018" class="cls-23" d="M36.815,53.558c-1.722-6.421-3.929-12.691-5.418-19.2-.318-1.371-.585-2.742-.836-4.13A116.421,116.421,0,0,1,29.474,0a43.234,43.234,0,0,1-6.939.552c-1.07,0-2.124-.033-3.144-.117a67.237,67.237,0,0,1-.5,7.792C16.8,25.031,8.49,39.93,3.941,56.1A105.457,105.457,0,0,0,.7,72.753c-.368,3.294-.6,6.6-.669,9.932-.067,2.96-.017,5.936.15,8.9C.346,94.441.614,97.3,1,100.143a106.071,106.071,0,0,0,2.107,11.22,82.585,82.585,0,0,0,20.567,2.408,88.656,88.656,0,0,0,14.815-1.187A130.488,130.488,0,0,0,40.561,98.37c.251-2.792.418-5.585.485-8.394A129.357,129.357,0,0,0,36.815,53.558Z" transform="translate(40.539 6.332) rotate(-0.07)"/>
          <path id="Path_2019" data-name="Path 2019" class="cls-3" d="M9.616,25.6C7.676,17.173,6.706,8.327,8.044,0A27.777,27.777,0,0,1,.5,2.241,115.693,115.693,0,0,0,1.59,32.472c.251,1.388.535,2.759.836,4.13,1.488,6.5,3.712,12.775,5.418,19.2a128.622,128.622,0,0,1,4.214,36.4c-.067,2.809-.234,5.6-.485,8.394A130.49,130.49,0,0,1,9.5,114.807c2.04-.351,3.98-.752,5.785-1.237,1.1-3.16,2.207-6.739,3.194-10.752.635-2.592,1.2-5.351,1.672-8.31C25.417,62.319,11.806,35.064,9.616,25.6Z" transform="translate(69.492 4.056) rotate(-0.07)"/>
          <path id="Path_2020" data-name="Path 2020" class="cls-20" d="M35.4,1.237c-.351,1.772-.752,3.545-1.187,5.3A78.092,78.092,0,0,1,20.584,7.675,71.664,71.664,0,0,1,1.421,5.267C.9,3.528.435,1.772,0,0A82.586,82.586,0,0,0,20.567,2.408,87.049,87.049,0,0,0,35.4,1.237Z" transform="translate(43.747 117.657) rotate(-0.07)"/>
          <path id="Path_2021" data-name="Path 2021" class="cls-20" d="M10.417,4.281c.435,1.772.9,3.528,1.421,5.267a27.038,27.038,0,0,1-8.963-4.1l-.017-.017S1.739,4.13.2,2.007A4.226,4.226,0,0,1,0,.719,3.489,3.489,0,0,1,.067,0,34.684,34.684,0,0,0,10.417,4.281Z" transform="translate(33.342 113.406) rotate(-0.07)"/>
          <path id="Path_2022" data-name="Path 2022" class="cls-20" d="M3.327,5C2.324,3.628,1.154,1.923,0,0A11.723,11.723,0,0,0,3.177,2.993a3.489,3.489,0,0,0-.067.719A4.245,4.245,0,0,0,3.327,5Z" transform="translate(30.211 110.416) rotate(-0.07)"/>
        </g>
      </g>
      <g id="Group_629" data-name="Group 629" transform="translate(38.709 0.021)">
        <g id="Group_628" data-name="Group 628" transform="translate(0 0)">
          <g id="Group_627" data-name="Group 627" transform="translate(0 0)">
            <path id="Path_2023" data-name="Path 2023" class="cls-24" d="M16.136.507c3.027-1.488,4.331.585,3.378,2.558-.067.084-.117.184-.184.284a2.5,2.5,0,0,0-.451-.385,2.564,2.564,0,0,0-1.12-.385,1.494,1.494,0,0,0,.368-.669h-.117a2.842,2.842,0,0,0-1.187.351A75.832,75.832,0,0,1,0,8.416L.518,6.342A74.759,74.759,0,0,0,16.136.507Z" transform="translate(41.368 0.024) rotate(-0.07)"/>
            <path id="Path_2024" data-name="Path 2024" class="cls-5" d="M10.553.786c-.134.2-.268.4-.4.619h0a6.563,6.563,0,0,1-.485.485c-.033.017-.05.05-.084.067q-.5.477-1.3,1.154c-.067.05-.134.117-.2.167l-.284.234c-.134.117-.284.234-.435.351-.1.084-.2.15-.3.234s-.2.15-.3.234H6.74c-.1.084-.2.15-.3.234l-.017.017c-.117.084-.217.167-.334.251-.05.033-.084.067-.134.1C5.436,5.317,4.884,5.7,4.3,6.12c-.451.318-.936.635-1.421.97-.134.084-.251.167-.385.251l-.451.3c-.451.3-.92.585-1.4.886-.167.1-.334.2-.518.318a9.051,9.051,0,0,1-.1-2.124A53.459,53.459,0,0,0,8.981.033L9.015,0a2.427,2.427,0,0,1,1.12.385C10.269.518,10.419.635,10.553.786Z" transform="translate(50.148 2.577) rotate(-0.07)"/>
            <path id="Path_2025" data-name="Path 2025" class="cls-10" d="M23.761.485c.2-.184.351-.351.485-.485a91.757,91.757,0,0,0-12.39,28.626c-.334,1.338-.619,2.709-.886,4.063a4.876,4.876,0,0,0-2.09-3.662A20.54,20.54,0,0,0,0,25.416L3.144,13.042h0c.2-.084.385-.15.585-.234l.351-.15c.251-.1.485-.2.736-.3.184-.084.385-.167.569-.251s.385-.167.569-.251L6.5,11.6c.184-.084.351-.167.535-.251.033-.017.05-.017.067-.033.167-.084.334-.15.5-.234.184-.084.368-.167.552-.268.184-.084.368-.184.535-.268.184-.084.351-.184.535-.268,1.772-.9,3.445-1.856,4.983-2.792.167-.1.334-.217.518-.318.485-.3.953-.585,1.4-.886l.451-.3c.134-.084.268-.167.385-.251.5-.334.97-.652,1.421-.97.585-.4,1.137-.8,1.655-1.187.05-.033.084-.067.134-.1.117-.084.234-.167.334-.251a.016.016,0,0,0,.017-.017c.1-.084.2-.15.3-.234h.017c.1-.084.2-.15.3-.234a3.672,3.672,0,0,1,.3-.234c.15-.117.3-.234.435-.351.1-.084.2-.15.284-.234.067-.05.134-.117.2-.167.535-.435.97-.836,1.3-1.154A1.139,1.139,0,0,1,23.761.485Z" transform="translate(36.056 3.999) rotate(-0.07)"/>
            <path id="Path_2026" data-name="Path 2026" class="cls-5" d="M0,.067C.033.05.05.017.084,0,.05.033.017.05,0,.067Z" transform="translate(59.75 4.455) rotate(-0.07)"/>
            <path id="Path_2027" data-name="Path 2027" class="cls-7" d="M19.631,0h.117a1.582,1.582,0,0,1-.368.669L19.346.7a52.5,52.5,0,0,1-8.962,6.688A73.288,73.288,0,0,1,0,12.808L1.605,6.488A75,75,0,0,0,18.427.334,2.82,2.82,0,0,1,19.631,0Z" transform="translate(39.748 1.937) rotate(-0.07)"/>
            <path id="Path_2028" data-name="Path 2028" class="cls-24" d="M11.069,2.124c-1.538.936-3.21,1.889-4.983,2.792C5.9,5,5.735,5.1,5.551,5.184s-.351.184-.535.268-.368.184-.552.268c-.167.084-.334.167-.5.234-.017.017-.05.017-.067.033-.167.084-.351.167-.535.251l-.552.251c-.184.084-.368.167-.569.251-.184.084-.385.167-.569.251-.251.1-.485.2-.736.3l-.351.15c-.2.084-.385.15-.585.234L.569,5.418A73.288,73.288,0,0,0,10.952,0,10.062,10.062,0,0,0,11.069,2.124Z" transform="translate(39.189 9.329) rotate(-0.07)"/>
            <path id="Path_2029" data-name="Path 2029" class="cls-24" d="M4.983,0,4.465,2.073c-1.488.334-2.976.6-4.465.819C.167,2.224.351,1.555.518.886,2.023.635,3.511.351,4.983,0Z" transform="translate(36.894 6.372) rotate(-0.07)"/>
            <path id="Path_2030" data-name="Path 2030" class="cls-25" d="M6.354,0,4.749,6.321A50.159,50.159,0,0,1,0,8.06C.635,5.635,1.254,3.227,1.889.8,3.394.619,4.866.334,6.354,0Z" transform="translate(35.008 8.431) rotate(-0.07)"/>
            <path id="Path_2031" data-name="Path 2031" class="cls-24" d="M5.284,0,4.715,2.257a.061.061,0,0,1-.05.017c-.334.134-.652.251-.987.385-.2.067-.4.15-.6.217-.217.084-.435.15-.652.234-.184.067-.385.134-.569.2l-.451.15c-.117.033-.234.084-.351.117C.886,3.628.7,3.7.535,3.746s-.351.1-.535.15c.184-.719.368-1.421.552-2.14C2.157,1.237,3.746.635,5.284,0Z" transform="translate(34.48 14.769) rotate(-0.07)"/>
            <path id="Path_2032" data-name="Path 2032" class="cls-24" d="M.05,0h0C.033,0,.017.017,0,.017A.061.061,0,0,0,.05,0Z" transform="translate(39.148 17.021) rotate(-0.07)"/>
            <path id="Path_2033" data-name="Path 2033" class="cls-17" d="M7.391,0,4.247,12.374A39.951,39.951,0,0,0,0,11.772C.886,8.394,1.772,5,2.642,1.622c.184-.05.351-.1.535-.15.167-.05.351-.1.518-.167a2.882,2.882,0,0,0,.351-.117l.451-.15c.184-.067.385-.134.569-.2C5.284.752,5.5.686,5.719.6c.2-.067.4-.15.6-.217C6.655.268,6.989.134,7.307,0A.131.131,0,0,0,7.391,0Z" transform="translate(31.808 17.03) rotate(-0.07)"/>
            <path id="Path_2034" data-name="Path 2034" class="cls-24" d="M0,.217C.2.15.4.067.6,0,.4.067.2.15,0,.217Z" transform="translate(37.543 17.424) rotate(-0.07)"/>
            <path id="Path_2035" data-name="Path 2035" class="cls-24" d="M12.758,0c-.167.669-.351,1.338-.518,2.007a62.014,62.014,0,0,1-9.063.635q-1.655,0-3.16.05C.017,2.057,0,1.421,0,.786,1.02.752,2.09.736,3.177.736A63.573,63.573,0,0,0,12.758,0Z" transform="translate(24.672 7.273) rotate(-0.07)"/>
            <path id="Path_2036" data-name="Path 2036" class="cls-17" d="M12.223,0c-.635,2.425-1.254,4.832-1.889,7.257-.936.3-1.873.552-2.809.786-2.642.652-5.117,1.2-7.458,1.639C.05,6.688.017,3.679,0,.669Q1.5.619,3.16.619A59.79,59.79,0,0,0,12.223,0Z" transform="translate(24.675 9.263) rotate(-0.07)"/>
            <path id="Path_2037" data-name="Path 2037" class="cls-24" d="M0,.2C.184.134.385.067.569,0,.368.067.184.134,0,.2Z" transform="translate(36.323 17.877) rotate(-0.07)"/>
            <path id="Path_2038" data-name="Path 2038" class="cls-24" d="M0,.15.451,0Z" transform="translate(35.872 18.078) rotate(-0.07)"/>
            <path id="Path_2039" data-name="Path 2039" class="cls-24" d="M10.267,0c-.184.719-.368,1.421-.552,2.14h0c-.033,0-.05.017-.067.017-.6.167-1.221.334-1.823.485C5.217,3.277,2.592,3.863.017,4.347.017,3.7,0,3.06,0,2.408c2.341-.451,4.816-1,7.458-1.639C8.394.552,9.347.3,10.267,0Z" transform="translate(24.751 16.52) rotate(-0.07)"/>
            <path id="Path_2040" data-name="Path 2040" class="cls-26" d="M9.682,0C8.8,3.378,7.909,6.772,7.04,10.15c-1.254-.117-2.558-.167-3.9-.167-1.053,0-2.09.033-3.093.1L0,2.207C2.558,1.722,5.184,1.137,7.809.5c.6-.15,1.221-.318,1.823-.485A.129.129,0,0,0,9.682,0Z" transform="translate(24.787 18.66) rotate(-0.07)"/>
            <path id="Path_2041" data-name="Path 2041" class="cls-10" d="M23.878,1.706l.05,7.876c-.619.05-1.221.1-1.823.167-8.177.92-14.213,4.047-14.213,7.792a3.841,3.841,0,0,0,.084.752A108.162,108.162,0,0,0,0,0C3.612,4.08,13.226,3.729,23.878,1.706Z" transform="translate(0.893 19.208) rotate(-0.07)"/>
            <path id="Path_2042" data-name="Path 2042" class="cls-24" d="M24.74,10.9c0,.652.017,1.288.017,1.94C14.106,14.865,4.491,15.2.9,11.136h0c-.268-.5-.535-1-.819-1.488C-.91,5.535,7.635.552,24.657,0c0,.635.017,1.271.017,1.906A57.236,57.236,0,0,0,8.755,4.314C4.24,5.785,2.167,7.591,1.766,8.695c-.067.2-.184.518.334,1.1,1.053,1.187,3.562,2.608,9.581,2.608A73.163,73.163,0,0,0,24.74,10.9Z" transform="translate(0 8.089) rotate(-0.07)"/>
            <path id="Path_2043" data-name="Path 2043" class="cls-26" d="M22.985,0c.017,2.993.05,6,.067,9.013A71.44,71.44,0,0,1,9.976,10.5C3.956,10.5,1.448,9.08.395,7.892c-.518-.585-.4-.9-.334-1.1.4-1.1,2.475-2.909,6.989-4.381A57.622,57.622,0,0,1,22.985,0Z" transform="translate(1.691 9.977) rotate(-0.07)"/>
          </g>
        </g>
      </g>
      <path id="Path_2044" data-name="Path 2044" class="cls-19" d="M78.8,100.393c-.585,2.174-2.876,4.2-6.421,5.9a42.749,42.749,0,0,1-7.825,2.759,68.551,68.551,0,0,1-6.989,1.438,105.186,105.186,0,0,1-16.52,1.254,98.638,98.638,0,0,1-21.888-2.291c-.535-.134-1.07-.251-1.589-.385a14.166,14.166,0,0,1-9.615-9.447,53.245,53.245,0,0,1-1.722-6.254C3.29,79.057,9.176,63.038,16.283,49.11c7.123-13.929,10.083-24.563,10.083-34.094A43.674,43.674,0,0,0,24.76,3.361,7.441,7.441,0,0,1,21.4,0c.585,1.94,1.1,3.863,1.488,5.752a41.339,41.339,0,0,1,.836,13.912A52.411,52.411,0,0,1,21.9,29.83C17.737,44.378,8.106,53.758,2.3,68.389A30.973,30.973,0,0,0,.565,74.576a38.8,38.8,0,0,0-.518,8.611c.385,9.263,4.13,21.955,7.19,27a.016.016,0,0,0,.017.017c1.689,2.508,5.15,4.3,7.759,5.367h0c7.809,3.21,18.042,4.314,26.352,4.314A88.656,88.656,0,0,0,56.179,118.7c2.04-.351,3.98-.752,5.785-1.237a39.388,39.388,0,0,0,8.611-3.244c.619-.334,1.187-.686,1.706-1.037a11.124,11.124,0,0,0,3.16-2.976c.134-.234.268-.451.418-.686h0c.167-.418.318-.819.468-1.237.953-2.558,1.823-5.184,2.542-7.859Z" transform="translate(26.403 38.14) rotate(-0.07)"/>
      <g id="Group_630" data-name="Group 630" transform="translate(78.443 71.075)">
        <path id="Path_2045" data-name="Path 2045" class="cls-5" d="M2.124.281C2.107.3,2.074.3,2.057.315A2.931,2.931,0,0,0,.117,3.876,107.265,107.265,0,0,1,3.461,19.828a2.694,2.694,0,0,0,2.692,2.14h0a2.361,2.361,0,0,0,2.608-2.124A94.531,94.531,0,0,0,7.575,2.973C7.224.749,4.448-.622,2.124.281Z" transform="translate(11.109 34.143) rotate(-0.07)"/>
        <path id="Path_2046" data-name="Path 2046" class="cls-5" d="M.266,6.334c.686,2.04,1.4,3.812,2.157,5.5a3.851,3.851,0,0,0,5.451,2.04.127.127,0,0,1,.067-.033,4.893,4.893,0,0,0,1.94-5.852c-.6-1.655-1.2-3.327-1.772-5.016A3.967,3.967,0,0,0,3.092.214c-.1.033-.184.067-.284.1A4.784,4.784,0,0,0,.266,6.334Z" transform="translate(0 0.012) rotate(-0.07)"/>
      </g>
      <path id="Path_2047" data-name="Path 2047" class="cls-27" d="M4.863,51.447a1.256,1.256,0,0,1-1.1-.719c-1.889-3.8-9.6-22.022,4.766-45.063C17.02-7.98,10.314,5.113,5.666,22.82c-3.6,13.628-.251,22.272.451,26.938a1.4,1.4,0,0,1-1.254,1.689Z" transform="translate(35.058 88.949) rotate(-0.07)"/>
      <path id="Path_2048" data-name="Path 2048" class="cls-28" d="M36.161,4.364C32.984,1.773,26.546-.017,19.122,0,7.785.017-1.01,4.164.094,8.829,1.9,14.6,13.253,16.1,19.139,16.1c4.682,0,10.283-.769,14.464-2.809,2.291-1.12,3.863-2.508,4.414-4.03.067-.418.15-.836.234-1.254h0A4.874,4.874,0,0,0,36.161,4.364Z" transform="translate(47.446 28.684) rotate(-0.07)"/>
    </g>
    <g id="Group_640" data-name="Group 640" class="cls-29" transform="translate(238.202 0.027)">
      <g id="XMLID_67_2" data-name="XMLID_67_" transform="translate(2.041 84.334)">
        <g id="Group_631" data-name="Group 631" transform="translate(0 0)">
          <path id="Path_2049" data-name="Path 2049" class="cls-15" d="M-68.421,28.6a24.993,24.993,0,0,1-3.327-.886,45.822,45.822,0,0,1-3.98-6.137c-1.889-5.451-3.461-11.27-3.11-14.715.518-5.083,1.572-1.99,2.257.853a.662.662,0,0,0-.251.2C-79.39,10.691-73.471,22.1-68.421,28.6Z" transform="translate(78.888 -4.146)"/>
        </g>
      </g>
      <g id="Group_633" data-name="Group 633" transform="translate(0.009 40.688)">
        <g id="Group_632" data-name="Group 632" transform="translate(0)">
          <path id="Path_2050" data-name="Path 2050" class="cls-2" d="M-9.594-51.129a34.251,34.251,0,0,1,.853,12.842c-3.11-1.17-8.578-4.214-9.113-11.287a24.147,24.147,0,0,1,.184-3.963v-.017c.05-.3.1-.6.167-.9l-.017-.017a16.411,16.411,0,0,1,.468-2.007A41.057,41.057,0,0,1-9.594-51.129Z" transform="translate(60.149 60.136)"/>
          <path id="Path_2051" data-name="Path 2051" class="cls-12" d="M-8.708-34.724a43.307,43.307,0,0,1-1.889,9.4,29.511,29.511,0,0,0-5.719-12.624,28.281,28.281,0,0,1-1.5-8.06C-17.286-38.921-11.818-35.894-8.708-34.724Z" transform="translate(60.133 56.572)"/>
          <path id="Path_2052" data-name="Path 2052" class="cls-2" d="M-53.488-60.072a22.258,22.258,0,0,0-12.022,5.15C-80.326-42.916-78.185-21.43-78.185-21.43h-1.271s-1.271-8.712,2.374-21.888c7.19-15.751,22.858-23.945,39.01-15.032a16.411,16.411,0,0,0-.468,2.007A24.007,24.007,0,0,0-53.488-60.072Z" transform="translate(81.186 62.023)"/>
          <path id="Path_2053" data-name="Path 2053" class="cls-12" d="M-17.392-53.438l.017.017c-.067.3-.117.6-.167.9C-17.492-52.836-17.442-53.137-17.392-53.438Z" transform="translate(60.038 59.101)"/>
          <path id="Path_2054" data-name="Path 2054" class="cls-16" d="M-25.02-55.407c-.05.284-.1.6-.15.92v.017a16.256,16.256,0,0,0-.184,3.963,28.281,28.281,0,0,0,1.5,8.06A20.615,20.615,0,0,0-28.2-46.395a30.869,30.869,0,0,1-.418-7.391s-9.932-1.789-11.337-5.334A24.146,24.146,0,0,1-25.02-55.407Z" transform="translate(67.666 61.07)"/>
          <path id="Path_2055" data-name="Path 2055" class="cls-2" d="M-17.657-52.018a24.147,24.147,0,0,0-.184,3.963A18.16,18.16,0,0,1-17.657-52.018Z" transform="translate(60.153 58.617)"/>
          <path id="Path_2056" data-name="Path 2056" class="cls-12" d="M-42.934-53.731a30.869,30.869,0,0,0,.418,7.391,24.886,24.886,0,0,0-8.277-3.528c-11.839-2.809-18.845,11.905-21,20.149-2.023,7.692-2.174,26.269,10.768,37.087a26.037,26.037,0,0,1-6.036.084A45.472,45.472,0,0,1-74.5-6.294c-1.02-3.327-1.923-8.11-3.127-7.524-.686-2.843-1.739-5.936-2.257-.853-.351,3.445,1.221,9.263,3.11,14.715a38.637,38.637,0,0,1-3.344-8.528c-3.277-12.624-1.99-24.547,2.257-33.827-3.662,13.159-2.374,21.888-2.374,21.888h1.271s-2.14-21.487,12.675-33.492a22.258,22.258,0,0,1,12.022-5.15C-52.866-55.521-42.934-53.731-42.934-53.731Z" transform="translate(81.968 61.016)"/>
        </g>
      </g>
      <g id="XMLID_66_2" data-name="XMLID_66_" transform="translate(31.847 41.401)">
        <g id="Group_634" data-name="Group 634" transform="translate(0)">
          <path id="Path_2057" data-name="Path 2057" class="cls-2" d="M-2.091-57.731a67.236,67.236,0,0,1-.5,7.792c-2.09,16.8-10.4,31.7-14.949,47.872a105.458,105.458,0,0,0-3.244,16.654c-.368,3.294-.6,6.6-.669,9.932-.067,2.96-.017,5.936.15,8.9.167,2.859.435,5.719.819,8.561A106.071,106.071,0,0,0-18.377,53.2a43.2,43.2,0,0,1-5.769-1.906c-3.411-6.471-7.274-14.9-8.779-22.222-2.943-14.313,2.943-30.332,10.049-44.261,7.09-13.929,10.049-24.563,10.049-34.094a43.674,43.674,0,0,0-1.605-11.655C-11.538-59.269-7.157-58.082-2.091-57.731Z" transform="translate(33.7 60.941)"/>
        </g>
      </g>
      <path id="Path_2058" data-name="Path 2058" class="cls-17" d="M36.937-120.793h.117a1.634,1.634,0,0,1-.4.7c-1.605,1.806-13.711,11.4-26.921,14.648-8.444,2.073-15.35,3.127-20.533,3.127-6.02,0-8.528-1.421-9.581-2.608-.518-.585-.4-.9-.334-1.1.4-1.1,2.475-2.909,6.989-4.381,3.461-1.1,9.564-2.441,19.112-2.441,10.417,0,19.5-2.274,30.349-7.591A2.69,2.69,0,0,1,36.937-120.793Z" transform="translate(61.148 122.716)"/>
      <g id="XMLID_65_2" data-name="XMLID_65_" transform="translate(3.472 37.923)">
        <g id="Group_635" data-name="Group 635" transform="translate(0)">
          <path id="Path_2059" data-name="Path 2059" class="cls-18" d="M-65.275,30.748a23.943,23.943,0,0,1-2.408-.368c-5.033-6.5-10.969-17.892-8.427-20.7C-74.772,8.208-73.8,13.441-72.716,17A45.472,45.472,0,0,0-65.275,30.748Z" transform="translate(76.718 40.467)"/>
          <path id="Path_2060" data-name="Path 2060" class="cls-19" d="M-44.4,47.461a32.389,32.389,0,0,0-.535,7.959,56.586,56.586,0,0,1-7.541-3.746,13.066,13.066,0,0,0,6.036-5.284C-45.8,46.758-45.1,47.126-44.4,47.461Z" transform="translate(68.466 27.885)"/>
          <path id="Path_2061" data-name="Path 2061" class="cls-15" d="M-56.293,41.046a30.99,30.99,0,0,0,4.531,3.127A12.9,12.9,0,0,1-57.8,49.457a27.074,27.074,0,0,1-4-2.876,48.527,48.527,0,0,1-6.27-6.705,25.691,25.691,0,0,0,3.327.886,25.89,25.89,0,0,0,3.127,3.461.654.654,0,0,0,.819.033h.017a.679.679,0,0,0,.117-.936c-.569-.736-1.12-1.455-1.655-2.19A26.86,26.86,0,0,0-56.293,41.046Z" transform="translate(73.773 30.102)"/>
          <path id="Path_2062" data-name="Path 2062" class="cls-18" d="M-59.3,42.423a.765.765,0,0,1-.117,1h-.017a.571.571,0,0,1-.786-.033,27.654,27.654,0,0,1-3.027-3.746,22.443,22.443,0,0,0,2.324.385C-60.389,40.835-59.854,41.637-59.3,42.423Z" transform="translate(72.133 30.18)"/>
          <path id="Path_2063" data-name="Path 2063" class="cls-20" d="M70.691,101.07c-1.154,1.923-2.324,3.628-3.311,4.983a4.333,4.333,0,0,0,.2-1.3,3.49,3.49,0,0,0-.067-.719A11.4,11.4,0,0,0,70.691,101.07Z" transform="translate(27.668 9.272)"/>
          <path id="Path_2064" data-name="Path 2064" class="cls-20" d="M65.918,105.583a4.993,4.993,0,0,1,.067.719,4.414,4.414,0,0,1-.2,1.3c-1.538,2.124-2.659,3.411-2.659,3.411h0c-.15.117-.284.217-.435.334.535-1.388,1.053-2.993,1.538-4.749C64.814,106.285,65.4,105.934,65.918,105.583Z" transform="translate(29.264 7.736)"/>
          <path id="Path_2065" data-name="Path 2065" class="cls-21" d="M65.968,2.292C65.55.5,65.015-1.236,64.43-2.958c-5.7-16.6-18.159-30.449-20.065-48.19a54.849,54.849,0,0,1,.669-15.066c-.569,1.522-2.14,2.909-4.414,4.013-1.338,8.327-.385,17.173,1.572,25.6a2.3,2.3,0,0,1,1.956.351c.117.084.217.167.318.251a5.424,5.424,0,0,1,1.187,1.756c.184.4.351.819.518,1.221Q48.378-27.3,50.4-21.485c.485,1.354.953,2.692,1.421,4.046,1.037,2.943,2.057,5.886,3.093,8.829.836,2.391,1.689,4.8,2.425,7.224.368,1.2.719,2.441,1.02,3.662a76.238,76.238,0,0,1,1.789,19.948,119.19,119.19,0,0,1-1.12,13.394c-.15,1.07-.318,2.107-.485,3.144-.368,2.19-.786,4.3-1.254,6.237h0c-.251,1.087-.518,2.124-.8,3.127.619-.334,1.187-.686,1.706-1.037a11.124,11.124,0,0,0,3.16-2.976c.134-.234.268-.451.418-.686a.817.817,0,0,1,.05-.117c.15-.368.284-.752.435-1.12C66.955,29.631,69.112,15.435,65.968,2.292Z" transform="translate(36.989 66.214)"/>
          <path id="Path_2066" data-name="Path 2066" class="cls-20" d="M59.492,107.154c-.485,1.756-1,3.344-1.538,4.749a29.045,29.045,0,0,1-9.13,3.946c.652-1.655,1.354-3.461,2.057-5.434A41.5,41.5,0,0,0,59.492,107.154Z" transform="translate(33.985 7.201)"/>
          <path id="Path_2067" data-name="Path 2067" class="cls-20" d="M48.31,112.072c-.7,1.973-1.388,3.8-2.057,5.434-1.538.418-3.194.786-4.933,1.087.435-1.756.836-3.528,1.187-5.3C44.564,112.959,46.5,112.541,48.31,112.072Z" transform="translate(36.539 5.527)"/>
          <path id="Path_2068" data-name="Path 2068" class="cls-22" d="M59.467,17.533c-.3-1.237-.652-2.458-1.02-3.662-.736-2.441-1.589-4.832-2.425-7.224C54.986,3.7,53.966.762,52.929-2.181c-.468-1.354-.953-2.692-1.421-4.046-1.371-3.863-2.759-7.725-4.23-11.538-.167-.418-.318-.819-.518-1.221a5.61,5.61,0,0,0-1.187-1.756,1.5,1.5,0,0,0-.318-.251,2.246,2.246,0,0,0-1.956-.351c3.6,15.5,15.149,35.2,10.568,68.891a82.873,82.873,0,0,1-1.672,8.31A105.5,105.5,0,0,1,49,66.609a39.387,39.387,0,0,0,8.611-3.244c.284-.987.535-2.04.8-3.127h0c.451-1.956.886-4.047,1.254-6.237.167-1.02.334-2.073.485-3.144a119.19,119.19,0,0,0,1.12-13.394A76.155,76.155,0,0,0,59.467,17.533Z" transform="translate(35.866 50.973)"/>
          <path id="Path_2069" data-name="Path 2069" class="cls-23" d="M21.638-3.176c-1.722-6.421-3.929-12.691-5.418-19.2-.318-1.371-.585-2.742-.836-4.13A116.421,116.421,0,0,1,14.3-56.733a43.234,43.234,0,0,1-6.939.552c-1.07,0-2.124-.033-3.144-.117a67.237,67.237,0,0,1-.5,7.792C1.622-31.7-6.688-16.8-11.236-.634A105.457,105.457,0,0,0-14.48,16.02c-.368,3.294-.6,6.6-.669,9.932-.067,2.96-.017,5.936.15,8.9.167,2.859.435,5.719.819,8.561a106.071,106.071,0,0,0,2.107,11.22A82.586,82.586,0,0,0,8.495,57.037,88.655,88.655,0,0,0,23.31,55.85a130.488,130.488,0,0,0,2.073-14.213c.251-2.792.418-5.585.485-8.394A129.357,129.357,0,0,0,21.638-3.176Z" transform="translate(55.77 62.987)"/>
          <path id="Path_2070" data-name="Path 2070" class="cls-3" d="M38.336-34.53c-1.94-8.427-2.909-17.273-1.572-25.6a27.777,27.777,0,0,1-7.541,2.241A115.693,115.693,0,0,0,30.31-27.658c.251,1.388.535,2.759.836,4.13,1.488,6.5,3.712,12.775,5.418,19.2a128.622,128.622,0,0,1,4.214,36.4c-.067,2.809-.234,5.6-.485,8.394a130.489,130.489,0,0,1-2.073,14.213c2.04-.351,3.98-.752,5.785-1.237,1.1-3.16,2.207-6.739,3.194-10.752.635-2.592,1.2-5.351,1.672-8.31C54.137,2.189,40.526-25.066,38.336-34.53Z" transform="translate(40.828 64.143)"/>
          <path id="Path_2071" data-name="Path 2071" class="cls-20" d="M24.878,113.284c-.351,1.772-.752,3.545-1.187,5.3a78.092,78.092,0,0,1-13.628,1.137A71.664,71.664,0,0,1-9.1,117.314c-.518-1.739-.987-3.495-1.421-5.267a82.586,82.586,0,0,0,20.567,2.408A87.049,87.049,0,0,0,24.878,113.284Z" transform="translate(54.185 5.536)"/>
          <path id="Path_2072" data-name="Path 2072" class="cls-20" d="M-15.871,109.863c.435,1.772.9,3.528,1.421,5.267a27.038,27.038,0,0,1-8.962-4.1l-.017-.017s-1.12-1.3-2.659-3.428a4.225,4.225,0,0,1-.2-1.288,3.489,3.489,0,0,1,.067-.719A34.683,34.683,0,0,0-15.871,109.863Z" transform="translate(59.552 7.736)"/>
          <path id="Path_2073" data-name="Path 2073" class="cls-20" d="M-27.7,106.045c-1-1.371-2.174-3.077-3.327-5a11.723,11.723,0,0,0,3.177,2.993,3.489,3.489,0,0,0-.067.719A4.245,4.245,0,0,0-27.7,106.045Z" transform="translate(61.166 9.281)"/>
        </g>
      </g>
      <g id="Group_638" data-name="Group 638" transform="translate(38.699 0.012)">
        <g id="Group_637" data-name="Group 637">
          <g id="Group_636" data-name="Group 636">
            <path id="Path_2074" data-name="Path 2074" class="cls-24" d="M55.555-123.184c3.027-1.488,4.331.585,3.378,2.558-.067.084-.117.184-.184.284a2.5,2.5,0,0,0-.451-.385,2.564,2.564,0,0,0-1.12-.385,1.494,1.494,0,0,0,.368-.669h-.117a2.842,2.842,0,0,0-1.187.351,75.831,75.831,0,0,1-16.821,6.153l.518-2.073A74.759,74.759,0,0,0,55.555-123.184Z" transform="translate(1.959 123.69)"/>
            <path id="Path_2075" data-name="Path 2075" class="cls-5" d="M63.278-119.018c-.134.2-.268.4-.4.619h0a6.562,6.562,0,0,1-.485.485c-.033.017-.05.05-.084.067q-.5.477-1.3,1.154c-.067.05-.134.117-.2.167l-.284.234c-.134.117-.284.234-.435.351-.1.084-.2.15-.3.234s-.2.15-.3.234h-.017c-.1.084-.2.15-.3.234l-.017.017c-.117.084-.217.167-.334.251-.05.033-.084.067-.134.1-.518.385-1.07.769-1.655,1.187-.451.318-.936.635-1.421.97-.134.084-.251.167-.385.251l-.451.3c-.451.3-.92.585-1.4.886-.167.1-.334.2-.518.318a9.051,9.051,0,0,1-.1-2.124,53.459,53.459,0,0,0,8.963-6.688l.033-.033a2.427,2.427,0,0,1,1.12.385C62.994-119.286,63.144-119.169,63.278-119.018Z" transform="translate(-2.571 122.368)"/>
            <path id="Path_2076" data-name="Path 2076" class="cls-10" d="M55.119-117.19c.2-.184.351-.351.485-.485a91.757,91.757,0,0,0-12.39,28.626c-.334,1.338-.619,2.709-.886,4.063a4.876,4.876,0,0,0-2.09-3.662,20.54,20.54,0,0,0-8.879-3.612L34.5-104.632h0c.2-.084.385-.15.585-.234l.351-.15c.251-.1.485-.2.736-.3.184-.084.385-.167.569-.251s.385-.167.569-.251l.552-.251c.184-.084.351-.167.535-.251.033-.017.05-.017.067-.033.167-.084.334-.15.5-.234.184-.084.368-.167.552-.268.184-.084.368-.184.535-.268.184-.084.351-.184.535-.268,1.772-.9,3.445-1.856,4.983-2.792.167-.1.334-.217.518-.318.485-.3.953-.585,1.4-.886l.451-.3c.134-.084.268-.167.385-.251.5-.334.97-.652,1.421-.97.585-.4,1.137-.8,1.655-1.187.05-.033.084-.067.134-.1.117-.084.234-.167.334-.251a.016.016,0,0,0,.017-.017c.1-.084.2-.151.3-.234h.017c.1-.084.2-.15.3-.234a3.671,3.671,0,0,1,.3-.234c.15-.117.3-.234.435-.351.1-.084.2-.15.284-.234.067-.05.134-.117.2-.167.535-.435.97-.836,1.3-1.154A1.137,1.137,0,0,1,55.119-117.19Z" transform="translate(4.703 121.643)"/>
            <path id="Path_2077" data-name="Path 2077" class="cls-5" d="M67.279-116.873c.033-.017.05-.05.084-.067C67.329-116.906,67.3-116.889,67.279-116.873Z" transform="translate(-7.525 121.392)"/>
            <path id="Path_2078" data-name="Path 2078" class="cls-7" d="M56.591-120.793h.117a1.582,1.582,0,0,1-.368.669l-.033.033a52.5,52.5,0,0,1-8.962,6.688,73.289,73.289,0,0,1-10.384,5.418l1.605-6.321a75,75,0,0,0,16.821-6.153A2.82,2.82,0,0,1,56.591-120.793Z" transform="translate(2.796 122.704)"/>
            <path id="Path_2079" data-name="Path 2079" class="cls-24" d="M47.168-107.464c-1.538.936-3.21,1.889-4.983,2.792-.184.084-.351.184-.535.268s-.351.184-.535.268-.368.184-.552.268c-.167.084-.334.167-.5.234-.017.017-.05.017-.067.033-.167.084-.351.167-.535.251l-.552.251c-.184.084-.368.167-.569.251-.184.084-.385.167-.569.251-.251.1-.485.2-.736.3l-.351.15c-.2.084-.385.15-.585.234l.569-2.257a73.287,73.287,0,0,0,10.384-5.418A10.062,10.062,0,0,0,47.168-107.464Z" transform="translate(3.089 118.89)"/>
            <path id="Path_2080" data-name="Path 2080" class="cls-24" d="M37.608-114.075,37.09-112c-1.488.334-2.976.6-4.465.819.167-.669.351-1.338.518-2.007C34.649-113.44,36.137-113.724,37.608-114.075Z" transform="translate(4.271 120.417)"/>
            <path id="Path_2081" data-name="Path 2081" class="cls-25" d="M36.115-110.957l-1.605,6.321a50.159,50.159,0,0,1-4.749,1.739c.635-2.425,1.254-4.832,1.889-7.257C33.155-110.338,34.627-110.623,36.115-110.957Z" transform="translate(5.246 119.356)"/>
            <path id="Path_2082" data-name="Path 2082" class="cls-24" d="M34.234-101.349l-.569,2.257a.061.061,0,0,1-.05.017c-.334.134-.652.251-.987.385-.2.067-.4.15-.6.217-.217.084-.435.15-.652.234-.184.067-.385.134-.569.2l-.451.15c-.117.033-.234.084-.351.117-.167.05-.351.117-.518.167s-.351.1-.535.15c.184-.719.368-1.421.552-2.14C31.107-100.112,32.7-100.714,34.234-101.349Z" transform="translate(5.522 116.086)"/>
            <path id="Path_2083" data-name="Path 2083" class="cls-24" d="M36.073-97.927h0c-.017,0-.033.017-.05.017A.061.061,0,0,0,36.073-97.927Z" transform="translate(3.115 114.921)"/>
            <path id="Path_2084" data-name="Path 2084" class="cls-17" d="M32.284-97.927,29.141-85.553a39.952,39.952,0,0,0-4.247-.6c.886-3.378,1.772-6.772,2.642-10.15.184-.05.351-.1.535-.15.167-.05.351-.1.518-.167a2.882,2.882,0,0,0,.351-.117l.451-.15c.184-.067.385-.134.569-.2.217-.084.435-.15.652-.234.2-.067.4-.15.6-.217.334-.117.669-.251.987-.385A.131.131,0,0,0,32.284-97.927Z" transform="translate(6.903 114.921)"/>
            <path id="Path_2085" data-name="Path 2085" class="cls-24" d="M33.589-97.1c.2-.067.4-.15.6-.217C33.99-97.252,33.789-97.168,33.589-97.1Z" transform="translate(3.943 114.714)"/>
            <path id="Path_2086" data-name="Path 2086" class="cls-24" d="M26.853-112.731c-.167.669-.351,1.338-.518,2.007a62.014,62.014,0,0,1-9.063.635q-1.655,0-3.16.05c0-.635-.017-1.271-.017-1.906,1.02-.033,2.09-.05,3.177-.05A63.572,63.572,0,0,0,26.853-112.731Z" transform="translate(10.579 119.96)"/>
            <path id="Path_2087" data-name="Path 2087" class="cls-17" d="M26.318-109.715c-.635,2.425-1.254,4.832-1.889,7.257-.936.3-1.873.552-2.809.786-2.642.652-5.117,1.2-7.458,1.639-.017-2.993-.05-6-.067-9.013q1.5-.05,3.16-.05A59.792,59.792,0,0,0,26.318-109.715Z" transform="translate(10.579 118.933)"/>
            <path id="Path_2088" data-name="Path 2088" class="cls-24" d="M31.738-96.434c.184-.067.385-.134.569-.2C32.106-96.567,31.922-96.5,31.738-96.434Z" transform="translate(4.573 114.481)"/>
            <path id="Path_2089" data-name="Path 2089" class="cls-24" d="M31.054-96.18l.451-.15Z" transform="translate(4.806 114.377)"/>
            <path id="Path_2090" data-name="Path 2090" class="cls-24" d="M24.463-98.713c-.184.719-.368,1.421-.552,2.14h0c-.033,0-.05.017-.067.017-.6.167-1.221.334-1.823.485-2.608.635-5.234,1.221-7.809,1.706,0-.652-.017-1.288-.017-1.94,2.341-.451,4.816-1,7.458-1.639C22.59-98.161,23.543-98.412,24.463-98.713Z" transform="translate(10.544 115.188)"/>
            <path id="Path_2091" data-name="Path 2091" class="cls-26" d="M23.928-95.468c-.886,3.378-1.772,6.772-2.642,10.15-1.254-.117-2.558-.167-3.9-.167-1.053,0-2.09.033-3.093.1l-.05-7.876c2.558-.485,5.184-1.07,7.809-1.706.6-.15,1.221-.318,1.823-.485A.129.129,0,0,0,23.928-95.468Z" transform="translate(10.527 114.084)"/>
            <path id="Path_2092" data-name="Path 2092" class="cls-10" d="M1.9-92.977l.05,7.876c-.619.05-1.221.1-1.823.167-8.177.92-14.213,4.047-14.213,7.792a3.841,3.841,0,0,0,.084.752,108.162,108.162,0,0,0-7.976-18.293C-18.367-90.6-8.752-90.953,1.9-92.977Z" transform="translate(22.858 113.816)"/>
            <path id="Path_2093" data-name="Path 2093" class="cls-24" d="M1.429-100.638c0,.652.017,1.288.017,1.94C-9.206-96.675-18.82-96.341-22.416-100.4h0c-.268-.5-.535-1-.819-1.488-.987-4.113,7.558-9.1,24.58-9.648,0,.635.017,1.271.017,1.906a57.236,57.236,0,0,0-15.918,2.408c-4.515,1.471-6.588,3.277-6.989,4.381-.067.2-.184.518.334,1.1,1.053,1.187,3.562,2.608,9.581,2.608A73.163,73.163,0,0,0,1.429-100.638Z" transform="translate(23.312 119.554)"/>
            <path id="Path_2094" data-name="Path 2094" class="cls-26" d="M2.233-108.675c.017,2.993.05,6,.067,9.013a71.44,71.44,0,0,1-13.076,1.488c-6.02,0-8.528-1.421-9.581-2.608-.518-.585-.4-.9-.334-1.1.4-1.1,2.475-2.909,6.989-4.381A57.622,57.622,0,0,1,2.233-108.675Z" transform="translate(22.44 118.579)"/>
          </g>
        </g>
      </g>
      <path id="Path_2095" data-name="Path 2095" class="cls-19" d="M36.778,34.357c-.585,2.174-2.876,4.2-6.421,5.9a42.75,42.75,0,0,1-7.825,2.759,68.546,68.546,0,0,1-6.989,1.438A105.186,105.186,0,0,1-.978,45.71a98.639,98.639,0,0,1-21.888-2.291c-.535-.134-1.07-.251-1.589-.385a14.166,14.166,0,0,1-9.615-9.447,53.243,53.243,0,0,1-1.722-6.254C-38.734,13.02-32.848-3-25.742-16.927c7.123-13.929,10.083-24.563,10.083-34.094a43.674,43.674,0,0,0-1.605-11.655,7.441,7.441,0,0,1-3.361-3.361c.585,1.94,1.1,3.863,1.488,5.752A41.339,41.339,0,0,1-18.3-46.373a52.411,52.411,0,0,1-1.823,10.166c-4.164,14.547-13.795,23.928-19.6,38.559A30.973,30.973,0,0,0-41.46,8.539a38.8,38.8,0,0,0-.518,8.611c.385,9.263,4.13,21.955,7.19,27a.016.016,0,0,0,.017.017c1.689,2.508,5.15,4.3,7.759,5.367h0C-19.2,52.75-8.971,53.853-.66,53.853a88.658,88.658,0,0,0,14.815-1.187c2.04-.351,3.98-.752,5.785-1.237a39.387,39.387,0,0,0,8.611-3.244c.619-.334,1.187-.686,1.706-1.037a11.124,11.124,0,0,0,3.16-2.976c.134-.234.268-.451.418-.686h0c.167-.418.318-.819.468-1.237.953-2.558,1.823-5.184,2.542-7.859Z" transform="translate(68.381 104.077)"/>
      <g id="Group_639" data-name="Group 639" transform="translate(78.357 71.051)">
        <path id="Path_2096" data-name="Path 2096" class="cls-5" d="M55.713,36.055c-.017.017-.05.017-.067.033a2.931,2.931,0,0,0-1.94,3.562A107.265,107.265,0,0,1,57.051,55.6a2.694,2.694,0,0,0,2.692,2.14h0a2.361,2.361,0,0,0,2.608-2.124,94.532,94.532,0,0,0-1.187-16.872C60.813,36.523,58.038,35.152,55.713,36.055Z" transform="translate(-42.522 -1.629)"/>
        <path id="Path_2097" data-name="Path 2097" class="cls-5" d="M37.077-9.657c.686,2.04,1.4,3.812,2.157,5.5a3.851,3.851,0,0,0,5.451,2.04.127.127,0,0,1,.067-.033A4.893,4.893,0,0,0,46.691-8c-.6-1.655-1.2-3.327-1.772-5.016A3.967,3.967,0,0,0,39.9-15.777c-.1.033-.184.067-.284.1A4.784,4.784,0,0,0,37.077-9.657Z" transform="translate(-36.811 15.991)"/>
      </g>
      <path id="Path_2098" data-name="Path 2098" class="cls-27" d="M-24.133,62.455a1.256,1.256,0,0,1-1.1-.719c-1.889-3.8-9.6-22.022,4.766-45.063,8.494-13.644,1.789-.552-2.859,17.156-3.6,13.628-.251,22.272.451,26.938a1.4,1.4,0,0,1-1.254,1.689Z" transform="translate(63.946 77.852)"/>
      <path id="Path_2099" data-name="Path 2099" class="cls-28" d="M26.057-75.97c-3.177-2.592-9.615-4.381-17.039-4.364-11.337.017-20.132,4.164-19.029,8.829C-8.2-65.737,3.149-64.232,9.034-64.232c4.682,0,10.283-.769,14.464-2.809,2.291-1.12,3.863-2.508,4.414-4.03.067-.418.15-.836.234-1.254h0A4.874,4.874,0,0,0,26.057-75.97Z" transform="translate(57.515 108.944)"/>
    </g>
  </g>
</svg>
