<svg xmlns="http://www.w3.org/2000/svg" viewBox="680 -674.004 240 236.004"><defs><style>.a{fill:#95989a;opacity:0;}.b{fill:#66a4d9;}.c{fill:#e2a389;}.d{fill:#fdd8cc;}.e{fill:#fbc6b3;}.f{fill:#c67d63;}.g{fill:#ae3e3a;}.h{fill:#922a31;}.i{fill:#ca5040;}.j{fill:#dc677d;}.k{fill:#d35c5f;}</style></defs><g transform="translate(553 -4385.18)"><rect class="a" width="240" height="236" transform="translate(127 3711.18)"/><circle class="b" cx="101.71" cy="101.71" r="101.71" transform="translate(145.573 3743.212)"/><g transform="translate(171.138 3781.669)"><g transform="translate(0 0)"><path class="c" d="M390.694,957.93v76.343a13.479,13.479,0,0,1-3.415,9.025L323.7,992.484,390.775,949.8v8.13Z" transform="translate(-235.568 -893.701)"/><path class="d" d="M370.426,949.8l-67.075,42.684-2.033-1.626a13.524,13.524,0,0,0-8.455-2.927,13.693,13.693,0,0,0-8.456,2.927l-2.032,1.626L215.3,949.8Z" transform="translate(-215.3 -893.701)"/><path class="e" d="M370.445,936.9H215.4l77.482-56.1Z" transform="translate(-215.319 -880.8)"/></g></g><g transform="translate(171.138 3837.767)"><path class="f" d="M293.667,996.7a13.694,13.694,0,0,0-8.456,2.927l-2.033,1.626L219.6,1051.986a13.445,13.445,0,0,0,10.082,4.472H357.652a13.576,13.576,0,0,0,10.081-4.472l-63.579-50.733-2.033-1.626A13.526,13.526,0,0,0,293.667,996.7Z" transform="translate(-216.104 -958.569)"/><g transform="translate(0 0)"><path class="c" d="M215.381,957.93v76.343a13.479,13.479,0,0,0,3.415,9.025l63.579-50.814L215.3,949.8v8.13Z" transform="translate(-215.3 -949.8)"/></g></g><g transform="translate(127.848 3711.176)"><g transform="translate(0)"><path class="g" d="M282.131,806c13.09,13.008,9.512,33.822,6.179,50.57-.406,1.951-1.057,4.634-1.951,7.724L244,860.717Z" transform="translate(-177.376 -796.322)"/><path class="h" d="M279.1,803.774l-38.131,54.717-12.846-27.48h0c-.65-8.537-.976-18.131,4.309-25.366C243.728,790.115,266.168,791.01,279.1,803.774Z" transform="translate(-174.341 -794.096)"/><path class="i" d="M215.752,836.493l12.846,27.48L162.173,858.2v-.163c-1.545-18.13,12.277-35.855,31.383-34.554C202.58,824.054,209.654,830.476,215.752,836.493Z" transform="translate(-162.055 -799.578)"/></g><g transform="translate(0.199 58.623)"><path class="j" d="M238.391,873.3l23.171,49.839c-35.042-9.513-37.887-10.813-47.562-14.96Z" transform="translate(-171.966 -867.527)"/><path class="k" d="M228.724,871.973l-24.472,34.8c-3.008-1.382-5.447-2.6-7.236-3.5-14.878-8.211-33.09-18.781-34.716-37.074Z" transform="translate(-162.3 -866.2)"/></g><path class="i" d="M244,873.3l23.171,49.839c15.285-32.928,16.179-36.017,19.188-46.18Z" transform="translate(-177.376 -808.905)"/></g></g></svg>