<svg xmlns="http://www.w3.org/2000/svg" viewBox="0 0 328 29.773"><defs><style>.a{fill:#74417c;}</style></defs><title>Asset 1</title><path class="a" d="M192.061,29.773a3,3,0,0,0,.3-.891q.025-12.662.017-25.322c0-.953.262-1.013,3.957-.884v.8q0,12.731,0,25.46a7.574,7.574,0,0,0,.088.832Z"/><path class="a" d="M159.011,29.773a3.006,3.006,0,0,0,.3-.891q.024-12.445.016-24.891c0-.936.415-1.025,3.958-.811v.8q0,12.48,0,24.961a7.8,7.8,0,0,0,.087.831Z"/><path class="a" d="M71.087,29.773a3.009,3.009,0,0,0,.3-.89q.025-11.992.018-23.984c0-.886.281-.949,3.956-.873v.793q0,12.062,0,24.123a7.8,7.8,0,0,0,.087.831Z"/><path class="a" d="M27.437,29.773a3.034,3.034,0,0,0,.3-.891q.024-14.084,0-28.166c0-.442-.21-.9,3.347-.638V.844q0,14.015,0,28.028a8.888,8.888,0,0,0,.088.9Z"/><path class="a" d="M38.038,29.773a3.034,3.034,0,0,0,.3-.891q.024-11.82.016-23.642c0-.95.312-1.023,3.957-.877v.8q0,11.89,0,23.781a7.556,7.556,0,0,0,.088.831Z"/><path class="a" d="M93.536,29.773a3.038,3.038,0,0,0,.3-.89q.024-13.414.013-26.827V1.114h3.337v.863q0,13.448,0,26.9a8.841,8.841,0,0,0,.088.9Z"/><path class="a" d="M148.411,29.773a3,3,0,0,0,.3-.891q.024-13.416.013-26.831V1.11l2.859-.049c.188.1.4.156.409.218a3.565,3.565,0,0,1,.067.762q0,13.416.006,26.831a8.86,8.86,0,0,0,.088.9Z"/><path class="a" d="M137.186,29.773a3.006,3.006,0,0,0,.3-.891c.017-7.4.009-14.79.018-22.185,0-.873.374-.951,3.956-.807v.8q0,11.127,0,22.255a8.077,8.077,0,0,0,.088.831Z"/><path class="a" d="M104.137,29.773a3,3,0,0,0,.3-.891c.018-7.052.01-14.1.019-21.155,0-.869.3-.924,3.955-.748v.808q0,10.577,0,21.154a7.574,7.574,0,0,0,.088.832Z"/><path class="a" d="M16.213,29.773a3.006,3.006,0,0,0,.3-.89c.017-8.109.01-16.217.025-24.326,0-.444-.41-.991,3.326-.843v.833q0,12.2,0,24.4a8.077,8.077,0,0,0,.088.831Z"/><path class="a" d="M279.985,29.773a3.031,3.031,0,0,0,.3-.891q.027-9.917.014-19.834c0-.185-.244-.393.059-.549a4.955,4.955,0,0,1,2.079-.676c2.3-.1,1.81.36,1.81.661q.023,10.228.016,20.458a7.556,7.556,0,0,0,.088.831Z"/><path class="a" d="M82.312,29.773a3,3,0,0,0,.3-.891c.017-7.747.008-15.495.028-23.242,0-.438-.389-.983,3.322-.86v.85q0,11.657,0,23.311a8.125,8.125,0,0,0,.088.832Z"/><path class="a" d="M60.487,29.773a3.031,3.031,0,0,0,.3-.891Q60.811,17.3,60.8,5.713V4.83c3.489-.265,3.351.2,3.35.665q-.027,10.718-.009,21.435c0,.947.058,1.895.088,2.843Z"/><path class="a" d="M22.449,29.773V.041L25.228,0c.206.106.4.165.428.228a1.342,1.342,0,0,1,.054.485q0,14.255-.005,28.507a2.333,2.333,0,0,1-.138.553Z"/><path class="a" d="M125.962,29.773a3,3,0,0,0,.3-.891c.018-6.429.009-12.857.02-19.286,0-.873.337-.941,3.954-.815v.8q0,9.678,0,19.355a7.574,7.574,0,0,0,.088.832Z"/><path class="a" d="M154.023,29.773V.809l3.018-.046a1.772,1.772,0,0,1,.234.571q.016,14.013,0,28.025a1.4,1.4,0,0,1-.137.414Z"/><path class="a" d="M99.148,29.773V1.255l3.065-.034a2.333,2.333,0,0,1,.19.6q.012,13.769,0,27.535a1.4,1.4,0,0,1-.138.414Z"/><path class="a" d="M170.236,29.773a3,3,0,0,0,.3-.891c.017-7.188.008-14.377.027-21.565,0-.44-.416-.991,3.323-.852v.842q0,10.817,0,21.635a7.808,7.808,0,0,0,.088.831Z"/><path class="a" d="M225.11,29.773a3.009,3.009,0,0,0,.3-.89c.018-5.96.009-11.92.018-17.88,0-.884.282-.947,4.047-.869V29.773Z"/><path class="a" d="M143.422,29.773V2.333l3.017-.045a1.824,1.824,0,0,1,.236.571q.015,13.251,0,26.5a1.4,1.4,0,0,1-.138.414Z"/><path class="a" d="M302.433,29.773a3.009,3.009,0,0,0,.3-.89q.026-10.532.013-21.064V6.9h3.337v.84q0,10.6,0,21.2a7.556,7.556,0,0,0,.088.831Z"/><path class="a" d="M313.034,29.773a3.034,3.034,0,0,0,.3-.891c.018-5.92.008-11.84.019-17.76,0-.872.337-.941,4.046-.811V29.773Z"/><path class="a" d="M115.361,29.773a3.029,3.029,0,0,0,.3-.89q.025-10.321.013-20.643V7.368l3.337-.062v.785c0,4.988-.009,9.976,0,14.963.006,2.24.057,4.479.088,6.719Z"/><path class="a" d="M187.072,29.773V3.405h3.094a2.308,2.308,0,0,1,.162.574q.011,12.69,0,25.38a1.4,1.4,0,0,1-.138.414Z"/><path class="a" d="M247.559,29.773a3,3,0,0,0,.3-.891q.027-10.058.014-20.116V7.883c3.066-.239,3.363.1,3.36.6-.035,6.821-.025,13.641-.019,20.462a7.823,7.823,0,0,0,.087.832Z"/><path class="a" d="M269.384,29.773a3,3,0,0,0,.3-.891q.027-9.987.014-19.974V7.984h3.337v.845q0,10.056,0,20.112a7.8,7.8,0,0,0,.087.832Z"/><path class="a" d="M77.323,29.773V3.713l3.11-.038a2.844,2.844,0,0,1,.147.6q.009,12.543,0,25.084a1.4,1.4,0,0,1-.138.414Z"/><path class="a" d="M181.46,29.773a3,3,0,0,0,.3-.89q.027-9.838.014-19.676V8.284h3.337v.844q0,9.907,0,19.814a7.556,7.556,0,0,0,.088.831Z"/><path class="a" d="M66.1,29.773V4.163l3-.048c.1.22.25.4.25.574q.016,12.336,0,24.67a1.4,1.4,0,0,1-.137.414Z"/><path class="a" d="M11.224,29.773V5.69l3-.048c.1.219.249.4.249.574q.018,11.571,0,23.143a1.4,1.4,0,0,1-.138.414Z"/><path class="a" d="M49.262,29.773a3,3,0,0,0,.3-.89c.018-6.074.008-12.147.024-18.221,0-.445-.408-.991,3.326-.843v.833q0,9.146,0,18.29a7.556,7.556,0,0,0,.088.831Z"/><path class="a" d="M165.247,29.773V6.458h3.094a2.313,2.313,0,0,1,.162.573q.011,11.165,0,22.328a1.4,1.4,0,0,1-.138.414Z"/><path class="a" d="M198.3,29.773V6.618l3.1-.039a2.627,2.627,0,0,1,.159.6q.011,11.088,0,22.178a1.4,1.4,0,0,1-.138.414Z"/><path class="a" d="M110.373,29.773V6.912l3.017-.045a1.819,1.819,0,0,1,.235.571q.016,10.961,0,21.921a1.4,1.4,0,0,1-.138.414Z"/><path class="a" d="M132.2,29.773V7.36l3.065-.034a2.367,2.367,0,0,1,.19.6q.012,10.715,0,21.429a1.4,1.4,0,0,1-.137.414Z"/><path class="a" d="M258.16,29.773a3.035,3.035,0,0,0,.3-.89c.019-4.759.008-9.518.019-14.277,0-.861.476-.951,4.047-.736v15.9Z"/><path class="a" d="M275,29.773V8.144l3.1-.039a2.174,2.174,0,0,1,.16.532q.009,10.4,0,20.792a1.059,1.059,0,0,1-.136.344Z"/><path class="a" d="M253.171,29.773V8.59l2.984-.046c.106.193.266.348.266.5q.018,10.191,0,20.383a1.059,1.059,0,0,1-.136.344Z"/><path class="a" d="M4.989,29.773a2.645,2.645,0,0,0,.3-.821c.019-4.48.014-8.959.014-13.439,0-.525.076-1.032,4.052-.778V29.773Z"/><path class="a" d="M308.046,29.773V9.063L310.8,8.98c.2.117.452.2.458.283.044.623.049,1.247.049,1.871q0,8.9,0,17.81a4.9,4.9,0,0,1-.139.829Z"/><path class="a" d="M297.445,29.773V9.2l2.955-.044c.125.153.288.261.289.369.018,1.873.018,3.745.018,5.618q0,6.9,0,13.8a5.1,5.1,0,0,1-.139.83Z"/><path class="a" d="M88.548,29.773q0-12.4,0-24.81c0-.208-.1-.422.1-.621a3.406,3.406,0,0,1,1.214-.205,4.008,4.008,0,0,1,1.229.21c.219.092.094.226.094.341q0,12.405-.009,24.81c0,.092-.087.183-.133.275Z"/><path class="a" d="M44.274,29.773V9.511h3.1a1.856,1.856,0,0,1,.159.5q.011,9.706,0,19.414a1.056,1.056,0,0,1-.135.344Z"/><path class="a" d="M214.51,29.773a2.65,2.65,0,0,0,.3-.822c.018-5.018.013-10.036.013-15.054v-.873h3.429V29.773Z"/><path class="a" d="M203.285,29.773a3.064,3.064,0,0,0,.3-.891c.019-4.854.006-9.709.025-14.563,0-.442-.344-.979,3.417-.841v16.3Z"/><path class="a" d="M291.209,29.773a3.031,3.031,0,0,0,.3-.891c.019-4.854.007-9.709.026-14.563,0-.442-.345-.979,3.417-.841v16.3Z"/><path class="a" d="M286.221,29.773V10.728l3-.047c.1.226.251.4.252.579.013,3.652.028,7.3,0,10.957-.016,2.518-.09,5.037-.139,7.556Z"/><path class="a" d="M231.346,29.773V10.725l3-.044c.1.225.254.4.255.578.014,3.467.029,6.935,0,10.4-.019,2.7-.091,5.408-.139,8.112Z"/><path class="a" d="M33.049,29.773V11.037h3.1a1.929,1.929,0,0,1,.159.5q.011,8.943,0,17.888a1.037,1.037,0,0,1-.136.344Z"/><path class="a" d="M264.4,29.773V11.641l2.981-.044c.108.192.269.347.269.5q.02,8.666,0,17.331a1.037,1.037,0,0,1-.136.344Z"/><path class="a" d="M55.5,29.773q0-10.564,0-21.129c0-.207-.1-.421.1-.62a3.36,3.36,0,0,1,1.216-.209,3.969,3.969,0,0,1,1.222.214c.218.092.1.226.1.341q0,10.565-.009,21.128c0,.092-.086.183-.133.275Z"/><path class="a" d="M176.471,29.773V8.2c1.56-.145,2.668-.178,2.635.3-.006.093,0,.185,0,.277q0,10.259-.006,20.515a1.83,1.83,0,0,1-.138.483Z"/><path class="a" d="M220.122,29.773V12.723l3.095-.039a2.13,2.13,0,0,1,.16.532q.01,8.106,0,16.213a1.056,1.056,0,0,1-.135.344Z"/><path class="a" d="M120.973,29.773v-16.6l2.984-.046c.106.193.266.348.267.5q.018,7.9,0,15.8a1.059,1.059,0,0,1-.136.344Z"/><path class="a" d="M0,29.773V13.321l2.971-.047c.112.2.279.349.279.5q.019,7.827,0,15.652a1.073,1.073,0,0,1-.136.344Z"/><path class="a" d="M209.521,29.773V10.484c1.624-.191,2.628-.175,2.633.288,0,.093.006.185.006.278q0,9.12-.006,18.24a1.872,1.872,0,0,1-.139.483Z"/><path class="a" d="M319.27,29.773V15.144l3.053-.034a1.843,1.843,0,0,1,.2.535q.012,6.927,0,13.853c0,.092-.087.183-.133.275Z"/><path class="a" d="M242.57,29.773V11.565c2.791-.309,2.64.09,2.639.452,0,2.1.017,4.208,0,6.313-.036,3.814-.093,7.628-.141,11.443Z"/><path class="a" d="M236.335,29.773a2.7,2.7,0,0,0,.3-.82c.022-2.817.013-5.633.013-8.45v-.784h3.429V29.773Z"/><path class="a" d="M324.259,29.773c.1-1.129.257-2.257.3-3.386.052-1.386,0-2.772.026-4.158a.524.524,0,0,1,.365-.606,8.225,8.225,0,0,1,1.948-.231,1.922,1.922,0,0,1,.961.343c.167.2.047.414.049.622q.047,3.708.092,7.416Z"/></svg>